<?xml version="1.0" encoding="UTF-8"?>
<svg width="487px" height="362px" viewBox="0 0 487 362" version="1.1" xmlns="http://www.w3.org/2000/svg" xmlns:xlink="http://www.w3.org/1999/xlink">
    <!-- Generator: Sketch 42 (36781) - http://www.bohemiancoding.com/sketch -->
    <title>Data</title>
    <desc>Created with Sketch.</desc>
    <defs></defs>
    <g id="Page-1" stroke="none" stroke-width="1" fill="none" fill-rule="evenodd">
        <g id="Home_page:-State_Active" transform="translate(-135.000000, -2042.000000)">
            <g id="Data" transform="translate(136.000000, 2043.000000)">
                <g id="Group-11" stroke="#0DC7AD" fill="#0DC7AD" opacity="0.35082654">
                    <g id="Group-4">
                        <ellipse id="Oval-3" cx="224.409611" cy="50.412844" rx="15.409611" ry="15.412844"></ellipse>
                        <ellipse id="Oval-3" cx="122.874142" cy="66.0550459" rx="11.006865" ry="11.0091743"></ellipse>
                        <ellipse id="Oval-3" cx="390.627002" cy="170.921437" rx="9.62700229" ry="9.62902211"></ellipse>
                        <ellipse id="Oval-3" cx="224.687643" cy="10.4587156" rx="10.4565217" ry="10.4587156"></ellipse>
                        <ellipse id="Oval-3" cx="425.562929" cy="342.385321" rx="8.80549199" ry="8.80733945"></ellipse>
                        <ellipse id="Oval-3" cx="84.9004577" cy="346.238532" rx="9.35583524" ry="9.35779817"></ellipse>
                        <ellipse id="Oval-3" cx="121.773455" cy="276.330275" rx="13.208238" ry="13.2110092"></ellipse>
                        <ellipse id="Oval-3" cx="418.95881" cy="89.1743119" rx="6.60411899" ry="6.60550459"></ellipse>
                        <ellipse id="Oval-3" cx="8.402746" cy="251.009174" rx="4.402746" ry="4.40366972"></ellipse>
                        <ellipse id="Oval-3" cx="327.601831" cy="355.59633" rx="4.402746" ry="4.40366972"></ellipse>
                        <ellipse id="Oval-3" cx="9.51635202" cy="184.518349" rx="9.51635202" ry="9.51834862"></ellipse>
                        <ellipse id="Oval-3" cx="62.7723112" cy="140.252532" rx="12.7723112" ry="12.7749909"></ellipse>
                        <ellipse id="Oval-3" cx="320.136537" cy="34.8623853" rx="5.13653699" ry="5.13761468"></ellipse>
                        <ellipse id="Oval-3" cx="475.644165" cy="189.908257" rx="9.35583524" ry="9.35779817"></ellipse>
                        <ellipse id="Oval-3" cx="218.083524" cy="290.091743" rx="9.35583524" ry="9.35779817"></ellipse>
                        <ellipse id="Oval-3" cx="442.62357" cy="206.422018" rx="9.35583524" ry="9.35779817"></ellipse>
                        <ellipse id="Oval-3" cx="93.1556064" cy="231.192661" rx="12.1075515" ry="12.1100917"></ellipse>
                        <path d="M94.8066362,231.743119 L168.552632,213.027523" id="Line" stroke-linecap="square"></path>
                        <path d="M222.48627,9.35779817 L226.889016,150.275229" id="Line" stroke-linecap="square"></path>
                        <path d="M19.5,35.5 L120.122426,65.5045872" id="Line" stroke-linecap="square"></path>
                        <path d="M94.8066362,231.743119 L63.9874142,137.06422" id="Line" stroke-linecap="square"></path>
                        <path d="M11.5,182.5 L63.9874142,137.06422" id="Line" stroke-linecap="square"></path>
                        <path d="M94.8066362,231.743119 L84.9004577,346.238532" id="Line" stroke-linecap="square"></path>
                        <path d="M120.122426,279.082569 L84.9004577,346.238532" id="Line" stroke-linecap="square"></path>
                        <path d="M389.790618,172.293578 L324.850114,355.045872" id="Line" stroke-linecap="square"></path>
                        <path d="M390.5,169.5 L417.30778,91.9266055" id="Line" stroke-linecap="square"></path>
                        <path d="M389.790618,172.293578 L316.044622,80.9174312" id="Line" stroke-linecap="square"></path>
                        <path d="M389.790618,172.293578 L316.044622,80.9174312" id="Line" stroke-linecap="square"></path>
                        <path d="M416.5,91.5 L316.044622,80.9174312" id="Line" stroke-linecap="square"></path>
                        <path d="M475.5,186.5 L316.044622,80.9174312" id="Line" stroke-linecap="square"></path>
                        <path d="M225.78833,11.559633 L316.5,34.5" id="Line" stroke-linecap="square"></path>
                        <path d="M356.5,10.5 L319.5,36.5" id="Line" stroke-linecap="square"></path>
                        <path d="M256.607551,155.779817 L321.5,35.5" id="Line" stroke-linecap="square"></path>
                        <path d="M126.726545,65.5045872 L321.5,35.5" id="Line" stroke-linecap="square"></path>
                        <path d="M119.5,66.5 L56.5,138.5" id="Line" stroke-linecap="square"></path>
                        <path d="M126.726545,65.5045872 L95.9073227,228.440367" id="Line" stroke-linecap="square"></path>
                        <path d="M8.95308924,250.458716 L95.9073227,228.440367" id="Line" stroke-linecap="square"></path>
                        <path d="M8.95308924,251.559633 L216.5,287.5" id="Line" stroke-linecap="square"></path>
                        <path d="M220.5,292.5 L324.850114,355.045872" id="Line" stroke-linecap="square"></path>
                        <path d="M232.392449,227.33945 L220.284897,284.587156" id="Line" stroke-linecap="square"></path>
                        <path d="M89.3032037,345.137615 L220.284897,284.587156" id="Line" stroke-linecap="square"></path>
                        <path d="M86.0011442,344.036697 L8.5,302.5" id="Line" stroke-linecap="square"></path>
                        <path d="M391.991991,171.192661 L423.911899,346.238532" id="Line" stroke-linecap="square"></path>
                        <path d="M440.422197,209.724771 L423.911899,346.238532" id="Line" stroke-linecap="square"></path>
                        <path d="M440.422197,209.724771 L474.543478,189.908257" id="Line" stroke-linecap="square"></path>
                        <path d="M440.422197,209.724771 L311.641876,196.513761" id="Line" stroke-linecap="square"></path>
                    </g>
                </g>
                <g id="Group-15" transform="translate(177.000000, 106.000000)" fill="#007373">
                    <polygon id="Shape" points="18.171 86.307 20.592 86.307 20.592 97.933 24.374 97.933 24.374 83.123 18.171 83.123"></polygon>
                    <polygon id="Shape" points="18.171 103.554 20.592 103.554 20.592 115.18 24.374 115.18 24.374 100.37 18.171 100.37"></polygon>
                    <polygon id="Shape" points="29.707 86.307 32.128 86.307 32.128 97.933 35.91 97.933 35.91 83.123 29.707 83.123"></polygon>
                    <polygon id="Shape" points="91.854 86.307 94.277 86.307 94.277 97.933 98.059 97.933 98.059 83.123 91.854 83.123"></polygon>
                    <polygon id="Shape" points="91.854 103.554 94.277 103.554 94.277 115.18 98.059 115.18 98.059 100.37 91.854 100.37"></polygon>
                    <path d="M97.278,65.688 C96.578,65.388 95.777,65.208 95.017,65.208 C94.257,65.208 93.496,65.369 92.775,65.65 C90.534,66.549 89.434,68.449 89.434,70.832 L89.434,74.953 C89.434,77.316 90.555,79.197 92.756,80.117 C93.476,80.419 94.235,80.577 95.017,80.577 C95.857,80.577 96.697,80.395 97.458,80.038 C99.54,79.078 100.479,77.175 100.479,74.953 L100.479,70.832 C100.479,68.511 99.438,66.63 97.278,65.688 Z M96.697,75.056 C96.697,76.215 96.317,77.254 94.956,77.254 C93.655,77.254 93.217,76.194 93.217,75.056 L93.217,70.733 C93.217,69.611 93.655,68.531 94.956,68.531 C96.317,68.531 96.697,69.571 96.697,70.733 L96.697,75.056 Z" id="Shape"></path>
                    <polygon id="Shape" points="75.262 97.933 75.262 83.123 69.06 83.123 69.06 86.307 71.48 86.307 71.48 97.933"></polygon>
                    <polygon id="Shape" points="80.595 86.307 83.016 86.307 83.016 97.933 86.799 97.933 86.799 83.123 80.595 83.123"></polygon>
                    <path d="M74.482,100.571 C73.781,100.273 72.982,100.092 72.221,100.092 C71.459,100.092 70.699,100.251 69.98,100.532 C67.739,101.432 66.636,103.333 66.636,105.713 L66.636,109.837 C66.636,112.197 67.758,114.081 69.959,115.001 C70.678,115.3 71.439,115.461 72.221,115.461 C73.062,115.461 73.901,115.279 74.66,114.919 C76.742,113.959 77.682,112.059 77.682,109.837 L77.682,105.713 C77.684,103.393 76.644,101.515 74.482,100.571 Z M73.901,109.937 C73.901,111.099 73.522,112.138 72.16,112.138 C70.86,112.138 70.421,111.078 70.421,109.937 L70.421,105.617 C70.421,104.495 70.86,103.413 72.16,103.413 C73.522,103.413 73.901,104.456 73.901,105.617 L73.901,109.937 Z" id="Shape"></path>
                    <path d="M10.228,83.324 C9.527,83.023 8.727,82.845 7.965,82.845 C7.205,82.845 6.445,83.003 5.726,83.284 C3.484,84.184 2.383,86.085 2.383,88.469 L2.383,92.59 C2.383,94.95 3.504,96.831 5.705,97.754 C6.426,98.052 7.186,98.211 7.965,98.211 C8.807,98.211 9.647,98.032 10.406,97.672 C12.488,96.711 13.428,94.812 13.428,92.59 L13.428,88.469 C13.429,86.145 12.388,84.265 10.228,83.324 Z M9.646,92.689 C9.646,93.851 9.266,94.89 7.905,94.89 C6.605,94.89 6.165,93.828 6.165,92.689 L6.165,88.366 C6.165,87.247 6.605,86.168 7.905,86.168 C9.266,86.168 9.646,87.207 9.646,88.366 L9.646,92.689 L9.646,92.689 Z" id="Shape"></path>
                    <g id="Group-14" transform="translate(4.000000, 65.000000)">
                        <polygon id="Shape" points="7.007 15.299 7.007 0.49 0.804 0.49 0.804 3.671 3.226 3.671 3.226 15.299"></polygon>
                        <polygon id="Shape" points="25.707 3.671 28.128 3.671 28.128 15.299 31.91 15.299 31.91 0.49 25.707 0.49"></polygon>
                        <path d="M19.594,0.688 C18.893,0.388 18.094,0.208 17.332,0.208 C16.572,0.208 15.812,0.369 15.091,0.65 C12.85,1.549 11.749,3.449 11.749,5.832 L11.749,9.953 C11.749,12.316 12.87,14.197 15.071,15.117 C15.791,15.419 16.551,15.577 17.332,15.577 C18.173,15.577 19.013,15.395 19.773,15.038 C21.855,14.078 22.795,12.175 22.795,9.953 L22.795,5.832 C22.795,3.511 21.755,1.63 19.594,0.688 Z M19.013,10.056 C19.013,11.215 18.633,12.254 17.272,12.254 C15.971,12.254 15.531,11.194 15.531,10.056 L15.531,5.733 C15.531,4.611 15.971,3.531 17.272,3.531 C18.633,3.531 19.013,4.571 19.013,5.733 L19.013,10.056 Z" id="Shape"></path>
                        <polygon id="Shape" points="44.418 15.299 44.418 0.49 38.215 0.49 38.215 3.671 40.637 3.671 40.637 15.299"></polygon>
                    </g>
                    <g id="Group-14" transform="translate(54.000000, 46.000000)">
                        <polygon id="Shape" points="6.203 33.809 6.203 19 0 19 0 22.181 2.422 22.181 2.422 33.809"></polygon>
                        <polygon id="Shape" points="25 22.181 27.421 22.181 27.421 33.809 31.203 33.809 31.203 19 25 19"></polygon>
                        <path d="M18.845,19.48 C18.144,19.18 17.345,19 16.583,19 C15.823,19 15.063,19.161 14.342,19.442 C12.101,20.341 11,22.241 11,24.624 L11,28.745 C11,31.108 12.121,32.989 14.322,33.909 C15.042,34.211 15.802,34.369 16.583,34.369 C17.424,34.369 18.264,34.187 19.024,33.83 C21.106,32.87 22.046,30.967 22.046,28.745 L22.046,24.624 C22.046,22.303 21.006,20.422 18.845,19.48 Z M18.264,28.848 C18.264,30.007 17.884,31.046 16.523,31.046 C15.222,31.046 14.782,29.986 14.782,28.848 L14.782,24.525 C14.782,23.403 15.222,22.323 16.523,22.323 C17.884,22.323 18.264,23.363 18.264,24.525 L18.264,28.848 Z" id="Shape"></path>
                        <polygon id="Shape" points="43.418 15.299 43.418 0.49 37.215 0.49 37.215 3.671 39.637 3.671 39.637 15.299"></polygon>
                    </g>
                    <g id="Group-14" transform="translate(4.000000, 46.000000)">
                        <polygon id="Shape" points="7.007 15.299 7.007 0.49 0.804 0.49 0.804 3.671 3.226 3.671 3.226 15.299"></polygon>
                        <polygon id="Shape" points="25.707 3.671 28.128 3.671 28.128 15.299 31.91 15.299 31.91 0.49 25.707 0.49"></polygon>
                        <path d="M19.594,0.688 C18.893,0.388 18.094,0.208 17.332,0.208 C16.572,0.208 15.812,0.369 15.091,0.65 C12.85,1.549 11.749,3.449 11.749,5.832 L11.749,9.953 C11.749,12.316 12.87,14.197 15.071,15.117 C15.791,15.419 16.551,15.577 17.332,15.577 C18.173,15.577 19.013,15.395 19.773,15.038 C21.855,14.078 22.795,12.175 22.795,9.953 L22.795,5.832 C22.795,3.511 21.755,1.63 19.594,0.688 Z M19.013,10.056 C19.013,11.215 18.633,12.254 17.272,12.254 C15.971,12.254 15.531,11.194 15.531,10.056 L15.531,5.733 C15.531,4.611 15.971,3.531 17.272,3.531 C18.633,3.531 19.013,4.571 19.013,5.733 L19.013,10.056 Z" id="Shape"></path>
                        <polygon id="Shape" points="44.418 15.299 44.418 0.49 38.215 0.49 38.215 3.671 40.637 3.671 40.637 15.299"></polygon>
                    </g>
                    <polygon id="Shape" points="55.582 86.307 58.004 86.307 58.004 97.933 61.785 97.933 61.785 83.123 55.582 83.123"></polygon>
                    <polygon id="Shape" points="55.582 103.554 58.004 103.554 58.004 115.18 61.785 115.18 61.785 100.37 55.582 100.37"></polygon>
                    <path d="M47.639,83.324 C46.937,83.023 46.138,82.845 45.376,82.845 C44.616,82.845 43.856,83.003 43.136,83.284 C40.894,84.184 39.794,86.085 39.794,88.469 L39.794,92.59 C39.794,94.95 40.915,96.831 43.116,97.754 C43.837,98.052 44.597,98.211 45.376,98.211 C46.218,98.211 47.058,98.032 47.817,97.672 C49.899,96.711 50.839,94.812 50.839,92.59 L50.839,88.469 C50.84,86.145 49.799,84.265 47.639,83.324 Z M47.058,92.689 C47.058,93.851 46.678,94.89 45.317,94.89 C44.017,94.89 43.577,93.828 43.577,92.689 L43.577,88.366 C43.577,87.247 44.017,86.168 45.317,86.168 C46.678,86.168 47.058,87.207 47.058,88.366 L47.058,92.689 Z" id="Shape"></path>
                    <polygon id="Shape" points="8.203 130.27 8.203 115.461 2 115.461 2 118.642 4.422 118.642 4.422 130.27"></polygon>
                    <polygon id="Shape" points="27 118.642 29.421 118.642 29.421 130.27 33.203 130.27 33.203 115.461 27 115.461"></polygon>
                    <polygon id="Shape" points="16 136.645 18.421 136.645 18.421 148.271 22.203 148.271 22.203 133.461 16 133.461"></polygon>
                    <polygon id="Shape" points="27 136.645 29.421 136.645 29.421 148.271 33.203 148.271 33.203 133.461 27 133.461"></polygon>
                    <path d="M20.845,115.941 C20.144,115.641 19.345,115.461 18.583,115.461 C17.823,115.461 17.063,115.622 16.342,115.903 C14.101,116.802 13,118.702 13,121.085 L13,125.206 C13,127.569 14.121,129.45 16.322,130.37 C17.042,130.672 17.802,130.83 18.583,130.83 C19.424,130.83 20.264,130.648 21.024,130.291 C23.106,129.331 24.046,127.428 24.046,125.206 L24.046,121.085 C24.046,118.764 23.006,116.883 20.845,115.941 Z M20.264,125.309 C20.264,126.468 19.884,127.507 18.523,127.507 C17.222,127.507 16.782,126.447 16.782,125.309 L16.782,120.986 C16.782,119.864 17.222,118.784 18.523,118.784 C19.884,118.784 20.264,119.824 20.264,120.986 L20.264,125.309 Z" id="Shape"></path>
                    <polygon id="Shape" points="89 136.645 91.423 136.645 91.423 148.271 95.205 148.271 95.205 133.461 89 133.461"></polygon>
                    <path d="M94.844,115.941 C94.144,115.641 93.343,115.461 92.583,115.461 C91.823,115.461 91.062,115.622 90.341,115.903 C88.1,116.802 87,118.702 87,121.085 L87,125.206 C87,127.569 88.121,129.45 90.322,130.37 C91.042,130.672 91.801,130.83 92.583,130.83 C93.423,130.83 94.263,130.648 95.024,130.291 C97.106,129.331 98.045,127.428 98.045,125.206 L98.045,121.085 C98.045,118.764 97.004,116.883 94.844,115.941 Z M94.263,125.309 C94.263,126.468 93.883,127.507 92.522,127.507 C91.221,127.507 90.783,126.447 90.783,125.309 L90.783,120.986 C90.783,119.864 91.221,118.784 92.522,118.784 C93.883,118.784 94.263,119.824 94.263,120.986 L94.263,125.309 Z" id="Shape"></path>
                    <polygon id="Shape" points="73.202 148.271 73.202 133.461 67 133.461 67 136.645 69.42 136.645 69.42 148.271"></polygon>
                    <polygon id="Shape" points="78 136.645 80.421 136.645 80.421 148.271 84.204 148.271 84.204 133.461 78 133.461"></polygon>
                    <path d="M7.845,132.94 C7.144,132.639 6.344,132.461 5.582,132.461 C4.822,132.461 4.062,132.619 3.343,132.9 C1.101,133.8 0,135.701 0,138.085 L0,142.206 C0,144.566 1.121,146.447 3.322,147.37 C4.043,147.668 4.803,147.827 5.582,147.827 C6.424,147.827 7.264,147.648 8.023,147.288 C10.105,146.327 11.045,144.428 11.045,142.206 L11.045,138.085 C11.046,135.761 10.005,133.881 7.845,132.94 Z M7.263,142.305 C7.263,143.467 6.883,144.506 5.522,144.506 C4.222,144.506 3.782,143.444 3.782,142.305 L3.782,137.982 C3.782,136.863 4.222,135.784 5.522,135.784 C6.883,135.784 7.263,136.823 7.263,137.982 L7.263,142.305 L7.263,142.305 Z" id="Shape"></path>
                    <polygon id="Shape" points="46.203 130.27 46.203 115.461 40 115.461 40 118.642 42.422 118.642 42.422 130.27"></polygon>
                    <polygon id="Shape" points="53 136.645 55.422 136.645 55.422 148.271 59.203 148.271 59.203 133.461 53 133.461"></polygon>
                    <path d="M44.845,132.94 C44.143,132.639 43.344,132.461 42.582,132.461 C41.822,132.461 41.062,132.619 40.342,132.9 C38.1,133.8 37,135.701 37,138.085 L37,142.206 C37,144.566 38.121,146.447 40.322,147.37 C41.043,147.668 41.803,147.827 42.582,147.827 C43.424,147.827 44.264,147.648 45.023,147.288 C47.105,146.327 48.045,144.428 48.045,142.206 L48.045,138.085 C48.046,135.761 47.005,133.881 44.845,132.94 Z M44.264,142.305 C44.264,143.467 43.884,144.506 42.523,144.506 C41.223,144.506 40.783,143.444 40.783,142.305 L40.783,137.982 C40.783,136.863 41.223,135.784 42.523,135.784 C43.884,135.784 44.264,136.823 44.264,137.982 L44.264,142.305 Z" id="Shape"></path>
                    <path d="M82.368,43.18 L83.507,43.181 L95.142,43.202 L95.567,42.775 C98.454,39.771 100.235,35.696 100.235,31.212 C100.235,22.977 94.242,16.118 86.393,14.757 C86.376,14.754 86.36,14.751 86.342,14.75 C84.954,6.926 78.113,0.962 69.898,0.962 C62.159,0.962 55.636,6.254 53.747,13.409 C50.881,11.101 47.244,9.715 43.288,9.715 C34.969,9.715 28.052,15.829 26.789,23.8 C24.173,22.097 21.054,21.103 17.706,21.103 C8.495,21.103 1,28.598 1,37.808 C1,39.622 1.294,41.37 1.832,43.005 L1.833,43.023 L1.839,43.023 L7.624,43.033 L27.768,43.073 L33.553,43.084 L41.475,43.101 L42.386,43.102 C42.684,43.118 42.986,43.126 43.288,43.126 L43.288,43.102 L45.099,43.106 C45.113,43.103 45.128,43.102 45.143,43.1 L51.254,43.116 C51.813,44.549 52.57,45.88 53.482,47.091 C52.348,48.112 51.778,49.557 51.778,51.255 L51.778,55.376 C51.778,57.739 52.899,59.62 55.1,60.54 C55.82,60.842 56.579,61 57.361,61 C58.202,61 59.043,60.818 59.802,60.461 C61.883,59.501 62.823,57.598 62.823,55.376 L62.823,53.288 C63.613,53.483 64.425,53.618 65.254,53.696 L65.254,55.376 C65.254,57.739 66.376,59.62 68.577,60.54 C69.296,60.842 70.057,61 70.839,61 C71.68,61 72.519,60.818 73.278,60.461 C75.36,59.501 76.3,57.598 76.3,55.376 L76.3,50.818 C77.047,50.301 77.745,49.721 78.398,49.093 L81.632,49.093 L81.632,60.721 L85.415,60.721 L85.415,45.913 L80.974,45.913 C81.515,45.049 81.99,44.14 82.368,43.18 Z M31.088,37.861 L29.067,37.858 L6.346,37.813 L6.346,37.806 C6.346,31.541 11.443,26.444 17.707,26.444 C22,26.444 25.743,28.84 27.674,32.36 C27.665,32.335 27.656,32.309 27.648,32.282 C28.434,34.372 29.629,36.264 31.135,37.862 L31.088,37.862 L31.088,37.861 Z M59.042,55.479 C59.042,56.638 58.661,57.677 57.301,57.677 C56,57.677 55.56,56.617 55.56,55.479 L55.56,51.156 C55.56,50.62 55.664,50.097 55.912,49.693 C56.868,50.521 57.917,51.243 59.043,51.839 L59.043,55.479 L59.042,55.479 Z M72.518,55.479 C72.518,56.638 72.139,57.677 70.777,57.677 C69.477,57.677 69.038,56.617 69.038,55.479 L69.038,53.621 C70.244,53.461 71.408,53.17 72.518,52.766 L72.518,55.479 Z M66.825,48.428 C60.84,48.428 55.929,43.781 55.497,37.907 C55.497,37.907 55.497,37.907 55.497,37.904 C55.494,37.883 55.491,37.864 55.491,37.843 L50.137,37.832 C50.138,37.852 50.14,37.874 50.142,37.896 L42.701,37.879 C36.708,37.567 31.927,32.483 31.927,26.415 C31.928,20.156 37.024,15.061 43.29,15.061 C49.555,15.061 54.651,20.155 54.651,26.421 L59.996,26.421 C59.996,26.109 59.984,25.8 59.969,25.494 C59.964,25.406 59.953,25.316 59.948,25.23 C59.932,25.007 59.915,24.784 59.889,24.563 C59.879,24.48 59.868,24.4 59.858,24.319 C59.827,24.076 59.794,23.836 59.753,23.598 C59.746,23.556 59.739,23.515 59.733,23.474 C59.58,22.641 59.371,21.827 59.101,21.038 L58.542,17.666 C58.542,11.401 63.637,6.304 69.902,6.304 C75.184,6.304 79.632,9.927 80.902,14.818 C80.917,14.815 80.934,14.813 80.952,14.811 C81.172,15.688 81.29,16.609 81.29,17.556 C81.29,18.442 81.185,19.307 80.99,20.135 C81.805,19.95 82.658,19.847 83.532,19.847 C84.529,19.847 85.498,19.977 86.419,20.221 C91.29,21.502 94.892,25.942 94.892,31.208 C94.892,33.742 94.057,36.085 92.648,37.978 L78.136,37.96 C78.14,37.971 78.148,37.982 78.151,37.993 C78.059,39.231 77.773,40.333 77.314,41.43 C75.6,45.533 71.543,48.428 66.825,48.428 Z" id="Shape"></path>
                </g>
            </g>
        </g>
    </g>
</svg>