<?xml version="1.0" encoding="UTF-8"?>
<svg width="68px" height="83px" viewBox="0 0 68 83" version="1.1" xmlns="http://www.w3.org/2000/svg" xmlns:xlink="http://www.w3.org/1999/xlink">
    <!-- Generator: Sketch 42 (36781) - http://www.bohemiancoding.com/sketch -->
    <title>Go_To_Market</title>
    <desc>Created with Sketch.</desc>
    <defs></defs>
    <g id="Page-1" stroke="none" stroke-width="1" fill="none" fill-rule="evenodd">
        <g id="Home_page:-State_Active" transform="translate(-464.000000, -2777.000000)" fill="#FFFFFF">
            <g id="Go_To_Market" transform="translate(464.000000, 2777.000000)">
                <path d="M47.5711822,13.5123647 C47.5867616,13.146988 47.5648958,12.8079052 47.5381101,12.4636185 C47.5260839,12.3472129 47.5176109,12.2173863 47.5072246,12.0220988 L47.4973849,11.9489687 C47.3503371,10.9152867 46.8870545,9.95391325 46.6949083,9.58881044 L46.5112352,9.25219277 C46.2614179,8.84956627 46.0326465,8.52308273 45.7997752,8.23713574 C44.9814459,7.2231743 43.9526578,6.39135341 42.7407432,5.76413253 C42.1014405,5.4373751 41.2371928,5.08706265 40.4571287,4.83562651 L40.4571287,6.48612129 C41.0319272,6.67538313 41.499583,6.91257671 41.9948444,7.16346506 C43.0315589,7.70002651 43.8878802,8.3946257 44.5665414,9.24151084 C44.729442,9.44035904 44.8953491,9.66878795 45.0451302,9.89968193 L45.2566822,10.2560201 C45.4242293,10.5731912 45.8096148,11.3661189 45.9224973,12.1327526 C45.929877,12.265592 45.9380767,12.3614554 45.9470964,12.4485542 L45.9580293,12.6178217 C45.9883682,12.9571783 45.9979345,13.2077928 45.9894614,13.4496426 C45.965409,14.1562932 45.841867,14.825694 45.6218419,15.439494 C45.4143897,16.0412426 45.1167408,16.6246402 44.7376417,17.1702402 C44.309891,17.7867791 43.7624249,18.3822281 43.0643577,18.991098 L42.8314864,19.1899462 C42.6245808,19.3824948 42.2268958,19.7522538 42.3179123,20.3660538 C42.3572709,20.5999606 42.4660535,20.8177076 42.6308673,21.1477518 L43.0780239,22.0028538 C43.3021488,22.4402651 43.510421,22.8480956 43.7298994,23.2551044 L43.7572317,23.3090618 L43.8974465,23.6506096 L43.4582163,23.6821076 C42.2498549,23.6007606 41.1243104,23.3383687 40.1138349,22.9031486 C39.9028295,22.8171454 39.6956506,22.7215558 39.4922982,22.6199406 C39.0667342,22.3980851 38.6665891,22.1540442 38.2992429,21.8932956 C38.1133832,21.7683992 37.9040177,21.6766442 37.6992987,21.6309036 C37.495673,21.582698 37.2379293,21.564347 37.0763954,21.5868064 L36.8386043,21.6087181 C36.7060426,21.6213173 36.5999932,21.6317253 36.4851975,21.6366554 C35.8983729,21.6769181 35.3402471,21.6837655 34.7856746,21.6607582 C34.2029497,21.6366554 33.6721563,21.5788635 33.1632287,21.4838217 C31.8151992,21.2356723 30.6308902,20.7560811 29.5441576,20.0190281 C29.2935203,19.8505823 29.0404231,19.6624161 28.7722932,19.4441213 C28.4374724,19.1696779 28.1294373,18.8738707 27.8563875,18.5643687 L27.4633489,18.1179189 L35.1696935,18.1179189 C36.9534,18.1179189 38.4047456,16.6640811 38.4047456,14.8766386 L38.4047456,3.24155422 C38.4047456,3.08543373 38.3943593,2.94574699 38.3738601,2.82578072 C38.1634013,1.21034458 36.7869462,0 35.1699668,0 L17.2347788,0 C15.4510723,0 14,1.45411165 14,3.24155422 L14,14.8766386 C14,16.5942378 15.3395565,18.0160297 17.0494657,18.112441 L17.3022896,18.1266835 L17.3022896,23.1956691 L23.136371,18.3014289 L22.5142877,16.59369 L19.0143855,19.5303984 L19.0143855,16.4110016 L17.2347788,16.4110016 C16.3907571,16.4110016 15.7041695,15.722702 15.7041695,14.8769124 L15.7041695,3.24182811 C15.7041695,2.40042088 16.3907571,1.71568193 17.2347788,1.71568193 L35.1691469,1.71568193 C35.8177425,1.71568193 36.3980075,2.13337269 36.6120195,2.75484177 C36.6658641,2.92246586 36.6921031,3.08433815 36.6921031,3.24182811 L36.6921031,14.8769124 C36.6921031,15.722702 36.0087954,16.4110016 35.1691469,16.4110016 L24.8921986,16.4110016 L24.9146111,16.4876924 C25.076965,17.0428787 25.3043698,17.5788924 25.591359,18.0820386 C25.9811178,18.7982755 26.5072647,19.4884924 27.158047,20.1381727 C27.3469133,20.3129181 27.5510856,20.5008104 27.762091,20.6739124 C29.2459621,21.8922 30.9670776,22.6900578 32.8781527,23.046396 C33.491763,23.1570498 34.1094732,23.224702 34.7121506,23.2474353 C35.3148281,23.2816723 35.8885332,23.2709904 36.6366185,23.219498 C36.8150985,23.2052554 37.0015049,23.1901912 37.1592123,23.1691012 L37.3062601,23.161706 L37.4276156,23.2208675 C37.8291272,23.5046233 38.2710906,23.7697542 38.7783783,24.0318723 C39.0169893,24.1515647 39.2501339,24.2644096 39.4944848,24.3701333 C40.6812537,24.8768402 41.9874647,25.1797687 43.3748527,25.2693325 L43.5946045,25.2687847 C43.8468817,25.260294 44.0751065,25.2126361 44.2552264,25.1312892 C44.3757619,25.0904787 44.4741582,25.0304956 44.4935642,25.0165269 C44.6422519,24.9329888 44.7789135,24.8193221 44.8915226,24.6903173 C44.952747,24.6284169 45.0109648,24.5528217 45.0732824,24.4701052 C45.2219702,24.2419502 45.3187266,23.9957181 45.359725,23.7336 C45.3780377,23.628698 45.3859641,23.544612 45.3859641,23.4613478 C45.3859641,23.2986538 45.3671048,23.2200458 45.361365,23.2000514 C45.3263796,22.9587494 45.244656,22.7199124 45.130407,22.5081912 C44.9090153,22.0905004 44.6884435,21.669249 44.4686918,21.2474498 L43.9761635,20.2931976 L44.1357842,20.1546064 C44.914755,19.4813711 45.5387517,18.8010145 46.0441261,18.0749173 C46.508502,17.3970257 46.8698351,16.6868145 47.1174658,15.9648257 C47.3853225,15.2121606 47.5378368,14.3885566 47.5711822,13.5123647 Z" id="Shape"></path>
                <ellipse id="Oval" cx="33.0515631" cy="9.05586024" rx="2.05156313" ry="2.05586024"></ellipse>
                <ellipse id="Oval" cx="26.0515631" cy="9.05586024" rx="2.05156313" ry="2.05586024"></ellipse>
                <ellipse id="Oval" cx="20.0515631" cy="9.05586024" rx="2.05156313" ry="2.05586024"></ellipse>
                <path d="M19.7004958,29.9424458 C19.5149094,27.8704257 18.538326,26.3448273 16.5796927,25.5302618 C15.7066988,25.1692675 14.7902465,25.0109558 13.8571214,25 C12.9242697,25.0109558 12.007544,25.1695414 11.1345501,25.5302618 C9.17591681,26.3448273 8.1993334,27.8701518 8.01374702,29.9424458 C7.98641471,30.248661 8.00828056,30.5493984 8.00828056,30.8556137 C8.02467994,33.0098024 8.51010176,35.0599108 9.3557634,37.0336024 C9.78132746,38.0177092 10.4088773,38.8596643 11.1561426,39.6197245 C11.9307403,40.4069004 12.8911976,40.7843285 13.8568481,40.7459831 C14.8224986,40.7843285 15.7826826,40.4069004 16.5575536,39.6197245 C17.3050922,38.8596643 17.9323687,38.0177092 18.3579328,37.0336024 C19.2035944,35.0599108 19.6892896,33.0095285 19.7054156,30.8556137 C19.7059623,30.5491245 19.7278281,30.2483871 19.7004958,29.9424458 Z" id="Shape"></path>
                <path d="M28.0380044,51.5945695 C27.9773267,50.0454161 27.8942365,48.4959888 27.4071747,47.0076402 C27.2696932,46.5850193 27.1179989,46.1352827 26.8465891,45.8024996 C26.5590532,45.4519133 26.1583615,45.085441 25.7412705,44.9717743 C24.7335283,44.6981526 23.7241461,44.4354867 22.713124,44.1796683 C21.1784148,43.7890932 19.6417924,43.4113912 18.1070832,43.0257462 C18.0193465,43.0049301 17.9217701,43.0112297 17.7667959,43 C17.7476633,43.0703912 17.7285307,43.139139 17.7093981,43.2095301 C17.4409948,44.2018538 17.1903575,45.1958209 16.8883355,46.1736281 C16.5259091,47.3450795 16.1183844,48.5039317 15.7144128,49.6611406 C15.6695879,49.7906932 15.6089101,49.9139462 15.5452258,50.0371992 C15.4733419,49.510498 15.3823253,48.8191855 15.2929486,48.1407462 C15.1284081,46.8698707 14.9734339,45.6376145 14.9734339,45.5959823 C15.0373915,45.4502699 15.0947894,45.3127743 15.1554671,45.1799349 C15.1633935,45.1607622 15.1713199,45.1415896 15.1825261,45.1224169 C15.2161448,45.0424394 15.2511302,44.954245 15.2880288,44.8791976 C15.3071614,44.8520819 15.3232875,44.8134627 15.3424201,44.7830602 C15.3951715,44.6759671 15.4604957,44.5623004 15.4604957,44.4245309 C15.4604957,44.3092209 15.4143041,44.2037711 15.3806853,44.1155767 L15.3615527,44.0772313 C15.3536264,44.0580586 15.3536264,44.0501157 15.3424201,44.0276562 C15.3344937,44.0005406 15.3153611,43.9635647 15.2962285,43.9315189 L15.2883021,43.9139896 C15.2820157,43.9060466 15.2691695,43.8948169 15.2691695,43.8868739 C15.246757,43.8485285 15.219698,43.821139 15.1940057,43.8019663 C15.1445342,43.7682771 15.0950627,43.7570474 15.0565242,43.7491044 L14.9655076,43.7491044 C14.9384486,43.7299317 14.89991,43.7299317 14.8856972,43.7299317 C14.759422,43.7219888 14.4431871,43.7219888 14.0359357,43.7219888 C13.6319642,43.7219888 13.3091696,43.7219888 13.1831677,43.7299317 C13.1561087,43.7299317 13.1304163,43.7299317 13.1000775,43.7491044 L13.0202671,43.7491044 C12.9595894,43.7603341 12.8748592,43.7795068 12.8029753,43.8868739 C12.7950489,43.8948169 12.7950489,43.9060466 12.7871225,43.9252193 L12.7759163,43.9315189 C12.7726364,43.9394618 12.7679899,43.9474048 12.76471,43.9556217 C12.6928261,44.0276562 12.649641,44.1268064 12.6466345,44.2454032 C12.6321483,44.2982651 12.6162956,44.3590699 12.6162956,44.4245309 C12.6162956,44.5623004 12.6769733,44.6756932 12.7343712,44.7830602 C12.737651,44.7910032 12.7455774,44.8022329 12.7488573,44.8134627 C12.7617035,44.8359221 12.7759163,44.859751 12.7871225,44.8791976 C12.8223812,44.9545189 12.8606464,45.0424394 12.8939919,45.1224169 C12.9019182,45.1336466 12.9098446,45.1495325 12.9131245,45.164049 C12.9770821,45.3064747 13.0393997,45.447257 13.1000775,45.5962562 C13.1000775,45.6217285 13.0648188,45.9002803 13.0123407,46.3245446 C12.8860655,47.2897526 12.6624872,48.9909181 12.5236391,50.037747 C12.4596815,49.914494 12.3990037,49.791241 12.3544521,49.6616884 C11.9504805,48.5044795 11.5432291,47.3459012 11.1805294,46.1741759 C10.8787807,45.1947253 10.6262302,44.1974715 10.3581002,43.2037783 C10.3389676,43.1366739 10.3214749,43.0676522 10.302069,43.0005478 C10.1470948,43.0117775 10.0497917,43.0054779 9.96178171,43.026294 C8.58833317,43.3719502 7.21324469,43.7096635 5.84116277,44.0569631 C5.83952283,44.0569631 5.83952283,44.0586064 5.83952283,44.0586064 C4.66724008,44.3530442 3.49495734,44.6556988 2.32732109,44.972596 C1.93592242,45.0796892 1.55736994,45.4094594 1.2763938,45.7392297 C1.25726118,45.7600458 1.2397685,45.7825052 1.2220025,45.8033213 C0.950592669,46.1361044 0.798898353,46.585841 0.661416837,47.0084618 C0.228473059,48.3305558 0.115317298,49.7005815 0.0513596945,51.0769068 C0.0450732633,51.2497349 0.0368735706,51.4225631 0.0305871394,51.5953912 C-0.00767809355,52.5764851 -0.15144604,52.3861277 0.801904907,52.7876586 C1.03668944,52.8868088 1.27475386,52.9750032 1.51746476,53.0549807 C3.2424068,53.6150972 4.9976877,53.988143 6.77046128,54.2360185 C8.50496963,54.4808811 10.2586106,54.6024908 12.0171714,54.6682257 C12.3541787,54.6810988 15.0406714,54.7002715 15.0406714,54.7002715 C15.3776788,54.6906851 15.7146862,54.6810988 16.0516935,54.6682257 C18.8292028,54.5674321 21.592226,54.315996 24.2945714,53.6822016 C25.0516763,53.5060867 25.8038615,53.2982 26.5514001,53.0547068 C26.7941111,52.9747293 27.0321755,52.8865349 27.26696,52.7873847 C28.2200376,52.385306 28.0762697,52.5756635 28.0380044,51.5945695 Z" id="Shape"></path>
                <g id="Group-13" transform="translate(39.000000, 20.000000)">
                    <path d="M20.5756879,5.47804096 C20.3901015,3.40602088 19.4135181,1.88042249 17.4548848,1.06585703 C16.5818908,0.704862651 15.6654385,0.546551004 14.7323135,0.535595181 C13.7994618,0.546551004 12.8827361,0.705136546 12.0097421,1.06585703 C10.0511089,1.88042249 9.07452545,3.40574699 8.88893907,5.47804096 C8.86160676,5.78425622 8.88347261,6.08499357 8.88347261,6.39120884 C8.89987199,8.54539759 9.3852938,10.595506 10.2309555,12.5691976 C10.6565195,13.5533044 11.2840693,14.3952594 12.0313347,15.1553197 C12.8059323,15.9424956 13.7663897,16.3199237 14.7320401,16.2815783 C15.6976906,16.3199237 16.6578747,15.9424956 17.4327456,15.1553197 C18.1802843,14.3952594 18.8075608,13.5533044 19.2331248,12.5691976 C20.0787865,10.595506 20.5644816,8.54512369 20.5806077,6.39120884 C20.5811543,6.08499357 20.6030202,5.78425622 20.5756879,5.47804096 Z" id="Shape"></path>
                    <path d="M28.7360221,26.5126739 C28.6753444,24.9635205 28.5922542,23.4140932 28.1051924,21.9257446 C27.9677109,21.5031237 27.8160166,21.0533871 27.5446068,20.720604 C27.2570709,20.3700177 26.8561059,20.0035454 26.4392882,19.8898787 C25.4315459,19.616257 24.4221637,19.3535912 23.4111416,19.0977727 C21.8764325,18.7071976 20.33981,18.3294956 18.8051009,17.9438506 C18.7173642,17.9230345 18.6197878,17.9293341 18.4648136,17.9181044 C18.445681,17.9884956 18.4265484,18.0572434 18.4074158,18.1276345 C18.1390125,19.1199582 17.8883752,20.1139253 17.5863532,21.0917325 C17.2239268,22.2631839 16.816402,23.4220361 16.4124305,24.579245 C16.3676055,24.7087976 16.3069278,24.8320506 16.2432435,24.9553036 C16.1713595,24.4286024 16.080343,23.73729 15.9909663,23.0588506 C15.8264258,21.7879751 15.6714516,20.5557189 15.6714516,20.5140867 C15.7354092,20.3683743 15.7928071,20.2308787 15.8534848,20.0980394 C15.8614112,20.0788667 15.8693375,20.059694 15.8805438,20.0405213 C15.9141625,19.9605438 15.9491479,19.8723494 15.9860465,19.797302 C16.0051791,19.7701863 16.0213052,19.7315671 16.0404378,19.7011647 C16.0931891,19.5940715 16.1585134,19.4804048 16.1585134,19.3426353 C16.1585134,19.2273253 16.1123218,19.1218755 16.078703,19.0336811 L16.0595704,18.9953357 C16.051644,18.9761631 16.051644,18.9682201 16.0404378,18.9457606 C16.0325114,18.918645 16.0133788,18.8816691 15.9942462,18.8496233 L15.9863198,18.832094 C15.9800334,18.824151 15.9671872,18.8129213 15.9671872,18.8049783 C15.9447747,18.7666329 15.9177157,18.7392434 15.8920233,18.7200707 C15.8425519,18.6863815 15.7930804,18.6751518 15.7545418,18.6672088 L15.6635252,18.6672088 C15.6364663,18.6480361 15.5979277,18.6480361 15.5837149,18.6480361 C15.4574396,18.6400932 15.1412048,18.6400932 14.7339534,18.6400932 C14.3299819,18.6400932 14.0071873,18.6400932 13.8811854,18.6480361 C13.8541264,18.6480361 13.828434,18.6480361 13.7980951,18.6672088 L13.7182848,18.6672088 C13.6576071,18.6784386 13.5728769,18.6976112 13.5009929,18.8049783 C13.4930666,18.8129213 13.4930666,18.824151 13.4851402,18.8433237 L13.4739339,18.8496233 C13.4706541,18.8575663 13.4660076,18.8655092 13.4627277,18.8737261 C13.3908437,18.9457606 13.3476587,19.0449108 13.3446521,19.1635076 C13.330166,19.2163695 13.3143133,19.2771743 13.3143133,19.3426353 C13.3143133,19.4804048 13.374991,19.5937976 13.4323888,19.7011647 C13.4356687,19.7091076 13.4435951,19.7203373 13.446875,19.7315671 C13.4597211,19.7540265 13.4739339,19.7778554 13.4851402,19.797302 C13.5203989,19.8726233 13.5586641,19.9605438 13.5920095,20.0405213 C13.5999359,20.051751 13.6078623,20.0676369 13.6111421,20.0821534 C13.6750997,20.2245791 13.7374174,20.3653614 13.7980951,20.5143606 C13.7980951,20.5398329 13.7628365,20.8183847 13.7103584,21.242649 C13.5840832,22.207857 13.3605049,23.9090225 13.2216567,24.9558514 C13.1576991,24.8325984 13.0970214,24.7093454 13.0524697,24.5797928 C12.6484982,23.4225839 12.2412468,22.2640056 11.8785471,21.0922803 C11.5767984,20.1128297 11.3242478,19.1155759 11.0561179,18.1218827 C11.0369853,18.0547783 11.0194926,17.9857566 11.00036,17.9186522 C10.8453858,17.9298819 10.7480827,17.9235823 10.6600727,17.9443984 C9.28662417,18.2900546 7.91153569,18.6277679 6.53945376,18.9750675 C6.53781382,18.9750675 6.53781382,18.9767108 6.53781382,18.9767108 C5.36553108,19.2711486 4.19324834,19.5738032 3.02561208,19.8907004 C2.63421342,19.9977936 2.25566093,20.3275639 1.97468479,20.6573341 C1.95555218,20.6781502 1.9380595,20.7006096 1.9202935,20.7214257 C1.64888367,21.0542088 1.49718935,21.5039454 1.35970783,21.9265663 C0.926764055,23.2486602 0.813608295,24.6186859 0.749650691,25.9950112 C0.74336426,26.1678394 0.735164567,26.3406675 0.728878136,26.5134956 C0.690612903,27.4945896 0.546844956,27.3042321 1.5001959,27.7057631 C1.73498044,27.8049133 1.97304485,27.8931076 2.21575576,27.9730851 C3.9406978,28.5332016 5.6959787,28.9062474 7.46875228,29.1541229 C9.20326062,29.3989855 10.9569016,29.5205952 12.7154624,29.5863301 C13.0524697,29.5992032 15.7389624,29.6183759 15.7389624,29.6183759 C16.0759698,29.6087896 16.4129772,29.5992032 16.7499845,29.5863301 C19.5274938,29.4855365 22.2905169,29.2341004 24.9928624,28.600306 C25.7499673,28.4241912 26.5021525,28.2163044 27.2496911,27.9728112 C27.492402,27.8928337 27.7304665,27.8046394 27.965251,27.7054892 C28.9183286,27.3031365 28.7745607,27.4937679 28.7360221,26.5126739 Z" id="Shape"></path>
                </g>
                <ellipse id="Oval-4" cx="29" cy="78" rx="5" ry="5"></ellipse>
            </g>
        </g>
    </g>
</svg>