<?xml version="1.0" encoding="UTF-8"?>
<svg width="51px" height="54px" viewBox="0 0 51 54" version="1.1" xmlns="http://www.w3.org/2000/svg" xmlns:xlink="http://www.w3.org/1999/xlink">
    <!-- Generator: Sketch 42 (36781) - http://www.bohemiancoding.com/sketch -->
    <title>Long_Term_Commitment</title>
    <desc>Created with Sketch.</desc>
    <defs></defs>
    <g id="Page-1" stroke="none" stroke-width="1" fill="none" fill-rule="evenodd">
        <g id="Home_page:-State_Active" transform="translate(-1114.000000, -2778.000000)" fill="#FFFFFF">
            <g id="Long_Term_Commitment" transform="translate(1114.000000, 2778.000000)">
                <path d="M46.4946964,37.7064 C46.4946964,38.9394 46.2961607,40.1265 45.9291429,41.238 L45.8471786,41.2146 C45.8471786,41.2146 45.9018214,41.0634 45.9874286,40.7745 C46.0730357,40.4874 46.1896071,40.0608 46.2852321,39.5028 C46.3790357,38.9466 46.4518929,38.2572 46.4409643,37.4625 C46.4300357,36.6687 46.327125,35.7705 46.0821429,34.8183 C46.0293214,34.6221 45.970125,34.4205 45.906375,34.218 C45.9154821,34.2054 45.9227679,34.1946 45.931875,34.182 C46.2979821,35.2908 46.4946964,36.4761 46.4946964,37.7064 Z" id="Shape"></path>
                <ellipse id="Oval" cx="45.2151429" cy="47.0781" rx="2.193" ry="2.1672"></ellipse>
                <ellipse id="Oval" cx="39.1579821" cy="50.9058" rx="1.85239286" ry="1.8306"></ellipse>
                <ellipse id="Oval" cx="31.9742679" cy="51.1803" rx="1.638375" ry="1.6191"></ellipse>
                <ellipse id="Oval" cx="26.0154643" cy="48.2004" rx="1.01453571" ry="1.0026"></ellipse>
                <path d="M50.8588393,38.2059 C50.8588393,39.6963 50.636625,41.1363 50.2213393,42.4926 L45.9291429,41.238 C46.2970714,40.1265 46.4946964,38.9394 46.4946964,37.7064 C46.4946964,36.4761 46.2979821,35.2908 45.931875,34.1811 C45.2069464,31.9806 43.8226607,30.0753 42.01125,28.6929 C41.9584286,28.6515 41.9056071,28.6119 41.851875,28.5723 C41.048625,27.9693 40.1406429,27.4545 39.1661786,27.0585 C38.5386964,26.8056 37.88025,26.6103 37.2063214,26.4672 L36.9513214,26.4123 L36.6945,26.37 C36.5251071,26.3412 36.3484286,26.3097 36.1917857,26.2935 L35.9495357,26.2656 C35.8684821,26.2557 35.7938036,26.244 35.68725,26.2404 L35.3930893,26.2233 L35.2464643,26.2143 L35.170875,26.2107 L35.1353571,26.208 L35.1171429,26.208 L35.1016607,26.208 C33.7155536,26.1657 32.3130536,26.3493 30.9998036,26.7642 C29.6738036,27.1881 28.4352321,27.8271 27.3615,28.629 C26.2905,29.4318 25.3761429,30.3786 24.6676071,31.3893 C24.4836429,31.6386 24.3224464,31.8969 24.1621607,32.1534 C24.0838393,32.2821 24.014625,32.4117 23.9399464,32.5404 C23.8643571,32.6691 23.7969643,32.7996 23.734125,32.9301 C23.4627321,33.4476 23.2532679,33.9759 23.0720357,34.4862 C22.9873393,34.7445 22.899,34.9965 22.8361607,35.2485 C22.8042857,35.3736 22.765125,35.4978 22.7387143,35.622 C22.7095714,35.7471 22.6831607,35.8695 22.6576607,35.9928 C22.6449107,36.0531 22.63125,36.1143 22.6185,36.171 C22.6075714,36.2322 22.5966429,36.2925 22.586625,36.3528 C22.5675,36.4716 22.5474643,36.5913 22.5283393,36.7056 C22.4928214,36.9378 22.4736964,37.1538 22.4472857,37.3698 C22.4281607,37.5957 22.4172321,37.8324 22.4026607,38.0511 L22.40175,38.0934 C22.40175,38.0934 22.40175,38.1024 22.3990179,38.1024 L22.3990179,38.1123 L22.3981071,38.1897 C22.395375,38.241 22.395375,38.2923 22.3944643,38.3409 C22.3944643,38.4435 22.3917321,38.5407 22.3944643,38.6379 C22.395375,39.0249 22.4145,39.3804 22.4445536,39.6999 C22.50375,40.3398 22.6002857,40.8393 22.6731429,41.1777 C22.7086607,41.3478 22.7359821,41.4648 22.7605714,41.5611 C22.7833393,41.652 22.797,41.6997 22.797,41.6997 L21.4473214,42.0813 C21.4473214,42.0813 21.4318393,42.0363 21.4026964,41.9454 C21.3735536,41.8617 21.3252857,41.7069 21.2724643,41.5233 C21.2141786,41.319 21.1440536,41.0589 21.0739286,40.7484 C20.929125,39.9222 20.852625,39.0735 20.852625,38.2059 C20.852625,30.0177 27.5691429,23.3811 35.8548214,23.3811 C39.5878393,23.3811 43.0021071,24.7293 45.6267857,26.9577 C46.7806607,27.9369 47.7824464,29.0871 48.5893393,30.3687 C50.0291786,32.6421 50.8588393,35.3277 50.8588393,38.2059 Z" id="Shape"></path>
                <path d="M42.7625893,34.0254 C42.4820893,33.606 42.0394821,33.4845 41.5877679,33.7023 C41.09325,33.9417 40.6123929,34.2207 40.1415536,34.4934 L40.0268036,34.56 C39.2672679,35.0019 38.5095536,35.4465 37.75275,35.8911 L36.465,36.6462 C35.6225893,36.2952 34.6198929,36.3915 33.864,36.9018 C33.7292143,36.9927 33.6008036,37.0971 33.4815,37.2132 C32.5461964,38.1285 32.4059464,39.5739 33.1490893,40.6503 C33.6572679,41.3865 34.4996786,41.8257 35.4021964,41.8257 C35.782875,41.8257 36.152625,41.7492 36.4996071,41.5971 C36.649875,41.5323 36.7983214,41.4513 36.9403929,41.355 C37.7053929,40.8393 38.1571071,39.9564 38.1279643,39.0429 C38.8574464,38.4201 39.9812679,37.4805 40.8883393,36.7227 L40.9666607,36.6579 C41.8154464,35.9487 42.4866429,35.388 42.6278036,35.2593 C43.0084821,34.9137 43.0576607,34.4646 42.7625893,34.0254 Z" id="Shape"></path>
                <path d="M16.5950357,6.0156 C16.5950357,9.189 14.0413929,11.7135 10.8320357,11.7126 C7.630875,11.7117 5.03260714,9.1764 5.01348214,6.0354 C4.99435714,2.8881 7.66092857,0.2556 10.8593571,0.2655 C14.0350179,0.2745 16.5950357,2.8413 16.5950357,6.0156 Z" id="Shape"></path>
                <path d="M34.5188036,14.3055 C32.5270714,14.8545 30.5435357,15.4476 28.5335893,15.9282 C27.7895357,16.1055 26.9616964,16.1325 26.2030714,16.0209 C24.4963929,15.7725 22.9809643,14.9733 21.4700893,14.1849 C20.961,13.9185 20.3945357,13.68 19.8308036,13.6089 C18.5922321,13.4532 17.3436429,13.3551 16.096875,13.2651 C15.9966964,13.2273 15.5568214,13.2705 15.5331429,13.2768 C15.5276786,13.2768 15.5213036,13.2768 15.5158393,13.2759 C15.5131071,13.2768 15.5121964,13.2813 15.510375,13.284 C15.3683036,13.3218 15.2772321,13.4001 15.2116607,13.5054 C15.1488214,13.6071 15.1060179,13.734 15.0613929,13.8771 C14.3810893,16.0164 13.6880357,18.1512 12.9958929,20.2869 C12.954,20.412 12.8993571,20.5326 12.7982679,20.772 C12.7545536,20.6028 12.6470893,20.0628 12.5259643,19.4319 C12.4467321,19.0152 12.361125,18.5598 12.2873571,18.1494 C12.2226964,17.7318 12.0596786,16.7256 12.0533036,16.6365 L12.0533036,16.6356 C12.0542143,16.6302 12.0560357,16.6266 12.0569464,16.623 L12.0624107,16.5942 C12.080625,16.5501 12.1006607,16.5015 12.1298036,16.4637 L12.1543929,16.4295 C12.3410893,16.1415 12.5387143,15.8454 12.7272321,15.5475 C12.7654821,15.4872 12.7755,15.3846 12.7536429,15.3171 C12.6880714,15.1353 12.444,14.3712 12.3784286,14.2713 C12.3520179,14.1975 12.3256071,14.1228 12.3010179,14.049 C12.2855357,14.0049 12.271875,13.9617 12.2563929,13.9176 C12.2327143,13.851 12.1962857,13.8474 12.1170536,13.8105 C11.8811786,13.7052 9.66905357,13.7052 9.49419643,13.8105 C9.42042857,13.8573 9.37853571,13.851 9.35485714,13.9176 C9.339375,13.9617 9.32480357,14.0049 9.30841071,14.049 C9.250125,14.2218 8.92226786,15.1353 8.85669643,15.318 C8.83301786,15.3855 8.84485714,15.4881 8.88310714,15.5484 C9.071625,15.8463 9.26742857,16.1433 9.45594643,16.4304 L9.48053571,16.4646 C9.50967857,16.5024 9.52789286,16.5501 9.54792857,16.5951 L9.55339286,16.6239 C9.55885714,16.6383 9.56432143,16.6671 9.56432143,16.686 L9.56432143,16.7013 C9.56432143,16.7013 9.38764286,17.7327 9.32298214,18.1512 C9.25558929,18.5247 9.17908929,18.9342 9.10714286,19.3167 C8.97782143,19.9962 8.85851786,20.5956 8.81207143,20.7738 C8.70916071,20.5344 8.65542857,20.4138 8.61444643,20.2887 C7.92230357,18.1539 7.22925,16.0182 6.54894643,13.8789 C6.5025,13.7358 6.46242857,13.608 6.39776786,13.5072 C6.34767857,13.4262 6.28301786,13.3614 6.19194643,13.3182 C6.164625,13.3056 6.13275,13.2948 6.09996429,13.2858 C6.09905357,13.2831 6.09632143,13.2795 6.0945,13.2777 C6.08903571,13.2786 6.08266071,13.2786 6.07719643,13.2786 C6.00433929,13.2606 5.91782143,13.2525 5.81491071,13.2561 C5.69469643,13.2597 5.57630357,13.2678 5.45791071,13.2804 C4.252125,13.3938 3.13832143,13.8789 2.24673214,14.6178 C2.04819643,14.7816 1.85967857,14.9589 1.68482143,15.147 C1.46078571,15.3864 1.25951786,15.6438 1.07919643,15.9174 C0.988125,16.0542 0.904339286,16.1955 0.826017857,16.3404 C0.59925,16.758 0.424392857,17.2053 0.309642857,17.6742 C0.208553571,18.0837 0.155732143,18.5094 0.153,18.9468 C0.147535714,20.6424 0.142071429,22.3398 0.142071429,24.0372 C0.141160714,24.6789 0.141160714,25.3197 0.141160714,25.9614 C0.141160714,26.9739 0.316017857,27.9927 0.604714286,28.9971 C1.08101786,30.6549 1.86605357,32.2695 2.68205357,33.7356 C4.05814286,36.2106 4.22116071,39.2994 4.41241071,42.0633 C4.61094643,44.9469 4.813125,46.5273 5.017125,49.4073 C5.02258929,49.4865 5.029875,49.5657 5.03989286,49.644 C5.10728571,50.2371 5.26483929,50.7789 5.501625,51.2649 C5.57630357,51.4188 5.65917857,51.5655 5.74933929,51.7059 C6.55532143,52.9614 7.949625,53.721 9.65357143,53.7309 C10.0369821,53.7318 10.4213036,53.7363 10.805625,53.7363 C11.1899464,53.7363 11.5742679,53.7327 11.9576786,53.7309 C13.661625,53.7219 15.0559286,52.9623 15.8600893,51.7059 C15.9511607,51.5655 16.0340357,51.4188 16.1087143,51.2649 C16.3309286,50.8086 16.4839286,50.3019 16.5576964,49.7502 C16.5731786,49.6368 16.5850179,49.5225 16.5932143,49.4064 C16.7972143,46.5273 16.9984821,44.946 17.1979286,42.0624 C17.3891786,39.2985 19.1741786,25.2054 19.3007679,20.9448 C19.3116964,20.592 19.3772679,20.2419 19.424625,19.827 C19.7324464,19.9386 19.9510179,20.0196 20.1714107,20.0961 C20.6021786,20.2482 21.0329464,20.403 21.4618929,20.5596 C22.5629464,20.9592 23.6630893,21.3588 24.7841786,21.6972 C25.5601071,21.933 26.4198214,22.1238 27.2094107,22.0419 C30.4679464,21.7035 33.6126429,20.8476 36.6708214,19.6929 C37.6935536,19.3077 38.3283214,18.5508 38.460375,17.4708 C38.7372321,15.201 36.8165357,13.6719 34.5188036,14.3055 Z" id="Shape"></path>
            </g>
        </g>
    </g>
</svg>