<?xml version="1.0" encoding="UTF-8"?>
<svg width="35px" height="44px" viewBox="0 0 35 44" version="1.1" xmlns="http://www.w3.org/2000/svg" xmlns:xlink="http://www.w3.org/1999/xlink">
    <!-- Generator: Sketch 42 (36781) - http://www.bohemiancoding.com/sketch -->
    <title>Manage_Your_Insurance</title>
    <desc>Created with Sketch.</desc>
    <defs></defs>
    <g id="Page-1" stroke="none" stroke-width="1" fill="none" fill-rule="evenodd">
        <g id="Home_page:-State_Active" transform="translate(-691.000000, -2790.000000)">
            <g id="Manage_Your_Insurance" transform="translate(691.000000, 2790.000000)">
                <path d="M5.06153846,22.7996264 L2.11346154,22.7996264 C1.20525641,22.7996264 0.468461538,23.5403425 0.468461538,24.4536793 L3.78897436,39.8813077 C3.78897436,40.7937312 4.52532051,41.5353607 5.43352564,41.5353607 L29.7921795,41.5353607 C30.6990385,41.5353607 31.4358333,40.7937312 31.4358333,39.8813077 L34.7558974,24.4536793 C34.7558974,23.5403425 34.0195513,22.7996264 33.1117949,22.7996264 L30.2359615,22.7996264 L5.06153846,22.7996264 Z M17.6130769,33.2144058 C17.1257692,33.2144058 16.7304487,32.812081 16.7304487,32.3143124 C16.7304487,31.8197405 17.1257692,31.416959 17.6130769,31.416959 C18.1003846,31.416959 18.4952564,31.8197405 18.4952564,32.3143124 C18.4952564,32.812081 18.1003846,33.2144058 17.6130769,33.2144058 Z" id="Shape" fill="#FFFFFF"></path>
                <path d="M19.9782692,22.7996264 L18.3615385,22.7996264" id="Shape"></path>
                <path d="M17.6498718,16.5633627 C20.685,16.5633627 23.1839103,13.1520498 23.5087821,8.76803321 C23.5482692,8.48489881 23.569359,8.19537104 23.5742949,7.9012766 L22.6266026,9.00869746 C23.1489103,7.83003633 21.2880769,4.8320083 21.2880769,4.8320083 C18.1510897,7.14138038 13.4862179,4.8320083 13.4862179,4.8320083 C12.0785897,5.39736378 12.7449359,9.4256357 12.7449359,9.42609237 C12.3940385,9.17675143 12.0723077,9.0470576 11.8098077,8.98038402 C12.1961538,13.2625636 14.6632051,16.5633627 17.6498718,16.5633627 Z" id="Shape"></path>
                <path d="M10.9765385,8.73149974 C10.9810256,8.79634665 10.9873077,8.86028023 10.9922436,8.92512714 C11.4185256,13.8260924 14.2364744,17.6132434 17.6494231,17.6132434 C21.1063462,17.6132434 23.9530128,13.727452 24.3214103,8.73378308 C24.3721154,8.37529839 24.3985897,8.00722366 24.3985897,7.63412558 C24.3985897,7.25920083 24.3712179,6.89203944 24.3214103,6.53309808 C23.8273718,3.0633316 21.0278205,0.403238194 17.6498718,0.403238194 C14.2696795,0.403238194 11.4701282,3.06515828 10.9769872,6.5372081 C10.9262821,6.89477945 10.9007051,7.26148417 10.9007051,7.63549559 C10.9007051,7.78619616 10.905641,7.93644006 10.9141667,8.0862273 C10.9262821,8.30405812 10.9469231,8.51869227 10.9765385,8.73149974 Z M13.4862179,4.83246497 C13.4862179,4.83246497 18.1510897,7.14183705 21.2880769,4.83246497 C21.2880769,4.83246497 23.1489103,7.83049299 22.6266026,9.00915413 L23.5742949,7.90173326 C23.5689103,8.19537104 23.5478205,8.48535547 23.5069872,8.76848988 C23.1839103,13.1525065 20.685,16.5638194 17.6494231,16.5638194 C14.6627564,16.5638194 12.1961538,13.2625636 11.8089103,8.98038402 C12.0709615,9.04751427 12.3935897,9.17766476 12.7444872,9.42609237 C12.7449359,9.4256357 12.078141,5.39782045 13.4862179,4.83246497 Z" id="Shape" fill="#FFFFFF"></path>
                <path d="M23.0035256,16.4733991 C22.9864744,17.2954022 21.574359,19.4805605 20.1730128,21.4529113 L30.1071795,21.4529113 C28.784359,18.7151842 26.1301923,16.7647535 23.0035256,16.4733991 Z" id="Shape" fill="#FFFFFF"></path>
                <path d="M18.2516026,20.1171562 C18.8712821,19.7915516 19.3514103,19.1138557 19.3514103,18.4238298 C19.3514103,18.4238298 18.4288462,18.838028 17.4892308,18.838028 C16.5487179,18.838028 15.6266026,18.4238298 15.6266026,18.4238298 C15.6266026,19.1138557 16.1076282,19.7915516 16.7277564,20.1171562 L16.6357692,21.4529113 L18.3426923,21.4529113 L18.2516026,20.1171562 Z" id="Shape" fill="#FFFFFF"></path>
                <path d="M12.2953205,16.4733991 C9.16820513,16.7633835 6.5149359,18.7151842 5.19076923,21.4529113 L14.8790385,21.4529113 C13.6010897,19.4805605 12.3128205,17.2954022 12.2953205,16.4733991 Z" id="Shape" fill="#FFFFFF"></path>
                <ellipse id="Oval" fill="#007373" cx="17.6130769" cy="32.3161391" rx="0.883076923" ry="0.898723404"></ellipse>
                <path d="M31.5542949,42.2363467 L3.67275641,42.2363467 C3.27967949,42.2363467 2.96153846,42.5605812 2.96153846,42.9592527 C2.96153846,43.3588376 3.27967949,43.6830721 3.67275641,43.6830721 L31.5542949,43.6830721 C31.9460256,43.6830721 32.2646154,43.3588376 32.2646154,42.9592527 C32.2628205,42.5605812 31.9451282,42.2363467 31.5542949,42.2363467 Z" id="Shape" fill="#FFFFFF"></path>
                <path d="M19.9782692,22.8474167 C20.0433333,22.7406362 20.1079487,22.6333191 20.1734615,22.5265387 L18.3422436,22.5265387 L18.3615385,22.8474167 L19.9782692,22.8474167 Z" id="Shape" fill="#FFFFFF"></path>
                <path d="M16.6169231,22.8474167 L16.6357692,22.5265387 L14.8785897,22.5265387 C14.9378205,22.6343923 14.9979487,22.7406362 15.0576282,22.8474167 L16.6169231,22.8474167 Z" id="Shape" fill="#FFFFFF"></path>
                <path d="M5.28455128,41.8093617 L29.9420513,41.8093617 C30.8587821,41.8093617 31.6009615,41.0531188 31.6009615,40.1196886 L34.9219231,24.2162117 C34.9219231,23.2836949 34.1797436,22.5265387 33.2612179,22.5265387 L30.1080769,22.5265387 C30.1516026,22.6165023 30.1946795,22.7069227 30.2364103,22.7996264 L33.1122436,22.7996264 C34.02,22.7996264 34.7576923,23.5403425 34.7576923,24.4536793 L31.4362821,39.8813077 C31.4362821,40.7937312 30.7008333,41.5353607 29.7926282,41.5353607 L5.43397436,41.5353607 C4.52576923,41.5353607 3.78942308,40.7937312 3.78942308,39.8813077 L0.468012821,24.4536793 C0.468012821,23.5394292 1.20391026,22.7996264 2.1125641,22.7996264 L5.06108974,22.7996264 C5.10192308,22.7069227 5.14634615,22.6165023 5.18987179,22.5265387 L1.96403846,22.5265387 C1.04641026,22.5265387 0.303782051,23.2818682 0.303782051,24.2162117 L3.62339744,40.1196886 C3.62339744,41.0526622 4.36647436,41.8093617 5.28455128,41.8093617 Z" id="Shape" fill="#FFFFFF"></path>
                <path d="M15.0576282,22.8474167 C14.9983974,22.7406362 14.9378205,22.6343923 14.8790385,22.5265387 L5.19032051,22.5265387 C5.14634615,22.632246 5.10282051,22.7384899 5.06108974,22.8474167 L15.0576282,22.8474167 Z" id="Shape" fill="#FFFFFF"></path>
                <polygon id="Shape" fill="#FFFFFF" points="18.3615385 22.8474167 18.3422436 22.5265387 16.6353205 22.5265387 16.6169231 22.8474167"></polygon>
                <path d="M30.2364103,22.8474167 C30.1960256,22.7384899 30.1520513,22.632246 30.1080769,22.5265387 L20.1734615,22.5265387 C20.1079487,22.6333191 20.0433333,22.7417094 19.9782692,22.8474167 L30.2364103,22.8474167 Z" id="Shape" fill="#FFFFFF"></path>
            </g>
        </g>
    </g>
</svg>