<?xml version="1.0" encoding="utf-8"?>
<!-- Generator: Adobe Illustrator 21.0.0, SVG Export Plug-In . SVG Version: 6.00 Build 0)  -->
<svg version="1.1" id="Layer_1" xmlns="http://www.w3.org/2000/svg" xmlns:xlink="http://www.w3.org/1999/xlink" x="0px" y="0px"
	 viewBox="0 0 83 83" style="enable-background:new 0 0 83 83;" xml:space="preserve">
<style type="text/css">
	.st0{fill:#08BCBD;}
	.st1{fill:#FFFFFF;}
</style>
<title>Manage_your_risk</title>
<desc>Created with Sketch.</desc>
<g id="Page-1">
	<g id="HowWeWork" transform="translate(-157.000000, -3058.000000)">
		<g id="Manage_your_risk" transform="translate(157.000000, 3058.000000)">
			<ellipse id="Oval-4" class="st0" cx="41.5" cy="41.5" rx="39.5" ry="39.5"/>
			<g id="Group-5" transform="translate(29.000000, 18.000000)">
				<path id="Shape" class="st1" d="M16,7.2c0,2.7-2.5,5.1-5.1,5c-2.7,0-5.1-2.5-5-5.1c0-2.7,2.4-5,5.1-5C13.7,2.2,16,4.5,16,7.2z"
					/>
				<path id="Shape_1_" class="st1" d="M32.2,21.8c-0.1,0-0.3,0-0.4,0c-0.1,0-0.3,0-0.4,0l-0.3,0c-0.5-0.1-1-0.1-1.4-0.2
					c-2-0.4-3.9-1.2-5.7-2.4c-0.9-0.6-1.9-0.7-2.9-0.1L21,19.1c-0.5,0.3-0.9,0.6-1.4,0.9c-0.1,0-0.1,0.1-0.2,0.1c0-0.8,0-1.6,0-2.4
					c0-0.2-0.1-0.7-0.1-1.2c0-0.4-0.1-0.7-0.1-0.9c0-0.6-0.4-1-1-1.2l-0.1,0c-0.7-0.2-1.5-0.5-2.2-0.7c-0.1,0-0.1-0.1-0.2-0.1
					c-0.6-0.2-1.1-0.4-1.3-0.4l-0.1,0c-0.3,0.1-0.4,0.4-0.5,0.5c0,0.1-0.2,0.7-0.5,1.6c-0.3,1.1-0.7,2.4-1,3.2L12,16.3
					c0,0,0-0.1,0-0.1l0-0.3c0-0.1,0-0.2,0-0.3c0-0.1,0.1-0.2,0.1-0.3l0,0c0-0.1,0.1-0.1,0.1-0.2l0-0.1c0.1-0.1,0.1-0.2,0.1-0.4
					c0-0.1-0.2-0.5-0.2-0.6c-0.1-0.1-0.2-0.2-0.3-0.2l-0.1,0c0,0-0.1,0-0.1,0c-0.1,0-0.4,0-0.7,0s-0.6,0-0.7,0c0,0-0.1,0-0.1,0
					l-0.1,0c-0.1,0-0.2,0.1-0.2,0.2c-0.1,0.1-0.2,0.5-0.2,0.6c0,0.2,0.1,0.3,0.1,0.4l0,0.1c0,0.1,0.1,0.1,0.1,0.2l0,0
					c0.1,0.1,0.1,0.2,0.1,0.3c0,0,0,0.2,0,0.3l0,0.3c0,0,0,0.1,0,0.1l-0.3,2.4c-0.3-0.8-0.7-2.2-1-3.2c-0.3-0.9-0.5-1.5-0.5-1.6
					c0-0.1-0.1-0.4-0.5-0.5l-0.1,0c-0.2,0-0.7,0.2-1.3,0.4c-0.1,0-0.2,0.1-0.2,0.1c-0.7,0.2-1.4,0.5-2.2,0.7l-0.1,0
					c-0.6,0.2-1,0.6-1,1.2c0,0.1,0,0.5-0.1,0.9c0,0.5-0.1,1-0.1,1.2c-0.1,2.6-0.1,5.6,0,8.9c0,0.6,0.1,1.3,0.4,1.8
					c0.2,0.6,0.6,1.2,1.1,1.8c0,0,0,0,0.1,0.1c0.1,0.1,0.1,0.2,0.2,0.3c0,0.2,0,0.5,0,0.7c0.1,1.8,0.2,2,0.2,3.6c0,0.1,0,0.3,0,0.4
					v2.2c0,1.1,0,2.2,0,3.3c0,3,2.1,5.1,5.1,5.1h2.5h0c2.8,0,4.8-1.8,5-4.4c1.2,1,2.7,1.9,4.2,2.6c0.3,0.1,0.7,0.2,1.1,0.2
					c0.5,0,0.9-0.1,1.3-0.3c3.9-2.2,6.8-5.3,8.5-9.1c1.4-3,2.1-6.5,2.2-10.6C34.5,23.2,33.8,21.9,32.2,21.8z M29.9,33.7
					c-1.5,3.3-4,5.9-7.3,7.8c-2.1-1-3.8-2.2-5.2-3.8c-0.5-0.6-1-1.2-1.4-1.8c-1.1-1.7-1.8-3.6-2.2-5.8c-0.2-1.3-0.4-2.7-0.4-4.3
					l0-0.5v-0.9c2.2-0.2,4.2-0.6,6.1-1.4c0.5-0.2,1-0.4,1.5-0.7c0.5-0.3,1-0.6,1.4-0.9l0.3-0.2c2.1,1.5,4.4,2.4,6.7,2.9
					c0.6,0.1,1.3,0.2,1.9,0.2c0.2,0,0.4,0,0.6,0.1C31.7,28,31.1,31.1,29.9,33.7z"/>
				<path id="Shape_2_" class="st1" d="M28.2,26.2c-1.9-0.4-3.7-1.1-5.5-2.2v7.4h5.9c0.5-1.5,0.8-3.2,0.9-5
					C29.1,26.4,28.6,26.3,28.2,26.2z"/>
				<path id="Shape_3_" class="st1" d="M17.9,34.6c1.1,1.8,2.7,3.2,4.7,4.2v-7.4h-6.1C16.9,32.6,17.3,33.7,17.9,34.6z"/>
			</g>
		</g>
	</g>
</g>
</svg>
