<?xml version="1.0" encoding="utf-8"?>
<!-- Generator: Adobe Illustrator 21.0.0, SVG Export Plug-In . SVG Version: 6.00 Build 0)  -->
<svg version="1.1" id="Layer_1" xmlns="http://www.w3.org/2000/svg" xmlns:xlink="http://www.w3.org/1999/xlink" x="0px" y="0px"
	 viewBox="0 0 83 83" style="enable-background:new 0 0 83 83;" xml:space="preserve">
<style type="text/css">
	.st0{fill:#08BCBD;}
	.st1{fill:#FFFFFF;}
	.st2{fill:none;}
</style>
<title>manage_your_insurance</title>
<desc>Created with Sketch.</desc>
<g id="Page-1">
	<g id="HowWeWork" transform="translate(-156.000000, -2216.000000)">
		<g id="manage_your_insurance" transform="translate(156.000000, 2216.000000)">
			<g id="Group-9">
				<ellipse id="Oval-4" class="st0" cx="41.5" cy="41.5" rx="39.5" ry="39.5"/>
			</g>
			<g id="Group-4" transform="translate(23.000000, 17.000000)">
				<path id="Shape" class="st1" d="M7.1,24.8H4.1c-0.9,0-1.6,0.7-1.6,1.7l3.3,15.4c0,0.9,0.7,1.7,1.6,1.7h24.4
					c0.9,0,1.6-0.7,1.6-1.7l3.3-15.4c0-0.9-0.7-1.7-1.6-1.7h-2.9H7.1z M19.6,35.2c-0.5,0-0.9-0.4-0.9-0.9c0-0.5,0.4-0.9,0.9-0.9
					c0.5,0,0.9,0.4,0.9,0.9C20.5,34.8,20.1,35.2,19.6,35.2z"/>
				<path id="Shape_1_" class="st2" d="M22,24.8h-1.6"/>
				<path id="Shape_2_" class="st2" d="M19.6,18.6c3,0,5.5-3.4,5.9-7.8c0-0.3,0.1-0.6,0.1-0.9L24.6,11c0.5-1.2-1.3-4.2-1.3-4.2
					c-3.1,2.3-7.8,0-7.8,0c-1.4,0.6-0.7,4.6-0.7,4.6c-0.4-0.2-0.7-0.4-0.9-0.4C14.2,15.3,16.7,18.6,19.6,18.6z"/>
				<path id="Shape_3_" class="st1" d="M13,10.7c0,0.1,0,0.1,0,0.2c0.4,4.9,3.2,8.7,6.7,8.7c3.5,0,6.3-3.9,6.7-8.9
					c0.1-0.4,0.1-0.7,0.1-1.1c0-0.4,0-0.7-0.1-1.1c-0.5-3.5-3.3-6.1-6.7-6.1c-3.4,0-6.2,2.7-6.7,6.1c-0.1,0.4-0.1,0.7-0.1,1.1
					c0,0.2,0,0.3,0,0.5C12.9,10.3,12.9,10.5,13,10.7z M15.5,6.8c0,0,4.7,2.3,7.8,0c0,0,1.9,3,1.3,4.2l0.9-1.1c0,0.3,0,0.6-0.1,0.9
					c-0.3,4.4-2.8,7.8-5.9,7.8c-3,0-5.5-3.3-5.8-7.6c0.3,0.1,0.6,0.2,0.9,0.4C14.7,11.4,14.1,7.4,15.5,6.8z"/>
				<path id="Shape_4_" class="st1" d="M25,18.5c0,0.8-1.4,3-2.8,5h9.9C30.8,20.7,28.1,18.8,25,18.5z"/>
				<path id="Shape_5_" class="st1" d="M20.3,22.1c0.6-0.3,1.1-1,1.1-1.7c0,0-0.9,0.4-1.9,0.4c-0.9,0-1.9-0.4-1.9-0.4
					c0,0.7,0.5,1.4,1.1,1.7l-0.1,1.3h1.7L20.3,22.1z"/>
				<path id="Shape_6_" class="st1" d="M14.3,18.5c-3.1,0.3-5.8,2.2-7.1,5h9.7C15.6,21.5,14.3,19.3,14.3,18.5z"/>
				<ellipse id="Oval" class="st2" cx="19.6" cy="34.3" rx="0.9" ry="0.9"/>
				<path id="Shape_7_" class="st1" d="M33.6,44.2H5.7C5.3,44.2,5,44.6,5,45c0,0.4,0.3,0.7,0.7,0.7h27.9c0.4,0,0.7-0.3,0.7-0.7
					C34.3,44.6,33.9,44.2,33.6,44.2z"/>
				<path id="Shape_8_" class="st1" d="M22,24.8c0.1-0.1,0.1-0.2,0.2-0.3h-1.8l0,0.3H22z"/>
				<path id="Shape_9_" class="st1" d="M18.6,24.8l0-0.3h-1.8c0.1,0.1,0.1,0.2,0.2,0.3H18.6z"/>
				<path id="Shape_10_" class="st1" d="M7.3,43.8h24.7c0.9,0,1.7-0.8,1.7-1.7l3.3-15.9c0-0.9-0.7-1.7-1.7-1.7h-3.2
					c0,0.1,0.1,0.2,0.1,0.3h2.9c0.9,0,1.6,0.7,1.6,1.7l-3.3,15.4c0,0.9-0.7,1.7-1.6,1.7H7.4c-0.9,0-1.6-0.7-1.6-1.7L2.5,26.5
					c0-0.9,0.7-1.7,1.6-1.7h2.9c0-0.1,0.1-0.2,0.1-0.3H4c-0.9,0-1.7,0.8-1.7,1.7l3.3,15.9C5.6,43.1,6.4,43.8,7.3,43.8z"/>
				<path id="Shape_11_" class="st1" d="M17.1,24.8c-0.1-0.1-0.1-0.2-0.2-0.3H7.2c0,0.1-0.1,0.2-0.1,0.3H17.1z"/>
				<polygon id="Shape_12_" class="st1" points="20.4,24.8 20.3,24.5 18.6,24.5 18.6,24.8 				"/>
				<path id="Shape_13_" class="st1" d="M32.2,24.8c0-0.1-0.1-0.2-0.1-0.3h-9.9c-0.1,0.1-0.1,0.2-0.2,0.3H32.2z"/>
			</g>
		</g>
	</g>
</g>
</svg>
