<?xml version="1.0" encoding="utf-8"?>
<!-- Generator: Adobe Illustrator 21.0.2, SVG Export Plug-In . SVG Version: 6.00 Build 0)  -->
<svg version="1.1" id="Layer_1" xmlns="http://www.w3.org/2000/svg" xmlns:xlink="http://www.w3.org/1999/xlink" x="0px" y="0px"
	 viewBox="0 0 468 1174" style="enable-background:new 0 0 468 1174;" xml:space="preserve">
<style type="text/css">
	.st0{fill:#08BCBD;}
	.st1{fill:#FFFFFF;}
	.st2{fill:#FFFFFF;stroke:#03A2A3;}
	.st3{fill:#EEEEEE;}
	.st4{opacity:0.4886;fill:none;stroke:url(#Line_1_);stroke-linecap:square;stroke-dasharray:11;enable-background:new    ;}
	.st5{opacity:0.673;fill:none;stroke:url(#Path-2_2_);stroke-dasharray:9;enable-background:new    ;}
	.st6{opacity:0.9197;fill:#E7E7E7;enable-background:new    ;}
	.st7{fill:#C1C1C1;}
	.st8{font-family:'Montserrat-Light';}
	.st9{font-size:30px;}
	.st10{fill:#E7E7E7;}
	.st11{fill:#E6E6E6;}
</style>
<title>Butterfly roadmap full</title>
<desc>Created with Sketch.</desc>
<g id="Page-1">
	<g id="Join-us" transform="translate(-366.000000, -6869.000000)">
		<g id="Butterfly-roadmap-full" transform="translate(366.000000, 6869.000000)">
			<g id="butterfly" transform="translate(0.000000, 726.000000)">
				<ellipse id="Oval-6" class="st0" cx="45" cy="45" rx="45" ry="45"/>
				<path id="Shape" class="st1" d="M66.8,27.7c-0.7-0.3-1.7-0.2-3.1,0.2h-0.1c-1.7,0.6-3.5,1.5-5.5,2.8h0c-3.8,2.3-6.8,4.7-8.8,7.1
					l-1.2,1.6l-0.9,0.8c-0.2,0.1-0.4,0.2-0.6,0.2c0,0,0,0,0,0v-0.1c0-0.1,0-0.3,0.1-0.6l1.8-2.1v0c0.8-0.7,2-1.9,3.6-3.7v0
					c0.9-1,1.6-1.7,2-2.2c0.2-0.2,0.4-0.4,0.5-0.5c0.1-0.1,0.1-0.2,0.1-0.2c0-0.1,0-0.1-0.1-0.1c0-0.1-0.1-0.2-0.2-0.2
					c-0.1,0-0.1,0-0.2,0.1l-2.1,1.7c-1.3,1.1-2.8,2.5-4.4,4.2l-2.6,2.3c0,0,0,0-0.1,0v-0.1c0,0,0,0-0.1,0.1c0,0,0,0-0.1-0.1V39
					c0,0,0,0-0.1,0l-2.6-2.3c-1.6-1.6-3.1-3-4.4-4.2L35.8,31c0-0.1-0.1-0.1-0.2-0.1c-0.1,0-0.2,0.1-0.2,0.2c-0.1,0-0.1,0.1-0.1,0.1
					c0,0.1,0,0.1,0.1,0.2c0.1,0.1,0.2,0.3,0.4,0.5c0.4,0.5,1,1.2,2,2.2v0c1.6,1.8,2.8,3.1,3.6,3.7v0l1.8,2.1
					c0.1,0.2,0.1,0.4,0.1,0.6v0.1c0,0,0,0,0,0c-0.2,0-0.4-0.1-0.6-0.2l-0.9-0.8l-1.3-1.6c-2-2.4-4.9-4.8-8.7-7.1h0
					c-2-1.3-3.8-2.2-5.5-2.8h-0.1c-1.4-0.4-2.5-0.4-3.1-0.2h0c-0.5,0.2-0.9,0.5-1.2,0.8c0,0,0,0,0,0l-0.7,1.3c0,0,0,0,0,0.1
					c-0.1,0.4,0,1,0.1,1.7c0.1,0.9,0.6,1.8,1.5,2.6c0.4,0.5,1.1,1.3,1.9,2.3l0.9,1.7c0.5,1,0.7,1.8,0.8,2.4l0.3,2.5
					c0.1,0.7,0.4,1.2,0.9,1.7c0.6,0.7,1.6,0.9,3.1,0.7c1.5-0.1,2.4-0.2,2.7-0.2c0.6,0,1,0,1.2,0.1c-0.1,0.1-0.3,0.2-0.5,0.3
					c-0.9,0.4-1.6,0.7-2.1,0.8c-1.4,0.6-2.3,1.2-2.7,1.9c-0.8,1.2-1.1,2.6-0.8,4.2c0.1,0.7,0.3,1.6,0.8,2.6l0.8,1.7v0
					c1,1.6,2.1,2.7,3.1,3.3c0.8,0.5,1.9,0.8,3.4,0.8l1.6-0.1l1-0.2c1.3-0.3,2.1-0.6,2.4-1c0.4-0.5,0.7-1.3,0.9-2.6l0.3-1.7
					c0.7-2.1,1.1-3.2,1.2-3.5l0-0.2v0.4l0.1,3.1l-0.1,0.8v0.1l0.2,1.5v0.3c0,0.1,0,0.1,0.1,0.2l0.5,0.4c0.1,0,0.1,0.1,0.2,0.1
					c0.1,0,0.1,0,0.2,0c0.1,0,0.1,0,0.2,0c0.1,0,0.1,0,0.2-0.1l0.4-0.4c0.1-0.1,0.1-0.1,0.1-0.2V58l0.2-1.5v-0.1L46,55.5l0.1-3.1
					v-0.4l0,0.2c0.1,0.3,0.5,1.5,1.2,3.5l0.3,1.7c0.2,1.2,0.5,2.1,0.8,2.6c0.3,0.4,1.2,0.7,2.4,1l1,0.2l1.6,0.1
					c1.5-0.1,2.6-0.4,3.4-0.8c1-0.6,2-1.7,3.1-3.3v0l0.8-1.7c0.5-1.1,0.7-2,0.8-2.6c0.2-1.6,0-3-0.8-4.2c-0.4-0.7-1.3-1.3-2.7-1.9
					c-0.4-0.2-1.1-0.5-2.1-0.8c-0.2-0.1-0.4-0.2-0.5-0.3c0.1-0.1,0.5-0.1,1.2-0.1c0.3,0,1.1,0.1,2.6,0.2c1.4,0.2,2.5,0,3.1-0.7
					c0.5-0.5,0.7-1,0.9-1.7l0.3-2.5c0-0.6,0.3-1.4,0.7-2.4l0.9-1.7c0.8-1,1.5-1.8,1.9-2.3c0.8-0.9,1.3-1.7,1.5-2.6
					c0.2-0.7,0.2-1.2,0.1-1.7c0,0,0,0,0-0.1l-0.7-1.3c0,0,0,0-0.1,0C67.7,28.2,67.3,28,66.8,27.7L66.8,27.7z"/>
			</g>
			<g id="chrysalis" transform="translate(0.000000, 484.000000)">
				<ellipse id="Oval-6_1_" class="st0" cx="45" cy="45" rx="45" ry="45"/>
				<path id="Path" class="st2" d="M53.2,35.1c-0.1-1.3-0.3-2.6-0.5-3.8c-0.2-1.1-0.4-2.2-0.9-3.2c-0.1-0.2-0.2-0.4-0.3-0.6
					c-0.1-0.2-0.3-0.4-0.4-0.6c-0.4-0.3-1-0.4-1.6-0.5c-1.2-0.1-2.5,0-3.7,0.1c-0.6,0.1-1.2,0.2-1.7,0.3c0.5-2,0.3-4.1-0.5-6
					c-0.2-0.5-0.4-1.3-1.1-1.1c-0.2,0.1-0.4,0.3-0.5,0.5c-0.1,0.3,0.1,0.6,0.3,0.8c0.5,1.2,0.8,2.5,0.7,3.9c0,0.6-0.1,1.2-0.2,1.8
					c0,0.1-0.1,0.4-0.2,0.5c-0.3,0.1-0.6,0.1-0.9,0.2c-1.1,0.3-2.3,0.6-3.3,1.1c-1.9,0.8-3.9,1.8-5.2,3.4c-0.5,0.7-0.9,1.4-1.1,2.2
					c-0.2,0.8-0.3,1.6-0.4,2.4c-0.2,2.3-0.3,4.6-0.2,6.8c0.1,5.3,0.8,10.7,2.4,15.8c1.4,4.2,3.7,8.9,8.1,10.4c1,0.4,2.1,0.5,3.2,0.5
					c0.9,0,1.8-0.1,2.6-0.6c1.6-1,2.5-2.9,3.2-4.6c0.9-2.3,1.4-4.8,1.7-7.2c0.4-2.3,0.6-4.6,0.7-7C53.8,45.4,53.8,40.2,53.2,35.1
					C53,32.8,53.7,39.9,53.2,35.1z"/>
				<path id="Shape_1_" class="st2" d="M37.6,30.8c0.2,0.1,0.7,0.3,0.9,0.2c0.2-0.1,0.2-0.5-0.1-0.5c-0.3-0.1-0.6-0.2-0.9-0.3
					c2.3-1.1,4.8-1.8,7.3-2.2c1.1-0.2,2.3-0.3,3.4-0.3c0.6,0,1.2,0,1.8,0.1c0.1,0,0.1,0,0.2,0c0,0.1,0,0.1,0,0.2
					c0,0.1,0.1,0.3,0.1,0.4c0,0.3,0.1,0.7,0.1,1c0,0.1,0.1,0.4,0,0.5c-0.1,0.1-0.2,0.1-0.4,0.2c-0.2,0.1-0.5,0.2-0.8,0.3
					c-0.6,0.2-1.2,0.3-1.8,0.4c-1.4,0.2-2.8,0.3-4.2,0.2c-0.7,0-1.4-0.1-2.1-0.1c-0.3,0-0.4,0.3-0.3,0.5c0.1,0.1,0.2,0.1,0.4,0.1
					c0.2,0,0.4,0,0.6,0.1c1.4,0.1,2.8,0.1,4.2,0c0.8-0.1,1.6-0.2,2.4-0.3c0.7-0.1,1.4-0.3,2-0.6c-0.2,2.5-1.1,5-2.1,7.3
					c-0.6,0.3-1.3,0.4-1.9,0.4c-0.6,0-1.2,0-1.7,0.1c-0.2,0-0.4,0.3-0.2,0.5c0.1,0.2,0.3,0.1,0.4,0.1c0.7,0,1.4,0,2-0.1
					c0.4,0,0.7-0.1,1.1-0.2c-0.9,1.7-1.9,3.4-3,4.9c-0.1,0.2-0.3,0.4-0.4,0.5c-0.1,0.1-0.1,0.2-0.2,0.2c-0.1,0.1-0.2,0.1-0.3,0.1
					c-0.4,0.1-0.9,0.2-1.3,0.2c-0.2,0-0.4,0-0.5,0.2c-0.1,0.2,0,0.3,0.2,0.4c0.2,0.1,0.5,0,0.6,0c0.3,0,0.5-0.1,0.8-0.1
					c-1.4,1.7-2.9,3.2-4.7,4.4c-1.6,1.1-3.4,2.1-5.3,2.5c-0.4-2.7-0.7-5.4-0.8-8.2c0.4,0.2,0.8,0.3,1.3,0.4c0.2,0.1,0.4,0.2,0.6,0.2
					c0.2,0,0.3-0.2,0.3-0.4c-0.1-0.2-0.3-0.2-0.5-0.3c-0.2-0.1-0.5-0.1-0.7-0.2c-0.2-0.1-0.4-0.1-0.7-0.2c-0.2-0.1-0.3-0.2-0.3-0.5
					c0-2,0-4,0.2-5.9c0.4,0.3,0.9,0.5,1.3,0.6c0.2,0.1,0.4-0.1,0.4-0.3c-0.1-0.2-0.3-0.2-0.5-0.3c-0.4-0.2-0.9-0.3-1.2-0.7
					c0.1-0.6,0.1-1.2,0.2-1.7c0.1-0.4,0.1-0.8,0.3-1.2c0.2-0.4,0.4-0.7,0.7-1c0.7-0.8,1.6-1.4,2.6-1.9
					C37.3,30.7,37.3,30.8,37.6,30.8z M46.2,68.6c-0.8,0.1-1.6,0.1-2.4,0c0.4-0.4,0.7-0.9,1-1.4c0.2-0.3,0.3-0.5,0.4-0.8
					c0.1-0.2,0.4-0.6,0.2-0.8c-0.2-0.3-0.5,0-0.6,0.2c-0.1,0.3-0.3,0.6-0.5,0.9c-0.3,0.5-0.6,1-1,1.4c-0.1,0.1-0.2,0.2-0.3,0.3
					c-0.1,0.1-0.3,0-0.4-0.1c-0.3-0.1-0.6-0.2-0.9-0.4c-0.6-0.3-1.1-0.6-1.6-1c-0.2-0.2-0.5-0.4-0.7-0.6c-0.1-0.1-0.2-0.2-0.3-0.3
					c-0.1-0.1,0-0.1,0-0.2c0.3-0.5,0.6-1.1,0.8-1.7c0.5-1.1,0.8-2.2,1.1-3.3c0.1-0.6,0.3-1.2,0.4-1.8c0-0.2,0.2-0.6,0-0.8
					c-0.2-0.2-0.5,0-0.5,0.2c-0.4,2.4-1,4.9-2.3,7c-1.3-1.5-2.2-3.3-3-5.2c-0.9-2.2-1.5-4.6-1.9-7c2.7-0.5,5.2-2,7.3-3.8
					c0.1,0.5,0.2,1,0.3,1.5c0,0.2,0,0.4,0.3,0.4c0.2,0,0.4-0.1,0.3-0.3c0-0.5-0.1-1-0.2-1.4c0-0.1-0.1-0.2-0.1-0.3
					c0-0.1,0-0.1-0.1-0.2c0-0.1,0-0.1,0.1-0.2c0.2-0.2,0.4-0.3,0.5-0.5c1.5-1.4,2.8-3,3.9-4.6c0.4,1.3,0.5,2.7,0.7,4.1
					c0,0.3,0.1,0.7,0.1,1c0,0.2-0.1,0.7,0.3,0.8c0.3,0.1,0.4-0.3,0.3-0.5c0-0.4-0.1-0.7-0.1-1.1c-0.1-1.4-0.3-2.7-0.6-4
					c0-0.2-0.1-0.3-0.1-0.5c0-0.1-0.2-0.3-0.1-0.5c0.2-0.3,0.4-0.6,0.6-0.9c0.4-0.6,0.7-1.2,1.1-1.8c0.6-1.1,1.2-2.2,1.6-3.4
					c0.4,1,0.7,2.1,0.9,3.2c0,0.2,0.2,0.4,0.5,0.3c0.2-0.2,0.1-0.5,0-0.7c-0.1-0.5-0.3-1.1-0.4-1.6c-0.2-0.5-0.3-1.1-0.5-1.6
					c-0.1-0.1-0.1-0.3-0.2-0.4c0.1-0.2,0.1-0.3,0.2-0.5c0.1-0.3,0.2-0.6,0.3-0.9c0.4-1.1,0.6-2.3,0.8-3.5c0.4,2.3,0.6,4.7,0.8,7
					c0.1,2.6,0.2,5.3,0.1,7.9c-0.1-0.7-0.2-1.4-0.3-2.1c0-0.3-0.1-0.6-0.1-1c0-0.1,0-0.3-0.1-0.4C51.7,43,51.6,43,51.5,43
					c-0.2,0.2-0.1,0.5-0.1,0.8c0,0.3,0.1,0.6,0.1,0.9c0.1,0.6,0.2,1.2,0.3,1.8c0.2,1.3,0.3,2.6,0.3,4c0.1,1.4-0.1,2.8-0.3,4.2
					c-0.3,2.5-0.7,5-1.4,7.5c-0.3,1-0.6,1.9-1,2.8c-0.4,1-1,2-1.8,2.8C47.3,68.2,46.8,68.5,46.2,68.6C45.8,68.7,47.5,68.4,46.2,68.6
					z M41.8,57.2c0,0.2,0,0.4-0.2,0.5c-0.2,0.1-0.4-0.1-0.4-0.3c0-0.2,0-0.5,0.2-0.5C41.6,56.9,41.8,57,41.8,57.2
					C41.8,57.3,41.8,57.1,41.8,57.2z M42,55.8c0,0.2,0,0.3,0,0.5c0,0.1,0,0.3-0.1,0.4c-0.2,0.2-0.5,0.1-0.5-0.2c0-0.1,0-0.3,0-0.4
					c0-0.1,0-0.3,0.1-0.5C41.6,55.3,42,55.5,42,55.8C41.9,56,42,55.6,42,55.8z M42.1,52.3c0.1,0.6,0,1.2,0,1.8c0,0.2,0,0.6-0.1,0.7
					c-0.2,0.2-0.5,0.1-0.5-0.2c0-0.3,0-0.6,0-0.8c0-0.3,0-0.6,0-0.9c0-0.2-0.1-0.6,0-0.8C41.7,52,42,52.1,42.1,52.3
					C42.1,52.9,42,52.2,42.1,52.3z M46,64.8c-0.1,0.2-0.1,0.6-0.4,0.6c-0.2,0-0.4-0.2-0.3-0.4c0.1-0.2,0.1-0.5,0.4-0.6
					C45.8,64.3,46,64.6,46,64.8C45.9,64.9,46,64.6,46,64.8z M46.9,61.1c-0.1,0.6-0.2,1.2-0.4,1.8c-0.1,0.2-0.1,0.6-0.2,0.7
					c-0.2,0.2-0.5,0-0.5-0.2c0-0.3,0.1-0.5,0.2-0.8c0.1-0.3,0.2-0.6,0.2-0.9c0-0.2,0.1-0.3,0.1-0.5c0-0.1,0-0.3,0.2-0.4
					C46.7,60.7,47,60.9,46.9,61.1C46.8,62,47,61,46.9,61.1z M47.2,59.2c0,0.2,0,0.3-0.1,0.5c0,0.2,0,0.4-0.1,0.5
					c-0.2,0.3-0.6,0.1-0.5-0.2c0-0.2,0-0.3,0.1-0.5c0-0.2,0-0.4,0.1-0.5C46.8,58.8,47.3,58.9,47.2,59.2
					C47.2,59.5,47.3,59.1,47.2,59.2z M47.6,53.6c0,0.9,0,1.8-0.1,2.6c0,0.4-0.1,0.8-0.1,1.2c0,0.2-0.1,0.3-0.2,0.3
					c-0.2,0-0.3-0.1-0.3-0.3c0-0.2,0-0.4,0-0.6c0-0.2,0-0.4,0-0.6c0-0.4,0-0.9,0.1-1.3c0-0.5,0-0.9,0-1.4c0-0.2,0-0.3,0.2-0.4
					C47.4,53.3,47.6,53.4,47.6,53.6C47.6,55.1,47.6,53.4,47.6,53.6z M47.6,51.9c0,0.2,0,0.3,0,0.5c0,0.1,0,0.3-0.1,0.4
					C47.4,53,47.1,53,47,52.7c0-0.1,0-0.3,0-0.5c0-0.2,0-0.4,0-0.5C47.2,51.5,47.6,51.6,47.6,51.9C47.6,52.2,47.6,51.7,47.6,51.9z
					 M47,50.8c0-0.2,0-0.4,0.2-0.5c0.2,0,0.4,0.1,0.4,0.3c0,0.2,0,0.4-0.2,0.5C47.2,51.1,47,51,47,50.8C47,50.8,47,51,47,50.8z
					 M51.4,42.3c-0.2,0-0.3-0.2-0.3-0.4c0-0.2-0.1-0.6,0.3-0.6c0.3,0,0.3,0.3,0.3,0.5C51.7,42.1,51.7,42.3,51.4,42.3z M39.3,31
					c0-0.3,0.3-0.2,0.5-0.2c0.2,0,0.5,0.1,0.5,0.4c0,0.3-0.3,0.3-0.5,0.2C39.6,31.3,39.3,31.3,39.3,31z M37.4,44.5
					c0.9,0.1,1.7,0.2,2.6,0.3c0.4,0,0.8,0,1.3,0c0.4,0,0.4,0.6,0,0.6c-0.8,0-1.7-0.1-2.5-0.2c-0.5-0.1-0.9-0.1-1.4-0.2
					c-0.2,0-0.3-0.1-0.3-0.3C37,44.6,37.2,44.5,37.4,44.5C38.8,44.7,37.2,44.5,37.4,44.5z M35.2,44.4c0.1-0.4,0.9-0.2,0.8,0.2
					C35.9,45,35.1,44.8,35.2,44.4z M42,38.7c0-0.4,0.6-0.3,0.9-0.3c0.3,0,0.9-0.1,0.9,0.3c0,0.4-0.5,0.3-0.8,0.3
					C42.6,39,41.9,39.1,42,38.7C42,38.5,42,38.8,42,38.7z M40.8,38.6c0-0.4,0.8-0.4,0.8,0.1C41.6,39.1,40.7,39,40.8,38.6z
					 M35.5,37.8c0.1-0.4,0.7-0.1,0.9-0.1c0.4,0.1,0.8,0.2,1.2,0.2c0.4,0.1,0.8,0.1,1.3,0.2c0.3,0,1.1,0,0.9,0.5
					c-0.1,0.4-0.7,0.2-1,0.1c-0.4-0.1-0.8-0.1-1.3-0.2c-0.4-0.1-0.8-0.1-1.2-0.2C36.1,38.2,35.4,38.2,35.5,37.8z"/>
			</g>
			<g id="egg">
				<ellipse id="Oval-6_2_" class="st0" cx="45" cy="45" rx="45" ry="45"/>
				<path id="Shape_2_" class="st3" d="M31,45.8c2.1-12.8,7.7-16.5,10.9-17.6c-1.8-3.8-4.4-5-5.5-5.4c-0.4-0.1-0.9-0.2-1.3-0.1
					c-2.2,0.2-8.9,2.1-11.3,16.5c-0.4,2.4-0.2,5,0.7,7.2c1,2.4,2.9,5.1,6.7,6.1C30.7,50.3,30.5,48,31,45.8z"/>
				<path id="Shape_3_" class="st3" d="M67.5,38.8c-2.9-14.2-9.7-15.9-11.8-16.1c-0.4,0-0.9,0-1.3,0.2c-1.2,0.4-3.6,1.7-5.3,5.3
					c3.2,0.7,9.4,4,12.2,17.4c0.5,2.1,0.4,4.4,0,6.4c3.3-1.2,4.9-3.8,5.8-6C67.9,43.8,67.9,41.2,67.5,38.8z"/>
				<path id="Shape_4_" class="st1" d="M60.3,47.8c-0.5-7-5.3-19.1-14.1-19.1c-8.1,0-13.7,12.1-14.1,19.1
					c-0.9,14.1,7.6,18.3,14.1,18.3C52.6,66.1,61.3,61.5,60.3,47.8z M35.2,46.7c-0.3,0-0.6-0.3-0.6-0.6s0.3-0.6,0.6-0.6
					s0.6,0.3,0.6,0.6S35.6,46.7,35.2,46.7z M42.5,38.9c0.3,0,0.5,0.2,0.5,0.5s-0.2,0.5-0.5,0.5S42,39.6,42,39.4S42.2,38.9,42.5,38.9
					z M39.9,43.7c0.5,0,0.9,0.4,0.9,0.9c0,0.5-0.4,0.9-0.9,0.9c-0.5,0-0.9-0.4-0.9-0.9C39,44.1,39.4,43.7,39.9,43.7z M40.6,53.9
					c-1,0-1.8-0.8-1.8-1.8c0-1,0.8-1.8,1.8-1.8s1.8,0.8,1.8,1.8C42.4,53.1,41.6,53.9,40.6,53.9z M43.1,61.1c-0.6,0-1-0.5-1-1
					s0.5-1,1-1s1,0.5,1,1S43.7,61.1,43.1,61.1z M49.1,36.6c0.7,0,1.3,0.6,1.3,1.3c0,0.7-0.6,1.3-1.3,1.3s-1.3-0.6-1.3-1.3
					C47.8,37.2,48.4,36.6,49.1,36.6z M50,42.3c0,0.3-0.2,0.5-0.5,0.5s-0.5-0.2-0.5-0.5c0-0.3,0.2-0.5,0.5-0.5S50,42,50,42.3z
					 M48.2,53.4c-0.7,0-1.3-0.6-1.3-1.3s0.6-1.3,1.3-1.3s1.3,0.6,1.3,1.3S48.9,53.4,48.2,53.4z M51.3,61.9c-0.9,0-1.5-0.7-1.5-1.5
					c0-0.9,0.7-1.5,1.5-1.5s1.5,0.7,1.5,1.5C52.8,61.2,52.1,61.9,51.3,61.9z M54.8,48.9c-0.8,0-1.4-0.6-1.4-1.4
					c0-0.8,0.6-1.4,1.4-1.4c0.8,0,1.4,0.6,1.4,1.4C56.3,48.3,55.6,48.9,54.8,48.9z"/>
			</g>
			<g id="caterpillar" transform="translate(0.000000, 242.000000)">
				<ellipse id="Oval-6_3_" class="st0" cx="45" cy="45" rx="45" ry="45"/>
				<g id="Group" transform="translate(12.375000, 22.500000)">
					<path id="Shape_5_" class="st1" d="M20.8,46.2c0.8,0.3,1.6,0.6,2.4,0.9c-0.3,0.7-0.6,1.9,0.3,2.3c1.4,0.6,2.2-0.7,2.5-1.6
						c1.4,0.3,2.7,0.4,4,0.5c-0.1,0.8-0.1,2.1,0.9,2.3c1.5,0.2,1.9-1.2,2-2.1h1.2c3.3-4.7,3.8-8.9,3.8-11.3
						c-1.7-0.1-3.8-0.2-5.8-0.8C30.5,40,27.2,44.5,20.8,46.2z"/>
					<path id="Shape_6_" class="st1" d="M28.1,34.3c-1.4-1-2.5-2.4-3.4-4.2c-2.2,1.8-6.4,4.2-13.3,4.4c0.1,0.4,0.2,0.7,0.3,1.1
						c-0.9,0.4-2.1,1.1-1.7,2.3c0.4,1.3,1.8,1,2.7,0.6c0.5,1.1,1.1,2.1,1.9,3c-0.6,0.5-1.4,1.4-0.8,2.1c0.9,1.2,2.3,0.5,3-0.1
						C19.6,42.5,25.4,39.8,28.1,34.3z"/>
					<path id="Shape_7_" class="st1" d="M41.9,37.2c-0.1,5.3-1.2,8.8-2.5,10.9c0.9-0.1,1.6-0.2,2-0.3c4-0.5,6.9-2.1,6.9-5.1
						C48.3,39.9,46,37.2,41.9,37.2z"/>
					<path id="Shape_8_" class="st1" d="M10.9,29.2v1.2c3.6-0.4,9.1-1.6,12.4-5.2c-0.1-1-0.2-1.9-0.2-3c0-8.9-1.9-12.9-3.3-14.6
						c-1.2-2-3.1-3.5-5.3-4.3V1.1c0-0.6-0.5-1.1-1.1-1.1l0,0c-0.6,0-1.1,0.5-1.1,1.1v1.6c-0.5-0.1-1-0.1-1.5-0.1
						c-1.2,0-2.3,0.2-3.3,0.6V1.1C7.4,0.4,6.9,0,6.4,0C5.7,0,5.3,0.5,5.3,1.1v3C2.2,6,0.2,9.3,0.2,13.2c0,5.7,4.6,10.4,10.2,10.6
						c0.1,0.7,0.2,1.4,0.3,2c-1.2,0.2-3.2,0.9-2.5,2.5c0.3,1,1.7,0.8,2.8,0.4C10.9,29.1,10.9,29.2,10.9,29.2z M4.6,12.1
						c-0.6,0-1.1-0.8-1.1-1.8c0-1,0.5-1.8,1.1-1.8c0.6,0,1.1,0.8,1.1,1.8S5.2,12.1,4.6,12.1z M11.8,8.5c0.6,0,1.1,0.8,1.1,1.8
						c0,1-0.5,1.8-1.1,1.8c-0.6,0-1.1-0.8-1.1-1.8C10.7,9.3,11.2,8.5,11.8,8.5z"/>
				</g>
				<path id="Shape_9_" class="st1" d="M60.8,41.4l-1.3-1.9l-1.3,1.6l-1.9-2.3l-3.6,1.9l-0.3-2.3L49,41l-0.3-2.6L47,40.1l-1.3-0.8
					c-0.1,0.9-0.2,1.7-0.2,2.6c0,9.1,5,12.8,11,12.8s11-3.7,11-12.8l-3.7-3.7L60.8,41.4z"/>
				<path id="Shape_10_" class="st1" d="M78.9,37l-1.7-1.3l-0.4,3.3L75.4,38l-0.9,3.1L72,40.9l0.2,1.7l-1.8-0.4v3.7h-4
					c5.2,5,12.1,6.4,15.5,2.9c3.1-3.1,2.3-9.1-1.7-14l-1.3,0.3V37L78.9,37z"/>
			</g>
			<g id="ButterflyRoadmap" transform="translate(45.000000, 98.000000)">
				
					<linearGradient id="Line_1_" gradientUnits="userSpaceOnUse" x1="-45" y1="726.562" x2="-45" y2="725.562" gradientTransform="matrix(1 0 0 -621 46.5 451195.5)">
					<stop  offset="0" style="stop-color:#09EFF0"/>
					<stop  offset="1" style="stop-color:#049899"/>
				</linearGradient>
				<path id="Line" class="st4" d="M1.5,0.5v621"/>
				<g id="Group-6" transform="translate(0.000000, 628.000000)">
					<path id="butterfly_small" class="st0" d="M125.9,135.3c0.2,0.2,0.7,0.4,1.4,0.4l0,0c0.9,0,1.8-0.1,2.9-0.3l0,0
						c2.1-0.4,3.8-1,5.1-1.8l0.8-0.5l0.5-0.2c0.1,0,0.2,0,0.3,0c0,0,0,0,0,0l0,0c0,0.1-0.1,0.1-0.2,0.2l-1.1,0.6l0,0
						c-0.5,0.2-1.2,0.5-2.2,1.1l0,0c-0.6,0.3-1,0.5-1.2,0.6c-0.1,0.1-0.2,0.1-0.3,0.2c0,0-0.1,0.1-0.1,0.1c0,0,0,0.1,0,0.1
						c0,0.1,0,0.1,0.1,0.1c0,0,0.1,0,0.1,0l1.2-0.4c0.8-0.3,1.6-0.7,2.6-1.1l1.5-0.6c0,0,0,0,0,0l0,0.1c0,0,0,0,0,0c0,0,0,0,0,0
						l0-0.1c0,0,0,0,0,0l0.8,1.4c0.4,1,0.9,1.9,1.3,2.6l0.6,1.1c0,0,0,0.1,0.1,0.1c0.1,0,0.1,0,0.1,0c0,0,0,0,0.1,0c0,0,0-0.1,0-0.1
						c0-0.1,0-0.2-0.1-0.3c-0.1-0.3-0.3-0.7-0.5-1.3l0,0c-0.4-1.1-0.8-1.8-1-2.3l0,0l-0.5-1.2c0-0.1,0-0.2,0-0.3l0,0c0,0,0,0,0,0
						c0.1,0,0.1,0.1,0.2,0.2l0.3,0.5l0.3,0.9c0.5,1.4,1.4,2.9,2.8,4.6l0,0c0.7,0.9,1.3,1.6,2,2.1l0,0c0.6,0.4,1,0.6,1.4,0.6l0,0
						c0.2,0,0.5-0.1,0.7-0.2c0,0,0,0,0,0l0.5-0.5c0,0,0,0,0,0c0.1-0.2,0.2-0.4,0.2-0.8c0.1-0.4,0-0.9-0.2-1.4
						c-0.1-0.3-0.3-0.8-0.5-1.4l-0.1-0.9c0-0.5,0-0.9,0.1-1.2l0.3-1.2c0.1-0.3,0-0.6-0.1-0.9c-0.2-0.4-0.6-0.7-1.3-0.8
						c-0.7-0.2-1.1-0.3-1.2-0.4c-0.3-0.1-0.5-0.2-0.5-0.2c0.1,0,0.2,0,0.3-0.1c0.5,0,0.8,0,1.1,0c0.7,0,1.2-0.2,1.5-0.4
						c0.6-0.4,0.9-1,1.1-1.8c0.1-0.3,0.1-0.8,0.1-1.3l-0.1-0.9l0,0c-0.2-0.9-0.5-1.5-0.8-2c-0.3-0.3-0.7-0.6-1.4-0.9l-0.7-0.2
						l-0.5-0.1c-0.6-0.1-1-0.1-1.2,0.1c-0.3,0.1-0.5,0.5-0.8,1l-0.4,0.7c-0.7,0.8-1,1.3-1.1,1.4l0,0.1l0.1-0.2l0.4-1.4l0.2-0.4l0,0
						l0.1-0.7l0-0.1c0,0,0-0.1,0-0.1l-0.1-0.2c0,0,0,0-0.1-0.1c0,0-0.1,0-0.1,0c0,0-0.1,0-0.1,0c0,0-0.1,0-0.1,0l-0.3,0.1
						c0,0-0.1,0-0.1,0.1l0,0.1l-0.3,0.6l0,0l-0.1,0.4l-0.6,1.4l-0.1,0.2l0-0.1c0-0.1,0-0.7,0-1.8l0.1-0.8c0.1-0.6,0.1-1,0-1.3
						c-0.1-0.2-0.4-0.5-0.9-0.9l-0.4-0.3l-0.7-0.3c-0.7-0.2-1.2-0.3-1.7-0.2c-0.6,0.1-1.2,0.4-1.9,1l0,0l-0.6,0.6
						c-0.4,0.4-0.6,0.8-0.8,1c-0.4,0.7-0.5,1.3-0.3,2c0.1,0.4,0.4,0.8,0.9,1.3c0.2,0.2,0.4,0.4,0.8,0.7c0.1,0.1,0.1,0.2,0.2,0.2
						c-0.1,0-0.2,0-0.5-0.1c-0.1,0-0.5-0.2-1.2-0.5c-0.6-0.3-1.1-0.4-1.5-0.2c-0.3,0.1-0.5,0.3-0.7,0.6l-0.5,1.1
						c-0.1,0.3-0.4,0.6-0.7,1l-0.7,0.6c-0.5,0.3-0.9,0.6-1.2,0.7c-0.5,0.3-0.9,0.6-1.1,0.9c-0.2,0.3-0.3,0.5-0.3,0.7c0,0,0,0,0,0
						l0.1,0.7c0,0,0,0,0,0C125.6,135,125.8,135.2,125.9,135.3L125.9,135.3z"/>
					
						<linearGradient id="Path-2_2_" gradientUnits="userSpaceOnUse" x1="146.4913" y1="98.8179" x2="146.4913" y2="97.8185" gradientTransform="matrix(220.8949 0 0 -426.8924 -32278.9336 42184.457)">
						<stop  offset="0" style="stop-color:#07D0D0"/>
						<stop  offset="1" style="stop-color:#DBDBDB"/>
					</linearGradient>
					<path id="Path-2_1_" class="st5" d="M52.8,11.9c12.7-19.7,85.2-23.4,105.5,56.8S-11.5,225.4,1.2,346.7
						c6.2,58.8,58.3,76.8,110.3,79.8"/>
					<g id="Konsileo_butterfly_end" transform="translate(233.000000, 351.000000)">
						<path id="Shape_11_" class="st6" d="M-112.2,25.2c0-0.1,0-0.2,0.1-0.3c0.1,0,0.1,0,0.2,0c0,0,0,0,0,0c0.2,0.2,0.4,0.2,0.6,0
							s0.2-0.4,0-0.6c0,0,0,0,0,0c0.1-0.1,0.1-0.3,0.1-0.4c2.2-1,6.3-2.6,7.8-1.6c0,0.1,0,0.3,0.1,0.4c0.2,0.2,0.5,0.2,0.7,0
							c0.2-0.2,0.2-0.5,0-0.7c-0.1-0.1-0.3-0.2-0.5-0.1c-1.9-1.2-6.4,0.6-8.3,1.5c0,0-0.1-0.1-0.1-0.1c0,0-0.1-0.1-0.1-0.1
							c0.9-1.9,2.7-6.4,1.5-8.3c0.1-0.2,0-0.3-0.1-0.5c-0.2-0.2-0.5-0.2-0.7,0c-0.2,0.2-0.2,0.5,0,0.7c0.1,0.1,0.2,0.1,0.3,0.1
							c1,1.6-0.6,5.6-1.6,7.8c-0.1,0-0.3,0-0.4,0.1c0,0,0,0,0,0c-0.2-0.2-0.4-0.2-0.6,0c-0.2,0.2-0.2,0.4,0,0.6c0,0,0,0,0,0
							c0,0.1,0,0.1,0,0.2c-0.1,0-0.2,0-0.3,0.1c-0.4-17.3-4.8-24-8.5-23.9c-3.8,0.1-2.5,4.9-3.9,8.3c-1.4,3.4-2.9,5.7-1,7.1
							c0.8,0.8-6.1-1.3-6.8,8.4c-0.7,8.7,5.8,7.8,5.8,7.8l9.1-2.2l-3.8,3.8c-0.3,0.3-0.3,0.9,0.1,1.2c0.4,0.4,0.9,0.4,1.2,0.1
							l3.9-3.9l-2.2,9.1c0,0-0.9,6.5,7.8,5.8c9.7-0.8,7.6-7.6,8.4-6.8c1.3,1.8,3.6,0.3,7.1-1c3.4-1.4,8.1-0.1,8.3-3.9
							C-88.2,30-95,25.6-112.2,25.2z"/>
						<path id="Shape_12_" class="st6" d="M49.6,36.7c3-0.3,2.8-4,3.5-8.9c0.7-4.9,5.3-9.5,1-12.2c-4.3-2.7-13.9,2.2-25.8,21.9
							c-0.1-0.1-0.2-0.2-0.3-0.3c0-0.1,0.1-0.2,0.1-0.3c0,0,0,0,0.1,0c0.3-0.1,0.4-0.4,0.4-0.6c-0.1-0.3-0.4-0.4-0.6-0.4
							c0,0,0,0-0.1,0c-0.1-0.2-0.3-0.3-0.5-0.4c0.3-3.2,1.2-8.9,3.4-10.1c0.1,0.1,0.3,0.1,0.5,0.1c0.3-0.1,0.5-0.4,0.4-0.8
							c-0.1-0.3-0.4-0.5-0.8-0.4c-0.2,0.1-0.4,0.2-0.4,0.5c-2.7,1.4-3.6,7.9-3.8,10.7c-0.1,0-0.1,0-0.2,0c-0.1,0-0.1,0.1-0.2,0.1
							c-1.6-2.3-5.6-7.5-8.6-7.3c-0.2-0.2-0.4-0.2-0.6-0.2c-0.3,0.1-0.5,0.4-0.4,0.8c0.1,0.3,0.4,0.5,0.8,0.4c0.2,0,0.3-0.2,0.4-0.3
							c2.4-0.1,6.1,4.4,8,7.1c-0.1,0.2-0.2,0.3-0.2,0.5c0,0,0,0-0.1,0C25.1,36.7,25,37,25,37.3c0.1,0.3,0.4,0.5,0.6,0.4c0,0,0,0,0,0
							c0.1,0.1,0.1,0.1,0.2,0.2c0,0.1-0.1,0.2-0.1,0.4C5.6,27.1-5.1,27.7-7.5,32.2c-2.4,4.5,3.9,6.1,7,10c3,3.9,4.7,7.2,7.5,5.9
							c1.4-0.4-5.5,6.2,5.2,13.5c9.6,6.6,12.9-1.5,12.9-1.5l3.5-12l1.9,7c0.2,0.6,0.8,0.9,1.5,0.7s1.1-0.8,0.9-1.3l-1.9-7l9,8.6
							c0,0,6.9,5.4,11.9-5.1C57.4,39.3,48.1,37.1,49.6,36.7z"/>
						<text transform="matrix(1 0 0 1 -89 91)" class="st7 st8 st9">konsileo</text>
						<g id="Group-2" transform="translate(4.000000, 61.000000)">
							<ellipse id="Oval-5" class="st10" cx="-116" cy="18" rx="18" ry="18"/>
							<path id="Rectangle" class="st1" d="M-121.3,10L-121.3,10c0.4,0,0.7,0.3,0.7,0.7v18c0,0.4-0.3,0.7-0.7,0.7l0,0
								c-0.4,0-0.7-0.3-0.7-0.7v-18C-122,10.3-121.7,10-121.3,10z"/>
							<path id="Shape_13_" class="st1" d="M-121,16.3c3.6-6.4,14.8-5,11.9,0c-1.3,2.1-4,2.6-6.5,2.5l0.5,0.1
								c8.1,1.1,7.5,10.9,1.2,10c-4-0.6-6.2-8.5-6.8-11.4C-120.7,17.7-121,16.3-121,16.3z"/>
							<path id="Shape_14_" class="st1" d="M-114.9,27.1c0.6-1.3,11-18.6,7.9-19.3c-1.4-0.3-3.6-0.1-6.9,1.7
								c-2.4,1.3-4.5,3.8-7.1,6.9C-122.7,18.4-114,26.9-114.9,27.1z"/>
							<path id="Shape_15_" class="st11" d="M-116.9,19.5c4.9,0.7,4.6,6.7,0.7,6.1c-2.4-0.4-4.1-5.6-4.5-7.4
								C-120.7,18.2-116.9,19.5-116.9,19.5z"/>
							<path id="Shape_16_" class="st11" d="M-116,23.3c0.4-0.8,6.7-11.4,4.8-11.8c-0.9-0.2-2.2-0.1-4.2,1c-1.4,0.8-3.2,2.1-4.8,4
								C-121.2,17.8-115.5,23.2-116,23.3z"/>
						</g>
					</g>
				</g>
			</g>
		</g>
	</g>
</g>
</svg>
