<?xml version="1.0" encoding="utf-8"?>
<!-- Generator: Adobe Illustrator 21.0.0, SVG Export Plug-In . SVG Version: 6.00 Build 0)  -->
<svg version="1.1" id="Layer_1" xmlns="http://www.w3.org/2000/svg" xmlns:xlink="http://www.w3.org/1999/xlink" x="0px" y="0px"
	 viewBox="0 0 70 85" style="enable-background:new 0 0 70 85;" xml:space="preserve">
<style type="text/css">
	.st0{fill:#FFFFFF;}
</style>
<title>Manage_Your_Insurance</title>
<desc>Created with Sketch.</desc>
<g>
	<path id="Shape" class="st0" d="M22.4,33.5h-3.1c-0.9,0-1.7,0.8-1.7,1.7l3.5,16c0,0.9,0.8,1.7,1.7,1.7h25.3c0.9,0,1.7-0.8,1.7-1.7
		l3.5-16c0-0.9-0.8-1.7-1.7-1.7h-3H22.4z"/>
	<path id="Shape_1_" class="st0" d="M37.9,33.5h-1.7"/>
	<path id="Shape_3_" class="st0" d="M28.6,18.9c0,0.1,0,0.1,0,0.2c0.4,5.1,3.4,9,6.9,9c3.6,0,6.6-4,6.9-9.2c0.1-0.4,0.1-0.8,0.1-1.1
		c0-0.4,0-0.8-0.1-1.1c-0.5-3.6-3.4-6.4-6.9-6.4c-3.5,0-6.4,2.8-6.9,6.4c-0.1,0.4-0.1,0.8-0.1,1.1c0,0.2,0,0.3,0,0.5
		C28.5,18.4,28.5,18.6,28.6,18.9z M31.2,14.8c0,0,4.9,2.4,8.1,0c0,0,1.9,3.1,1.4,4.3l1-1.2c0,0.3,0,0.6-0.1,0.9
		c-0.3,4.6-2.9,8.1-6.1,8.1c-3.1,0-5.7-3.4-6.1-7.9c0.3,0.1,0.6,0.2,1,0.5C30.4,19.6,29.7,15.4,31.2,14.8z"/>
	<path id="Shape_4_" class="st0" d="M41.1,26.9c0,0.9-1.5,3.1-2.9,5.2h10.3C47.1,29.2,44.3,27.2,41.1,26.9z"/>
	<path id="Shape_5_" class="st0" d="M36.1,30.7c0.6-0.3,1.1-1,1.1-1.8c0,0-1,0.4-1.9,0.4c-1,0-1.9-0.4-1.9-0.4
		c0,0.7,0.5,1.4,1.1,1.8l-0.1,1.4h1.8L36.1,30.7z"/>
	<path id="Shape_6_" class="st0" d="M29.9,26.9c-3.3,0.3-6,2.3-7.4,5.2h10.1C31.3,30,30,27.8,29.9,26.9z"/>
	<path id="Shape_7_" class="st0" d="M50,53.7H21c-0.4,0-0.7,0.3-0.7,0.8c0,0.4,0.3,0.8,0.7,0.8h29c0.4,0,0.7-0.3,0.7-0.8
		C50.7,54,50.4,53.7,50,53.7z"/>
	<path id="Shape_8_" class="st0" d="M37.9,33.5c0.1-0.1,0.1-0.2,0.2-0.3h-1.9l0,0.3H37.9z"/>
	<path id="Shape_9_" class="st0" d="M34.4,33.5l0-0.3h-1.8c0.1,0.1,0.1,0.2,0.2,0.3H34.4z"/>
	<path id="Shape_10_" class="st0" d="M22.6,53.3h25.6c1,0,1.7-0.8,1.7-1.8L53.5,35c0-1-0.8-1.8-1.7-1.8h-3.3c0,0.1,0.1,0.2,0.1,0.3
		h3c0.9,0,1.7,0.8,1.7,1.7l-3.5,16c0,0.9-0.8,1.7-1.7,1.7H22.8c-0.9,0-1.7-0.8-1.7-1.7l-3.5-16c0-1,0.8-1.7,1.7-1.7h3.1
		c0-0.1,0.1-0.2,0.1-0.3h-3.4c-1,0-1.7,0.8-1.7,1.8l3.5,16.5C20.9,52.5,21.7,53.3,22.6,53.3z"/>
	<path id="Shape_11_" class="st0" d="M32.8,33.5c-0.1-0.1-0.1-0.2-0.2-0.3H22.5c0,0.1-0.1,0.2-0.1,0.3H32.8z"/>
	<polygon id="Shape_12_" class="st0" points="36.2,33.5 36.2,33.2 34.4,33.2 34.4,33.5 	"/>
	<path id="Shape_13_" class="st0" d="M48.6,33.5c0-0.1-0.1-0.2-0.1-0.3H38.1c-0.1,0.1-0.1,0.2-0.2,0.3H48.6z"/>
</g>
<circle class="st0" cx="35.5" cy="79.5" r="5"/>
</svg>
