<?xml version="1.0" encoding="UTF-8"?>
<svg width="48px" height="60px" viewBox="0 0 48 60" version="1.1" xmlns="http://www.w3.org/2000/svg" xmlns:xlink="http://www.w3.org/1999/xlink">
    <!-- Generator: Sketch 41.2 (35397) - http://www.bohemiancoding.com/sketch -->
    <title>Support_img_1</title>
    <desc>Created with Sketch.</desc>
    <defs></defs>
    <g id="Page-1" stroke="none" stroke-width="1" fill="none" fill-rule="evenodd">
        <g id="Join-us" transform="translate(-301.000000, -2926.000000)" fill="#08BCBD">
            <g id="Support_img_1" transform="translate(301.000000, 2926.000000)">
                <path d="M33.9138462,34.2909091 C34.0435611,34.1155242 34.0684163,33.8853083 33.9790492,33.6869815 C33.8896821,33.4886547 33.6996697,33.3523476 33.4805877,33.3294057 C33.2615057,33.3064638 33.046638,33.4003726 32.9169231,33.5757576 C31.1015385,36.0424242 27.6923077,37.5757576 24,37.5757576 L24,37.5757576 C20.3076923,37.5757576 16.8984615,36.0484848 15.0769231,33.5878788 C14.8764012,33.3167572 14.4906773,33.2570618 14.2153846,33.4545455 C13.9400919,33.6520291 13.8794782,34.0319087 14.08,34.3030303 C16.1292308,37.0727273 19.9261538,38.7878788 24,38.7878788 L24,38.7878788 C28.0676923,38.7878788 31.8707692,37.0666667 33.9138462,34.2909091 Z" id="Shape"></path>
                <path d="M48,53.3333333 L34.4615385,53.3333333 L34.4615385,43.569697 C35.2267153,43.0201081 35.9468787,42.412178 36.6153846,41.7515152 C39.973605,38.46416 41.8571024,33.9904341 41.8461538,29.3272727 L41.8461538,23.030303 L41.8461538,23.030303 L41.8461538,14.5454545 C41.8461538,6.51222182 35.233744,2.27562962e-15 27.0769231,0 L20.9230769,0 C12.766256,-4.91893637e-16 6.15384615,6.51222182 6.15384615,14.5454545 L6.15384615,23.8787879 L6.15384615,23.8787879 L6.15384615,29.3333333 C6.14289762,33.9964947 8.026395,38.4702206 11.3846154,41.7575758 C12.0550686,42.4185046 12.7772984,43.0264422 13.5446154,43.5757576 L13.5446154,53.3333333 L0,53.3333333 L0,54.5454545 L13.8953846,54.5454545 L24,60 L34.0984615,54.5454545 L48,54.5454545 L48,53.3333333 Z M20.9230769,1.21212121 L27.0769231,1.21212121 C34.5540089,1.21212121 40.6153846,7.18165788 40.6153846,14.5454545 L40.6153846,22.1818182 L37.7476923,21.2424242 C37.278045,21.0817075 36.9527098,20.6584848 36.9230769,20.169697 L36.9230769,20.1151515 L36.9230769,20.1151515 L36.9230769,14.2545455 L36.7323077,14.0727273 C33.708919,11.250465 29.6979795,9.68342043 25.5323077,9.6969697 L22.4553846,9.6969697 C18.2902575,9.68887376 14.2818069,11.2601474 11.2615385,14.0848485 L11.0707692,14.2666667 L11.0707692,20 C11.1550506,20.5492724 10.8044092,21.0724977 10.2584615,21.2121212 L7.38461538,22.2 L7.38461538,14.5454545 C7.38461538,7.18165788 13.4459911,1.21212121 20.9230769,1.21212121 L20.9230769,1.21212121 Z M35.6923077,17.830303 C32.9282202,16.1093004 29.7315431,15.1816183 26.4615385,15.1515152 L21.5384615,15.1515152 C18.2678594,15.1834336 15.0711373,16.1132277 12.3076923,17.8363636 L12.3076923,14.8060606 C15.0722929,12.3003836 18.6920907,10.9094465 22.4492308,10.9090909 L25.5261538,10.9090909 C29.2884717,10.8967473 32.9177197,12.2792846 35.6923077,14.7818182 L35.6923077,17.830303 Z M7.38461538,29.3454545 L7.38461538,23.4727273 L10.7076923,22.3818182 C11.7412044,22.054376 12.4059315,21.064839 12.3076923,20 L12.3076923,19.2909091 C15.0184077,17.4285192 18.233631,16.4089037 21.5384615,16.3636364 L26.4615385,16.3636364 C29.7657218,16.4071225 32.980889,17.4246092 35.6923077,19.2848485 L35.6923077,20.1757576 C35.7229779,21.1819163 36.381802,22.0647272 37.3476923,22.3939394 L40.6153846,23.4606061 L40.6153846,29.3272727 C40.6153846,38.3646595 33.1764235,45.6909091 24,45.6909091 L24,45.6909091 C14.8235765,45.6909091 7.38461538,38.3646595 7.38461538,29.3272727 L7.38461538,29.3454545 Z M24,58.6363636 L14.7692308,53.6424242 L14.7692308,44.3818182 C17.5522152,46.0428675 20.7458386,46.9172428 24,46.9090909 L24,46.9090909 C27.2547047,46.9151035 30.4482856,46.0386429 33.2307692,44.3757576 L33.2307692,53.6363636 L24,58.6363636 Z" id="Shape"></path>
            </g>
        </g>
    </g>
</svg>