<?xml version="1.0" encoding="UTF-8"?>
<svg width="50px" height="38px" viewBox="0 0 50 38" version="1.1" xmlns="http://www.w3.org/2000/svg" xmlns:xlink="http://www.w3.org/1999/xlink">
    <!-- Generator: Sketch 41.2 (35397) - http://www.bohemiancoding.com/sketch -->
    <title>Group 14</title>
    <desc>Created with Sketch.</desc>
    <defs></defs>
    <g id="About-Us-page" stroke="none" stroke-width="1" fill="none" fill-rule="evenodd">
        <g id="About-us_V5_b" transform="translate(-197.000000, -3429.000000)" fill="#4A4A4A">
            <g id="Group-28" transform="translate(197.000000, 3429.000000)">
                <g id="Group-12">
                    <g id="Group-14">
                        <path d="M14.2777778,14.5294118 C14.2777778,17.9382353 21.2777778,18.4411765 21.2777778,26.8235294 C21.2777778,32.9705882 16.8888889,37.5529412 10.7777778,37.5529412 C4.27777778,37.4970588 0,31.6294118 0,25.4264706 C0,14.6970588 10,0.502941176 16.2222222,0.502941176 C17.7777778,0.502941176 20.6111111,1.62058824 20.6111111,3.52058824 C20.6111111,5.42058824 14.2777778,8.71764706 14.2777778,14.5294118 Z" id="Shape"></path>
                        <path d="M43,14.5294118 C43,17.9382353 50,18.4411765 50,26.8235294 C50,32.9705882 45.6111111,37.5529412 39.5,37.5529412 C32.9444444,37.5529412 28.6666667,31.6852941 28.6666667,25.4823529 C28.6666667,14.7529412 38.6666667,0.558823529 44.8888889,0.558823529 C46.4444444,0.558823529 49.2777778,1.67647059 49.2777778,3.57647059 C49.2777778,5.47647059 43,8.71764706 43,14.5294118 Z" id="Shape"></path>
                    </g>
                </g>
            </g>
        </g>
    </g>
</svg>