<?xml version="1.0" encoding="UTF-8"?>
<svg width="65px" height="64px" viewBox="0 0 65 64" version="1.1" xmlns="http://www.w3.org/2000/svg" xmlns:xlink="http://www.w3.org/1999/xlink">
    <!-- Generator: Sketch 41.2 (35397) - http://www.bohemiancoding.com/sketch -->
    <title>Community_img_3</title>
    <desc>Created with Sketch.</desc>
    <defs></defs>
    <g id="Page-1" stroke="none" stroke-width="1" fill="none" fill-rule="evenodd">
        <g id="Join-us" transform="translate(-1090.000000, -5425.000000)" fill="#08BCBD">
            <g id="Community_img_3" transform="translate(1090.000000, 5425.000000)">
                <path d="M58.3796296,30.8981481 C58.0185185,17.1759259 46.9444444,5.98148148 33.1018519,5.74074074 L33.1018519,0.0833333333 L31.8981481,0.0833333333 L31.8981481,5.74074074 C18.1759259,6.10185185 6.98148148,17.1759259 6.62037037,30.8981481 L0.962962963,30.8981481 L0.962962963,32.1018519 L6.62037037,32.1018519 C6.86111111,45.9444444 18.0555556,57.1388889 31.8981481,57.3796296 L31.8981481,63.037037 L33.1018519,63.037037 L33.1018519,57.3796296 C46.9444444,57.0185185 58.0185185,45.9444444 58.3796296,32.1018519 L64.037037,32.1018519 L64.037037,30.8981481 L58.3796296,30.8981481 Z M33.1018519,56.1759259 L33.1018519,48.5925926 L31.8981481,48.5925926 L31.8981481,56.1759259 C18.7777778,55.8148148 8.18518519,45.2222222 7.82407407,32.1018519 L15.4074074,32.1018519 L15.4074074,30.8981481 L7.82407407,30.8981481 C8.18518519,17.7777778 18.7777778,7.18518519 31.8981481,6.94444444 L31.8981481,14.5277778 L33.1018519,14.5277778 L33.1018519,6.94444444 C46.2222222,7.30555556 56.8148148,17.7777778 57.1759259,30.8981481 L49.5925926,30.8981481 L49.5925926,32.1018519 L57.1759259,32.1018519 C56.8148148,45.2222222 46.2222222,55.8148148 33.1018519,56.1759259 Z" id="Shape"></path>
                <circle id="Oval" cx="32.5" cy="31.5" r="6.37962963"></circle>
            </g>
        </g>
    </g>
</svg>