<?xml version="1.0" encoding="UTF-8"?>
<svg width="63px" height="59px" viewBox="0 0 63 59" version="1.1" xmlns="http://www.w3.org/2000/svg" xmlns:xlink="http://www.w3.org/1999/xlink">
    <!-- Generator: Sketch 41.2 (35397) - http://www.bohemiancoding.com/sketch -->
    <title>Community_img_1</title>
    <desc>Created with Sketch.</desc>
    <defs></defs>
    <g id="Page-1" stroke="none" stroke-width="1" fill="none" fill-rule="evenodd">
        <g id="Join-us" transform="translate(-290.000000, -5425.000000)" fill="#08BCBD">
            <g id="Community_img_1" transform="translate(290.000000, 5425.000000)">
                <path d="M62.3801181,7.9 C62.1816929,7.9 61.9832677,8.05 61.9832677,8.3 L61.9832677,14.85 C61.9832677,15.05 62.1320866,15.25 62.3801181,15.25 C62.5785433,15.25 62.7769685,15.1 62.7769685,14.85 L62.7769685,8.25 C62.7769685,8.05 62.6281496,7.9 62.3801181,7.9 Z" id="Shape"></path>
                <path d="M62.3801181,16.6 C62.1816929,16.6 61.9832677,16.75 61.9832677,17 L61.9832677,19.1 C61.9832677,19.3 62.1320866,19.5 62.3801181,19.5 C62.5785433,19.5 62.7769685,19.35 62.7769685,19.1 L62.7769685,17 C62.7769685,16.75 62.6281496,16.6 62.3801181,16.6 Z" id="Shape"></path>
                <path d="M14.3116142,43.05 C14.2124016,43 14.113189,43.05 14.0139764,43.1 C13.9147638,43.15 13.8651575,43.25 13.8651575,43.35 C13.6667323,45 11.9801181,46.2 9.94625984,46.2 C7.91240157,46.2 6.2257874,44.95 6.0273622,43.35 C6.0273622,43.25 5.92814961,43.15 5.87854331,43.1 C5.77933071,43.05 5.68011811,43.05 5.58090551,43.05 C2.10846457,44.2 -0.0742125984,47.45 0.173818898,51 L0.620275591,58.15 C0.620275591,58.35 0.818700787,58.5 1.01712598,58.5 L18.7761811,58.5 C18.9746063,58.5 19.1234252,58.35 19.1730315,58.15 L19.6194882,51 C19.8675197,47.45 17.6848425,44.2 14.3116142,43.05 Z M18.8753937,50.95 L18.8753937,50.95 L18.428937,57.75 L1.36437008,57.75 L0.917913386,50.95 C0.719488189,47.9 2.50531496,45.05 5.28326772,43.95 C5.77933071,45.75 7.66437008,47 9.89665354,47 C12.128937,47 14.0139764,45.7 14.5100394,43.95 C17.2879921,45.05 19.0738189,47.9 18.8753937,50.95 Z" id="Shape"></path>
                <path d="M9.89665354,42.7 C12.9722441,42.7 15.4525591,40.05 15.4525591,36.75 C15.4525591,33.45 12.9722441,30.8 9.89665354,30.8 C6.82106299,30.8 4.34074803,33.45 4.34074803,36.75 C4.34074803,40 6.82106299,42.7 9.89665354,42.7 Z M9.89665354,31.55 C12.5257874,31.55 14.7084646,33.9 14.7084646,36.75 C14.7084646,39.6 12.5753937,41.95 9.89665354,41.95 C7.21791339,41.95 5.08484252,39.6 5.08484252,36.75 C5.08484252,33.85 7.26751969,31.55 9.89665354,31.55 Z" id="Shape"></path>
                <path d="M40.3549213,46.95 C40.5533465,46.95 40.7021654,46.8 40.7517717,46.6 L41.1982283,39.45 C41.4462598,35.9 39.2635827,32.65 35.8903543,31.55 C35.7911417,31.5 35.6919291,31.55 35.5927165,31.6 C35.4935039,31.65 35.4438976,31.75 35.4438976,31.85 C35.2454724,33.5 33.5588583,34.7 31.525,34.7 C29.4911417,34.7 27.8045276,33.45 27.6061024,31.85 C27.6061024,31.75 27.5068898,31.65 27.4572835,31.6 C27.3580709,31.55 27.2588583,31.55 27.1596457,31.55 C23.8360236,32.65 21.6533465,35.95 21.8517717,39.45 L22.2982283,46.6 C22.2982283,46.8 22.4966535,46.95 22.6950787,46.95 L40.3549213,46.95 Z M26.8620079,32.4 C27.3580709,34.2 29.2431102,35.45 31.4753937,35.45 C33.7076772,35.45 35.5927165,34.15 36.0887795,32.4 C38.8667323,33.55 40.6525591,36.35 40.4541339,39.4 L40.4541339,39.4 L40.0076772,46.2 L22.9431102,46.2 L22.4966535,39.4 C22.2982283,36.35 24.0840551,33.5 26.8620079,32.4 Z" id="Shape"></path>
                <path d="M31.4753937,19.25 C28.3998031,19.25 25.9194882,21.9 25.9194882,25.2 C25.9194882,28.5 28.3998031,31.15 31.4753937,31.15 C34.5509843,31.15 37.0312992,28.5 37.0312992,25.2 C37.0312992,21.9 34.5509843,19.25 31.4753937,19.25 Z M31.4753937,30.4 C28.8462598,30.4 26.6635827,28.05 26.6635827,25.2 C26.6635827,22.35 28.7966535,20 31.4753937,20 C34.1541339,20 36.2872047,22.35 36.2872047,25.2 C36.2872047,28.05 34.1045276,30.4 31.4753937,30.4 Z" id="Shape"></path>
                <path d="M57.4690945,20 C57.3698819,19.95 57.2706693,20 57.1714567,20.05 C57.0722441,20.1 57.0226378,20.2 57.0226378,20.3 C56.8242126,21.95 55.1375984,23.15 53.1037402,23.15 C51.0698819,23.15 49.3832677,21.9 49.1848425,20.3 C49.1848425,20.2 49.0856299,20.1 49.0360236,20.05 C48.936811,20 48.8375984,20 48.7383858,20 C45.4147638,21.1 43.2320866,24.4 43.4305118,27.9 L43.8769685,35.05 C43.8769685,35.25 44.0753937,35.4 44.2738189,35.4 L62.032874,35.4 C62.2312992,35.4 62.3801181,35.25 62.4297244,35.05 L62.8761811,27.9 L62.8761811,27.9 C62.9753937,24.4 60.7927165,21.1 57.4690945,20 Z M62.032874,27.9 L62.032874,27.9 L61.5864173,34.7 L44.5218504,34.7 L44.0753937,27.9 C43.8769685,24.85 45.6627953,22 48.440748,20.9 C48.936811,22.7 50.8218504,23.95 53.0541339,23.95 C55.2864173,23.95 57.1714567,22.65 57.6675197,20.9 C60.4454724,22 62.2312992,24.8 62.032874,27.9 Z" id="Shape"></path>
                <path d="M47.4982283,13.65 C47.4982283,16.95 49.9785433,19.6 53.0541339,19.6 C56.1297244,19.6 58.6100394,16.95 58.6100394,13.65 C58.6100394,10.35 56.1297244,7.7 53.0541339,7.7 C49.9785433,7.7 47.4982283,10.4 47.4982283,13.65 Z M53.0541339,8.45 C55.6832677,8.45 57.8659449,10.8 57.8659449,13.65 C57.8659449,16.5 55.732874,18.85 53.0541339,18.85 C50.425,18.85 48.2423228,16.5 48.2423228,13.65 C48.2423228,10.8 50.3753937,8.45 53.0541339,8.45 Z" id="Shape"></path>
                <path d="M59.1061024,46.4 C59.3045276,46.4 59.5029528,46.25 59.5029528,46 L59.5029528,39.7 C59.5029528,39.5 59.3541339,39.3 59.1061024,39.3 C58.9076772,39.3 58.709252,39.45 58.709252,39.7 L58.709252,46 C58.709252,46.25 58.9076772,46.4 59.1061024,46.4 Z" id="Shape"></path>
                <path d="M58.709252,50.15 C58.709252,50.35 58.8580709,50.55 59.1061024,50.55 C59.3045276,50.55 59.5029528,50.4 59.5029528,50.15 L59.5029528,48.1 C59.5029528,47.9 59.3541339,47.7 59.1061024,47.7 C58.9076772,47.7 58.709252,47.85 58.709252,48.1 L58.709252,50.15 Z" id="Shape"></path>
                <path d="M56.3777559,55.05 C56.3777559,54.85 56.228937,54.65 55.9809055,54.65 L49.1848425,54.65 C48.9864173,54.65 48.7879921,54.8 48.7879921,55.05 C48.7879921,55.3 48.936811,55.45 49.1848425,55.45 L55.9809055,55.45 C56.228937,55.45 56.3777559,55.3 56.3777559,55.05 Z" id="Shape"></path>
                <path d="M60.4454724,54.7 L58.2627953,54.7 C58.0643701,54.7 57.8659449,54.85 57.8659449,55.1 C57.8659449,55.35 58.0147638,55.5 58.2627953,55.5 L60.4454724,55.5 C60.6438976,55.5 60.8423228,55.35 60.8423228,55.1 C60.8423228,54.85 60.6438976,54.7 60.4454724,54.7 Z" id="Shape"></path>
                <path d="M60.4454724,57.05 L55.732874,57.05 C55.5344488,57.05 55.3360236,57.2 55.3360236,57.45 C55.3360236,57.65 55.4848425,57.85 55.732874,57.85 L60.4454724,57.85 C60.6438976,57.85 60.8423228,57.7 60.8423228,57.45 C60.8423228,57.2 60.6438976,57.05 60.4454724,57.05 Z" id="Shape"></path>
                <path d="M53.6990157,57.05 L52.1612205,57.05 C51.9627953,57.05 51.7643701,57.2 51.7643701,57.45 C51.7643701,57.65 51.913189,57.85 52.1612205,57.85 L53.6990157,57.85 C53.8974409,57.85 54.0958661,57.7 54.0958661,57.45 C54.0462598,57.2 53.8974409,57.05 53.6990157,57.05 Z" id="Shape"></path>
                <path d="M54.9391732,42.1 C54.9887795,42.2 55.1375984,42.3 55.2864173,42.3 C55.3360236,42.3 55.3856299,42.3 55.4848425,42.25 C55.6832677,42.15 55.732874,41.9 55.6336614,41.75 L53.6494094,38.1 C53.5501969,37.9 53.3021654,37.85 53.1533465,37.95 L49.5320866,39.95 C49.3336614,40.05 49.2840551,40.3 49.3832677,40.45 C49.4824803,40.65 49.7305118,40.7 49.8793307,40.6 L52.7068898,39.05 C52.2108268,41.1 49.9785433,47.45 44.4226378,52.1 C38.817126,56.8 31.5746063,58.55 22.8935039,57.3 C22.6950787,57.25 22.4966535,57.4 22.4470472,57.6 C22.3974409,57.8 22.5462598,58 22.744685,58.05 C24.6297244,58.35 26.4155512,58.45 28.1517717,58.45 C34.6998031,58.45 40.2557087,56.5 44.8194882,52.7 C50.4746063,47.95 52.7564961,41.65 53.3517717,39.3 L54.9391732,42.1 Z" id="Shape"></path>
                <path d="M18.6742215,13.55 C18.7238278,13.65 18.8726467,13.75 19.0214656,13.75 C19.0710719,13.75 19.1206782,13.75 19.2198908,13.7 L21.5513869,12.4 C21.7498121,12.3 21.7994184,12.05 21.7002058,11.9 C21.6009932,11.7 21.3529617,11.65 21.2041428,11.75 L19.5671349,12.6 C20.0135916,11.05 21.4521743,7.4 24.7757963,4.6 C28.3474499,1.6 32.9608357,0.5 38.4671349,1.3 C38.6655601,1.35 38.8639853,1.2 38.9135916,1 C38.9631979,0.8 38.814379,0.6 38.6159538,0.55 C32.8616231,-0.3 28.0498121,0.85 24.3293396,4 C20.906505,6.9 19.418316,10.6 18.922253,12.35 L18.0789459,10.8 C17.9797333,10.6 17.7317018,10.55 17.5828829,10.65 C17.3844577,10.75 17.3348514,11 17.434064,11.15 L18.6742215,13.55 Z" id="Shape"></path>
            </g>
        </g>
    </g>
</svg>