<?xml version="1.0" encoding="UTF-8"?>
<svg width="40px" height="61px" viewBox="0 0 40 61" version="1.1" xmlns="http://www.w3.org/2000/svg" xmlns:xlink="http://www.w3.org/1999/xlink">
    <!-- Generator: Sketch 41.2 (35397) - http://www.bohemiancoding.com/sketch -->
    <title>Support_img_2</title>
    <desc>Created with Sketch.</desc>
    <defs></defs>
    <g id="Page-1" stroke="none" stroke-width="1" fill="none" fill-rule="evenodd">
        <g id="Join-us" transform="translate(-711.000000, -2925.000000)" fill="#08BCBD">
            <path d="M725.035088,2925.25416 C720.005013,2925.25416 715.912281,2929.34689 715.912281,2934.37697 C715.912281,2937.89406 717.902128,2940.96669 720.824561,2942.491 L720.824561,2958.60942 L718.609649,2955.05679 C718.084263,2954.21518 717.602884,2953.44575 716.964912,2952.86381 C716.32694,2952.28187 715.495159,2951.92083 714.508772,2951.92083 C713.276341,2951.92083 712.330699,2952.42102 711.767544,2953.12697 C711.204389,2953.8329 711,2954.68356 711,2955.4296 C711,2965.99809 717.721127,2974.25234 725.035088,2981.65767 L725.035088,2984.90328 C725.035126,2985.29084 725.34929,2985.605 725.736842,2985.60504 L745.385965,2985.60504 C745.773517,2985.605 746.087681,2985.29084 746.087719,2984.90328 L746.087719,2978.82872 C748.510978,2976.34634 749.909488,2972.87328 750.298246,2969.53048 C750.299274,2969.50856 750.299274,2969.48661 750.298246,2969.46469 L750.298246,2959.64013 C750.298246,2957.31964 748.408213,2955.4296 746.087719,2955.4296 C745.001894,2955.4296 744.02848,2955.86985 743.280702,2956.54802 L743.280702,2956.13135 C743.280702,2953.81086 741.390672,2951.92083 739.070175,2951.92083 C737.984349,2951.92083 737.010935,2952.36112 736.263158,2953.03925 L736.263158,2952.62258 C736.263158,2950.30209 734.373125,2948.41206 732.052632,2948.41206 C730.966806,2948.41206 729.993392,2948.85234 729.245614,2949.53048 L729.245614,2942.491 C732.168048,2940.96669 734.157895,2937.89406 734.157895,2934.37697 C734.157895,2929.34689 730.065163,2925.25416 725.035088,2925.25416 Z M725.035088,2926.65767 C729.306651,2926.65767 732.754386,2930.1054 732.754386,2934.37697 C732.754386,2937.09244 731.358566,2939.46976 729.245614,2940.84627 L729.245614,2936.48223 C729.245614,2934.16174 727.355581,2932.27171 725.035088,2932.27171 C722.714594,2932.27171 720.824561,2934.16174 720.824561,2936.48223 L720.824561,2940.84627 C718.71161,2939.46976 717.315789,2937.09244 717.315789,2934.37697 C717.315789,2930.1054 720.763525,2926.65767 725.035088,2926.65767 Z M725.035088,2933.67521 C726.602314,2933.67521 727.842105,2934.915 727.842105,2936.48223 L727.842105,2952.62258 C727.842105,2953.01015 728.156291,2953.32434 728.54386,2953.32434 C728.931428,2953.32434 729.245614,2953.01015 729.245614,2952.62258 C729.245614,2951.05535 730.485406,2949.81556 732.052632,2949.81556 C733.619858,2949.81556 734.859649,2951.05535 734.859649,2952.62258 L734.859649,2956.13135 C734.859649,2956.51892 735.173835,2956.83311 735.561404,2956.83311 C735.948972,2956.83311 736.263158,2956.51892 736.263158,2956.13135 C736.263158,2954.56413 737.502953,2953.32434 739.070175,2953.32434 C740.637398,2953.32434 741.877193,2954.56413 741.877193,2956.13135 L741.877193,2959.64013 C741.877193,2960.02769 742.191379,2960.34188 742.578947,2960.34188 C742.966516,2960.34188 743.280702,2960.02769 743.280702,2959.64013 C743.280702,2958.0729 744.520493,2956.83311 746.087719,2956.83311 C747.654945,2956.83311 748.894737,2958.0729 748.894737,2959.64013 L748.894737,2969.37697 C748.525328,2972.55339 747.177851,2975.87932 744.903509,2978.08311 C744.764832,2978.2144 744.685643,2978.39653 744.684211,2978.58749 L744.684211,2984.20153 L726.438596,2984.20153 L726.438596,2981.39451 C726.442947,2981.20675 726.371857,2981.02507 726.241228,2980.89013 C718.910861,2973.49553 712.403509,2965.49606 712.403509,2955.4296 C712.403509,2954.94658 712.552675,2954.39441 712.864035,2954.00416 C713.175395,2953.61382 713.625227,2953.32434 714.508772,2953.32434 C715.170972,2953.32434 715.577469,2953.51099 716.02193,2953.91644 C716.46639,2954.32185 716.911594,2954.97939 717.425439,2955.80241 L720.934211,2961.41644 C721.101357,2961.67902 721.42148,2961.80013 721.720573,2961.71395 C722.019665,2961.62777 722.226264,2961.35489 722.22807,2961.04364 L722.22807,2936.48223 C722.22807,2934.915 723.467862,2933.67521 725.035088,2933.67521 Z" id="Support_img_2"></path>
        </g>
    </g>
</svg>