<?xml version="1.0" encoding="UTF-8"?>
<svg width="316px" height="64px" viewBox="0 0 316 64" version="1.1" xmlns="http://www.w3.org/2000/svg" xmlns:xlink="http://www.w3.org/1999/xlink">
    <!-- Generator: Sketch 43.2 (39069) - http://www.bohemiancoding.com/sketch -->
    <title>64x64x60_logo</title>
    <desc>Created with Sketch.</desc>
    <defs></defs>
    <g id="Version_2" stroke="none" stroke-width="1" fill="none" fill-rule="evenodd">
        <g id="Logo" transform="translate(-103.000000, -691.000000)">
            <g id="64x64x60_logo" transform="translate(103.000000, 687.000000)">
                <text id="konsileo" font-family="Montserrat-Light, Montserrat" font-size="60" font-weight="300" letter-spacing="1.24000001" fill="#08BCBD">
                    <tspan x="68" y="59">konsileo</tspan>
                </text>
                <g id="Group-2" transform="translate(0.000000, 4.000000)">
                    <circle id="Oval-5" fill="#08BCBD" cx="32" cy="32" r="32"></circle>
                    <rect id="Rectangle" fill="#FFFFFF" x="20.7005674" y="17.3365005" width="2.63529412" height="34.5990471" rx="1.31764706"></rect>
                    <path d="M50.298072,28.7112486 C55.3329448,40.8388313 41.0983548,54.8820782 37.3024224,45.3449216 C35.6740469,41.2513798 38.0351442,36.8578741 40.8605498,33.4414878 L40.2549712,33.9947964 C29.917283,44.1003304 16.7306441,32.5081621 24.9285585,24.727466 C30.1480245,19.7740591 43.5320448,25.3206257 48.3083929,27.7250459 C48.1365141,27.5969608 50.298072,28.7112486 50.298072,28.7112486 Z" id="Shape" fill="#FFFFFF" transform="translate(36.864255, 35.614019) scale(-1, -1) rotate(52.000000) translate(-36.864255, -35.614019) "></path>
                    <path d="M43.0049854,45.6374172 C43.0456354,43.186018 47.3856669,7.46940078 41.8290242,8.57246153 C39.261187,9.08161949 35.940981,10.9646083 31.801575,16.2966427 C28.874089,20.0660652 27.2038264,25.753632 25.268475,32.6510344 C23.9938576,37.1914281 44.2672011,44.6363259 43.0049854,45.6374172 Z" id="Shape" fill="#FFFFFF" transform="translate(34.933651, 27.092427) rotate(24.000000) translate(-34.933651, -27.092427) "></path>
                    <path d="M33.5804793,39.3497685 C27.2562465,45.5319775 19.1891262,38.4402981 24.2043209,33.6803428 C27.397406,30.6500233 36.578527,34.0184044 39.5005283,35.4893438 C39.3953788,35.4109858 33.5804793,39.3497685 33.5804793,39.3497685 Z" id="Shape" fill="#08BCBD" transform="translate(31.068236, 37.109707) scale(-1, -1) rotate(52.000000) translate(-31.068236, -37.109707) "></path>
                    <path d="M37.1355591,40.7454278 C37.1604273,39.2457483 39.8155054,17.3955824 36.4161476,18.0703961 C34.8452354,18.3818809 32.8140505,19.533827 30.2817081,22.7957775 C28.4907754,25.1017771 26.6694951,28.5656237 25.4855154,32.7852111 C24.7057495,35.5628637 37.9077381,40.1329954 37.1355591,40.7454278 Z" id="Shape" fill="#08BCBD" transform="translate(31.799095, 29.400257) rotate(24.000000) translate(-31.799095, -29.400257) "></path>
                </g>
            </g>
        </g>
    </g>
</svg>