<?xml version="1.0" encoding="UTF-8"?>
<svg width="41px" height="83px" viewBox="0 0 41 83" version="1.1" xmlns="http://www.w3.org/2000/svg" xmlns:xlink="http://www.w3.org/1999/xlink">
    <!-- Generator: Sketch 42 (36781) - http://www.bohemiancoding.com/sketch -->
    <title>Manage_Your_Risk</title>
    <desc>Created with Sketch.</desc>
    <defs></defs>
    <g id="Page-1" stroke="none" stroke-width="1" fill="none" fill-rule="evenodd">
        <g id="Home_page:-State_Active" transform="translate(-897.000000, -2777.000000)" fill="#FFFFFF">
            <g id="Manage_Your_Risk" transform="translate(897.000000, 2777.000000)">
                <path d="M17.3797292,6.3905625 C17.3464167,9.6795 14.3337708,12.6081563 11.03925,12.5499375 C7.71227083,12.4917188 4.75514583,9.5056875 4.81152083,6.264 C4.87045833,2.90925 7.75327083,0.145125 11.167375,0.16790625 C14.5532917,0.1906875 17.4130417,3.05353125 17.3797292,6.3905625 Z" id="Shape"></path>
                <path d="M37.5747917,24.3008437 C37.4125,24.2924062 37.25875,24.2755312 37.105,24.2586562 C36.9427083,24.2417812 36.771875,24.2249062 36.6266667,24.2080312 L36.2764583,24.1742812 C35.6529167,24.1067812 35.0635417,24.0477187 34.5083333,23.9549062 C32.0141667,23.4908437 29.699375,22.5036562 27.444375,20.9511562 C26.368125,20.1749062 25.035625,20.1158437 23.83125,20.8499062 L23.5920833,21.0102187 C23.01125,21.3814687 22.4133333,21.7527187 21.8239583,22.0564687 C21.7385417,22.1070937 21.653125,22.1492812 21.5591667,22.1914687 C21.5591667,21.1958437 21.5420833,20.2339687 21.525,19.2974062 C21.5164583,19.0358437 21.448125,18.4367812 21.3883333,17.8545937 C21.3370833,17.3989687 21.2858333,16.9602187 21.2772917,16.7999062 C21.2516667,16.0827187 20.8160417,15.5680312 20.0558333,15.3317812 L19.9277083,15.2980312 C19.01375,15.0195937 18.0997917,14.7158437 17.245625,14.4289687 C17.1772917,14.4036562 17.06625,14.3614687 16.938125,14.3192812 C16.2377083,14.0661562 15.5885417,13.8383437 15.3152083,13.8383437 L15.2041667,13.8467812 C14.7941667,13.9564687 14.6660417,14.3445937 14.6233333,14.4711562 C14.5977083,14.5386562 14.3414583,15.3655312 14.0083333,16.4202187 C13.5983333,17.7280312 13.0772917,19.3817812 12.7527083,20.3942812 L12.3683333,17.5255312 C12.3683333,17.4833437 12.3597917,17.4327187 12.35125,17.4074062 L12.3085417,17.0614687 C12.2914583,16.8842812 12.274375,16.7577187 12.2658333,16.6986562 C12.325625,16.5552187 12.3854167,16.4286562 12.4452083,16.2936562 L12.4622917,16.2430312 C12.4964583,16.1586562 12.5391667,16.0742812 12.5733333,15.9983437 L12.633125,15.8970937 C12.7014583,15.7705312 12.7783333,15.6186562 12.7783333,15.4161562 C12.7783333,15.3317812 12.5904167,14.7664687 12.5391667,14.7242812 C12.4366667,14.5639687 12.3,14.5217812 12.2060417,14.4964687 L12.0864583,14.4795937 C12.0266667,14.4627187 11.9839583,14.4627187 11.966875,14.4627187 C11.8302083,14.4542812 11.505625,14.4542812 11.095625,14.4542812 C10.685625,14.4542812 10.3610417,14.4542812 10.2414583,14.4627187 C10.2158333,14.4627187 10.1645833,14.4627187 10.1047917,14.4795937 L9.97666667,14.4964687 C9.89125,14.5217812 9.763125,14.5639687 9.67770833,14.6905312 C9.60083333,14.7664687 9.41291667,15.3317812 9.41291667,15.4161562 C9.41291667,15.6186562 9.48979167,15.7705312 9.558125,15.8802187 L9.61791667,16.0067812 C9.65208333,16.0742812 9.69479167,16.1586562 9.72895833,16.2430312 L9.74604167,16.2936562 C9.814375,16.4286562 9.865625,16.5552187 9.92541667,16.6986562 C9.916875,16.7577187 9.90833333,16.8842812 9.88270833,17.0614687 L9.84,17.3989687 C9.83145833,17.4327187 9.82291667,17.4833437 9.83145833,17.4917812 L9.43854167,20.3942812 C9.1225,19.3817812 8.59291667,17.7280312 8.18291667,16.4202187 C7.84979167,15.3655312 7.59354167,14.5386562 7.56791667,14.4711562 C7.52520833,14.3445937 7.39708333,13.9564687 6.98708333,13.8467812 L6.87604167,13.8383437 C6.60270833,13.8383437 5.95354167,14.0661562 5.253125,14.3192812 C5.125,14.3614687 5.01395833,14.4036562 4.945625,14.4289687 C4.09145833,14.7158437 3.1775,15.0195937 2.26354167,15.2980312 L2.13541667,15.3317812 C1.37520833,15.5680312 0.939583333,16.0827187 0.913958333,16.7999062 C0.905416667,16.9602187 0.854166667,17.3989687 0.802916667,17.8545937 C0.743125,18.4367812 0.674791667,19.0358437 0.66625,19.2974062 C0.597916667,22.5458437 0.597916667,26.1149062 0.66625,30.1902187 C0.683333333,30.9664687 0.845625,31.7342812 1.153125,32.4599062 C1.460625,33.2108437 1.93041667,33.9533437 2.55395833,34.6705312 C2.57958333,34.6958437 2.59666667,34.7127187 2.62229167,34.7549062 C2.71625,34.8730312 2.793125,34.9995937 2.87,35.1261562 C2.87854167,35.4299062 2.895625,35.7252187 2.91270833,36.0289687 C3.00666667,38.2227187 3.100625,38.4589687 3.16895833,40.4333437 C3.16895833,40.6020937 3.18604167,40.7624062 3.203125,40.8974062 L3.203125,43.5636562 C3.19458333,44.9052187 3.19458333,46.2383437 3.19458333,47.5714687 C3.203125,51.2586562 5.79979167,53.8320937 9.54104167,53.8320937 L12.6672917,53.8320937 L12.6758333,53.8320937 C16.1095833,53.8320937 18.5866667,51.6299062 18.9454167,48.3814687 C20.4914583,49.6302187 22.2425,50.7102187 24.1985417,51.6045937 C24.5914583,51.7733437 25.0441667,51.8661562 25.5139583,51.8661562 C26.08625,51.8661562 26.6414583,51.7227187 27.0770833,51.4780312 C31.903125,48.7527187 35.465,44.9980312 37.6602083,40.3236562 C39.41125,36.5858437 40.2995833,32.3417812 40.385,27.3299062 C40.385,25.9967812 39.5052083,24.4780312 37.5747917,24.3008437 Z M34.619375,38.9314687 C32.7402083,42.9308437 29.67375,46.1624062 25.496875,48.5333437 C22.9002083,47.3436562 20.7220833,45.7742812 18.9966667,43.8589687 C18.3645833,43.1586562 17.7922917,42.4077187 17.2797917,41.6145937 C15.964375,39.5727187 15.0504167,37.2524062 14.50375,34.5270937 C14.19625,32.9070937 14.0254167,31.1774062 13.9997917,29.2705312 L13.99125,28.6630312 L13.99125,27.5914687 C16.7758333,27.3720937 19.27,26.7983437 21.5677083,25.8449062 C22.1997917,25.5917812 22.8147917,25.3049062 23.42125,24.9842812 C24.03625,24.6552187 24.6341667,24.2839687 25.215,23.9211562 L25.57375,23.6933437 C28.1789583,25.4905312 30.980625,26.6717812 33.901875,27.2033437 C34.6877083,27.3467812 35.4820833,27.4227187 36.2508333,27.4986562 C36.5070833,27.5239687 36.7547917,27.5492812 37.0195833,27.5830312 C36.9170833,31.9620937 36.13125,35.6830312 34.619375,38.9314687 Z" id="Shape"></path>
                <path d="M32.4907917,29.7497812 C30.140125,29.3169375 27.8466875,28.4183437 25.691625,27.0632812 L25.691625,36.1125 L33.0665,36.1125 C33.6883333,34.2570937 34.0462292,32.2422187 34.1726458,29.9775937 C33.6319583,29.9202187 33.0673542,29.851875 32.4907917,29.7497812 Z" id="Shape"></path>
                <path d="M19.8149583,40.0055625 C21.2209167,42.190875 23.1453542,43.8868125 25.691625,45.1735313 L25.691625,36.1125 L18.0519583,36.1125 C18.4901458,37.5696563 19.0658542,38.8445625 19.8149583,40.0055625 Z" id="Shape"></path>
                <ellipse id="Oval-4" cx="14" cy="78" rx="5" ry="5"></ellipse>
            </g>
        </g>
    </g>
</svg>