<?xml version="1.0" encoding="UTF-8"?>
<svg width="130px" height="59px" viewBox="0 0 130 59" version="1.1" xmlns="http://www.w3.org/2000/svg" xmlns:xlink="http://www.w3.org/1999/xlink">
    <!-- Generator: Sketch 42 (36781) - http://www.bohemiancoding.com/sketch -->
    <title>Group</title>
    <desc>Created with Sketch.</desc>
    <defs>
        <linearGradient x1="50%" y1="0%" x2="50%" y2="100%" id="linearGradient-1">
            <stop stop-color="#9F4811" offset="0%"></stop>
            <stop stop-color="#F76B1C" offset="100%"></stop>
        </linearGradient>
        <radialGradient cx="50%" cy="0%" fx="50%" fy="0%" r="100%" id="radialGradient-2">
            <stop stop-color="#C76106" offset="0%"></stop>
            <stop stop-color="#CE6A17" offset="73.2511675%"></stop>
            <stop stop-color="#A04911" offset="100%"></stop>
        </radialGradient>
    </defs>
    <g id="Page-1" stroke="none" stroke-width="1" fill="none" fill-rule="evenodd">
        <g id="Group" transform="translate(-4.000000, -9.000000)">
            <path d="M63,46 L71,46 L71,63.9904421 C71,66.2048598 69.2046438,68 67,68 L67,68 C64.790861,68 63,66.1996477 63,63.9904421 L63,46 Z" id="Rectangle" fill="url(#linearGradient-1)"></path>
            <path d="M4.44787226,44.8628375 C3.34214537,44.7706842 2.60706588,43.81213 2.80441103,42.7306981 L9.17202194,7.83682008 C9.37009026,6.75142529 10.4298658,5.91037694 11.5276496,5.9577916 L47.419361,7.50799978 L132.534989,22.5720346 C133.61831,22.7637642 134.371349,23.8026048 134.216268,24.8971569 L130.186241,53.3407794 C130.031465,54.4331794 129.006579,55.2437857 127.903898,55.1518863 L4.44787226,44.8628375 Z" id="Path" fill="url(#radialGradient-2)" transform="translate(68.504446, 30.557435) rotate(-5.000000) translate(-68.504446, -30.557435) "></path>
            <path d="M6.5074993,34.7198794 L10.4030199,10.4870411 C10.4030199,10.4870411 26.420935,11.7588688 34.1176467,12.8874919 C41.8143584,14.016115 90.8449243,22.2828045 90.8449243,22.2828045" id="Path-2" stroke-opacity="0.460286458" stroke="#FFFFFF" transform="translate(48.676212, 22.603460) rotate(-5.000000) translate(-48.676212, -22.603460) "></path>
            <text id="WE-ARE-HIRING" transform="translate(71.000000, 33.000000) rotate(3.000000) translate(-71.000000, -33.000000) " font-family="OpenSans-Bold, Open Sans" font-size="16" font-weight="bold" fill="#FFFFFF">
                <tspan x="10.3515625" y="39">WE ARE HIRING</tspan>
            </text>
            <path d="M68.5,51.5 L68.5,58.5" id="Line" stroke="#FFFFFF" stroke-linecap="square" opacity="0.549139493"></path>
            <circle id="Oval" stroke="#FFFFFF" fill="#FFFFFF" cx="88" cy="25" r="1"></circle>
            <circle id="Oval" stroke="#FFFFFF" fill="#FFFFFF" cx="103" cy="26" r="1"></circle>
        </g>
    </g>
</svg>