<?xml version="1.0" encoding="UTF-8"?>
<svg width="79px" height="79px" viewBox="0 0 79 79" version="1.1" xmlns="http://www.w3.org/2000/svg" xmlns:xlink="http://www.w3.org/1999/xlink">
    <!-- Generator: Sketch 42 (36781) - http://www.bohemiancoding.com/sketch -->
    <title>go_to_market</title>
    <desc>Created with Sketch.</desc>
    <defs></defs>
    <g id="Page-1" stroke="none" stroke-width="1" fill="none" fill-rule="evenodd">
        <g id="HowWeWork" transform="translate(-157.000000, -1325.000000)">
            <g id="go_to_market" transform="translate(157.000000, 1325.000000)">
                <ellipse id="Oval-4" fill="#08BCBD" cx="39.5" cy="39.5" rx="39.5" ry="39.5"></ellipse>
                <g id="Group-3" transform="translate(18.000000, 21.000000)" fill="#FFFFFF">
                    <path d="M32.1805056,9.09013622 C32.1910446,8.84433735 32.176253,8.61622715 32.1581333,8.38461606 C32.1499979,8.30630683 32.1442662,8.218969 32.1372402,8.08759373 L32.1305839,8.03839711 C32.0311104,7.34301108 31.7177133,6.69626892 31.5877321,6.4506543 L31.4634827,6.22420241 C31.2944886,5.95334458 31.1397315,5.7337102 30.9822009,5.54134586 C30.4286252,4.85922635 29.7326802,4.29963775 28.9128557,3.87768916 C28.4803862,3.65787052 27.8957481,3.42220578 27.3680577,3.25305783 L27.3680577,4.36339068 C27.7568919,4.49071229 28.0732473,4.65027888 28.4082771,4.81905831 C29.109584,5.18001783 29.6888601,5.64729365 30.1479545,6.21701639 C30.2581519,6.35078699 30.3703832,6.50445735 30.4717057,6.65978602 L30.6148145,6.89950442 C30.7281551,7.11287406 30.9888571,7.64629815 31.0652188,8.16203357 C31.0702109,8.25139823 31.0757578,8.31588819 31.0818593,8.37448193 L31.0892551,8.48835277 C31.1097785,8.71664723 31.1162498,8.88524241 31.110518,9.04794137 C31.0942473,9.5233245 31.0106747,9.97364867 30.8618342,10.3865687 C30.7214989,10.7913814 30.5201482,11.1838488 30.2636988,11.5508888 C29.9743381,11.9656514 29.6039933,12.3662262 29.1317714,12.7758296 L28.9742408,12.9096002 C28.8342753,13.0391329 28.565253,13.2878798 28.6268231,13.7007998 C28.6534479,13.8581553 28.7270362,14.0046397 28.8385279,14.2266694 L29.1410161,14.8019198 C29.2926301,15.0961783 29.4335201,15.370537 29.5819908,15.644343 L29.6004803,15.6806416 L29.6953315,15.9104101 L29.3982051,15.9315997 C28.5807842,15.8768753 27.8193864,15.7003571 27.1358295,15.4075727 C26.9930905,15.349716 26.8529401,15.2854103 26.7153782,15.2170509 C26.4274966,15.0678027 26.1568103,14.9036297 25.9083114,14.728217 C25.7825828,14.6441958 25.6409532,14.5824697 25.5024668,14.5516988 C25.36472,14.5192696 25.190364,14.5069243 25.081091,14.5220334 L24.9202323,14.536774 C24.8305582,14.5452498 24.758819,14.5522516 24.681163,14.5555682 C24.2841934,14.582654 23.9066377,14.5872604 23.5314857,14.5717828 C23.1372895,14.5555682 22.7782234,14.51669 22.4339488,14.4527528 C21.5220465,14.2858159 20.7208963,13.9631818 19.9857537,13.4673462 C19.8162049,13.3540281 19.6449921,13.2274435 19.4636101,13.0805907 C19.2371137,12.8959651 19.028737,12.6969676 18.8440268,12.4887571 L18.5781478,12.1884182 L23.7912632,12.1884182 C24.9978882,12.1884182 25.9796809,11.2103818 25.9796809,10.0079205 L25.9796809,2.18068193 C25.9796809,2.07565542 25.9726549,1.98168434 25.9587877,1.90097976 C25.8164185,0.814231807 24.8852872,0 23.7914481,0 L11.658821,0 C10.452196,0 9.47058824,0.978220562 9.47058824,2.18068193 L9.47058824,10.0079205 C9.47058824,11.1633963 10.3767588,12.1198745 11.5334621,12.184733 L11.70449,12.1943144 L11.70449,15.6043592 L15.6510745,12.3118704 L15.2302534,11.1630278 L12.8626725,13.1386316 L12.8626725,11.0401284 L11.658821,11.0401284 C11.0878651,11.0401284 10.6234088,10.5770904 10.6234088,10.0081047 L10.6234088,2.18086618 C10.6234088,1.61482859 11.0878651,1.15418602 11.658821,1.15418602 L23.7908935,1.15418602 C24.2296494,1.15418602 24.6221815,1.43517799 24.7669543,1.85325719 C24.8033787,1.96602249 24.8211286,2.07491839 24.8211286,2.18086618 L24.8211286,10.0081047 C24.8211286,10.5770904 24.358891,11.0401284 23.7908935,11.0401284 L16.8388402,11.0401284 L16.8540016,11.0917203 C16.9638292,11.4652093 17.1176619,11.8258003 17.3118017,12.1642805 C17.575462,12.6461126 17.931385,13.1104403 18.37162,13.547498 C18.4993825,13.665054 18.6374991,13.7914543 18.7802381,13.9079047 C19.7840332,14.72748 20.9483172,15.2642207 22.2411033,15.5039391 C22.6561926,15.578379 23.0740554,15.6238904 23.481749,15.6391838 C23.8894425,15.6622159 24.2775372,15.6550299 24.7835949,15.6203896 C24.9043313,15.6108082 25.0304298,15.6006741 25.1371142,15.5864863 L25.2365877,15.5815113 L25.3186811,15.6213108 C25.5902919,15.8122011 25.8892672,15.9905619 26.2324324,16.1668959 C26.3938457,16.2474162 26.5515612,16.3233301 26.7168574,16.3944533 C27.5196716,16.7353288 28.403285,16.9391171 29.3418121,16.9993692 L29.4904678,16.9990006 C29.6611259,16.9932887 29.8155132,16.961228 29.937359,16.9065036 C30.0188978,16.8790493 30.08546,16.838697 30.0985875,16.8292999 C30.1991704,16.7731015 30.2916179,16.6966349 30.3677947,16.6098498 C30.4092112,16.5682077 30.4485938,16.5173528 30.4907499,16.4617071 C30.5913328,16.308221 30.6567856,16.142574 30.6845199,15.96624 C30.6969078,15.8956696 30.7022698,15.8391027 30.7022698,15.7830885 C30.7022698,15.6736398 30.689512,15.6207581 30.6856292,15.6073073 C30.6619627,15.4449769 30.6066791,15.2843047 30.5293929,15.1418741 C30.379628,14.8608821 30.2304177,14.5774948 30.0817621,14.293739 L29.7485812,13.6517875 L29.8565599,13.5585534 C30.3835108,13.1056496 30.8056261,12.6479552 31.147497,12.1594898 C31.4616337,11.7034537 31.7060649,11.2256752 31.8735798,10.7399737 C32.054777,10.2336353 32.1579484,9.67957446 32.1805056,9.09013622 Z" id="Shape"></path>
                    <ellipse id="Oval" cx="22.3584104" cy="6.09212416" rx="1.38782212" ry="1.38303325"></ellipse>
                    <ellipse id="Oval" cx="17.6231162" cy="6.09212416" rx="1.38782212" ry="1.38303325"></ellipse>
                    <ellipse id="Oval" cx="13.5642927" cy="6.09212416" rx="1.38782212" ry="1.38303325"></ellipse>
                    <path d="M13.326806,20.1430999 C13.2012623,18.7491955 12.5406323,17.7228838 11.2156745,17.1749034 C10.6251198,16.9320527 10.0051667,16.8255521 9.37393508,16.8181818 C8.74288833,16.8255521 8.12275039,16.9322369 7.53219565,17.1749034 C6.20723784,17.7228838 5.54660789,18.7490112 5.42106416,20.1430999 C5.40257466,20.3490992 5.41736626,20.5514135 5.41736626,20.7574128 C5.42845996,22.2065943 5.75683354,23.5857582 6.32889877,24.9135143 C6.61678034,25.5755499 7.04129934,26.141956 7.54680236,26.6532692 C8.07079488,27.1828239 8.72051603,27.4367301 9.37375018,27.4109341 C10.0269843,27.4367301 10.6765206,27.1828239 11.200698,26.6532692 C11.7063859,26.141956 12.13072,25.5755499 12.4186016,24.9135143 C12.9906668,23.5857582 13.3192253,22.2064101 13.3301341,20.7574128 C13.3305039,20.5512292 13.3452955,20.348915 13.326806,20.1430999 Z" id="Shape"></path>
                    <path d="M18.9668854,34.709074 C18.9258387,33.6669163 18.8696306,32.6245743 18.5401476,31.6233216 C18.4471454,31.339013 18.3445287,31.0364629 18.1609279,30.8125906 C17.9664183,30.5767416 17.6953622,30.3302057 17.4132124,30.2537391 C16.7315044,30.0696663 16.0486871,29.8929638 15.3647603,29.7208677 C14.3265747,29.4581172 13.2870948,29.2040268 12.2489092,28.9445929 C12.1895579,28.9305894 12.1235504,28.9348273 12.0187149,28.9272727 C12.0057723,28.9746268 11.9928296,29.0208753 11.9798869,29.0682294 C11.79832,29.7357926 11.6287713,30.4044613 11.4244623,31.0622589 C11.1792915,31.8503262 10.903613,32.6299177 10.6303381,33.4084037 C10.6000153,33.4955572 10.5589686,33.5784729 10.5158881,33.6613886 C10.4672607,33.3070623 10.4056906,32.8419975 10.34523,32.3855929 C10.2339231,31.5306403 10.1290877,30.7016679 10.1290877,30.6736608 C10.1723531,30.5756361 10.2111811,30.4831391 10.2522278,30.3937744 C10.2575897,30.3808764 10.2629517,30.3679784 10.2705324,30.3550804 C10.2932745,30.3012774 10.316941,30.2419466 10.3419018,30.1914602 C10.3548445,30.1732188 10.3657533,30.1472385 10.378696,30.126786 C10.4143807,30.0547415 10.4585706,29.9782748 10.4585706,29.8855935 C10.4585706,29.8080213 10.4273234,29.7370824 10.4045813,29.6777516 L10.3916386,29.6519556 C10.3862767,29.6390576 10.3862767,29.6337142 10.378696,29.6186051 C10.373334,29.6003637 10.3603914,29.575489 10.3474487,29.5539309 L10.3420867,29.5421384 C10.3378342,29.536795 10.3291441,29.5292404 10.3291441,29.523897 C10.3139827,29.498101 10.2956781,29.4796753 10.278298,29.4667773 C10.244832,29.4441137 10.211366,29.4365592 10.1852958,29.4312157 L10.1237257,29.4312157 C10.1054211,29.4183177 10.0793509,29.4183177 10.0697364,29.4183177 C9.98431485,29.4129743 9.7703913,29.4129743 9.4948977,29.4129743 C9.22162284,29.4129743 9.00326181,29.4129743 8.9180252,29.4183177 C8.89972059,29.4183177 8.88234046,29.4183177 8.86181711,29.4312157 L8.80782776,29.4312157 C8.76678106,29.4387702 8.7094636,29.4516682 8.66083621,29.523897 C8.65547425,29.5292404 8.65547425,29.536795 8.65011229,29.549693 L8.6425316,29.5539309 C8.64031286,29.5592743 8.63716964,29.5646178 8.6349509,29.5701455 C8.58632351,29.6186051 8.55711009,29.6853061 8.55507625,29.7650894 C8.54527681,29.800651 8.5345529,29.8415561 8.5345529,29.8855935 C8.5345529,29.9782748 8.5755996,30.0545572 8.61442755,30.126786 C8.61664629,30.1321294 8.62200825,30.139684 8.62422699,30.1472385 C8.63291706,30.1623476 8.6425316,30.1783779 8.65011229,30.1914602 C8.67396375,30.2421309 8.69984906,30.3012774 8.72240625,30.3550804 C8.72776821,30.362635 8.73313016,30.3733219 8.7353489,30.3830875 C8.77861434,30.4789012 8.82077041,30.5736093 8.86181711,30.6738451 C8.86181711,30.690981 8.83796565,30.8783704 8.8024658,31.1637845 C8.7170443,31.8131063 8.56580016,32.9575267 8.47187348,33.6617571 C8.42860804,33.5788414 8.38756135,33.4959257 8.35742346,33.4087722 C8.0841486,32.6302862 7.808655,31.850879 7.56329929,31.0626274 C7.35917517,30.4037243 7.18833216,29.7328445 7.00695013,29.06436 C6.99400748,29.019217 6.9821742,28.9727842 6.96904665,28.9276412 C6.86421117,28.9351958 6.79838854,28.9309579 6.73885233,28.9449614 C5.80975479,29.1774938 4.87954788,29.4046827 3.95137481,29.6383206 C3.95026544,29.6383206 3.95026544,29.6394261 3.95026544,29.6394261 C3.15725064,29.8375024 2.36423585,30.0411065 1.57436426,30.2542918 C1.30959458,30.3263363 1.05351496,30.5481818 0.863442862,30.7700273 C0.85050021,30.7840308 0.838666927,30.7991399 0.82664875,30.8131434 C0.643047982,31.0370157 0.540431239,31.3395657 0.447429037,31.6238743 C0.154555304,32.513283 0.0780087605,33.4349367 0.0347433227,34.3608282 C0.030490737,34.4770944 0.024943886,34.5933606 0.0206913002,34.7096268 C-0.00519400446,35.3696355 -0.102448792,35.2415768 0.542465084,35.5116976 C0.701289918,35.5783987 0.862333492,35.6377294 1.02652028,35.6915325 C2.19339284,36.0683381 3.38078874,36.3192962 4.58001793,36.4860488 C5.75336181,36.6507746 6.93964834,36.7325847 8.12926298,36.7768064 C8.35723856,36.7854665 10.1745718,36.7983645 10.1745718,36.7983645 C10.4025474,36.7919155 10.630523,36.7854665 10.8584986,36.7768064 C12.7374019,36.7089998 14.6065058,36.5398518 16.434563,36.1134811 C16.9467222,35.9950038 17.4555534,35.8551527 17.9612413,35.6913482 C18.1254281,35.6375452 18.2864716,35.5782144 18.4452965,35.5115134 C19.0900255,35.2410241 18.9927707,35.3690827 18.9668854,34.709074 Z" id="Shape"></path>
                    <path d="M40.3012006,17.139773 C40.1756569,15.7458686 39.5150269,14.7195569 38.1900691,14.1715765 C37.5995144,13.9287258 36.9795613,13.8222252 36.3483297,13.8148549 C35.7172829,13.8222252 35.097145,13.92891 34.5065903,14.1715765 C33.1816325,14.7195569 32.5210025,15.7456843 32.3954588,17.139773 C32.3769693,17.3457724 32.3917609,17.5480866 32.3917609,17.7540859 C32.4028546,19.2032675 32.7312282,20.5824313 33.3032934,21.9101875 C33.591175,22.572223 34.015694,23.1386291 34.521197,23.6499423 C35.0451895,24.179497 35.6949107,24.4334032 36.3481448,24.4076072 C37.001379,24.4334032 37.6509152,24.179497 38.1750926,23.6499423 C38.6807805,23.1386291 39.1051146,22.572223 39.3929962,21.9101875 C39.9650614,20.5824313 40.2936199,19.2030832 40.3045287,17.7540859 C40.3048985,17.5480866 40.3196901,17.3457724 40.3012006,17.139773 Z" id="Shape"></path>
                    <path d="M45.8214267,31.2903443 C45.78038,30.2481865 45.7241719,29.2058445 45.394689,28.2045918 C45.3016868,27.9202832 45.19907,27.6177332 45.0154693,27.3938609 C44.8209597,27.1580119 44.5497187,26.911476 44.2677538,26.8350093 C43.5860458,26.6509365 42.9032284,26.4742341 42.2193017,26.302138 C41.1811161,26.0393875 40.1416362,25.785297 39.1034506,25.5258631 C39.0440993,25.5118596 38.9780918,25.5160975 38.8732563,25.508543 C38.8603136,25.555897 38.847371,25.6021455 38.8344283,25.6494996 C38.6528614,26.3170628 38.4833126,26.9857316 38.2790036,27.6435292 C38.0338328,28.4315965 37.7581543,29.211188 37.4848795,29.9896739 C37.4545567,30.0768275 37.41351,30.1597431 37.3704294,30.2426588 C37.321802,29.8883325 37.260232,29.4232678 37.1997713,28.9668631 C37.0884645,28.1119105 36.983629,27.2829382 36.983629,27.2549311 C37.0268945,27.1569063 37.0657224,27.0644093 37.1067691,26.9750447 C37.1121311,26.9621467 37.117493,26.9492487 37.1250737,26.9363507 C37.1478158,26.8825476 37.1714824,26.8232169 37.1964432,26.7727304 C37.2093859,26.754489 37.2202947,26.7285088 37.2332373,26.7080562 C37.2689221,26.6360117 37.313112,26.5595451 37.313112,26.4668638 C37.313112,26.3892916 37.2818647,26.3183526 37.2591226,26.2590218 L37.24618,26.2332259 C37.240818,26.2203279 37.240818,26.2149844 37.2332373,26.1998753 C37.2278754,26.1816339 37.2149327,26.1567592 37.2019901,26.1352011 L37.1966281,26.1234087 C37.1923755,26.1180652 37.1836855,26.1105107 37.1836855,26.1051672 C37.1685241,26.0793712 37.1502195,26.0609455 37.1328393,26.0480476 C37.0993733,26.0253839 37.0659073,26.0178294 37.0398371,26.0124859 L36.9782671,26.0124859 C36.9599625,25.999588 36.9338923,25.999588 36.9242777,25.999588 C36.8388562,25.9942445 36.6249327,25.9942445 36.3494391,25.9942445 C36.0761642,25.9942445 35.8578032,25.9942445 35.7725666,25.999588 C35.754262,25.999588 35.7368818,25.999588 35.7163585,26.0124859 L35.6623691,26.0124859 C35.6213224,26.0200405 35.564005,26.0329385 35.5153776,26.1051672 C35.5100156,26.1105107 35.5100156,26.1180652 35.5046537,26.1309632 L35.497073,26.1352011 C35.4948542,26.1405446 35.491711,26.145888 35.4894923,26.1514157 C35.4408649,26.1998753 35.4116515,26.2665764 35.4096176,26.3463597 C35.3998182,26.3819213 35.3890943,26.4228263 35.3890943,26.4668638 C35.3890943,26.5595451 35.430141,26.6358275 35.4689689,26.7080562 C35.4711877,26.7133997 35.4765496,26.7209542 35.4787684,26.7285088 C35.4874584,26.7436178 35.497073,26.7596482 35.5046537,26.7727304 C35.5285051,26.8234011 35.5543904,26.8825476 35.5769476,26.9363507 C35.5823096,26.9439052 35.5876715,26.9545921 35.5898903,26.9643578 C35.6331557,27.0601714 35.6753118,27.1548795 35.7163585,27.2551153 C35.7163585,27.2722512 35.692507,27.4596406 35.6570072,27.7450548 C35.5715857,28.3943765 35.4203415,29.5387969 35.3264148,30.2430273 C35.2831494,30.1601116 35.2421027,30.077196 35.2119648,29.9900424 C34.93869,29.2115565 34.6631964,28.4321492 34.4178407,27.6438977 C34.2137165,26.9849945 34.0428735,26.3141147 33.8614915,25.6456302 C33.8485488,25.6004872 33.8367156,25.5540545 33.8237729,25.5089115 C33.7189374,25.516466 33.6531148,25.5122281 33.5935786,25.5262316 C32.6644811,25.758764 31.7342741,25.9859529 30.8061011,26.2195908 C30.8049917,26.2195908 30.8049917,26.2206964 30.8049917,26.2206964 C30.0119769,26.4187727 29.2189621,26.6223767 28.4290905,26.8355621 C28.1643208,26.9076066 27.9082412,27.129452 27.7181691,27.3512975 C27.7052265,27.365301 27.6933932,27.3804101 27.681375,27.3944137 C27.4977742,27.6182859 27.3951575,27.920836 27.3021553,28.2051446 C27.0092816,29.0945533 26.932735,30.0162069 26.8894696,30.9420985 C26.885217,31.0583647 26.8796701,31.1746308 26.8754176,31.290897 C26.8495323,31.9509057 26.7522775,31.8228471 27.3971913,32.0929679 C27.5560162,32.1596689 27.7170598,32.2189997 27.8812465,32.2728027 C29.0481191,32.6496084 30.235515,32.9005664 31.4347442,33.067319 C32.6080881,33.2320448 33.7943746,33.3138549 34.9839892,33.3580766 C35.2119648,33.3667367 37.0292981,33.3796347 37.0292981,33.3796347 C37.2572737,33.3731857 37.4852493,33.3667367 37.7132248,33.3580766 C39.5921282,33.29027 41.4612321,33.1211221 43.2892892,32.6947513 C43.8014485,32.5762741 44.3102796,32.436423 44.8159675,32.2726185 C44.9801543,32.2188154 45.1411979,32.1594847 45.3000227,32.0927836 C45.9447517,31.82211 45.8474969,31.9503529 45.8214267,31.2903443 Z" id="Shape"></path>
                </g>
            </g>
        </g>
    </g>
</svg>