<?xml version="1.0" encoding="UTF-8"?>
<svg width="89px" height="59px" viewBox="0 0 89 59" version="1.1" xmlns="http://www.w3.org/2000/svg" xmlns:xlink="http://www.w3.org/1999/xlink">
    <!-- Generator: Sketch 41.2 (35397) - http://www.bohemiancoding.com/sketch -->
    <title>Community_img_2</title>
    <desc>Created with Sketch.</desc>
    <defs>
        <path d="M15.8804737,56.8704737 L5.85686842,46.8460526 L2.5415,43.5306842 L2.05692105,43.0461053 L2.05528947,43.0477368 C1.14405263,42.0328947 0.585236842,40.6941842 0.585236842,39.2225 C0.585236842,37.1079737 2.29594737,35.3980789 4.40965789,35.3980789 L27.3521053,35.3980789 C27.7632632,35.3980789 28.1507632,35.4796579 28.5219474,35.5987632 C27.7167632,36.5866842 27.233,37.8470789 27.233,39.2216842 C27.233,40.9903158 27.8415789,42.6072105 28.8490789,43.9010526 L25.9048947,46.8452368 L15.8804737,56.8704737 Z M44.4396316,56.8704737 L34.4160263,46.8460526 L31.4718421,43.9018684 L31.1006579,43.5306842 L30.6160789,43.0461053 L30.6144474,43.0477368 C30.4496579,42.8641842 30.3003684,42.6667632 30.1600526,42.4628158 C29.5237368,41.5401579 29.1443947,40.4282368 29.1443947,39.2216842 C29.1443947,38.2223421 29.5351579,37.3225263 30.1600526,36.6421579 C30.6013947,36.1624737 31.1626579,35.8043421 31.7989737,35.5987632 C32.1693421,35.4796579 32.5584737,35.3980789 32.9688158,35.3980789 L55.9112632,35.3980789 C56.3583158,35.3980789 56.7800789,35.4886316 57.179,35.6289474 C57.8063421,35.8500263 58.3521053,36.2261053 58.7803947,36.7155789 C59.3677632,37.3877895 59.7356842,38.2582368 59.7356842,39.2216842 C59.7356842,40.3898947 59.38,41.47 58.7803947,42.3730789 C58.6245789,42.6088421 58.4548947,42.8364474 58.2656316,43.0469211 L58.264,43.0452895 L57.7794211,43.5298684 L57.4751316,43.8341579 L54.4640526,46.8452368 L44.4396316,56.8704737 Z M73.1195263,56.8704737 L63.0959211,46.8460526 L60.0848421,43.8349737 C61.0613421,42.5525526 61.6470789,40.9593158 61.6470789,39.2225 C61.6470789,37.8601316 61.1714737,36.6127895 60.3809737,35.6297632 C60.7790789,35.4894474 61.2016579,35.3988947 61.6487105,35.3988947 L84.5911579,35.3988947 C86.7048684,35.3988947 88.4155789,37.1087895 88.4155789,39.2233158 C88.4155789,40.6958158 87.8567632,42.0337105 86.9455263,43.0485526 L86.9438947,43.0469211 L86.4593158,43.5315 L83.1439474,46.8468684 L73.1195263,56.8704737 Z" id="path-1"></path>
    </defs>
    <g id="Page-1" stroke="none" stroke-width="1" fill="none" fill-rule="evenodd">
        <g id="Join-us" transform="translate(-681.000000, -5427.000000)" stroke="#08BCBD">
            <g id="Community_img_2" transform="translate(681.000000, 5428.000000)">
                <g id="Shape">
                    <use xlink:href="#path-1"></use>
                    <use xlink:href="#path-1"></use>
                    <use xlink:href="#path-1"></use>
                </g>
                <circle id="Oval-2" cx="16.5" cy="21.5" r="6.5"></circle>
                <circle id="Oval-2" cx="31.5" cy="6.63052632" r="6.5"></circle>
                <circle id="Oval-2" cx="44.2924211" cy="22.5" r="6.5"></circle>
                <circle id="Oval-2" cx="59.4677368" cy="6.5" r="6.5"></circle>
                <circle id="Oval-2" cx="73.2647059" cy="22.5" r="6.5"></circle>
            </g>
        </g>
    </g>
</svg>