<?xml version="1.0" encoding="UTF-8"?>
<svg width="61px" height="63px" viewBox="0 0 61 63" version="1.1" xmlns="http://www.w3.org/2000/svg" xmlns:xlink="http://www.w3.org/1999/xlink">
    <!-- Generator: Sketch 41.2 (35397) - http://www.bohemiancoding.com/sketch -->
    <title>Freedom_img_1</title>
    <desc>Created with Sketch.</desc>
    <defs></defs>
    <g id="Page-1" stroke="none" stroke-width="1" fill="none" fill-rule="evenodd">
        <g id="Join-us" transform="translate(-297.000000, -1088.000000)" stroke="#08BCBD" stroke-width="2">
            <g id="Freedom_img_1" transform="translate(297.000000, 1089.000000)">
                <path d="M12.585,40.3473913 L29.7504545,51.6991304" id="Shape"></path>
                <polyline id="Shape" points="51.2209091 49.9173913 27.915 60 5.70954545 44.7808696 0.0695454545 44.7808696"></polyline>
                <path d="M33.7295455,28.6682609 C33.3395455,33.0026087 29.3563636,36.2165217 24.8195455,35.85 C20.2895455,35.4769565 16.9309091,31.6591304 17.3168182,27.3234783 C17.7027273,22.9917391 21.6913636,19.7778261 26.2281818,20.1469565 C30.7527273,20.52 34.1195455,24.3313043 33.7295455,28.6682609 Z" id="Shape"></path>
                <path d="M59.9004545,30.81 C59.5186364,35.1417391 55.5354545,38.3595652 51.0027273,37.9865217 C46.4659091,37.6173913 43.1059091,33.8034783 43.4918182,29.4665217 C43.8777273,25.1269565 47.8704545,21.9169565 52.4018182,22.2873913 C56.9386364,22.6604348 60.2904545,26.4704348 59.9004545,30.81 Z" id="Shape"></path>
                <path d="M48.8727273,8.54869565 C48.4868182,12.8843478 44.5036364,16.1021739 39.9668182,15.7252174 C35.4340909,15.36 32.0781818,11.5408696 32.4640909,7.20913043 C32.85,2.86956522 36.8413636,-0.340434783 41.3659091,0.0286956522 C45.9027273,0.40173913 49.2709091,4.21173913 48.8727273,8.54869565 Z" id="Shape"></path>
            </g>
        </g>
    </g>
</svg>