<?xml version="1.0" encoding="utf-8"?>
<!-- Generator: Adobe Illustrator 21.0.0, SVG Export Plug-In . SVG Version: 6.00 Build 0)  -->
<svg version="1.1" id="Layer_1" xmlns="http://www.w3.org/2000/svg" xmlns:xlink="http://www.w3.org/1999/xlink" x="0px" y="0px"
	 viewBox="0 0 20 14" style="enable-background:new 0 0 20 14;" xml:space="preserve">
<style type="text/css">
	.st0{fill:#888888;}
</style>
<title>Twitter_grey_logo</title>
<desc>Created with Sketch.</desc>
<g id="About-Us-page">
	<g id="About-us_V5_b" transform="translate(-315.000000, -6971.000000)">
		<g id="Group-31" transform="translate(315.000000, 6971.000000)">
			<path id="Twitter_grey_logo" class="st0" d="M6.9,13.5c5.9-0.1,9.2-5.1,9.2-9.3c0-0.1,0-0.3,0-0.4c0.6-0.5,1.2-1,1.7-1.7
				c-0.6,0.3-1.2,0.4-1.9,0.5c0.7-0.4,1.2-1,1.5-1.8c-0.6,0.4-1.4,0.6-2.1,0.8c-0.6-0.6-1.5-1-2.4-1c-1.8,0-3.3,1.5-3.3,3.3
				c0,0.3,0,0.5,0.1,0.7C6.7,4.4,4.3,3.1,2.6,1.1c-0.3,0.5-0.4,1-0.4,1.7c0,1.1,0.6,2.1,1.5,2.7c-0.5,0-1.1-0.2-1.5-0.4c0,0,0,0,0,0
				c0,1.6,1.1,2.9,2.7,3.2C4.5,8.4,4.2,8.4,3.9,8.4c-0.2,0-0.4,0-0.6-0.1c0.4,1.3,1.6,2.3,3.1,2.3c-1.1,0.9-2.6,1.4-4.1,1.4
				c-0.3,0-0.5,0-0.8,0v0c1.4,0.9,3.1,1.4,4.9,1.5H6.9"/>
		</g>
	</g>
</g>
</svg>
