<?xml version="1.0" encoding="UTF-8"?>
<svg width="383px" height="913px" viewBox="0 0 383 913" version="1.1" xmlns="http://www.w3.org/2000/svg" xmlns:xlink="http://www.w3.org/1999/xlink">
    <!-- Generator: Sketch 42 (36781) - http://www.bohemiancoding.com/sketch -->
    <title>Group 37</title>
    <desc>Created with Sketch.</desc>
    <defs></defs>
    <g id="Page-1" stroke="none" stroke-width="1" fill="none" fill-rule="evenodd">
        <g id="Group-37">
            <rect id="Rectangle-4" fill="#007373" x="0" y="0" width="383" height="912.676471"></rect>
            <g id="Meet_Broker" transform="translate(130.000000, 129.000000)" fill="#FFFFFF">
                <g id="Group-12">
                    <path d="M14.5602886,12.3962347 L14.5602886,12.3965998 C14.5582777,11.3222991 14.5550993,10.7521701 14.550364,10.7063529 C14.4816702,10.0535948 14.1998247,9.40789482 13.755618,8.88431318 C13.6297768,8.73609181 13.3078437,8.43447714 13.1509961,8.31680057 C12.6626801,7.95373123 12.0600691,7.69081476 11.4518796,7.57691065 C11.0370575,7.49908835 11.3280492,7.50353012 7.31851291,7.50353012 L6.05925698,7.50353012 C3.5133714,7.5038952 3.57376223,7.5087629 3.27518113,7.55567532 C2.20053563,7.72434102 1.2505638,8.29745148 0.655088119,9.13639903 C0.308505703,9.62456817 0.110403008,10.1530175 0.0516987059,10.7462072 C0.0437849767,10.8281062 0.0393740457,12.3578408 0.0393740457,15.2758425 C0.0393740457,19.1742592 0.0413849113,19.6929731 0.057666436,19.781261 C0.157690783,20.3268081 0.624925135,20.7282106 1.22520095,20.7847975 C1.83215803,20.8417496 2.41654152,20.496569 2.61347661,19.9655642 C2.68139198,19.7823562 2.67620264,20.1160368 2.68015951,15.8157918 L2.68372717,11.8741743 L3.02473106,11.8741743 L3.36612414,11.8741743 L3.36612414,22.644136 C3.36612414,30.3922316 3.36930261,33.4423913 3.3792272,33.5149808 C3.47289462,34.2381381 4.10930115,34.826886 4.90683639,34.92856 C5.48719815,35.0030358 6.07236004,34.8112485 6.4701871,34.4169042 C6.69449591,34.1945722 6.83979717,33.9328118 6.90926933,33.6252342 L6.93664305,33.503846 L6.93982151,27.1890437 L6.94261078,20.8742415 L7.30742072,20.8742415 L7.67223066,20.8742415 L7.67223066,27.1793692 C7.67223066,32.9106563 7.67378746,33.4938064 7.69130145,33.5898825 C7.8473057,34.4507956 8.73494069,35.0473927 9.68413412,34.9297161 C10.0080781,34.8894967 10.2979022,34.7793043 10.5527632,34.5994429 C10.6762044,34.5123111 10.8687934,34.3235053 10.9477361,34.2117916 C11.0632636,34.0490889 11.1497957,33.8624736 11.2049972,33.6562049 L11.2304249,33.5608589 L11.2336034,22.7183076 L11.2351602,17.8759228 L6.75877874,17.8759228 C6.54400532,17.8759228 6.34947029,17.8003518 6.19664451,17.6796937 C6.15337846,17.6458024 6.11445848,17.6081994 6.07910617,17.5672499 C6.06697611,17.5531945 6.05562445,17.5387739 6.04453225,17.5241708 C6.04252139,17.5214936 6.04025106,17.5189989 6.03830506,17.5163825 C6.02546146,17.4990413 6.01339627,17.4812134 6.00210948,17.4626553 C5.9620219,17.3978541 5.93062645,17.328246 5.91038806,17.2541353 C5.89254974,17.1889691 5.88022508,17.1219165 5.88022508,17.0515783 L5.88022508,17.0512132 C5.88022508,17.1216123 5.89254974,17.188604 5.91038806,17.2537703 C5.93062645,17.328246 5.9620219,17.3978541 6.00210948,17.4622902 C6.02513713,17.499163 6.05056485,17.5337845 6.07910617,17.5669457 C6.11445848,17.6078952 6.15376766,17.6454982 6.19664451,17.6793895 C6.34908109,17.8000475 6.54361612,17.8756185 6.75877874,17.8756185 C6.67821438,17.8756185 6.60056903,17.8649704 6.52681567,17.8453171 C6.60050416,17.8649704 6.67821438,17.8756185 6.75877874,17.8756185 L11.234771,17.8756185 L11.234771,17.8752535 L11.478929,17.8752535 C11.9636773,17.8752535 12.3578718,17.505491 12.3578718,17.0507873 L12.3578718,16.4743303 L13.1947163,16.4743303 C13.9247902,16.4743303 14.5210443,15.9287832 14.5555533,15.2514432 L14.5619103,15.2514432 L14.5619103,12.3964173 L14.5602886,12.3964173 L14.5602886,12.3962347 Z M11.4794641,10.0945443 C11.4857641,10.0945443 11.4917641,10.0954443 11.4980641,10.0955443 C11.4915641,10.0954443 11.4853641,10.0945443 11.4788641,10.0945443 L11.4794641,10.0945443 Z M5.8980634,10.7532654 C5.91752339,10.6650384 5.9548217,10.5834436 6.00204461,10.5078726 C5.95527577,10.5834436 5.91752339,10.6650384 5.8980634,10.7532654 Z M6.25586774,17.7222252 C6.31697211,17.763053 6.38352527,17.7970052 6.45448937,17.8224998 C6.38352527,17.7970052 6.31697211,17.763053 6.25586774,17.7222252 Z M11.234771,17.805402 L6.75877874,17.805402 C6.53764839,17.805402 6.33675643,17.7205215 6.19106598,17.583861 C6.04537552,17.4472004 5.95488657,17.2587597 5.95488657,17.0513349 L5.95488657,17.0509698 C5.95488657,17.2583946 6.04537552,17.4468353 6.19106598,17.5834959 C6.33675643,17.7201565 6.53764839,17.8050369 6.75877874,17.8050369 L11.234771,17.8050369 L11.234771,17.805402 Z M12.2085488,13.9095408 L12.2081596,13.9095408 L11.9183355,13.9095408 L11.2355494,13.9095408 L10.8965563,13.9095408 C10.1446872,13.9095408 9.52936234,14.486728 9.52936234,15.1919964 C9.52936234,15.8972648 10.1446872,16.474452 10.8965563,16.474452 L11.234771,16.474452 L12.2077704,16.474452 L12.2077704,17.050909 C12.2077704,17.4281555 11.880648,17.7349421 11.4785398,17.7349421 L11.2343818,17.7349421 L6.75877874,17.7349421 C6.35660562,17.7349421 6.02954806,17.4280947 6.02954806,17.050909 L6.02954806,10.9193755 C6.02954806,10.542129 6.35667049,10.2353424 6.75877874,10.2353424 L11.4793182,10.2353424 C11.8814913,10.2353424 12.2085488,10.5421899 12.2085488,10.9193755 L12.2085488,13.9095408 Z M12.3581962,12.3965998 L12.357807,12.3965998 L12.357807,10.9190105 C12.357807,10.8054106 12.3332225,10.6970435 12.288724,10.5984118 C12.2442904,10.4997192 12.1799427,10.4111271 12.1001567,10.3362863 C11.9806724,10.2242076 11.8274574,10.144499 11.65595,10.1113987 C11.6443389,10.1091474 11.6322737,10.108113 11.620468,10.1062876 C11.6324034,10.108113 11.6445335,10.1091474 11.6563392,10.1113987 C11.8278466,10.1445599 11.9810616,10.2242076 12.1005459,10.3362863 C12.1799427,10.4107621 12.2446147,10.4997801 12.2891132,10.5984118 C12.3335468,10.6971043 12.3581962,10.8054714 12.3581962,10.9190105 L12.3581962,12.3965998 Z" id="Shape"></path>
                    <path d="M10.4254767,2.10829968 C10.3428692,1.22443783 9.90817563,0.573663144 9.03635535,0.226193859 C8.64777121,0.0722044446 8.23984302,0.00467342683 7.82449354,0 C7.40926571,0.00467342683 7.00121587,0.0723212802 6.61263172,0.226193859 C5.74081145,0.573663144 5.30611792,1.22432099 5.22351033,2.10829968 C5.21134427,2.23892196 5.22107712,2.36720753 5.22107712,2.49782981 C5.22837676,3.41674236 5.44444609,4.29125735 5.82086416,5.1331752 C6.01028981,5.55296576 6.28962268,5.91211862 6.62224292,6.2363376 C6.96702922,6.57212332 7.39454477,6.73312287 7.82437188,6.71676588 C8.25419898,6.73312287 8.68159287,6.57212332 9.02650084,6.2363376 C9.35924274,5.91211862 9.63845395,5.55296576 9.82787959,5.1331752 C10.2042977,4.29125735 10.4204887,3.41662552 10.4276666,2.49782981 C10.42791,2.36709069 10.4376428,2.23880512 10.4254767,2.10829968 Z" id="Shape"></path>
                </g>
            </g>
            <g id="Go_To_Market" transform="translate(123.000000, 274.000000)" fill="#FFFFFF">
                <path d="M23.9021871,6.75618233 C23.910015,6.57349398 23.8990285,6.40395261 23.88557,6.23180924 C23.8795274,6.17360643 23.8752702,6.10869317 23.8700516,6.0110494 L23.8651076,5.97448434 C23.7912233,5.45764337 23.5584465,4.97695663 23.4619025,4.79440522 L23.3696157,4.62609639 C23.2440948,4.42478313 23.1291484,4.26154137 23.012142,4.11856787 C22.6009716,3.61158715 22.084056,3.19567671 21.4751283,2.88206627 C21.15391,2.71868755 20.719668,2.54353133 20.327724,2.41781325 L20.327724,3.24306064 C20.616532,3.33769157 20.8515062,3.45628835 21.1003508,3.58173253 C21.621249,3.85001325 22.0515084,4.19731285 22.3925024,4.62075542 C22.474352,4.72017952 22.5577122,4.83439398 22.6329698,4.94984096 L22.7392644,5.12801004 C22.8234485,5.28659558 23.0170859,5.68305944 23.0738038,6.06637631 C23.0775117,6.13279598 23.0816317,6.18072771 23.0861636,6.22427711 L23.0916569,6.30891084 C23.1069007,6.47858916 23.1117073,6.60389639 23.10745,6.72482129 C23.0953648,7.07814659 23.033291,7.41284699 22.9227392,7.71974699 C22.8185046,8.02062129 22.6689507,8.31232008 22.4784719,8.58512008 C22.2635482,8.89338956 21.9884733,9.19111406 21.6377287,9.495549 L21.5207223,9.59497309 C21.4167624,9.69124739 21.2169452,9.87612691 21.2626765,10.1830269 C21.2824523,10.2999803 21.3371102,10.4088538 21.4199211,10.5738759 L21.6445953,11.0014269 C21.7572071,11.2201325 21.8618537,11.4240478 21.9721308,11.6275522 L21.985864,11.6545309 L22.056315,11.8253048 L21.8356234,11.8410538 C21.228481,11.8003803 20.6629501,11.6691843 20.1552357,11.4515743 C20.0492158,11.4085727 19.9451186,11.3607779 19.842944,11.3099703 C19.6291189,11.1990426 19.4280656,11.0770221 19.2434921,10.9466478 C19.1501068,10.8841996 19.0449109,10.8383221 18.9420496,10.8154518 C18.8397377,10.791349 18.7102341,10.7821735 18.6290712,10.7934032 L18.5095928,10.804359 C18.4429871,10.8106586 18.3897025,10.8158627 18.3320233,10.8183277 C18.0371726,10.838459 17.7567418,10.8418827 17.4780963,10.8303791 C17.1853056,10.8183277 16.9186079,10.7894317 16.6628968,10.7419108 C15.985578,10.6178361 15.3905208,10.3780406 14.844491,10.0095141 C14.718558,9.92529116 14.5913891,9.83120803 14.4566669,9.72206064 C14.2884359,9.58483896 14.1336633,9.43693534 13.9964692,9.28218434 L13.7989866,9.05895944 L17.671047,9.05895944 C18.5672721,9.05895944 19.2965021,8.33204056 19.2965021,7.43831928 L19.2965021,1.62077711 C19.2965021,1.54271687 19.2912835,1.47287349 19.2809836,1.41289036 C19.1752384,0.605172289 18.4836372,0 17.6711843,0 L8.65963151,0 C7.76340642,0 7.03431373,0.727055823 7.03431373,1.62077711 L7.03431373,7.43831928 C7.03431373,8.29711888 7.70737519,9.00801486 8.56652078,9.05622048 L8.69355238,9.06334177 L8.69355238,11.5978345 L11.6248923,9.15071446 L11.3123259,8.29684498 L9.55379662,9.7651992 L9.55379662,8.2055008 L8.65963151,8.2055008 C8.23555197,8.2055008 7.89057535,7.861351 7.89057535,7.43845622 L7.89057535,1.62091406 C7.89057535,1.20021044 8.23555197,0.857840964 8.65963151,0.857840964 L17.6707723,0.857840964 C17.9966599,0.857840964 18.2882145,1.06668635 18.3957451,1.37742088 C18.4227994,1.46123293 18.4359832,1.54216908 18.4359832,1.62091406 L18.4359832,7.43845622 C18.4359832,7.861351 18.0926545,8.2055008 17.6707723,8.2055008 L12.5071096,8.2055008 L12.5183708,8.24384618 C12.5999456,8.52143936 12.7142054,8.78944618 12.8584034,9.04101928 C13.0542381,9.39913775 13.3186011,9.74424618 13.6455873,10.0690863 C13.7404834,10.156459 13.84307,10.2504052 13.9490899,10.3369562 C14.6946623,10.9461 15.5594385,11.3450289 16.5196601,11.523198 C16.8279692,11.5785249 17.1383383,11.612351 17.4411541,11.6237177 C17.74397,11.6408361 18.0322287,11.6354952 18.4081049,11.609749 C18.4977823,11.6026277 18.5914424,11.5950956 18.6706826,11.5845506 L18.744567,11.580853 L18.8055421,11.6104337 C19.007282,11.7523116 19.229347,11.8848771 19.4842342,12.0159361 C19.6041246,12.0757823 19.7212683,12.1322048 19.8440426,12.1850667 C20.4403358,12.4384201 21.0966428,12.5898843 21.7937373,12.6346663 L21.9041518,12.6343924 C22.0309087,12.630147 22.1455805,12.6063181 22.2360819,12.5656446 C22.2966451,12.5452394 22.3460844,12.5152478 22.3558349,12.5082635 C22.4305432,12.4664944 22.499209,12.409661 22.5557895,12.3451586 C22.5865518,12.3142084 22.6158034,12.2764108 22.647115,12.2350526 C22.7218233,12.1209751 22.7704386,11.997859 22.7910383,11.8668 C22.8002395,11.814349 22.8042221,11.772306 22.8042221,11.7306739 C22.8042221,11.6493269 22.7947463,11.6100229 22.7918623,11.6000257 C22.7742839,11.4793747 22.7332218,11.3599562 22.6758172,11.2540956 C22.5645787,11.0452502 22.4537523,10.8346245 22.3433378,10.6237249 L22.0958665,10.1465988 L22.1760681,10.0773032 C22.5674627,9.74068554 22.8809904,9.40050723 23.1349163,9.03745863 C23.3682424,8.69851285 23.5497946,8.34340723 23.6742169,7.98241285 C23.8088017,7.60608032 23.8854327,7.19427831 23.9021871,6.75618233 Z" id="Shape"></path>
                <ellipse id="Oval" cx="16.6067903" cy="4.52793012" rx="1.03080991" ry="1.02793012"></ellipse>
                <ellipse id="Oval" cx="13.0896334" cy="4.52793012" rx="1.03080991" ry="1.02793012"></ellipse>
                <ellipse id="Oval" cx="10.0749276" cy="4.52793012" rx="1.03080991" ry="1.02793012"></ellipse>
                <path d="M9.89853344,14.9712229 C9.80528538,13.9352129 9.31460009,13.1724137 8.33048287,12.7651309 C7.8918462,12.5846337 7.43137383,12.5054779 6.96252424,12.5 C6.49381198,12.5054779 6.03320228,12.5847707 5.59456561,12.7651309 C4.6104484,13.1724137 4.11976311,13.9350759 4.02651505,14.9712229 C4.0127819,15.1243305 4.02376842,15.2746992 4.02376842,15.4278068 C4.0320083,16.5049012 4.27590897,17.5299554 4.70081249,18.5168012 C4.91463757,19.0088546 5.22995059,19.4298321 5.60541479,19.8098622 C5.99461214,20.2034502 6.47719488,20.3921643 6.96238691,20.3729916 C7.44757894,20.3921643 7.93002435,20.2034502 8.31935903,19.8098622 C8.69496056,19.4298321 9.01013625,19.0088546 9.22396133,18.5168012 C9.64886485,17.5299554 9.89290285,16.5047643 9.9010054,15.4278068 C9.90128007,15.2745622 9.91226658,15.1241936 9.89853344,14.9712229 Z" id="Shape"></path>
                <path d="M14.0877228,25.7972847 C14.0572352,25.022708 14.0154865,24.2479944 13.7707618,23.5038201 C13.7016841,23.2925096 13.6254651,23.0676414 13.489095,22.9012498 C13.3446223,22.7259566 13.1432944,22.5427205 12.9337266,22.4858871 C12.4273855,22.3490763 11.9202205,22.2177434 11.4122314,22.0898341 C10.6411153,21.8945466 9.86903783,21.7056956 9.0979217,21.5128731 C9.05383831,21.5024651 9.00481098,21.5056149 8.92694404,21.5 C8.91733084,21.5351956 8.90771764,21.5695695 8.89810444,21.6047651 C8.76324495,22.1009269 8.637312,22.5979104 8.48556074,23.0868141 C8.30345923,23.6725398 8.09869803,24.2519659 7.89572214,24.8305703 C7.87319978,24.8953466 7.8427122,24.9569731 7.81071397,25.0185996 C7.7745958,24.755249 7.72886442,24.4095928 7.68395703,24.0703731 C7.6012835,23.4349353 7.52341656,22.8188072 7.52341656,22.7979912 C7.55555212,22.7251349 7.58439173,22.6563871 7.61487931,22.5899675 C7.61886192,22.5803811 7.62284454,22.5707948 7.62847513,22.5612084 C7.6453669,22.5212197 7.66294532,22.4771225 7.68148507,22.4395988 C7.69109827,22.426041 7.69920083,22.4067313 7.70881403,22.3915301 C7.735319,22.3379835 7.76814122,22.2811502 7.76814122,22.2122655 C7.76814122,22.1546104 7.7449322,22.1018855 7.72804043,22.0577884 L7.71842723,22.0386157 C7.71444462,22.0290293 7.71444462,22.0250578 7.70881403,22.0138281 C7.70483142,22.0002703 7.69521821,21.9817823 7.68560501,21.9657594 L7.6816224,21.9569948 C7.67846378,21.9530233 7.6720092,21.9474084 7.6720092,21.9434369 C7.66074802,21.9242643 7.6471522,21.9105695 7.63424305,21.9009831 C7.60938605,21.8841386 7.58452906,21.8785237 7.56516533,21.8745522 L7.51943395,21.8745522 C7.50583814,21.8649659 7.4864744,21.8649659 7.47933317,21.8649659 C7.41588603,21.8609944 7.25699354,21.8609944 7.05236967,21.8609944 C6.84939378,21.8609944 6.68720533,21.8609944 6.62389553,21.8649659 C6.61029971,21.8649659 6.59739056,21.8649659 6.58214676,21.8745522 L6.54204598,21.8745522 C6.5115584,21.8801671 6.46898564,21.8897534 6.43286747,21.9434369 C6.42888486,21.9474084 6.42888486,21.9530233 6.42490225,21.9626096 L6.41927166,21.9657594 C6.41762368,21.9697309 6.41528905,21.9737024 6.41364107,21.9778108 C6.37752289,22.0138281 6.35582452,22.0634032 6.35431388,22.1227016 C6.34703531,22.1491325 6.33907009,22.1795349 6.33907009,22.2122655 C6.33907009,22.2811502 6.36955767,22.3378466 6.39839728,22.3915301 C6.40004525,22.3955016 6.40402787,22.4011165 6.40567584,22.4067313 C6.41213042,22.417961 6.41927166,22.4298755 6.42490225,22.4395988 C6.442618,22.4772594 6.46184441,22.5212197 6.47859885,22.5612084 C6.48258146,22.5668233 6.48656407,22.5747663 6.48821205,22.5820245 C6.52034761,22.6532373 6.55165918,22.7236285 6.58214676,22.7981281 C6.58214676,22.8108643 6.56443101,22.9501402 6.53806337,23.1622723 C6.47461623,23.6448763 6.3622791,24.495459 6.29251472,25.0188735 C6.26037916,24.957247 6.22989158,24.8956205 6.20750655,24.8308442 C6.00453066,24.2522398 5.79990679,23.6729506 5.61766795,23.087088 C5.46605402,22.5973627 5.33915976,22.0987357 5.2044376,21.6018892 C5.1948244,21.5683369 5.18603518,21.5338261 5.17628465,21.5002739 C5.09841771,21.5058888 5.04952772,21.502739 5.00530699,21.513147 C4.31521642,21.6859751 3.62430187,21.8548317 2.93489796,22.0284815 C2.93407397,22.0284815 2.93407397,22.0293032 2.93407397,22.0293032 C2.34505936,22.1765221 1.75604474,22.3278494 1.16936476,22.486298 C0.972706117,22.5398446 0.782502051,22.7047297 0.641325314,22.8696149 C0.631712112,22.8800229 0.622922899,22.8912526 0.613996354,22.9016606 C0.477626219,23.0680522 0.401407261,23.2929205 0.332329538,23.5042309 C0.114796512,24.1652779 0.0579412895,24.8502908 0.0258057288,25.5384534 C0.0226471054,25.6248675 0.0185271617,25.7112815 0.0153685382,25.7976956 C-0.00385786563,26.2882426 -0.0760942114,26.1930639 0.402917907,26.3938293 C0.520885627,26.4434044 0.640501325,26.4875016 0.762451658,26.5274904 C1.62915048,26.8075486 2.51109309,26.9940715 3.40182491,27.1180092 C4.27333033,27.2404406 5.15444895,27.3012454 6.03803954,27.3341129 C6.20736922,27.3405494 7.5572001,27.3501357 7.5572001,27.3501357 C7.72652979,27.3453426 7.89585947,27.3405494 8.06518916,27.3341129 C9.46075141,27.2837161 10.8490351,27.157998 12.2068312,26.8411008 C12.5872393,26.7530434 12.9651755,26.6491 13.340777,26.5273534 C13.4627274,26.4873647 13.5823431,26.4432675 13.7003108,26.3936924 C14.1791856,26.192653 14.1069492,26.2878317 14.0877228,25.7972847 Z" id="Shape"></path>
                <g id="Group-13" transform="translate(19.595588, 10.000000)">
                    <path d="M10.3382745,2.73902048 C10.2450265,1.70301044 9.75434119,0.940211245 8.77022398,0.532928514 C8.33158731,0.352431325 7.87111494,0.273275502 7.40226534,0.26779759 C6.93355309,0.273275502 6.47294338,0.352568273 6.03430671,0.532928514 C5.0501895,0.940211245 4.55950421,1.70287349 4.46625615,2.73902048 C4.452523,2.89212811 4.46350952,3.04249679 4.46350952,3.19560442 C4.47174941,4.2726988 4.71565007,5.29775301 5.1405536,6.2845988 C5.35437867,6.77665221 5.6696917,7.19762972 6.0451559,7.57765984 C6.43435324,7.97124779 6.91693598,8.15996185 7.40212801,8.14078916 C7.88732005,8.15996185 8.36976545,7.97124779 8.75910013,7.57765984 C9.13470166,7.19762972 9.44987735,6.77665221 9.66370243,6.2845988 C10.088606,5.29775301 10.332644,4.27256185 10.3407465,3.19560442 C10.3410212,3.04249679 10.3520077,2.89212811 10.3382745,2.73902048 Z" id="Shape"></path>
                    <path d="M14.4384425,13.2563369 C14.4079549,12.4817602 14.3662061,11.7070466 14.1214815,10.9628723 C14.0524038,10.7515618 13.9761848,10.5266936 13.8398147,10.360302 C13.695342,10.1850088 13.4938767,10.0017727 13.2844463,9.94493936 C12.7781052,9.80812851 12.2709401,9.67679558 11.7629511,9.54888635 C10.9918349,9.3535988 10.2197575,9.16474779 9.44864137,8.9719253 C9.40455797,8.96151727 9.35553064,8.96466707 9.27766371,8.95905221 C9.2680505,8.99424779 9.2584373,9.02862169 9.2488241,9.06381727 C9.11396461,9.55997912 8.98803167,10.0569627 8.83628041,10.5458663 C8.6541789,11.131592 8.4494177,11.7110181 8.2464418,12.2896225 C8.22391945,12.3543988 8.19343186,12.4160253 8.16143363,12.4776518 C8.12531546,12.2143012 8.07958409,11.868645 8.0346767,11.5294253 C7.95200316,10.8939876 7.87413623,10.2778594 7.87413623,10.2570434 C7.90627179,10.1841871 7.93511139,10.1154394 7.96559898,10.0490197 C7.96958159,10.0394333 7.9735642,10.029847 7.97919479,10.0202606 C7.99608656,9.98027189 8.01366499,9.9361747 8.03220473,9.898651 C8.04181793,9.88509317 8.04992049,9.86578353 8.05953369,9.85058233 C8.08603866,9.79703574 8.11886088,9.74020241 8.11886088,9.67131767 C8.11886088,9.61366265 8.09565187,9.56093775 8.0787601,9.51684056 L8.06914689,9.49766787 C8.06516428,9.48808153 8.06516428,9.48411004 8.05953369,9.47288032 C8.05555108,9.45932249 8.04593788,9.44083454 8.03632468,9.42481165 L8.03234206,9.41604699 C8.02918344,9.4120755 8.02272886,9.40646064 8.02272886,9.40248916 C8.01146768,9.38331647 7.99787187,9.36962169 7.98496271,9.36003534 C7.96010572,9.34319076 7.93524872,9.3375759 7.91588499,9.33360442 L7.87015361,9.33360442 C7.8565578,9.32401807 7.83719407,9.32401807 7.83005283,9.32401807 C7.7666057,9.32004659 7.6077132,9.32004659 7.40308933,9.32004659 C7.20011344,9.32004659 7.03792499,9.32004659 6.97461519,9.32401807 C6.96101938,9.32401807 6.94811022,9.32401807 6.93286643,9.33360442 L6.89276564,9.33360442 C6.86227806,9.33921928 6.81970531,9.34880562 6.78358714,9.40248916 C6.77960452,9.40646064 6.77960452,9.4120755 6.77562191,9.42166185 L6.76999132,9.42481165 C6.76834334,9.42878313 6.76600871,9.43275462 6.76436073,9.43686305 C6.72824256,9.47288032 6.70654419,9.52245542 6.70503354,9.58175382 C6.69775498,9.60818474 6.68978975,9.63858715 6.68978975,9.67131767 C6.68978975,9.74020241 6.72027733,9.7968988 6.74911694,9.85058233 C6.75076492,9.85455382 6.75474753,9.86016867 6.75639551,9.86578353 C6.76285009,9.87701325 6.76999132,9.88892771 6.77562191,9.898651 C6.79333767,9.93631165 6.81256407,9.98027189 6.82931851,10.0202606 C6.83330112,10.0258755 6.83728374,10.0338185 6.83893171,10.0410767 C6.87106727,10.1122896 6.90237885,10.1826807 6.93286643,10.2571803 C6.93286643,10.2699165 6.91515067,10.4091924 6.88878303,10.6213245 C6.8253359,11.1039285 6.71299877,11.9545112 6.64323439,12.4779257 C6.61109883,12.4162992 6.58061124,12.3546727 6.55822622,12.2898964 C6.35525033,11.711292 6.15062646,11.1320028 5.96838761,10.5461402 C5.81677369,10.0564149 5.68987942,9.55778795 5.55515726,9.06094137 C5.54554406,9.02738916 5.53675485,8.99287831 5.52714165,8.9593261 C5.44927471,8.96494096 5.40038471,8.96179116 5.35616398,8.9721992 C4.66607342,9.14502731 3.97515886,9.31388394 3.28575495,9.48753373 C3.28493097,9.48753373 3.28493097,9.48835542 3.28493097,9.48835542 C2.69591635,9.6355743 2.10690174,9.78690161 1.52022176,9.9453502 C1.32356311,9.99889679 1.13335905,10.1637819 0.99218231,10.3286671 C0.982569108,10.3390751 0.973779895,10.3503048 0.96485335,10.3607129 C0.828483215,10.5271044 0.752264257,10.7519727 0.683186534,10.9632831 C0.465653508,11.6243301 0.408798285,12.309343 0.376662725,12.9975056 C0.373504101,13.0839197 0.369384158,13.1703337 0.366225534,13.2567478 C0.34699913,13.7472948 0.274762785,13.6521161 0.753774903,13.8528815 C0.871742623,13.9024566 0.991358321,13.9465538 1.11330865,13.9865426 C1.98000747,14.2666008 2.86195008,14.4531237 3.7526819,14.5770614 C4.62418732,14.6994928 5.50530594,14.7602976 6.38889653,14.7931651 C6.55822622,14.7996016 7.9080571,14.809188 7.9080571,14.809188 C8.07738678,14.8043948 8.24671647,14.7996016 8.41604615,14.7931651 C9.81160841,14.7427683 11.1998921,14.6170502 12.5576882,14.300153 C12.9380963,14.2120956 13.3160325,14.1081522 13.691634,13.9864056 C13.8135844,13.9464169 13.9332001,13.9023197 14.0511678,13.8527446 C14.5300426,13.6515683 14.4578062,13.7468839 14.4384425,13.2563369 Z" id="Shape"></path>
                </g>
            </g>
            <g id="Manage_Your_Insurance" transform="translate(126.000000, 410.000000)">
                <path d="M4.02622378,18.1360664 L1.68116259,18.1360664 C0.95872669,18.1360664 0.37263986,18.7252724 0.37263986,19.4517903 L3.01395688,31.7237675 C3.01395688,32.4495589 3.59968677,33.0394914 4.32212267,33.0394914 L23.6983246,33.0394914 C24.4196897,33.0394914 25.0057765,32.4495589 25.0057765,31.7237675 L27.6467366,19.4517903 C27.6467366,18.7252724 27.0610067,18.1360664 26.3389277,18.1360664 L24.051333,18.1360664 L4.02622378,18.1360664 Z M14.0104021,26.4205501 C13.622771,26.4205501 13.3083115,26.1005189 13.3083115,25.7045667 C13.3083115,25.3111572 13.622771,24.9907628 14.0104021,24.9907628 C14.3980332,24.9907628 14.7121358,25.3111572 14.7121358,25.7045667 C14.7121358,26.1005189 14.3980332,26.4205501 14.0104021,26.4205501 Z" id="Shape" fill="#FFFFFF"></path>
                <path d="M15.8918051,18.1360664 L14.6057692,18.1360664" id="Shape"></path>
                <path d="M14.0396707,13.1754022 C16.4539773,13.1754022 18.4417468,10.4618578 18.7001675,6.97457187 C18.7315778,6.74935132 18.7483537,6.51904515 18.75228,6.28510638 L17.9984339,7.16600934 C18.4139059,6.22843799 16.9336976,3.84364297 16.9336976,3.84364297 C14.4383668,5.68064349 10.7276734,3.84364297 10.7276734,3.84364297 C9.60796911,4.29335755 10.1380172,7.49766476 10.1380172,7.49802802 C9.85889423,7.29968864 9.60297203,7.19652309 9.39416521,7.14348729 C9.70148601,10.5497665 11.6639132,13.1754022 14.0396707,13.1754022 Z" id="Shape"></path>
                <path d="M8.73133741,6.94551116 C8.73490676,6.99709393 8.73990385,7.04795018 8.74383013,7.09953295 C9.08291812,10.998028 11.3244682,14.0105345 14.0393138,14.0105345 C16.789139,14.0105345 19.0535329,10.9195641 19.3465763,6.94732745 C19.38691,6.66216917 19.4079691,6.36938246 19.4079691,6.0725999 C19.4079691,5.7743643 19.3861961,5.4823041 19.3465763,5.19678256 C18.9535912,2.43674105 16.7266754,0.320757654 14.0396707,0.320757654 C11.3508814,0.320757654 9.12396562,2.43819408 8.73169435,5.20005189 C8.69136072,5.48448365 8.67101544,5.77618059 8.67101544,6.07368967 C8.67101544,6.19356513 8.67494172,6.31307732 8.68172348,6.43222626 C8.69136072,6.60550078 8.70777972,6.77623249 8.73133741,6.94551116 Z M10.7276734,3.84400623 C10.7276734,3.84400623 14.4383668,5.68100675 16.9336976,3.84400623 C16.9336976,3.84400623 18.4139059,6.22880125 17.9984339,7.1663726 L18.75228,6.28546964 C18.7479968,6.51904515 18.7312209,6.74971458 18.6987398,6.97493513 C18.4417468,10.4622211 16.4539773,13.1757654 14.0393138,13.1757654 C11.6635562,13.1757654 9.70148601,10.5497665 9.39345134,7.14348729 C9.60190122,7.19688635 9.8585373,7.30041515 10.1376603,7.49802802 C10.1380172,7.49766476 9.60761218,4.29372081 10.7276734,3.84400623 Z" id="Shape" fill="#FFFFFF"></path>
                <path d="M18.298259,13.1038402 C18.2846955,13.7577063 17.1614219,15.4959004 16.0467147,17.0648158 L23.9488928,17.0648158 C22.8966492,14.8870784 20.7853802,13.3355994 18.298259,13.1038402 Z" id="Shape" fill="#FFFFFF"></path>
                <path d="M14.5183202,16.0022833 C15.0112471,15.7432797 15.3931672,15.2042034 15.3931672,14.6553191 C15.3931672,14.6553191 14.6593094,14.984795 13.9118881,14.984795 C13.1637529,14.984795 12.430252,14.6553191 12.430252,14.6553191 C12.430252,15.2042034 12.8128861,15.7432797 13.3061699,16.0022833 L13.2329983,17.0648158 L14.590778,17.0648158 L14.5183202,16.0022833 Z" id="Shape" fill="#FFFFFF"></path>
                <path d="M9.78036859,13.1038402 C7.29289044,13.3345096 5.18233537,14.8870784 4.12902098,17.0648158 L11.8355988,17.0648158 C10.8190487,15.4959004 9.79428904,13.7577063 9.78036859,13.1038402 Z" id="Shape" fill="#FFFFFF"></path>
                <ellipse id="Oval" fill="#007373" cx="14.0104021" cy="25.7060197" rx="0.702447552" ry="0.714893617"></ellipse>
                <path d="M25.1000073,33.5970939 L2.92151078,33.5970939 C2.60883596,33.5970939 2.35576923,33.8550078 2.35576923,34.1721328 C2.35576923,34.4899844 2.60883596,34.7478983 2.92151078,34.7478983 L25.1000073,34.7478983 C25.4116113,34.7478983 25.665035,34.4899844 25.665035,34.1721328 C25.6636072,33.8550078 25.4108974,33.5970939 25.1000073,33.5970939 Z" id="Shape" fill="#FFFFFF"></path>
                <path d="M15.8918051,18.1740815 C15.9435606,18.0891424 15.9949592,18.0037766 16.0470717,17.9188376 L14.590421,17.9188376 L14.6057692,18.1740815 L15.8918051,18.1740815 Z" id="Shape" fill="#FFFFFF"></path>
                <path d="M13.218007,18.1740815 L13.2329983,17.9188376 L11.8352418,17.9188376 C11.8823572,18.0046303 11.9301865,18.0891424 11.9776588,18.1740815 L13.218007,18.1740815 Z" id="Shape" fill="#FFFFFF"></path>
                <path d="M4.20362034,33.2574468 L23.8175408,33.2574468 C24.5467584,33.2574468 25.1371285,32.65589 25.1371285,31.9133887 L27.7788024,19.2628957 C27.7788024,18.5211209 27.1884324,17.9188376 26.457787,17.9188376 L23.9496066,17.9188376 C23.9842293,17.9903996 24.018495,18.0623249 24.05169,18.1360664 L26.3392847,18.1360664 C27.0613636,18.1360664 27.6481643,18.7252724 27.6481643,19.4517903 L25.0061334,31.7237675 C25.0061334,32.4495589 24.4211174,33.0394914 23.6986815,33.0394914 L4.3224796,33.0394914 C3.60004371,33.0394914 3.01431381,32.4495589 3.01431381,31.7237675 L0.372282925,19.4517903 C0.372282925,18.7245459 0.957655886,18.1360664 1.68044872,18.1360664 L4.02586684,18.1360664 C4.0583479,18.0623249 4.09368444,17.9903996 4.12830711,17.9188376 L1.56230332,17.9188376 C0.832371795,17.9188376 0.241644814,18.5196679 0.241644814,19.2628957 L2.88224796,31.9133887 C2.88224796,32.6555267 3.47333188,33.2574468 4.20362034,33.2574468 Z" id="Shape" fill="#FFFFFF"></path>
                <path d="M11.9776588,18.1740815 C11.9305434,18.0891424 11.8823572,18.0046303 11.8355988,17.9188376 L4.12866404,17.9188376 C4.09368444,18.0029229 4.05906177,18.0874351 4.02586684,18.1740815 L11.9776588,18.1740815 Z" id="Shape" fill="#FFFFFF"></path>
                <polygon id="Shape" fill="#FFFFFF" points="14.6057692 18.1740815 14.590421 17.9188376 13.2326413 17.9188376 13.218007 18.1740815"></polygon>
                <path d="M24.05169,18.1740815 C24.0195659,18.0874351 23.9845862,18.0029229 23.9496066,17.9188376 L16.0470717,17.9188376 C15.9949592,18.0037766 15.9435606,18.0899961 15.8918051,18.1740815 L24.05169,18.1740815 Z" id="Shape" fill="#FFFFFF"></path>
            </g>
            <g id="Manage_Your_Risk" transform="translate(127.000000, 553.000000)" fill="#FFFFFF">
                <path d="M11.2275113,4.14203125 C11.205991,6.27375 9.25978604,8.17195312 7.13148649,8.13421875 C4.98221847,8.09648437 3.07188063,6.16109375 3.10829955,4.06 C3.14637387,1.885625 5.00870495,0.0940625 7.21425676,0.108828125 C9.4015991,0.12359375 11.2490315,1.97914062 11.2275113,4.14203125 Z" id="Shape"></path>
                <path d="M24.2737613,15.7505469 C24.1689189,15.7450781 24.0695946,15.7341406 23.9702703,15.7232031 C23.8654279,15.7122656 23.7550676,15.7013281 23.6612613,15.6903906 L23.4350225,15.6685156 C23.0322072,15.6247656 22.651464,15.5864844 22.2927928,15.5263281 C20.6815315,15.2255469 19.1861486,14.5857031 17.7293919,13.5794531 C17.0341216,13.0763281 16.1733108,13.0380469 15.3952703,13.5138281 L15.2407658,13.6177344 C14.8655405,13.8583594 14.4792793,14.0989844 14.098536,14.2958594 C14.0433559,14.3286719 13.9881757,14.3560156 13.9274775,14.3833594 C13.9274775,13.7380469 13.9164414,13.1146094 13.9054054,12.5075781 C13.8998874,12.3380469 13.8557432,11.9497656 13.8171171,11.5724219 C13.784009,11.2771094 13.7509009,10.9927344 13.7453829,10.8888281 C13.7288288,10.4239844 13.4474099,10.0903906 12.9563063,9.93726563 L12.873536,9.91539063 C12.2831081,9.73492188 11.6926802,9.53804688 11.1408784,9.35210938 C11.0967342,9.33570313 11.025,9.30835938 10.9422297,9.28101563 C10.4897523,9.11695313 10.0703829,8.96929688 9.89380631,8.96929688 L9.82207207,8.97476563 C9.55720721,9.04585938 9.47443694,9.29742188 9.44684685,9.37945313 C9.43029279,9.42320313 9.26475225,9.95914063 9.04954955,10.6427344 C8.78468468,11.4903906 8.44808559,12.5622656 8.2384009,13.2185156 L7.99009009,11.3591406 C7.99009009,11.3317969 7.98457207,11.2989844 7.97905405,11.2825781 L7.95146396,11.0583594 C7.94042793,10.9435156 7.92939189,10.8614844 7.92387387,10.8232031 C7.9625,10.7302344 8.00112613,10.6482031 8.03975225,10.5607031 L8.05078829,10.5278906 C8.07286036,10.4732031 8.10045045,10.4185156 8.12252252,10.3692969 L8.16114865,10.3036719 C8.20529279,10.2216406 8.25495495,10.1232031 8.25495495,9.99195313 C8.25495495,9.93726563 8.13355856,9.57085938 8.10045045,9.54351563 C8.03423423,9.43960938 7.94594595,9.41226563 7.88524775,9.39585938 L7.8079955,9.38492188 C7.76936937,9.37398438 7.74177928,9.37398438 7.73074324,9.37398438 C7.64245495,9.36851563 7.43277027,9.36851563 7.16790541,9.36851563 C6.90304054,9.36851563 6.69335586,9.36851563 6.6161036,9.37398438 C6.59954955,9.37398438 6.56644144,9.37398438 6.52781532,9.38492188 L6.44504505,9.39585938 C6.38986486,9.41226563 6.30709459,9.43960938 6.25191441,9.52164063 C6.20225225,9.57085938 6.08085586,9.93726563 6.08085586,9.99195313 C6.08085586,10.1232031 6.13051802,10.2216406 6.17466216,10.2927344 L6.21328829,10.3747656 C6.23536036,10.4185156 6.26295045,10.4732031 6.28502252,10.5278906 L6.29605856,10.5607031 C6.3402027,10.6482031 6.37331081,10.7302344 6.41193694,10.8232031 C6.40641892,10.8614844 6.4009009,10.9435156 6.38434685,11.0583594 L6.35675676,11.2771094 C6.35123874,11.2989844 6.34572072,11.3317969 6.35123874,11.3372656 L6.09740991,13.2185156 C5.89324324,12.5622656 5.55112613,11.4903906 5.28626126,10.6427344 C5.07105856,9.95914063 4.90551802,9.42320313 4.88896396,9.37945313 C4.86137387,9.29742188 4.7786036,9.04585938 4.51373874,8.97476563 L4.4420045,8.96929688 C4.26542793,8.96929688 3.84605856,9.11695313 3.39358108,9.28101563 C3.31081081,9.30835938 3.23907658,9.33570313 3.19493243,9.35210938 C2.64313063,9.53804688 2.0527027,9.73492188 1.46227477,9.91539063 L1.3795045,9.93726563 C0.888400901,10.0903906 0.606981982,10.4239844 0.590427928,10.8888281 C0.58490991,10.9927344 0.551801802,11.2771094 0.518693694,11.5724219 C0.480067568,11.9497656 0.435923423,12.3380469 0.430405405,12.5075781 C0.386261261,14.6130469 0.386261261,16.9263281 0.430405405,19.5677344 C0.441441441,20.0708594 0.546283784,20.5685156 0.744932432,21.0388281 C0.943581081,21.5255469 1.24707207,22.0067969 1.64988739,22.4716406 C1.66644144,22.4880469 1.67747748,22.4989844 1.69403153,22.5263281 C1.75472973,22.6028906 1.80439189,22.6849219 1.85405405,22.7669531 C1.85957207,22.9638281 1.87060811,23.1552344 1.88164414,23.3521094 C1.94234234,24.7739844 2.00304054,24.9271094 2.04718468,26.2067969 C2.04718468,26.3161719 2.05822072,26.4200781 2.06925676,26.5075781 L2.06925676,28.2357031 C2.06373874,29.1052344 2.06373874,29.9692969 2.06373874,30.8333594 C2.06925676,33.2232031 3.74673423,34.8911719 6.16362613,34.8911719 L8.18322072,34.8911719 L8.18873874,34.8911719 C10.406982,34.8911719 12.0072072,33.4638281 12.238964,31.3583594 C13.2377252,32.1677344 14.3689189,32.8677344 15.632545,33.4474219 C15.8863739,33.5567969 16.1788288,33.6169531 16.4823198,33.6169531 C16.852027,33.6169531 17.2106982,33.5239844 17.4921171,33.3653906 C20.6097973,31.5989844 22.9108108,29.1653906 24.3289414,26.1357031 C25.4601351,23.7130469 26.034009,20.9622656 26.0891892,17.7138281 C26.0891892,16.8497656 25.5208333,15.8653906 24.2737613,15.7505469 Z M22.364527,25.2333594 C21.1505631,27.8255469 19.1695946,29.9200781 16.4712838,31.4567969 C14.7938063,30.6857031 13.3867117,29.6685156 12.2720721,28.4271094 C11.8637387,27.9732031 11.4940315,27.4864844 11.1629505,26.9724219 C10.3131757,25.6489844 9.72274775,24.1450781 9.36959459,22.3786719 C9.17094595,21.3286719 9.06058559,20.2075781 9.04403153,18.9716406 L9.03851351,18.5778906 L9.03851351,17.8833594 C10.8373874,17.7411719 12.4486486,17.3692969 13.9329955,16.7513281 C14.3413288,16.5872656 14.7386261,16.4013281 15.1304054,16.1935156 C15.5277027,15.9802344 15.913964,15.7396094 16.2891892,15.5044531 L16.5209459,15.3567969 C18.2039414,16.5216406 20.0138514,17.2872656 21.9010135,17.6317969 C22.4086712,17.7247656 22.9218468,17.7739844 23.4184685,17.8232031 C23.584009,17.8396094 23.7440315,17.8560156 23.9150901,17.8778906 C23.8488739,20.7161719 23.3412162,23.1278906 22.364527,25.2333594 Z" id="Shape"></path>
                <path d="M20.9894369,19.2822656 C19.4708784,19.0017187 17.9892905,18.4192969 16.5970946,17.5410156 L16.5970946,23.40625 L21.3613514,23.40625 C21.7630631,22.2036719 21.994268,20.8977344 22.0759347,19.4299219 C21.7266441,19.3927344 21.3619032,19.3484375 20.9894369,19.2822656 Z" id="Shape"></path>
                <path d="M12.8006982,25.9295313 C13.708964,27.3459375 14.9521734,28.4451563 16.5970946,29.2791406 L16.5970946,23.40625 L11.6617793,23.40625 C11.9448536,24.3507031 12.316768,25.1770312 12.8006982,25.9295313 Z" id="Shape"></path>
            </g>
            <g id="Long_Term_Commitment" transform="translate(125.000000, 693.000000)" fill="#FFFFFF">
                <path d="M29.9742992,24.4393333 C29.9742992,25.2385 29.8463068,26.0079167 29.609697,26.7283333 L29.5568561,26.7131667 C29.5568561,26.7131667 29.5920833,26.6151667 29.6472727,26.4279167 C29.7024621,26.2418333 29.7776136,25.9653333 29.8392614,25.6036667 C29.8997348,25.2431667 29.9467045,24.7963333 29.9396591,24.28125 C29.9326136,23.76675 29.8662689,23.1845833 29.7083333,22.5674167 C29.6742803,22.44025 29.6361174,22.3095833 29.5950189,22.1783333 C29.6008902,22.1701667 29.6055871,22.1631667 29.6114583,22.155 C29.8474811,22.8736667 29.9742992,23.6419167 29.9742992,24.4393333 Z" id="Shape"></path>
                <ellipse id="Oval" cx="29.1493939" cy="30.5135833" rx="1.41378788" ry="1.40466667"></ellipse>
                <ellipse id="Oval" cx="25.2444508" cy="32.9945" rx="1.19420455" ry="1.1865"></ellipse>
                <ellipse id="Oval" cx="20.6132386" cy="33.1724167" rx="1.05623106" ry="1.04941667"></ellipse>
                <ellipse id="Oval" cx="16.7717045" cy="31.241" rx="0.65405303" ry="0.649833333"></ellipse>
                <path d="M32.7877841,24.7630833 C32.7877841,25.7290833 32.6445265,26.6624167 32.3767992,27.5415 L29.609697,26.7283333 C29.8468939,26.0079167 29.9742992,25.2385 29.9742992,24.4393333 C29.9742992,23.6419167 29.8474811,22.8736667 29.6114583,22.1544167 C29.1441098,20.7281667 28.2516856,19.49325 27.0839015,18.59725 C27.0498485,18.5704167 27.0157955,18.54475 26.9811553,18.5190833 C26.4633144,18.12825 25.8779545,17.7945833 25.2497348,17.5379167 C24.8452083,17.374 24.4207197,17.2474167 23.98625,17.1546667 L23.8218561,17.1190833 L23.6562879,17.0916667 C23.5470833,17.073 23.4331818,17.0525833 23.332197,17.0420833 L23.1760227,17.024 C23.1237689,17.0175833 23.075625,17.01 23.0069318,17.0076667 L22.8172917,16.9965833 L22.7227652,16.99075 L22.6740341,16.9884167 L22.6511364,16.9866667 L22.6393939,16.9866667 L22.6294129,16.9866667 C21.7358144,16.95925 20.8316477,17.07825 19.9850189,17.3471667 C19.1301705,17.6219167 18.3316856,18.0360833 17.6394697,18.5558333 C16.9490152,19.0761667 16.3595455,19.6898333 15.9027652,20.3449167 C15.7841667,20.5065 15.6802462,20.6739167 15.5769129,20.8401667 C15.5264205,20.9235833 15.4817992,21.0075833 15.4336553,21.091 C15.3849242,21.1744167 15.3414773,21.259 15.3009659,21.3435833 C15.1260038,21.679 14.9909659,22.0214167 14.8741288,22.3521667 C14.8195265,22.5195833 14.7625758,22.6829167 14.7220644,22.84625 C14.7015152,22.9273333 14.6762689,23.0078333 14.6592424,23.0883333 C14.6404545,23.1694167 14.623428,23.24875 14.6069886,23.3286667 C14.5987689,23.36775 14.5899621,23.4074167 14.5817424,23.4441667 C14.574697,23.4838333 14.5676515,23.5229167 14.5611932,23.562 C14.5488636,23.639 14.535947,23.7165833 14.5236174,23.7906667 C14.5007197,23.9411667 14.4883902,24.0811667 14.4713636,24.2211667 C14.4590341,24.3675833 14.4519886,24.521 14.4425947,24.66275 L14.4420076,24.6901667 C14.4420076,24.6901667 14.4420076,24.696 14.4402462,24.696 L14.4402462,24.7024167 L14.4396591,24.7525833 C14.4378977,24.7858333 14.4378977,24.8190833 14.4373106,24.8505833 C14.4373106,24.9170833 14.4355492,24.9800833 14.4373106,25.0430833 C14.4378977,25.2939167 14.4502273,25.5243333 14.4696023,25.7314167 C14.5077652,26.1461667 14.57,26.4699167 14.6169697,26.68925 C14.6398674,26.7995 14.6574811,26.8753333 14.6733333,26.93775 C14.6880114,26.9966667 14.6968182,27.0275833 14.6968182,27.0275833 L13.8267045,27.2749167 C13.8267045,27.2749167 13.8167235,27.24575 13.7979356,27.1868333 C13.7791477,27.1325833 13.7480303,27.03225 13.7139773,26.91325 C13.6764015,26.7808333 13.6311932,26.61225 13.5859848,26.411 C13.4926326,25.8755 13.4433144,25.3254167 13.4433144,24.7630833 C13.4433144,19.4559167 17.7733333,15.1544167 23.1149621,15.1544167 C25.521572,15.1544167 27.7226894,16.02825 29.4147727,17.4725833 C30.1586553,18.10725 30.8044886,18.85275 31.324678,19.6834167 C32.2529167,21.1569167 32.7877841,22.8975833 32.7877841,24.7630833 Z" id="Shape"></path>
                <path d="M27.5682765,22.0535 C27.3874432,21.7816667 27.1021023,21.7029167 26.8108902,21.8440833 C26.4920833,21.99925 26.1820833,22.1800833 25.8785417,22.3568333 L25.8045644,22.4 C25.3149053,22.6864167 24.8264205,22.9745833 24.3385227,23.26275 L23.5083333,23.7521667 C22.9652462,23.5246667 22.3188258,23.5870833 21.8315152,23.9178333 C21.7446212,23.97675 21.6618371,24.0444167 21.5849242,24.1196667 C20.9819508,24.7129167 20.8915341,25.64975 21.370625,26.3474167 C21.6982386,26.8245833 22.2413258,27.10925 22.8231629,27.10925 C23.0685795,27.10925 23.3069508,27.0596667 23.5306439,26.9610833 C23.6275189,26.9190833 23.7232197,26.8665833 23.8148106,26.8041667 C24.3079924,26.4699167 24.5992045,25.8976667 24.5804167,25.3055833 C25.0507008,24.9019167 25.7752083,24.2929167 26.3599811,23.80175 L26.4104735,23.75975 C26.9576705,23.3000833 27.3903788,22.9366667 27.4813826,22.85325 C27.7267992,22.62925 27.7585038,22.3381667 27.5682765,22.0535 Z" id="Shape"></path>
                <path d="M10.6985227,3.899 C10.6985227,5.95583333 9.05223485,7.59208333 6.9832197,7.5915 C4.91948864,7.59091667 3.24443182,5.94766667 3.23210227,3.91183333 C3.21977273,1.87191667 4.93886364,0.165666667 7.00083333,0.172083333 C9.048125,0.177916667 10.6985227,1.84158333 10.6985227,3.899 Z" id="Shape"></path>
                <path d="M22.2536553,9.27208333 C20.9696212,9.62791667 19.6908712,10.0123333 18.3950947,10.3238333 C17.9154167,10.43875 17.3817235,10.45625 16.8926515,10.3839167 C15.7923864,10.2229167 14.8154167,9.70491667 13.8413826,9.19391667 C13.5131818,9.02125 13.1479924,8.86666667 12.7845644,8.82058333 C11.9860795,8.71966667 11.1811364,8.65608333 10.3773674,8.59775 C10.3127841,8.57325 10.0292045,8.60125 10.0139394,8.60533333 C10.0104167,8.60533333 10.0063068,8.60533333 10.0027841,8.60475 C10.0010227,8.60533333 10.0004356,8.60825 9.99926136,8.61 C9.90767045,8.6345 9.84895833,8.68525 9.80668561,8.7535 C9.76617424,8.81941667 9.73857955,8.90166667 9.70981061,8.99441667 C9.27123106,10.381 8.82443182,11.7646667 8.3782197,13.1489167 C8.35121212,13.23 8.31598485,13.3081667 8.25081439,13.4633333 C8.22263258,13.3536667 8.15335227,13.0036667 8.07526515,12.59475 C8.02418561,12.3246667 7.96899621,12.0295 7.92143939,11.7635 C7.87975379,11.4928333 7.77465909,10.8406667 7.77054924,10.7829167 L7.77054924,10.7823333 C7.77113636,10.7788333 7.77231061,10.7765 7.77289773,10.7741667 L7.77642045,10.7555 C7.78816288,10.7269167 7.80107955,10.6954167 7.81986742,10.6709167 L7.8357197,10.64875 C7.95607955,10.4620833 8.08348485,10.2701667 8.20501894,10.0770833 C8.22967803,10.038 8.23613636,9.9715 8.22204545,9.92775 C8.17977273,9.80991667 8.02242424,9.31466667 7.98015152,9.24991667 C7.963125,9.20208333 7.94609848,9.15366667 7.93024621,9.10583333 C7.92026515,9.07725 7.91145833,9.04925 7.90147727,9.02066667 C7.88621212,8.9775 7.86272727,8.97516667 7.81164773,8.95125 C7.65958333,8.883 6.23346591,8.883 6.12073864,8.95125 C6.07318182,8.98158333 6.04617424,8.9775 6.03090909,9.02066667 C6.02092803,9.04925 6.01153409,9.07725 6.00096591,9.10583333 C5.96339015,9.21783333 5.75202652,9.80991667 5.70975379,9.92833333 C5.69448864,9.97208333 5.70212121,10.0385833 5.7267803,10.0776667 C5.84831439,10.27075 5.97454545,10.46325 6.09607955,10.6493333 L6.11193182,10.6715 C6.1307197,10.696 6.14246212,10.7269167 6.15537879,10.7560833 L6.15890152,10.77475 C6.16242424,10.7840833 6.16594697,10.80275 6.16594697,10.815 L6.16594697,10.8249167 C6.16594697,10.8249167 6.05204545,11.4934167 6.01035985,11.7646667 C5.96691288,12.00675 5.9175947,12.2721667 5.87121212,12.5200833 C5.78784091,12.9605 5.71092803,13.349 5.68098485,13.4645 C5.61464015,13.3093333 5.58,13.2311667 5.55357955,13.1500833 C5.10736742,11.7664167 4.66056818,10.3821667 4.22198864,8.99558333 C4.19204545,8.90283333 4.16621212,8.82 4.12452652,8.75466667 C4.09223485,8.70216667 4.05054924,8.66016667 3.99183712,8.63216667 C3.97422348,8.624 3.95367424,8.617 3.93253788,8.61116667 C3.93195076,8.60941667 3.93018939,8.60708333 3.92901515,8.60591667 C3.92549242,8.6065 3.92138258,8.6065 3.91785985,8.6065 C3.87089015,8.59483333 3.81511364,8.58958333 3.74876894,8.59191667 C3.67126894,8.59425 3.59494318,8.5995 3.51861742,8.60766667 C2.74126894,8.68116667 2.0232197,8.99558333 1.44842803,9.4745 C1.32043561,9.58066667 1.19890152,9.69558333 1.08617424,9.8175 C0.941742424,9.97266667 0.811988636,10.1395 0.695738636,10.3168333 C0.637026515,10.4055 0.583011364,10.4970833 0.532518939,10.591 C0.386325758,10.8616667 0.273598485,11.1515833 0.199621212,11.4555 C0.134450758,11.7209167 0.100397727,11.9968333 0.0986363636,12.2803333 C0.0951136364,13.3793333 0.0915909091,14.4795 0.0915909091,15.5796667 C0.0910037879,15.9955833 0.0910037879,16.4109167 0.0910037879,16.8268333 C0.0910037879,17.4830833 0.203731061,18.1434167 0.389848485,18.7944167 C0.696912879,19.8689167 1.20301136,20.9154167 1.72907197,21.8656667 C2.61621212,23.4698333 2.72130682,25.4718333 2.84460227,27.26325 C2.9725947,29.13225 3.10293561,30.1565833 3.23445076,32.02325 C3.23797348,32.0745833 3.24267045,32.1259167 3.24912879,32.1766667 C3.29257576,32.5610833 3.39414773,32.91225 3.54679924,33.22725 C3.59494318,33.327 3.64837121,33.4220833 3.70649621,33.5130833 C4.22609848,34.3268333 5.12498106,34.8191667 6.22348485,34.8255833 C6.47066288,34.8261667 6.71842803,34.8290833 6.96619318,34.8290833 C7.21395833,34.8290833 7.46172348,34.82675 7.70890152,34.8255833 C8.8074053,34.81975 9.70628788,34.3274167 10.2247159,33.5130833 C10.283428,33.4220833 10.3368561,33.327 10.385,33.22725 C10.5282576,32.9315 10.6268939,32.6030833 10.6744508,32.2455 C10.6844318,32.172 10.6920644,32.0979167 10.6973485,32.0226667 C10.8288636,30.1565833 10.9586174,29.1316667 11.087197,27.2626667 C11.2104924,25.47125 12.36125,16.3368333 12.4428598,13.5753333 C12.4499053,13.3466667 12.492178,13.11975 12.5227083,12.8508333 C12.7211553,12.9231667 12.8620644,12.9756667 13.0041477,13.02525 C13.2818561,13.1238333 13.5595644,13.2241667 13.8360985,13.3256667 C14.545928,13.5846667 15.2551705,13.8436667 15.9779167,14.063 C16.4781439,14.2158333 17.0323864,14.3395 17.5414205,14.2864167 C19.6421402,14.0670833 21.6694697,13.5123333 23.6410227,12.7639167 C24.3003598,12.51425 24.7095833,12.0236667 24.7947159,11.3236667 C24.9732008,9.8525 23.7349621,8.86141667 22.2536553,9.27208333 Z" id="Shape"></path>
            </g>
            <path d="M85.486278,107.5 L85.486278,778.5" id="Line" stroke="#FFFFFF" stroke-linecap="square"></path>
            <polygon id="Triangle" fill="#FFFFFF" transform="translate(84.500000, 779.176471) rotate(180.000000) translate(-84.500000, -779.176471) " points="84.5 776 89 782.352941 80 782.352941"></polygon>
            <ellipse id="Oval-4" fill="#FFFFFF" cx="85.5" cy="143.5" rx="4.5" ry="4.5"></ellipse>
            <ellipse id="Oval-4" fill="#FFFFFF" cx="85.5" cy="285.5" rx="4.5" ry="4.5"></ellipse>
            <ellipse id="Oval-4" fill="#FFFFFF" cx="85.5" cy="427.5" rx="4.5" ry="4.5"></ellipse>
            <ellipse id="Oval-4" fill="#FFFFFF" cx="85.5" cy="570.5" rx="4.5" ry="4.5"></ellipse>
            <ellipse id="Oval-4" fill="#FFFFFF" cx="85.5" cy="712.5" rx="4.5" ry="4.5"></ellipse>
        </g>
    </g>
</svg>