<svg xmlns:sketch="http://www.bohemiancoding.com/sketch/ns" xmlns="http://www.w3.org/2000/svg" xmlns:xlink="http://www.w3.org/1999/xlink" version="1.1" x="0px" y="0px" viewBox="0 0 32 40" style="enable-background:new 0 0 32 32;" xml:space="preserve"><title>icon 2 mail envelope open</title><desc>Created with Sketch.</desc><g sketch:type="MSPage"><g sketch:type="MSArtboardGroup"><path sketch:type="MSShapeGroup" d="M11.3,19L8,16.2V8c0-0.6,0.4-1,1-1h15c0.5,0,1,0.4,1,1v8.2L21.7,19    H11.3L11.3,19z M12.5,20l1.8,1.5h4.4l1.8-1.5H12.5L12.5,20z M22.2,20.1L20,22l0,0l5.9,5.1l0,0l-0.8,0.8l-6-5.1l-5.2,0l0,0l-6,5.1    l-0.8-0.8l0,0L13,22l-2.2-1.9L7,16.9v-5.5L4,14v1v13c0,1.1,0.9,2,2,2h21c1.1,0,2-0.9,2-2V14l-3-2.6v5.5L22.2,20.1L22.2,20.1    L22.2,20.1z M19.9,6l-3.4-3l-3.4,3H19.9L19.9,6L19.9,6z M10,10v1h13v-1H10L10,10z M10,13v1h13v-1H10L10,13z M10,16v1h13v-1H10    L10,16z"/></g></g><text x="0" y="47" fill="#000000" font-size="5px" font-weight="bold" font-family="'Helvetica Neue', Helvetica, Arial-Unicode, Arial, Sans-serif">Created by Baboon designs</text><text x="0" y="52" fill="#000000" font-size="5px" font-weight="bold" font-family="'Helvetica Neue', Helvetica, Arial-Unicode, Arial, Sans-serif">from the Noun Project</text></svg>