<?xml version="1.0" encoding="UTF-8"?>
<svg width="676px" height="591px" viewBox="0 0 676 591" version="1.1" xmlns="http://www.w3.org/2000/svg" xmlns:xlink="http://www.w3.org/1999/xlink">
    <!-- Generator: Sketch 44.1 (41455) - http://www.bohemiancoding.com/sketch -->
    <title>Group</title>
    <desc>Created with Sketch.</desc>
    <defs></defs>
    <g id="Page-1" stroke="none" stroke-width="1" fill="none" fill-rule="evenodd">
        <g id="Group" transform="translate(1.000000, 0.000000)">
            <g id="grid-bg" transform="translate(0.000000, 21.000000)">
                <polygon id="Fill-1" fill="#DFDFDF" points="96.999 400.667 672.332 400.667 672.332 406 96.999 406"></polygon>
                <polygon id="Fill-2" fill="#DFDFDF" points="20.332 316.667 672.332 316.667 672.332 334 20.332 334"></polygon>
                <polygon id="Fill-3" fill="#DFDFDF" points="233.999 242.665 672.332 242.665 672.332 247.998 233.999 247.998"></polygon>
                <path d="M672.665,170.543 L41.833,170.543 C32.79,170.543 -0.333,183.338 -0.333,183.338 L-0.333,168.726 C-0.333,168.726 28.113,157.749 38.072,157.749 L672.665,157.749 L672.665,170.543" id="Fill-4" fill="#DFDFDF"></path>
                <polygon id="Fill-5" fill="#DFDFDF" points="671.333 157.749 674.667 157.749 674.667 441.336 671.333 441.336"></polygon>
                <polygon id="Fill-6" fill="#DFDFDF" points="384 -0.333 386.667 -0.333 386.667 569.669 384 569.669"></polygon>
                <path d="M386.667,569.67 L389.334,569.67 L389.334,406 L386.667,406 L386.667,569.67 Z M386.667,400.667 L389.334,400.667 L389.334,334 L386.667,334 L386.667,400.667 Z M386.667,316.667 L389.334,316.667 L389.334,247.998 L386.667,247.998 L386.667,316.667 Z M389.334,170.543 L386.667,170.543 L386.667,242.665 L389.334,242.665 L389.334,170.543 L389.334,170.543 Z M389.334,-0.333 L386.667,-0.333 L386.667,157.749 L389.334,157.749 L389.334,-0.333 L389.334,-0.333 Z" id="Fill-7" fill="#E9E9E9"></path>
                <polygon id="Fill-8" fill="#DFDFDF" points="386.667 400.667 389.334 400.667 389.334 406 386.667 406"></polygon>
                <polygon id="Fill-9" fill="#DFDFDF" points="386.667 316.667 389.334 316.667 389.334 334 386.667 334"></polygon>
                <polygon id="Fill-10" fill="#DFDFDF" points="386.667 242.665 389.334 242.665 389.334 247.998 386.667 247.998"></polygon>
                <path d="M389.334,157.749 L386.667,157.749 L386.667,170.543 L389.334,170.543 L389.334,157.749" id="Fill-11" fill="#DFDFDF"></path>
                <path d="M530.959,48.292 C527.301,48.292 524.335,51.258 524.335,54.917 L524.335,517.333 C524.336,520.992 527.301,523.957 530.959,523.957 C534.618,523.957 537.583,520.992 537.584,517.333 L537.584,54.917 C537.584,51.258 534.618,48.292 530.959,48.292" id="Fill-12" fill="#DFDFDF"></path>
                <path d="M240.126,42.958 C236.467,42.958 233.502,45.923 233.502,49.582 L233.502,511.998 C233.502,515.658 236.467,518.623 240.126,518.623 C243.785,518.623 246.75,515.658 246.75,511.998 L246.75,49.582 C246.75,45.923 243.785,42.958 240.126,42.958" id="Fill-13" fill="#DFDFDF"></path>
            </g>
            <g id="lines" transform="translate(35.000000, 34.000000)">
                <polygon id="Fill-1" fill="#4AC198" points="6.999 306.917 20.667 306.917 20.667 310.704 6.999 310.704"></polygon>
                <polygon id="Fill-2" fill="#4AC198" points="493.425 306.917 507.092 306.917 507.092 310.704 493.425 310.704"></polygon>
                <polygon id="Fill-3" fill="#4AC198" points="617.565 306.917 631.232 306.917 631.232 310.704 617.565 310.704"></polygon>
                <polygon id="Fill-4" fill="#4AC198" points="533.96 306.917 547.627 306.917 547.627 310.704 533.96 310.704"></polygon>
                <polygon id="Fill-5" fill="#4AC198" points="412.354 306.917 426.021 306.917 426.021 310.704 412.354 310.704"></polygon>
                <polygon id="Fill-6" fill="#4AC198" points="371.819 306.917 385.486 306.917 385.486 310.704 371.819 310.704"></polygon>
                <polygon id="Fill-7" fill="#4AC198" points="331.284 306.917 344.951 306.917 344.951 310.704 331.284 310.704"></polygon>
                <polygon id="Fill-8" fill="#4AC198" points="290.749 306.917 304.416 306.917 304.416 310.704 290.749 310.704"></polygon>
                <polygon id="Fill-9" fill="#4AC198" points="250.213 306.917 263.881 306.917 263.881 310.704 250.213 310.704"></polygon>
                <polygon id="Fill-10" fill="#4AC198" points="209.677 306.917 223.345 306.917 223.345 310.704 209.677 310.704"></polygon>
                <polygon id="Fill-11" fill="#4AC198" points="128.606 306.917 142.273 306.917 142.273 310.704 128.606 310.704"></polygon>
                <polygon id="Fill-12" fill="#4AC198" points="88.07 306.917 101.737 306.917 101.737 310.704 88.07 310.704"></polygon>
                <polygon id="Fill-13" fill="#4AC198" points="47.535 306.917 61.202 306.917 61.202 310.704 47.535 310.704"></polygon>
                <polygon id="Fill-14" fill="#CA9498" points="6.999 313.63 20.667 313.63 20.667 317.417 6.999 317.417"></polygon>
                <polygon id="Fill-15" fill="#CA9498" points="493.425 313.63 507.092 313.63 507.092 317.417 493.425 317.417"></polygon>
                <polygon id="Fill-16" fill="#CA9498" points="617.565 313.63 631.232 313.63 631.232 317.417 617.565 317.417"></polygon>
                <polygon id="Fill-17" fill="#CA9498" points="533.96 313.63 547.627 313.63 547.627 317.417 533.96 317.417"></polygon>
                <polygon id="Fill-18" fill="#CA9498" points="412.354 313.63 426.021 313.63 426.021 317.417 412.354 317.417"></polygon>
                <polygon id="Fill-19" fill="#CA9498" points="371.819 313.63 385.486 313.63 385.486 317.417 371.819 317.417"></polygon>
                <polygon id="Fill-20" fill="#CA9498" points="331.284 313.63 344.951 313.63 344.951 317.417 331.284 317.417"></polygon>
                <polygon id="Fill-21" fill="#CA9498" points="290.748 313.63 304.416 313.63 304.416 317.417 290.748 317.417"></polygon>
                <polygon id="Fill-22" fill="#CA9498" points="250.213 313.63 263.881 313.63 263.881 317.417 250.213 317.417"></polygon>
                <polygon id="Fill-23" fill="#CA9498" points="209.677 313.63 223.345 313.63 223.345 317.417 209.677 317.417"></polygon>
                <polygon id="Fill-24" fill="#CA9498" points="128.606 313.63 142.273 313.63 142.273 317.417 128.606 317.417"></polygon>
                <polygon id="Fill-25" fill="#CA9498" points="88.07 313.63 101.737 313.63 101.737 317.417 88.07 317.417"></polygon>
                <polygon id="Fill-26" fill="#CA9498" points="47.535 313.63 61.202 313.63 61.202 317.417 47.535 317.417"></polygon>
                <path d="M64,153.375 C64,154.411 63.161,155.25 62.125,155.25 L55.75,155.25 C54.714,155.25 53.875,154.411 53.875,153.375 C53.875,152.339 54.714,151.5 55.75,151.5 L62.125,151.5 C63.161,151.5 64,152.339 64,153.375" id="Fill-27" fill="#B9575F"></path>
                <path d="M191.334,153.375 C191.334,154.411 190.494,155.25 189.459,155.25 L183.084,155.25 C182.048,155.25 181.209,154.411 181.209,153.375 C181.209,152.339 182.048,151.5 183.084,151.5 L189.459,151.5 C190.494,151.5 191.334,152.339 191.334,153.375" id="Fill-28" fill="#B9575F"></path>
                <polygon id="Fill-29" fill="#CA9498" points="201.011 276.378 204.798 276.378 204.798 287.335 201.011 287.335"></polygon>
                <polygon id="Fill-30" fill="#CA9498" points="207.963 286.045 211.75 286.045 211.75 297.002 207.963 297.002"></polygon>
                <polygon id="Fill-31" fill="#CA9498" points="201.011 202.128 204.798 202.128 204.798 213.085 201.011 213.085"></polygon>
                <polygon id="Fill-32" fill="#CA9498" points="201.011 351.045 204.798 351.045 204.798 362.002 201.011 362.002"></polygon>
                <polygon id="Fill-33" fill="#CA9498" points="201.011 425.212 204.798 425.212 204.798 436.169 201.011 436.169"></polygon>
                <polygon id="Fill-34" fill="#CA9498" points="207.963 487.378 211.75 487.378 211.75 498.335 207.963 498.335"></polygon>
                <polygon id="Fill-35" fill="#CA9498" points="201.011 127.878 204.798 127.878 204.798 138.835 201.011 138.835"></polygon>
                <polygon id="Fill-36" fill="#CA9498" points="207.947 84.128 211.734 84.128 211.734 95.085 207.947 95.085"></polygon>
                <polygon id="Fill-37" fill="#CA9498" points="201.011 53.628 204.798 53.628 204.798 64.585 201.011 64.585"></polygon>
                <polygon id="Fill-38" fill-opacity="0.8" fill="#92CBCB" points="349.334 0.334 354.668 0.334 354.668 92.667 349.334 92.667"></polygon>
                <polygon id="Fill-39" fill="#4AC198" points="495.636 107.628 499.423 107.628 499.423 118.585 495.636 118.585"></polygon>
                <path d="M10.334,150.375 C10.334,151.411 9.494,152.25 8.459,152.25 L2.084,152.25 C1.048,152.25 0.209,151.411 0.209,150.375 C0.209,149.339 1.048,148.5 2.084,148.5 L8.459,148.5 C9.494,148.5 10.334,149.339 10.334,150.375" id="Fill-40" fill="#4AC198"></path>
                <polygon id="Fill-41" fill="#4AC198" points="491.849 181.794 495.636 181.794 495.636 192.751 491.849 192.751"></polygon>
                <polygon id="Fill-42" fill="#4AC198" points="495.636 239.794 499.423 239.794 499.423 250.751 495.636 250.751"></polygon>
                <polygon id="Fill-43" fill="#4AC198" points="491.849 359.295 495.636 359.295 495.636 370.252 491.849 370.252"></polygon>
                <polygon id="Fill-44" fill="#4AC198" points="495.636 370.252 499.423 370.252 499.423 381.209 495.636 381.209"></polygon>
            </g>
            <g id="circles" transform="translate(181.000000, 132.000000)" fill="#4AC198">
                <path d="M46.584,48.338 C17.778,78.492 -0.023,120.139 -0.022,166.105 C-0.023,212.072 17.778,253.719 46.584,283.873 C75.381,314.027 115.229,332.713 159.231,332.713 C203.243,332.715 243.094,314.029 271.893,283.873 C300.699,253.72 318.5,212.072 318.5,166.105 L313.5,166.105 C313.5,210.771 296.208,251.178 268.277,280.42 C240.34,309.659 201.81,327.711 159.238,327.713 C116.667,327.711 78.136,309.659 50.199,280.42 C22.269,251.179 4.977,210.771 4.977,166.105 C4.977,121.439 22.269,81.033 50.199,51.792 C78.136,22.553 116.667,4.502 159.238,4.5 C201.81,4.502 240.34,22.553 268.277,51.792 C296.208,81.033 313.5,121.439 313.5,166.105 L318.5,166.105 C318.5,120.139 300.699,78.492 271.893,48.338 C243.095,18.185 203.247,-0.5 159.245,-0.5 C115.233,-0.502 75.383,18.184 46.584,48.338 Z" id="Fill-1" fill-opacity="0.2"></path>
                <path d="M159.246,91.987 L159.238,91.987 C139.629,91.985 121.866,100.318 109.055,113.737 C96.237,127.154 88.324,145.679 88.325,166.106 C88.324,186.533 96.237,205.059 109.055,218.476 C121.864,231.893 139.626,240.227 159.231,240.227 L159.238,240.227 C178.848,240.228 196.61,231.895 209.422,218.476 C222.24,205.059 230.152,186.533 230.152,166.106 L225.152,166.106 C225.152,185.233 217.75,202.518 205.807,215.023 C193.857,227.525 177.413,235.225 159.238,235.227 C141.064,235.225 124.62,227.525 112.67,215.023 C100.728,202.518 93.325,185.233 93.325,166.106 C93.325,146.979 100.728,129.695 112.67,117.19 C124.62,104.688 141.064,96.989 159.238,96.987 C177.413,96.989 193.857,104.688 205.807,117.19 C217.75,129.695 225.152,146.979 225.152,166.106 L230.152,166.106 C230.152,145.679 222.24,127.154 209.422,113.737 C196.613,100.321 178.851,91.987 159.246,91.987" id="Fill-2" fill-opacity="0.5"></path>
            </g>
            <g id="buildings" transform="translate(103.000000, 0.000000)">
                <polyline id="Fill-1" fill="#DDDCDC" points="216.99 160.323 216.99 233.326 217.869 235.884 271.729 235.884 272.607 233.326 272.607 160.323 216.99 160.323"></polyline>
                <polyline id="Fill-2" fill="#DDDCDC" points="272.607 160.323 270.799 160.323 270.799 158.573 271.721 159.448 272.607 160.323"></polyline>
                <polyline id="Fill-3" fill="#DDDCDC" points="149.922 148.431 149.922 250.661 151.456 253.857 245.452 253.857 246.987 250.661 246.987 148.431 149.922 148.431"></polyline>
                <polyline id="Fill-4" fill="#DDDCDC" points="149.922 148.457 152.943 145.107 152.943 148.431 149.922 148.457"></polyline>
                <polyline id="Fill-5" fill="#DDDCDC" points="243.704 148.431 240.683 148.431 240.683 145.107 242.223 146.769 243.704 148.431"></polyline>
                <polygon id="Fill-6" fill="#F6F6F6" points="152.504 145.107 243.966 145.107 243.966 203.099 152.504 203.099"></polygon>
                <polyline id="Fill-7" fill="#DDDCDC" points="152.504 199.827 154.72 203.211 152.528 203.211 152.504 199.827"></polyline>
                <polyline id="Fill-8" fill="#DDDCDC" points="243.966 199.716 241.75 203.099 243.943 203.099 243.966 199.716"></polyline>
                <polygon id="Fill-9" fill="#F6F6F6" points="240.761 158.573 270.772 158.573 270.772 186.59 240.761 186.59"></polygon>
                <polyline id="Fill-10" fill="#DDDCDC" points="269.728 186.59 270.772 184.996 270.772 186.577 269.728 186.59"></polyline>
                <polyline id="Fill-11" fill="#DDDCDC" points="246.986 148.444 243.966 145.093 243.966 148.417 246.986 148.444"></polyline>
                <polyline id="Fill-12" fill="#DDDCDC" points="211.932 249.056 211.932 327.129 212.81 329.095 272.67 329.095 273.549 327.129 273.549 249.056 211.932 249.056"></polyline>
                <polyline id="Fill-14" fill="#DDDCDC" points="211.932 249.07 213.74 247.225 213.74 249.056 211.932 249.07"></polyline>
                <polygon id="Fill-15" fill="#F6F6F6" points="213.74 247.225 271.74 247.225 271.74 293.261 213.74 293.261"></polygon>
                <polyline id="Fill-16" fill="#DDDCDC" points="273.549 249.056 271.74 249.056 271.74 247.225 272.662 248.14 273.549 249.056"></polyline>
                <polyline id="Fill-17" fill="#DDDCDC" points="269.932 293.26 271.74 291.415 271.74 293.246 269.932 293.26"></polyline>
                <polyline id="Fill-18" fill="#DDDCDC" points="213.74 291.43 215.504 293.323 213.754 293.323 213.74 291.43"></polyline>
                <polyline id="Fill-19" fill="#0C9E73" points="211.932 249.056 211.932 327.129 212.81 329.095 272.67 329.095 273.549 327.129 273.549 249.056 211.932 249.056"></polyline>
                <polyline id="Fill-21" fill="#DDDCDC" points="211.932 249.07 213.74 247.225 213.74 249.056 211.932 249.07"></polyline>
                <polyline id="Fill-22" fill="#DDDCDC" points="273.549 249.056 271.74 249.056 271.74 247.225 272.662 248.14 273.549 249.056"></polyline>
                <polygon id="Fill-23" fill="#14B785" points="213.74 247.225 271.74 247.225 271.74 295.659 213.74 295.659"></polygon>
                <polyline id="Fill-24" fill="#0C9E73" points="269.932 296.072 271.74 293.797 271.74 296.054 269.932 296.072"></polyline>
                <polyline id="Fill-25" fill="#0C9E73" points="273.549 249.015 271.74 249.015 271.74 247.265 272.662 248.14 273.549 249.015"></polyline>
                <polyline id="Fill-26" fill="#DDDCDC" points="151.596 249.971 151.596 328.044 151.922 330.01 174.182 330.01 174.508 328.044 174.508 249.971 151.596 249.971"></polyline>
                <polyline id="Fill-28" fill="#DDDCDC" points="151.596 249.985 152.269 248.14 152.269 249.971 151.596 249.985"></polyline>
                <polygon id="Fill-29" fill="#F6F6F6" points="152.269 248.14 173.836 248.14 173.836 294.176 152.269 294.176"></polygon>
                <polyline id="Fill-30" fill="#DDDCDC" points="174.508 249.971 173.835 249.971 173.835 248.14 174.178 249.055 174.508 249.971"></polyline>
                <polyline id="Fill-31" fill="#DDDCDC" points="173.164 294.175 173.835 292.33 173.835 294.161 173.164 294.175"></polyline>
                <polyline id="Fill-32" fill="#DDDCDC" points="152.269 292.345 152.924 294.238 152.273 294.238 152.269 292.345"></polyline>
                <polyline id="Fill-33" fill="#0C9E73" points="151.596 249.971 151.596 328.044 151.922 330.01 174.182 330.01 174.508 328.044 174.508 249.971 151.596 249.971"></polyline>
                <polyline id="Fill-35" fill="#DDDCDC" points="151.596 249.985 152.269 248.14 152.269 249.971 151.596 249.985"></polyline>
                <polyline id="Fill-36" fill="#DDDCDC" points="174.508 249.971 173.835 249.971 173.835 248.14 174.178 249.055 174.508 249.971"></polyline>
                <polygon id="Fill-37" fill="#14B785" points="152.269 248.14 173.836 248.14 173.836 296.574 152.269 296.574"></polygon>
                <polyline id="Fill-38" fill="#0C9E73" points="173.164 296.987 173.835 294.712 173.835 296.969 173.164 296.987"></polyline>
                <polyline id="Fill-39" fill="#0C9E73" points="174.508 249.93 173.835 249.93 173.835 248.18 174.178 249.055 174.508 249.93"></polyline>
                <polyline id="Fill-40" fill="#DDDCDC" points="168.265 241.313 168.265 315.935 169.144 317.813 214.003 317.813 214.882 315.935 214.882 241.313 168.265 241.313"></polyline>
                <polyline id="Fill-42" fill="#DDDCDC" points="168.265 241.327 170.073 239.564 170.073 241.313 168.265 241.327"></polyline>
                <polygon id="Fill-43" fill="#F6F6F6" points="170.073 239.564 213.073 239.564 213.073 283.564 170.073 283.564"></polygon>
                <polyline id="Fill-44" fill="#DDDCDC" points="214.882 241.313 213.073 241.313 213.073 239.564 213.995 240.439 214.882 241.313"></polyline>
                <polyline id="Fill-45" fill="#DDDCDC" points="211.265 283.563 213.073 281.8 213.073 283.55 211.265 283.563"></polyline>
                <polyline id="Fill-46" fill="#DDDCDC" points="170.073 281.814 171.837 283.623 170.087 283.623 170.073 281.814"></polyline>
                <polyline id="Fill-47" fill="#0C9E73" points="168.265 241.313 168.265 315.935 169.144 317.813 214.003 317.813 214.882 315.935 214.882 241.313 168.265 241.313"></polyline>
                <polyline id="Fill-49" fill="#0C9E73" points="168.265 241.327 170.073 239.564 170.073 241.313 168.265 241.327"></polyline>
                <polyline id="Fill-50" fill="#0C9E73" points="214.882 241.313 213.073 241.313 213.073 239.564 213.995 240.439 214.882 241.313"></polyline>
                <polygon id="Fill-51" fill="#14B785" points="170.073 239.564 213.073 239.564 213.073 277.125 170.073 277.125"></polygon>
                <polyline id="Fill-52" fill="#0C9E73" points="211.265 277.102 213.073 275.339 213.073 277.089 211.265 277.102"></polyline>
                <polyline id="Fill-53" fill="#0C9E73" points="170.073 275.316 171.837 277.125 170.087 277.125 170.073 275.316"></polyline>
                <polygon id="Fill-55" fill="#F6F6F6" points="441.412 21.484 497.922 21.484 497.922 78.484 441.412 78.484"></polygon>
                <polyline id="Fill-56" fill="#DDDCDC" points="495.957 78.484 497.922 76.72 497.922 78.47 495.957 78.484"></polyline>
                <polyline id="Fill-57" fill="#DDDCDC" points="441.412 76.735 443.328 78.544 441.427 78.544 441.412 76.735"></polyline>
                <polyline id="Fill-58" fill="#DDDCDC" points="439.446 23.234 439.446 172.855 441.488 174.734 497.846 174.734 499.888 172.855 499.888 23.234"></polyline>
                <polygon id="Fill-60" fill="#F6F6F6" points="441.412 21.484 497.922 21.484 497.922 78.484 441.412 78.484"></polygon>
                <polyline id="Fill-61" fill="#DDDCDC" points="495.957 78.484 497.922 76.72 497.922 78.47 495.957 78.484"></polyline>
                <polyline id="Fill-62" fill="#DDDCDC" points="441.412 76.735 443.328 78.544 441.427 78.544 441.412 76.735"></polyline>
                <polyline id="Fill-63" fill="#DDDCDC" points="439.446 23.234 441.412 21.47 441.412 23.22 439.446 23.234"></polyline>
                <polyline id="Fill-64" fill="#DDDCDC" points="499.888 23.22 497.922 23.22 497.922 21.47 498.924 22.345 499.888 23.22"></polyline>
                <polygon id="Fill-65" fill="#CFCFCF" points="464.833 0.021 472.166 0.021 472.166 155.301 464.833 155.301"></polygon>
                <polygon id="Fill-66" fill="#F7F7F7" points="464.5 83.302 472.5 83.302 472.5 105.636 464.5 105.636"></polygon>
                <path d="M485.461,54.102 C485.461,60.453 477.85,65.602 468.461,65.602 C459.072,65.602 451.461,60.453 451.461,54.102 C451.461,52.953 451.71,43.844 452.174,42.797 C454.273,38.057 460.771,42.602 468.461,42.602 C476.148,42.602 482.644,38.054 484.746,42.791 C485.211,43.84 485.461,52.951 485.461,54.102" id="Fill-67" fill="#DDDCDC"></path>
                <polyline id="Fill-68" fill="#DDDCDC" points="328.026 353.983 328.026 403.614 328.905 405.166 382.765 405.166 383.644 403.614 383.644 353.983 328.026 353.983"></polyline>
                <polyline id="Fill-70" fill="#DDDCDC" points="328.026 353.997 329.835 352.37 329.835 353.983 328.026 353.997"></polyline>
                <polygon id="Fill-71" fill="#F6F6F6" points="329.835 352.37 381.835 352.37 381.835 382.39 329.835 382.39"></polygon>
                <polyline id="Fill-72" fill="#DDDCDC" points="383.644 353.983 381.835 353.983 381.835 352.37 382.757 353.177 383.644 353.983"></polyline>
                <polyline id="Fill-73" fill="#DDDCDC" points="505.162 262.367 505.162 328.987 506.041 330.866 560.9 330.866 561.779 328.987 561.779 262.367 505.162 262.367"></polyline>
                <polyline id="Fill-75" fill="#DDDCDC" points="505.162 262.38 506.971 260.617 506.971 262.367 505.162 262.38"></polyline>
                <polygon id="Fill-76" fill="#F6F6F6" points="506.971 260.617 559.971 260.617 559.971 304.617 506.971 304.617"></polygon>
                <polyline id="Fill-77" fill="#DDDCDC" points="561.779 262.367 559.971 262.367 559.971 260.617 560.893 261.492 561.779 262.367"></polyline>
                <polyline id="Fill-78" fill="#DDDCDC" points="558.162 304.616 559.971 302.852 559.971 304.602 558.162 304.616"></polyline>
                <polyline id="Fill-79" fill="#DDDCDC" points="506.971 302.866 508.734 304.675 506.984 304.675 506.971 302.866"></polyline>
                <polyline id="Fill-80" fill="#DDDCDC" points="505.162 262.367 505.162 328.987 506.041 330.866 560.9 330.866 561.779 328.987 561.779 262.367 505.162 262.367"></polyline>
                <polyline id="Fill-82" fill="#DDDCDC" points="505.162 262.38 506.971 260.617 506.971 262.367 505.162 262.38"></polyline>
                <polyline id="Fill-83" fill="#DDDCDC" points="561.779 262.367 559.971 262.367 559.971 260.617 560.893 261.492 561.779 262.367"></polyline>
                <polygon id="Fill-84" fill="#F6F6F6" points="506.971 260.617 559.971 260.617 559.971 311.617 506.971 311.617"></polygon>
                <polyline id="Fill-85" fill="#DDDCDC" points="558.162 311.616 559.971 309.853 559.971 311.602 558.162 311.616"></polyline>
                <polyline id="Fill-86" fill="#DDDCDC" points="506.971 309.866 508.734 311.675 506.984 311.675 506.971 309.866"></polyline>
                <polyline id="Fill-87" fill="#DDDCDC" points="291.842 153.746 291.842 249.898 295.876 253.615 407.2 253.615 411.234 249.898 411.234 153.746"></polyline>
                <polygon id="Fill-88" fill="#DDDCDC" points="321.055 134.77 364.806 134.77 364.806 155.417 321.055 155.417"></polygon>
                <polyline id="Fill-89" fill="#F6F6F6" points="362.722 133.006 363.05 184.738 323.021 184.738 323.021 133.006"></polyline>
                <polygon id="Fill-90" fill="#F6F6F6" points="293.808 151.662 323.021 151.662 323.021 202.831 293.808 202.831"></polygon>
                <polyline id="Fill-91" fill="#DDDCDC" points="321.08 202.809 323.045 201.045 323.045 202.795 321.08 202.809"></polyline>
                <polyline id="Fill-92" fill="#DDDCDC" points="293.808 201.022 295.724 202.831 293.822 202.831 293.808 201.022"></polyline>
                <polyline id="Fill-93" fill="#F6F6F6" points="409.274 151.992 409.274 203.162 363.038 203.162 362.84 151.992"></polyline>
                <polyline id="Fill-94" fill="#DDDCDC" points="407.31 204.043 409.274 202.28 409.274 204.03 407.31 204.043"></polyline>
                <polyline id="Fill-95" fill="#DDDCDC" points="363.038 202.257 364.954 204.066 363.053 204.066 363.038 202.257"></polyline>
                <polyline id="Fill-96" fill="#DDDCDC" points="321.055 134.77 323.021 133.006 323.021 134.756 321.055 134.77"></polyline>
                <polyline id="Fill-97" fill="#DDDCDC" points="364.806 134.763 362.732 134.77 362.722 133.006 363.842 133.888 364.806 134.763"></polyline>
                <polyline id="Fill-98" fill="#DDDCDC" points="291.842 153.746 293.808 151.662 293.808 153.746 291.842 153.746"></polyline>
                <polyline id="Fill-99" fill="#DDDCDC" points="411.238 153.746 409.273 153.742 409.276 151.992 410.276 152.869 411.238 153.746"></polyline>
                <polyline id="Fill-100" fill="#DDDCDC" points="292.333 247.225 292.333 408.033 293.05 413.668 336.949 413.668 337.666 408.033 337.666 247.225 292.333 247.225"></polyline>
                <polyline id="Fill-102" fill="#DDDCDC" points="292.333 247.266 293.808 241.977 293.808 247.225 292.333 247.266"></polyline>
                <path d="M293.808,241.977 L336.191,241.977" id="Fill-103" fill="#F6F6F6"></path>
                <polyline id="Fill-104" fill="#DDDCDC" points="337.666 247.225 336.191 247.225 336.191 241.977 336.943 244.601 337.666 247.225"></polyline>
                <polyline id="Fill-105" fill="#DDDCDC" points="292.333 247.225 292.333 409.318 293.05 414.998 336.949 414.998 337.666 409.318 337.666 247.225 292.333 247.225"></polyline>
                <polyline id="Fill-107" fill="#DDDCDC" points="292.333 247.266 293.808 241.977 293.808 247.225 292.333 247.266"></polyline>
                <polyline id="Fill-108" fill="#DDDCDC" points="337.666 247.225 336.191 247.225 336.191 241.977 336.943 244.601 337.666 247.225"></polyline>
                <polygon id="Fill-109" fill="#F6F6F6" points="293.808 241.977 336.192 241.977 336.192 295.743 293.808 295.743"></polygon>
                <polyline id="Fill-110" fill="#DDDCDC" points="334.718 295.742 336.191 292.683 336.191 295.718 334.718 295.742"></polyline>
                <polyline id="Fill-111" fill="#DDDCDC" points="293.808 292.708 295.245 295.845 293.818 295.845 293.808 292.708"></polyline>
                <path d="M100.667,249.007 C100.667,256.835 94.11,263.181 86.022,263.181 L53.313,263.181 C45.224,263.181 38.667,256.835 38.667,249.007 L38.667,123.508 C38.667,115.68 45.224,109.334 53.313,109.334 L86.022,109.334 C94.11,109.334 100.667,115.68 100.667,123.508 L100.667,249.007" id="Fill-113" fill="#DDDCDC"></path>
                <path d="M99.001,146.828 C99.001,154.656 92.655,161.001 84.827,161.001 L54.507,161.001 C46.679,161.001 40.334,154.656 40.334,146.828 L40.334,123.508 C40.334,115.68 46.679,109.334 54.507,109.334 L84.827,109.334 C92.655,109.334 99.001,115.68 99.001,123.508 L99.001,146.828" id="Fill-114" fill="#F6F6F6"></path>
                <polygon id="Fill-115" fill="#DDDCDC" points="56.334 102.167 83.001 102.167 83.001 128.167 56.334 128.167"></polygon>
                <polygon id="Fill-116" fill="#F6F6F6" points="56.707 101.167 82.707 101.167 82.707 112.834 56.707 112.834"></polygon>
                <polyline id="Fill-117" fill="#DDDCDC" points="212.191 436.75 212.191 490.371 213.07 492.25 266.93 492.25 267.809 490.371 267.809 436.75 212.191 436.75"></polyline>
                <polyline id="Fill-119" fill="#DDDCDC" points="212.191 436.764 214 435 214 436.75 212.191 436.764"></polyline>
                <polygon id="Fill-120" fill="#F6F6F6" points="214 435 266 435 266 466 214 466"></polygon>
                <polyline id="Fill-121" fill="#DDDCDC" points="267.809 436.75 266 436.75 266 435 266.922 435.875 267.809 436.75"></polyline>
                <polyline id="Fill-122" fill="#DDDCDC" points="264.191 466 266 464.236 266 465.986 264.191 466"></polyline>
                <polyline id="Fill-123" fill="#DDDCDC" points="214 464.251 215.764 466.06 214.014 466.06 214 464.251"></polyline>
                <polyline id="Fill-124" fill="#DDDCDC" points="212.191 436.75 212.191 490.371 213.07 492.25 266.93 492.25 267.809 490.371 267.809 436.75 212.191 436.75"></polyline>
                <polyline id="Fill-126" fill="#DDDCDC" points="212.191 436.764 214 435 214 436.75 212.191 436.764"></polyline>
                <polyline id="Fill-127" fill="#DDDCDC" points="267.809 436.75 266 436.75 266 435 266.922 435.875 267.809 436.75"></polyline>
                <polygon id="Fill-128" fill="#F6F6F6" points="214 435 266 435 266 466 214 466"></polygon>
                <polyline id="Fill-129" fill="#DDDCDC" points="264.191 466 266 464.236 266 465.986 264.191 466"></polyline>
                <polyline id="Fill-130" fill="#DDDCDC" points="214 464.251 215.764 466.06 214.014 466.06 214 464.251"></polyline>
                <polyline id="Fill-131" fill="#DDDCDC" points="291.857 437.178 291.857 504.156 292.736 506.25 346.596 506.25 347.475 504.156 347.475 437.178 291.857 437.178"></polyline>
                <polyline id="Fill-133" fill="#DDDCDC" points="291.857 437.195 293.666 435 293.666 437.178 291.857 437.195"></polyline>
                <polygon id="Fill-134" fill="#F6F6F6" points="293.666 435 345.666 435 345.666 473.581 293.666 473.581"></polygon>
                <polyline id="Fill-135" fill="#DDDCDC" points="347.475 437.178 345.666 437.178 345.666 435 346.588 436.089 347.475 437.178"></polyline>
                <polyline id="Fill-136" fill="#DDDCDC" points="343.857 473.581 345.666 471.386 345.666 473.563 343.857 473.581"></polyline>
                <polyline id="Fill-137" fill="#DDDCDC" points="295.475 473.572 293.666 473.572 293.666 471.394 294.588 472.483 295.475 473.572"></polyline>
                <polyline id="Fill-138" fill="#DDDCDC" points="150.691 344.688 150.691 412.617 152.542 414.998 265.933 414.998 267.783 412.617 267.783 344.688 150.691 344.688"></polyline>
                <polyline id="Fill-140" fill="#DDDCDC" points="150.691 344.705 154.499 342.471 154.499 344.688 150.691 344.705"></polyline>
                <polyline id="Fill-141" fill="#DDDCDC" points="267.783 344.688 263.976 344.688 263.976 342.471 265.916 343.578 267.783 344.688"></polyline>
                <polyline id="Fill-142" fill="#F6F6F6" points="152.5 374.079 152.5 342.5 204.5 342.5"></polyline>
                <polyline id="Fill-143" fill="#DDDCDC" points="150.691 344.706 152.5 342.47 152.5 344.688 150.691 344.706"></polyline>
                <polyline id="Fill-144" fill="#DDDCDC" points="267.809 344.688 266 344.688 266 342.47 266.922 343.578 267.809 344.688"></polyline>
                <polygon id="Fill-145" fill="#F6F6F6" points="152.5 342.471 266 342.471 266 395.191 152.5 395.191"></polygon>
                <polyline id="Fill-146" fill="#DDDCDC" points="152.5 392.216 155.25 395.292 152.53 395.292 152.5 392.216"></polyline>
                <polyline id="Fill-147" fill="#DDDCDC" points="266 392.114 263.25 395.19 265.971 395.19 266 392.114"></polyline>
                <polyline id="Fill-148" fill="#DDDCDC" points="0.525 265.215 0.525 327.565 1.741 329.75 76.284 329.75 77.5 327.565 77.5 265.215 0.525 265.215"></polyline>
                <polyline id="Fill-150" fill="#DDDCDC" points="0.525 265.231 3.028 263.181 3.028 265.215 0.525 265.231"></polyline>
                <polygon id="Fill-151" fill="#F6F6F6" points="3.028 263.181 74.997 263.181 74.997 299.227 3.028 299.227"></polygon>
                <polyline id="Fill-152" fill="#DDDCDC" points="77.5 265.215 74.997 265.215 74.997 263.181 76.273 264.198 77.5 265.215"></polyline>
                <polyline id="Fill-153" fill="#DDDCDC" points="72.494 299.227 74.997 297.176 74.997 299.211 72.494 299.227"></polyline>
                <polyline id="Fill-154" fill="#DDDCDC" points="3.028 297.193 5.469 299.296 3.047 299.296 3.028 297.193"></polyline>
                <polyline id="Fill-155" fill="#DDDCDC" points="0.525 265.215 0.525 327.565 1.741 329.75 76.284 329.75 77.5 327.565 77.5 265.215 0.525 265.215"></polyline>
                <polyline id="Fill-157" fill="#DDDCDC" points="0.525 265.231 3.028 263.181 3.028 265.215 0.525 265.231"></polyline>
                <polyline id="Fill-158" fill="#DDDCDC" points="77.5 265.215 74.997 265.215 74.997 263.181 76.273 264.198 77.5 265.215"></polyline>
                <polygon id="Fill-159" fill="#F6F6F6" points="3.028 263.181 74.997 263.181 74.997 309.73 3.028 309.73"></polygon>
                <polyline id="Fill-160" fill="#DDDCDC" points="72.494 309.729 74.997 307.082 74.997 309.71 72.494 309.729"></polyline>
                <polyline id="Fill-161" fill="#DDDCDC" points="3.028 307.104 5.469 309.819 3.047 309.819 3.028 307.104"></polyline>
                <polyline id="Fill-162" fill="#DDDCDC" points="440.208 262.367 440.208 328.988 441.087 330.867 495.946 330.867 496.825 328.988 496.825 262.367 440.208 262.367"></polyline>
                <polyline id="Fill-164" fill="#DDDCDC" points="440.208 262.38 442.017 260.617 442.017 262.367 440.208 262.38"></polyline>
                <polygon id="Fill-165" fill="#F6F6F6" points="442.017 260.617 495.017 260.617 495.017 304.618 442.017 304.618"></polygon>
                <polyline id="Fill-166" fill="#DDDCDC" points="496.825 262.367 495.017 262.367 495.017 260.617 495.939 261.492 496.825 262.367"></polyline>
                <polyline id="Fill-167" fill="#DDDCDC" points="493.208 304.617 495.017 302.853 495.017 304.603 493.208 304.617"></polyline>
                <polyline id="Fill-168" fill="#DDDCDC" points="442.017 302.867 443.78 304.676 442.03 304.676 442.017 302.867"></polyline>
                <polyline id="Fill-169" fill="#DDDCDC" points="440.208 262.367 440.208 328.988 441.087 330.867 495.946 330.867 496.825 328.988 496.825 262.367 440.208 262.367"></polyline>
                <polyline id="Fill-171" fill="#DDDCDC" points="440.208 262.38 442.017 260.617 442.017 262.367 440.208 262.38"></polyline>
                <polyline id="Fill-172" fill="#DDDCDC" points="496.825 262.367 495.017 262.367 495.017 260.617 495.939 261.492 496.825 262.367"></polyline>
                <polygon id="Fill-173" fill="#F6F6F6" points="442.017 260.617 495.017 260.617 495.017 311.618 442.017 311.618"></polygon>
                <polyline id="Fill-174" fill="#DDDCDC" points="493.208 311.617 495.017 309.853 495.017 311.603 493.208 311.617"></polyline>
                <polyline id="Fill-175" fill="#DDDCDC" points="442.017 309.867 443.78 311.676 442.03 311.676 442.017 309.867"></polyline>
                <polygon id="Fill-176" fill="#DDDCDC" points="300.668 232.082 327.334 232.082 327.334 276.334 300.668 276.334"></polygon>
                <polygon id="Fill-177" fill="#F6F6F6" points="301.041 230.38 327.041 230.38 327.041 256.667 301.041 256.667"></polygon>
                <polyline id="Fill-178" fill="#DDDCDC" points="370.333 248.805 370.333 408.453 371.05 414.048 414.949 414.048 415.666 408.453 415.666 248.805 370.333 248.805"></polyline>
                <polyline id="Fill-180" fill="#DDDCDC" points="370.333 248.846 371.808 243.595 371.808 248.805 370.333 248.846"></polyline>
                <polyline id="Fill-181" fill="#DDDCDC" points="415.666 248.805 414.191 248.805 414.191 243.595 414.943 246.2 415.666 248.805"></polyline>
                <polyline id="Fill-182" fill="#DDDCDC" points="370.333 248.805 370.333 408.453 371.05 414.048 414.949 414.048 415.666 408.453 415.666 248.805 370.333 248.805"></polyline>
                <polyline id="Fill-184" fill="#DDDCDC" points="370.333 248.846 371.808 243.595 371.808 248.805 370.333 248.846"></polyline>
                <polyline id="Fill-185" fill="#DDDCDC" points="415.666 248.805 414.191 248.805 414.191 243.595 414.943 246.2 415.666 248.805"></polyline>
                <polygon id="Fill-186" fill="#F6F6F6" points="371.808 243.595 414.192 243.595 414.192 296.973 371.808 296.973"></polygon>
                <polyline id="Fill-187" fill="#DDDCDC" points="412.718 296.973 414.191 293.935 414.191 296.949 412.718 296.973"></polyline>
                <polyline id="Fill-188" fill="#DDDCDC" points="371.808 293.96 373.245 297.075 371.818 297.075 371.808 293.96"></polyline>
                <polygon id="Fill-189" fill="#DDDCDC" points="378.668 233.772 405.334 233.772 405.334 277.704 378.668 277.704"></polygon>
                <polygon id="Fill-190" fill="#F6F6F6" points="379.041 232.082 405.041 232.082 405.041 258.18 379.041 258.18"></polygon>
                <polyline id="Fill-192" fill="#DDDCDC" points="72.494 250.845 73.968 245.556 73.968 250.804 72.494 250.845"></polyline>
                <polygon id="Fill-193" fill="#F6F6F6" points="73.968 245.556 116.352 245.556 116.352 338.525 73.968 338.525"></polygon>
                <polyline id="Fill-194" fill="#DDDCDC" points="117.827 250.804 116.352 250.804 116.352 245.556 117.104 248.18 117.827 250.804"></polyline>
                <polyline id="Fill-195" fill="#DDDCDC" points="114.878 338.524 116.352 333.234 116.352 338.483 114.878 338.524"></polyline>
                <polyline id="Fill-196" fill="#DDDCDC" points="73.968 333.278 75.406 338.702 73.979 338.702 73.968 333.278"></polyline>
                <polyline id="Fill-197" fill="#DDDCDC" points="72.494 250.804 72.494 409.71 73.21 415.278 117.11 415.278 117.827 409.71 117.827 250.804 72.494 250.804"></polyline>
                <polyline id="Fill-199" fill="#DDDCDC" points="72.494 250.845 73.968 245.556 73.968 250.804 72.494 250.845"></polyline>
                <polyline id="Fill-200" fill="#DDDCDC" points="117.827 250.804 116.352 250.804 116.352 245.556 117.104 248.18 117.827 250.804"></polyline>
                <polygon id="Fill-201" fill="#F6F6F6" points="73.968 245.556 116.352 245.556 116.352 299.322 73.968 299.322"></polygon>
                <polyline id="Fill-202" fill="#DDDCDC" points="114.878 299.321 116.352 296.262 116.352 299.297 114.878 299.321"></polyline>
                <polyline id="Fill-203" fill="#DDDCDC" points="73.968 296.287 75.406 299.424 73.979 299.424 73.968 296.287"></polyline>
                <polyline id="Fill-204" fill="#DDDCDC" points="497.912 134.975 495.946 134.975 495.946 133.225 496.948 134.1 497.912 134.975"></polyline>
                <polyline id="Fill-206" fill="#DDDCDC" points="446.012 347.759 447.82 345.995 447.82 347.745 446.012 347.759"></polyline>
                <polygon id="Fill-207" fill="#F6F6F6" points="447.82 345.995 559.82 345.995 559.82 389.995 447.82 389.995"></polygon>
                <polyline id="Fill-208" fill="#DDDCDC" points="561.629 347.745 559.82 347.745 559.82 345.995 560.742 346.87 561.629 347.745"></polyline>
                <polyline id="Fill-209" fill="#DDDCDC" points="558.012 389.995 559.82 388.231 559.82 389.981 558.012 389.995"></polyline>
                <polyline id="Fill-210" fill="#DDDCDC" points="447.82 388.246 449.584 390.055 447.834 390.055 447.82 388.246"></polyline>
                <polyline id="Fill-211" fill="#DDDCDC" points="446.012 347.745 446.012 412.229 446.891 414.048 560.75 414.048 561.629 412.229 561.629 347.745 446.012 347.745"></polyline>
                <polyline id="Fill-213" fill="#DDDCDC" points="446.012 347.759 447.82 345.995 447.82 347.745 446.012 347.759"></polyline>
                <polyline id="Fill-214" fill="#DDDCDC" points="561.629 347.745 559.82 347.745 559.82 345.995 560.742 346.87 561.629 347.745"></polyline>
                <polygon id="Fill-215" fill="#F6F6F6" points="447.82 345.995 559.82 345.995 559.82 396.995 447.82 396.995"></polygon>
                <polyline id="Fill-216" fill="#DDDCDC" points="558.012 396.995 559.82 395.231 559.82 396.981 558.012 396.995"></polyline>
                <polyline id="Fill-217" fill="#DDDCDC" points="447.82 395.246 449.584 397.055 447.834 397.055 447.82 395.246"></polyline>
                <polyline id="Fill-218" fill="#DDDCDC" points="480.512 318.12 480.512 384.741 481.391 386.62 526.25 386.62 527.129 384.741 527.129 318.12 480.512 318.12"></polyline>
                <polyline id="Fill-220" fill="#DDDCDC" points="480.512 318.134 482.32 316.37 482.32 318.12 480.512 318.134"></polyline>
                <polygon id="Fill-221" fill="#F6F6F6" points="482.32 316.37 525.32 316.37 525.32 360.37 482.32 360.37"></polygon>
                <polyline id="Fill-222" fill="#DDDCDC" points="527.129 318.12 525.32 318.12 525.32 316.37 526.242 317.245 527.129 318.12"></polyline>
                <polyline id="Fill-223" fill="#DDDCDC" points="523.512 360.37 525.32 358.606 525.32 360.356 523.512 360.37"></polyline>
                <polyline id="Fill-224" fill="#DDDCDC" points="482.32 358.621 484.084 360.43 482.334 360.43 482.32 358.621"></polyline>
                <polyline id="Fill-225" fill="#DDDCDC" points="480.512 318.12 480.512 384.741 481.391 386.62 526.25 386.62 527.129 384.741 527.129 318.12 480.512 318.12"></polyline>
                <polyline id="Fill-227" fill="#DDDCDC" points="480.512 318.134 482.32 316.37 482.32 318.12 480.512 318.134"></polyline>
                <polyline id="Fill-228" fill="#DDDCDC" points="527.129 318.12 525.32 318.12 525.32 316.37 526.242 317.245 527.129 318.12"></polyline>
                <polygon id="Fill-229" fill="#F6F6F6" points="482.32 316.37 525.32 316.37 525.32 367.37 482.32 367.37"></polygon>
                <polyline id="Fill-230" fill="#DDDCDC" points="523.512 367.37 525.32 365.606 525.32 367.356 523.512 367.37"></polyline>
                <polyline id="Fill-231" fill="#DDDCDC" points="482.32 365.621 484.084 367.43 482.334 367.43 482.32 365.621"></polyline>
                <polyline id="Fill-232" fill="#DDDCDC" points="450.864 254.361 450.864 276.746 451.259 277.445 475.429 277.445 475.823 276.746 475.823 254.361 450.864 254.361"></polyline>
                <polyline id="Fill-234" fill="#DDDCDC" points="450.864 254.367 451.676 253.633 451.676 254.361 450.864 254.367"></polyline>
                <polygon id="Fill-235" fill="#F6F6F6" points="451.676 253.633 475.012 253.633 475.012 266.527 451.676 266.527"></polygon>
                <polyline id="Fill-236" fill="#DDDCDC" points="475.823 254.361 475.012 254.361 475.012 253.633 475.426 253.997 475.823 254.361"></polyline>
                <polyline id="Fill-237" fill="#DDDCDC" points="474.2 266.527 475.012 265.793 475.012 266.521 474.2 266.527"></polyline>
                <polyline id="Fill-238" fill="#DDDCDC" points="452.488 266.524 451.676 266.524 451.676 265.796 452.09 266.161 452.488 266.524"></polyline>
                <polyline id="Fill-239" fill="#DDDCDC" points="439.208 187.411 439.208 254.031 440.087 255.91 506.946 255.91 507.825 254.031 507.825 187.411 439.208 187.411"></polyline>
                <polyline id="Fill-241" fill="#DDDCDC" points="439.208 187.424 441.017 185.661 441.017 187.411 439.208 187.424"></polyline>
                <polygon id="Fill-242" fill="#F6F6F6" points="441.017 185.661 506.017 185.661 506.017 229.661 441.017 229.661"></polygon>
                <polyline id="Fill-243" fill="#DDDCDC" points="507.825 187.411 506.017 187.411 506.017 185.661 506.939 186.536 507.825 187.411"></polyline>
                <polyline id="Fill-244" fill="#DDDCDC" points="504.208 229.66 506.017 227.897 506.017 229.646 504.208 229.66"></polyline>
                <polyline id="Fill-245" fill="#DDDCDC" points="441.017 227.91 442.78 229.719 441.03 229.719 441.017 227.91"></polyline>
                <polyline id="Fill-246" fill="#DDDCDC" points="439.208 187.411 439.208 254.031 440.087 255.91 506.946 255.91 507.825 254.031 507.825 187.411 439.208 187.411"></polyline>
                <polyline id="Fill-248" fill="#DDDCDC" points="439.208 187.424 441.017 185.661 441.017 187.411 439.208 187.424"></polyline>
                <polyline id="Fill-249" fill="#DDDCDC" points="507.825 187.411 506.017 187.411 506.017 185.661 506.939 186.536 507.825 187.411"></polyline>
                <polygon id="Fill-250" fill="#F6F6F6" points="441.017 185.661 506.017 185.661 506.017 236.661 441.017 236.661"></polygon>
                <polyline id="Fill-251" fill="#DDDCDC" points="504.208 236.66 506.017 234.896 506.017 236.646 504.208 236.66"></polyline>
                <polyline id="Fill-252" fill="#DDDCDC" points="441.017 234.91 442.78 236.719 441.03 236.719 441.017 234.91"></polyline>
                <polygon id="Fill-254" fill="#F6F6F6" points="507.024 120.602 563.534 120.602 563.534 151.602 507.024 151.602"></polygon>
                <polyline id="Fill-255" fill="#DDDCDC" points="561.569 151.602 563.534 149.838 563.534 151.588 561.569 151.602"></polyline>
                <polyline id="Fill-256" fill="#DDDCDC" points="507.024 149.853 508.94 151.662 507.039 151.662 507.024 149.853"></polyline>
                <polyline id="Fill-257" fill="#DDDCDC" points="505.059 122.352 505.059 170.973 507.101 172.852 563.458 172.852 565.5 170.973 565.5 122.352"></polyline>
                <polygon id="Fill-259" fill="#F6F6F6" points="507.024 120.602 563.534 120.602 563.534 151.602 507.024 151.602"></polygon>
                <polyline id="Fill-260" fill="#DDDCDC" points="561.569 151.602 563.534 149.838 563.534 151.588 561.569 151.602"></polyline>
                <polyline id="Fill-261" fill="#DDDCDC" points="507.024 149.853 508.94 151.662 507.039 151.662 507.024 149.853"></polyline>
                <polyline id="Fill-262" fill="#DDDCDC" points="505.059 122.352 507.024 120.588 507.024 122.338 505.059 122.352"></polyline>
                <polyline id="Fill-263" fill="#DDDCDC" points="565.5 122.338 563.534 122.338 563.534 120.588 564.536 121.463 565.5 122.338"></polyline>
                <polyline id="Fill-266" fill="#DDDCDC" points="480.512 318.12 480.512 384.741 481.391 386.62 526.25 386.62 527.129 384.741 527.129 318.12 480.512 318.12"></polyline>
                <polyline id="Fill-268" fill="#DDDCDC" points="480.512 318.134 482.32 316.37 482.32 318.12 480.512 318.134"></polyline>
                <polygon id="Fill-269" fill="#F6F6F6" points="482.32 316.37 525.32 316.37 525.32 360.37 482.32 360.37"></polygon>
                <polyline id="Fill-270" fill="#DDDCDC" points="527.129 318.12 525.32 318.12 525.32 316.37 526.242 317.245 527.129 318.12"></polyline>
                <polyline id="Fill-271" fill="#DDDCDC" points="523.512 360.37 525.32 358.606 525.32 360.356 523.512 360.37"></polyline>
                <polyline id="Fill-272" fill="#DDDCDC" points="482.32 358.621 484.084 360.43 482.334 360.43 482.32 358.621"></polyline>
                <polyline id="Fill-273" fill="#DDDCDC" points="480.512 318.12 480.512 384.741 481.391 386.62 526.25 386.62 527.129 384.741 527.129 318.12 480.512 318.12"></polyline>
                <polyline id="Fill-275" fill="#DDDCDC" points="480.512 318.134 482.32 316.37 482.32 318.12 480.512 318.134"></polyline>
                <polyline id="Fill-276" fill="#DDDCDC" points="527.129 318.12 525.32 318.12 525.32 316.37 526.242 317.245 527.129 318.12"></polyline>
                <polygon id="Fill-277" fill="#F6F6F6" points="482.32 316.37 525.32 316.37 525.32 367.37 482.32 367.37"></polygon>
                <polyline id="Fill-278" fill="#DDDCDC" points="523.512 367.37 525.32 365.606 525.32 367.356 523.512 367.37"></polyline>
                <polyline id="Fill-279" fill="#DDDCDC" points="482.32 365.621 484.084 367.43 482.334 367.43 482.32 365.621"></polyline>
                <polyline id="Fill-280" fill="#DDDCDC" points="528.667 174.852 528.667 259.912 529.143 260.617 558.274 260.617 558.75 259.912 558.75 174.852 528.667 174.852"></polyline>
                <polyline id="Fill-282" fill="#DDDCDC" points="528.667 174.858 529.646 174.119 529.646 174.852 528.667 174.858"></polyline>
                <polygon id="Fill-283" fill="#F6F6F6" points="529.646 174.119 557.772 174.119 557.772 208.284 529.646 208.284"></polygon>
                <polyline id="Fill-284" fill="#DDDCDC" points="558.75 174.852 557.771 174.852 557.771 174.119 558.271 174.485 558.75 174.852"></polyline>
                <polyline id="Fill-285" fill="#DDDCDC" points="556.794 208.284 557.771 207.544 557.771 208.278 556.794 208.284"></polyline>
                <polyline id="Fill-286" fill="#DDDCDC" points="530.624 208.281 529.646 208.281 529.646 207.547 530.145 207.914 530.624 208.281"></polyline>
                <polyline id="Fill-288" fill="#DDDCDC" points="514.846 180.715 515.382 179.946 515.382 180.702 514.846 180.715"></polyline>
                <polygon id="Fill-289" fill="#F6F6F6" points="515.382 179.946 528.131 179.946 528.131 223.29 515.382 223.29"></polygon>
                <polyline id="Fill-290" fill="#DDDCDC" points="527.595 223.29 528.131 221.512 528.131 223.275 527.595 223.29"></polyline>
                <polyline id="Fill-291" fill="#DDDCDC" points="515.382 221.526 515.904 223.35 515.386 223.35 515.382 221.526"></polyline>
                <polyline id="Fill-292" fill="#DDDCDC" points="514.846 180.702 514.846 247.855 515.106 248.741 528.406 248.741 528.406 249.749 528.667 247.855 528.667 180.702 514.846 180.702"></polyline>
                <polyline id="Fill-293" fill="#DDDCDC" points="514.846 180.715 515.382 179.946 515.382 180.702 514.846 180.715"></polyline>
                <polyline id="Fill-294" fill="#DDDCDC" points="528.667 180.702 528.131 180.702 528.131 179.946 528.667 180.702"></polyline>
                <polygon id="Fill-295" fill="#F6F6F6" points="515.382 179.946 528.131 179.946 528.131 230.345 515.382 230.345"></polygon>
                <polyline id="Fill-296" fill="#DDDCDC" points="527.595 230.345 528.131 229.576 528.131 230.331 527.595 230.345"></polyline>
                <polyline id="Fill-297" fill="#DDDCDC" points="515.382 229.59 515.904 230.405 515.386 230.405 515.382 229.59"></polyline>
                <polygon id="Fill-298" fill="#CFCFCF" points="467.667 156 471.666 156 471.666 173.102 467.667 173.102"></polygon>
                <path d="M484.628,43.185 C484.628,45.21 484.628,50.852 478.651,50.852 L458.272,50.852 C452.295,50.852 452.295,45.21 452.295,43.185 L452.295,40.019 C452.295,37.994 454.971,36.352 458.272,36.352 L478.651,36.352 C481.952,36.352 484.628,37.994 484.628,40.019 L484.628,43.185" id="Fill-299" fill="#F7F7F7"></path>
                <path d="M479.25,65.669 C479.25,71.286 474.438,75.838 468.5,75.838 C462.563,75.838 457.75,71.286 457.75,65.669 C457.75,60.053 462.563,55.5 468.5,55.5 C474.438,55.5 479.25,60.053 479.25,65.669" id="Fill-300" fill="#DDDCDC"></path>
            </g>
        </g>
    </g>
</svg>