<?xml version="1.0" encoding="UTF-8"?>
<svg width="40px" height="40px" viewBox="0 0 40 40" version="1.1" xmlns="http://www.w3.org/2000/svg" xmlns:xlink="http://www.w3.org/1999/xlink">
    <!-- Generator: Sketch 45.2 (43514) - http://www.bohemiancoding.com/sketch -->
    <title>business-active</title>
    <desc>Created with Sketch.</desc>
    <defs></defs>
    <g id="Locpin-Dashboard" stroke="none" stroke-width="1" fill="none" fill-rule="evenodd">
        <g id="Artboard-Copy-9" transform="translate(-731.000000, -105.000000)">
            <g id="business-active" transform="translate(731.000000, 105.000000)">
                <circle id="Oval-3" fill="#6896CB" cx="20" cy="20" r="20"></circle>
                <circle id="Oval" fill="#82D2E9" cx="20" cy="20" r="17.4468085"></circle>
                <g id="Group-4" transform="translate(11.914894, 10.212766)">
                    <path d="M16.9645481,0 L16.9645481,19.5744851 L12.1796756,19.5744851 L12.1796756,15.224601 L10.0047335,15.224601 L10.0047335,19.5744851 L5.21986096,19.5744851 L5.21986096,0 L16.9645481,0 Z M15.6595829,1.30496524 L13.4846408,1.30496524 L13.4846408,3.4799073 L15.6595829,3.4799073 L15.6595829,1.30496524 Z M12.1796756,1.30496524 L10.0047335,1.30496524 L10.0047335,3.4799073 L12.1796756,3.4799073 L12.1796756,1.30496524 Z M8.69976826,1.30496524 L6.52482619,1.30496524 L6.52482619,3.4799073 L8.69976826,3.4799073 L8.69976826,1.30496524 Z M15.6595829,4.78487254 L13.4846408,4.78487254 L13.4846408,6.95981461 L15.6595829,6.95981461 L15.6595829,4.78487254 Z M12.1796756,4.78487254 L10.0047335,4.78487254 L10.0047335,6.95981461 L12.1796756,6.95981461 L12.1796756,4.78487254 Z M8.69976826,4.78487254 L6.52482619,4.78487254 L6.52482619,6.95981461 L8.69976826,6.95981461 L8.69976826,4.78487254 Z M15.6595829,8.26477985 L13.4846408,8.26477985 L13.4846408,10.4397284 L15.6595829,10.4397284 L15.6595829,8.26477985 Z M12.1796756,8.26477985 L10.0047335,8.26477985 L10.0047335,10.4397284 L12.1796756,10.4397284 L12.1796756,8.26477985 Z M8.69976826,8.26477985 L6.52482619,8.26477985 L6.52482619,10.4397284 L8.69976826,10.4397284 L8.69976826,8.26477985 Z M15.6595829,11.7446937 L13.4846408,11.7446937 L13.4846408,13.9196357 L15.6595829,13.9196357 L15.6595829,11.7446937 Z M12.1796756,11.7446937 L10.0047335,11.7446937 L10.0047335,13.9196357 L12.1796756,13.9196357 L12.1796756,11.7446937 Z M8.69976826,11.7446937 L6.52482619,11.7446937 L6.52482619,13.9196357 L8.69976826,13.9196357 L8.69976826,11.7446937 Z" id="Shape" fill="#FFFFFF" fill-rule="nonzero"></path>
                    <path d="M4.78487254,3.91489572 L4.78487254,19.5744851 L0,19.5744851 L0,3.91489572 L4.78487254,3.91489572 Z M3.4799073,5.21986096 L1.30496524,5.21986096 L1.30496524,7.39480302 L3.4799073,7.39480302 L3.4799073,5.21986096 Z M3.4799073,8.69976826 L1.30496524,8.69976826 L1.30496524,10.8747168 L3.4799073,10.8747168 L3.4799073,8.69976826 Z M3.4799073,12.1796821 L1.30496524,12.1796821 L1.30496524,14.3546242 L3.4799073,14.3546242 L3.4799073,12.1796821 Z M3.4799073,15.6595894 L1.30496524,15.6595894 L1.30496524,17.8345315 L3.4799073,17.8345315 L3.4799073,15.6595894 Z" id="Combined-Shape" fill="#FA7D5B"></path>
                </g>
            </g>
        </g>
    </g>
</svg>