<?xml version="1.0" encoding="UTF-8"?>
<svg width="94px" height="30px" viewBox="0 0 94 30" version="1.1" xmlns="http://www.w3.org/2000/svg" xmlns:xlink="http://www.w3.org/1999/xlink">
    <!-- Generator: Sketch 44.1 (41455) - http://www.bohemiancoding.com/sketch -->
    <title>Group 5</title>
    <desc>Created with Sketch.</desc>
    <defs></defs>
    <g id="Homepage" stroke="none" stroke-width="1" fill="none" fill-rule="evenodd">
        <g id="Artboard-Copy" transform="translate(-86.000000, -46.000000)">
            <g id="Group-5" transform="translate(86.000000, 46.000000)">
                <path d="M0,23.7355786 L2.17731721,23.7355786 L2.17731721,0 L0,0 L0,23.7355786 Z M7.57858377,9.05022725 C6.02072539,10.7924484 5.2417962,12.8487356 5.2417962,15.220254 C5.2417962,17.6127491 6.06447899,19.7034145 7.71099597,21.492833 C9.35693725,23.2816688 11.4784111,24.1760867 14.0748417,24.1760867 C16.6609096,24.1760867 18.7766264,23.2816688 20.4231434,21.492833 C22.0690846,19.7034145 22.8923431,17.6127491 22.8923431,15.220254 C22.8923431,12.8382473 22.1134139,10.776716 20.5555556,9.03449481 C18.8416811,7.1250437 16.681635,6.1700268 14.0748417,6.1700268 C11.4576857,6.1700268 9.29188256,7.13028785 7.57858377,9.05022725 Z M18.7253886,10.3566018 C20.0310881,11.7101736 20.6839378,13.3475119 20.6839378,15.2674513 C20.6839378,16.505652 20.3874496,17.6599464 19.7944732,18.7303345 C19.2014968,19.8007225 18.4001151,20.6269666 17.3909039,21.2090665 C16.3816926,21.7917492 15.27346,22.0830905 14.0667818,22.0830905 C12.8601036,22.0830905 11.751871,21.7917492 10.7426598,21.2090665 C9.73344847,20.6269666 8.93264249,19.8007225 8.33966609,18.7303345 C7.74668969,17.6599464 7.4502015,16.505652 7.4502015,15.2674513 C7.4502015,13.3475119 8.10017271,11.7101736 9.40069085,10.3566018 C10.701209,9.00302995 12.2567645,8.32653537 14.0667818,8.32653537 C15.8670121,8.32653537 17.4196891,9.00302995 18.7253886,10.3566018 Z M40.8543466,8.04276891 C40.128958,7.48688964 39.2452504,7.03589325 38.2032239,6.68919706 C37.1611975,6.34308356 36.0805987,6.1700268 34.960852,6.1700268 C33.1773172,6.1700268 31.5653425,6.56858175 30.1243523,7.36627433 C28.6833621,8.1639669 27.5503742,9.27339471 26.72654,10.6951404 C25.9021301,12.1168861 25.4899252,13.6569164 25.4899252,15.3146486 C25.4899252,17.7805617 26.3713299,19.8741405 28.1335636,21.5948025 C29.8963731,23.3160471 32.115141,24.1760867 34.7898676,24.1760867 C36.5313759,24.1760867 38.084053,23.8363827 39.447323,23.1569747 C40.810593,22.4775667 41.8963731,21.5213845 42.7052389,20.2884279 L40.9792746,19.1393777 C39.4047208,21.1438061 37.3753598,22.1460203 34.8900403,22.1460203 C33.5331031,22.1460203 32.3091537,21.8418599 31.2164652,21.2341219 C30.1237766,20.6258012 29.2642487,19.7715884 28.6378814,18.6714835 C28.0115141,17.5707959 27.6983305,16.3966904 27.6983305,15.1497494 C27.6983305,13.2315581 28.3793898,11.6017947 29.7409326,10.2598765 C31.1024755,8.91854096 32.8134715,8.24787321 34.8744963,8.24787321 C37.45308,8.24787321 39.4876223,9.24950472 40.9792746,11.2539331 L42.7052389,10.1678126 C42.1968912,9.30777299 41.5803109,8.59923086 40.8543466,8.04276891 Z M46.2826713,30 L48.4599885,30 L48.4599885,20.7918657 C49.3707542,21.9152779 50.3914796,22.7595851 51.5204375,23.3265354 C52.6493955,23.8929029 53.8865861,24.1760867 55.2331606,24.1760867 C57.6257916,24.1760867 59.6683938,23.2974012 61.3621186,21.5400303 C63.0552677,19.7820767 63.9021301,17.644214 63.9021301,15.1258595 C63.9021301,12.6599464 63.0477835,10.5512178 61.3385147,8.79850833 C59.6298215,7.04638154 57.5739781,6.1700268 55.1709845,6.1700268 C53.7938975,6.1700268 52.5457686,6.46894301 51.4271733,7.06735812 C50.308578,7.66519054 49.3195164,8.56252185 48.4599885,9.75876937 L48.4599885,6.6105349 L46.2826713,6.6105349 L46.2826713,30 Z M58.3425446,9.19881133 C59.3667242,9.80188789 60.1807714,10.6479431 60.7858377,11.7381424 C61.3909039,12.8283417 61.6937248,13.980888 61.6937248,15.1963641 C61.6937248,16.4025172 61.388601,17.5550635 60.7783535,18.6557511 C60.1681059,19.755856 59.3483017,20.6129822 58.3195164,21.2259643 C57.2901554,21.8395292 56.1911341,22.1460203 55.0224525,22.1460203 C53.8324698,22.1460203 52.7029361,21.8418599 51.6321244,21.2341219 C50.5618883,20.6258012 49.7392055,19.8030533 49.1652274,18.7658781 C48.5912493,17.7281203 48.3045481,16.5592588 48.3045481,15.2598765 C48.3045481,13.2787554 48.9481865,11.6227712 50.2360391,10.2913413 C51.5238918,8.96049411 53.1088083,8.2950705 54.9913644,8.2950705 C56.2014968,8.2950705 57.3189407,8.59631745 58.3425446,9.19881133 Z M79.2417962,23.7355786 L81.4191134,23.7355786 L81.4191134,17.4554248 C81.4191134,15.1992775 81.5227404,13.6464282 81.7299942,12.7962941 C82.0616005,11.4951637 82.7484168,10.4037991 83.791019,9.52278289 C84.8330455,8.64118401 86.0126655,8.20009323 87.3293034,8.20009323 C88.4801382,8.20009323 89.4133564,8.48619042 90.128958,9.0583848 C90.8445596,9.6299965 91.328152,10.4824613 91.5803109,11.615779 C91.7420841,12.2771239 91.8226828,13.5939867 91.8226828,15.5663676 L91.8226828,23.7355786 L94,23.7355786 L94,14.9213378 C94,12.5917725 93.7668394,10.8763547 93.2999424,9.77450181 C92.8336212,8.67264888 92.1105354,7.79629414 91.1306851,7.14602028 C90.1508348,6.49516373 89.0287853,6.1700268 87.7639609,6.1700268 C86.5198618,6.1700268 85.3690271,6.46136814 84.3114565,7.04346813 C83.253886,7.62556812 82.2901554,8.50483627 81.4191134,9.68010721 L81.4191134,6.6105349 L79.2417962,6.6105349 L79.2417962,23.7355786 L79.2417962,23.7355786 Z" id="Fill-1" fill="#0C0C0C"></path>
                <polyline id="Fill-3" fill="#FB4D4C" points="66 6 71 24 76 6 70.8482185 9.43720857 66 6"></polyline>
                <path d="M71,0 C72.6568251,0 74,1.34317492 74,3 C74,4.65682508 72.6568251,6 71,6 C69.3431749,6 68,4.65682508 68,3 C68,1.34317492 69.3431749,0 71,0" id="Fill-4" fill="#FB4D4C"></path>
            </g>
        </g>
    </g>
</svg>