<?xml version="1.0" encoding="UTF-8"?>
<svg width="78px" height="60px" viewBox="0 0 78 60" version="1.1" xmlns="http://www.w3.org/2000/svg" xmlns:xlink="http://www.w3.org/1999/xlink">
    <!-- Generator: Sketch 41.2 (35397) - http://www.bohemiancoding.com/sketch -->
    <title>Freedom_img_3</title>
    <desc>Created with Sketch.</desc>
    <defs></defs>
    <g id="Page-1" stroke="none" stroke-width="1" fill="none" fill-rule="evenodd">
        <g id="Join-us" transform="translate(-1083.000000, -1089.000000)" fill="#08BCBD">
            <g id="Freedom_img_3" transform="translate(1083.000000, 1089.000000)">
                <path d="M38.4727273,8.381 L38.4727273,6.751 L38.4727273,1.912 L40.4172727,1.912 L40.4172727,4.331 L42.1536364,4.331 L42.1536364,0 L36.7345455,0 L36.7345455,6.75 L7.42363636,6.75 L0,18.262 L7.41272727,30.262 L38.4727273,30.262 L38.4727273,8.381 L38.4727273,8.381 Z M36.7345455,28.349 L8.33272727,28.349 L2.11636364,18.286 L8.32181818,8.662 L36.7345455,8.662 L36.7345455,28.349 L36.7345455,28.349 Z" id="Shape"></path>
                <path d="M78.0154545,25.659 L70.6290909,13.47 L41.4190909,13.47 L41.4190909,7 L39.6827273,7 L39.6827273,13.47 L39.6827273,38.332 L39.6827273,58.02 L37.7381818,58.02 L37.7381818,32.65 L36,32.65 L36,59.931 L41.4190909,59.931 L41.4190909,38.331 L70.64,38.331 L78.0154545,25.659 Z M41.4190909,36.42 L41.4190909,15.382 L69.7,15.382 L75.9390909,25.68 L69.6890909,36.42 L41.4190909,36.42 Z" id="Shape"></path>
                <rect id="Rectangle-path" x="12" y="16" width="18.4072727" height="1.912"></rect>
                <rect id="Rectangle-path" x="22" y="20" width="8.59" height="1.912"></rect>
                <rect id="Rectangle-path" x="48" y="22" width="19.6363636" height="1.913"></rect>
                <rect id="Rectangle-path" x="48" y="26" width="9.81909091" height="1.912"></rect>
            </g>
        </g>
    </g>
</svg>