<?xml version="1.0" encoding="utf-8"?>
<!-- Generator: Adobe Illustrator 21.0.0, SVG Export Plug-In . SVG Version: 6.00 Build 0)  -->
<svg version="1.1" id="Layer_1" xmlns="http://www.w3.org/2000/svg" xmlns:xlink="http://www.w3.org/1999/xlink" x="0px" y="0px"
	 viewBox="0 0 20 14" style="enable-background:new 0 0 20 14;" xml:space="preserve">
<style type="text/css">
	.st0{fill:#888888;}
</style>
<title>Linkedin_grey_logo</title>
<desc>Created with Sketch.</desc>
<g id="About-Us-page">
	<g id="About-us_V5_b" transform="translate(-347.000000, -6971.000000)">
		<g id="Group-31" transform="translate(315.000000, 6971.000000)">
			<g id="Linkedin_grey_logo" transform="translate(32.073826, 0.000000)">
				<path id="Fill-6" class="st0" d="M4.7,0.7c0.9,0,1.5,0.7,1.5,1.5c0,0.8-0.7,1.5-1.5,1.5C3.8,3.7,3.2,3,3.2,2.2
					C3.2,1.3,3.8,0.7,4.7,0.7L4.7,0.7z M3.4,13.4H6V4.9H3.4V13.4z"/>
				<path id="Fill-7" class="st0" d="M7.7,4.9h2.6v1.2h0c0.4-0.7,1.2-1.4,2.5-1.4c2.7,0,3.2,1.8,3.2,4.1v4.7h-2.7V9.3
					c0-1,0-2.3-1.4-2.3c-1.4,0-1.6,1.1-1.6,2.2v4.2H7.7V4.9"/>
			</g>
		</g>
	</g>
</g>
</svg>
