<?xml version="1.0" encoding="utf-8"?>
<!-- Generator: Adobe Illustrator 21.0.0, SVG Export Plug-In . SVG Version: 6.00 Build 0)  -->
<svg version="1.1" id="Layer_1" xmlns="http://www.w3.org/2000/svg" xmlns:xlink="http://www.w3.org/1999/xlink" x="0px" y="0px"
	 viewBox="0 0 83 83" style="enable-background:new 0 0 83 83;" xml:space="preserve">
<style type="text/css">
	.st0{fill:#08BCBD;}
	.st1{fill:#FFFFFF;}
</style>
<title>Long_term_commitment</title>
<desc>Created with Sketch.</desc>
<g id="Page-1">
	<g id="HowWeWork" transform="translate(-155.000000, -3903.000000)">
		<g id="Long_term_commitment" transform="translate(155.000000, 3903.000000)">
			<ellipse id="Oval-4" class="st0" cx="41.5" cy="41.5" rx="39.5" ry="39.5"/>
			<g id="Group-6" transform="translate(24.000000, 17.000000)">
				<path id="Shape" class="st1" d="M39.4,32c0,1-0.2,1.9-0.5,2.8l-0.1,0c0,0,0-0.1,0.1-0.4c0.1-0.2,0.2-0.6,0.2-1
					c0.1-0.4,0.1-1,0.1-1.6c0-0.6-0.1-1.3-0.3-2.1c0-0.2-0.1-0.3-0.1-0.5c0,0,0,0,0,0C39.2,30.1,39.4,31,39.4,32z"/>
				<ellipse id="Oval" class="st1" cx="38.3" cy="39.5" rx="1.8" ry="1.7"/>
				<ellipse id="Oval_1_" class="st1" cx="33.5" cy="42.5" rx="1.5" ry="1.5"/>
				<ellipse id="Oval_2_" class="st1" cx="27.7" cy="42.8" rx="1.3" ry="1.3"/>
				<ellipse id="Oval_3_" class="st1" cx="22.9" cy="40.4" rx="0.8" ry="0.8"/>
				<path id="Shape_1_" class="st1" d="M42.9,32.4c0,1.2-0.2,2.3-0.5,3.4l-3.5-1c0.3-0.9,0.5-1.8,0.5-2.8c0-1-0.2-1.9-0.5-2.8
					c-0.6-1.8-1.7-3.3-3.2-4.4c0,0-0.1-0.1-0.1-0.1c-0.6-0.5-1.4-0.9-2.2-1.2c-0.5-0.2-1-0.4-1.6-0.5l-0.2,0l-0.2,0
					c-0.1,0-0.3,0-0.4-0.1l-0.2,0c-0.1,0-0.1,0-0.2,0l-0.2,0l-0.1,0l-0.1,0l0,0h0h0c-1.1,0-2.2,0.1-3.3,0.4
					c-1.1,0.3-2.1,0.8-2.9,1.5c-0.9,0.6-1.6,1.4-2.2,2.2c-0.1,0.2-0.3,0.4-0.4,0.6c-0.1,0.1-0.1,0.2-0.2,0.3
					c-0.1,0.1-0.1,0.2-0.2,0.3c-0.2,0.4-0.4,0.8-0.5,1.2c-0.1,0.2-0.1,0.4-0.2,0.6c0,0.1-0.1,0.2-0.1,0.3c0,0.1,0,0.2-0.1,0.3
					c0,0,0,0.1,0,0.1c0,0,0,0.1,0,0.1c0,0.1,0,0.2,0,0.3c0,0.2,0,0.4-0.1,0.5c0,0.2,0,0.4,0,0.5l0,0c0,0,0,0,0,0v0l0,0.1
					c0,0,0,0.1,0,0.1c0,0.1,0,0.2,0,0.2c0,0.3,0,0.6,0,0.8c0,0.5,0.1,0.9,0.2,1.2c0,0.1,0.1,0.2,0.1,0.3c0,0.1,0,0.1,0,0.1l-1.1,0.3
					c0,0,0,0,0-0.1c0-0.1-0.1-0.2-0.1-0.3c0-0.2-0.1-0.4-0.2-0.6c-0.1-0.7-0.2-1.3-0.2-2c0-6.5,5.4-11.8,12.1-11.8
					c3,0,5.7,1.1,7.9,2.8c0.9,0.8,1.7,1.7,2.4,2.7C42.2,28,42.9,30.1,42.9,32.4z"/>
				<path id="Shape_2_" class="st1" d="M36.4,29.1c-0.2-0.3-0.6-0.4-0.9-0.3c-0.4,0.2-0.8,0.4-1.2,0.6l-0.1,0.1
					c-0.6,0.4-1.2,0.7-1.8,1.1l-1,0.6c-0.7-0.3-1.5-0.2-2.1,0.2c-0.1,0.1-0.2,0.2-0.3,0.2c-0.8,0.7-0.9,1.9-0.3,2.7
					c0.4,0.6,1.1,0.9,1.8,0.9c0.3,0,0.6-0.1,0.9-0.2c0.1-0.1,0.2-0.1,0.4-0.2c0.6-0.4,1-1.1,1-1.8c0.6-0.5,1.5-1.2,2.2-1.8l0.1-0.1
					c0.7-0.6,1.2-1,1.3-1.1C36.6,29.8,36.6,29.4,36.4,29.1z"/>
				<path id="Shape_3_" class="st1" d="M15.3,6.8c0,2.5-2.1,4.5-4.6,4.5c-2.6,0-4.7-2-4.7-4.5c0-2.5,2.1-4.6,4.7-4.6
					C13.3,2.2,15.3,4.3,15.3,6.8z"/>
				<path id="Shape_4_" class="st1" d="M29.8,13.4c-1.6,0.4-3.2,0.9-4.8,1.3c-0.6,0.1-1.3,0.2-1.9,0.1c-1.4-0.2-2.6-0.8-3.8-1.5
					c-0.4-0.2-0.9-0.4-1.3-0.5c-1-0.1-2-0.2-3-0.3c-0.1,0-0.4,0-0.5,0c0,0,0,0,0,0c0,0,0,0,0,0c-0.1,0-0.2,0.1-0.2,0.2
					c-0.1,0.1-0.1,0.2-0.1,0.3c-0.5,1.7-1.1,3.4-1.7,5.1c0,0.1-0.1,0.2-0.2,0.4c0-0.1-0.1-0.6-0.2-1.1c-0.1-0.3-0.1-0.7-0.2-1
					c-0.1-0.3-0.2-1.1-0.2-1.2v0c0,0,0,0,0,0l0,0c0,0,0-0.1,0.1-0.1l0,0c0.2-0.2,0.3-0.5,0.5-0.7c0,0,0-0.1,0-0.2
					c-0.1-0.1-0.2-0.8-0.3-0.8c0-0.1,0-0.1-0.1-0.2c0,0,0-0.1,0-0.1c0-0.1,0-0.1-0.1-0.1c-0.2-0.1-2-0.1-2.1,0c-0.1,0-0.1,0-0.1,0.1
					c0,0,0,0.1,0,0.1c0,0.1-0.3,0.9-0.4,1c0,0.1,0,0.1,0,0.2c0.2,0.2,0.3,0.5,0.5,0.7l0,0c0,0,0,0.1,0.1,0.1l0,0c0,0,0,0,0,0v0
					c0,0-0.1,0.8-0.2,1.2c-0.1,0.3-0.1,0.6-0.2,0.9c-0.1,0.5-0.2,1-0.2,1.2C9,18.4,9,18.3,8.9,18.2c-0.6-1.7-1.1-3.4-1.7-5.1
					c0-0.1-0.1-0.2-0.1-0.3c0-0.1-0.1-0.1-0.2-0.2c0,0,0,0-0.1,0c0,0,0,0,0,0c0,0,0,0,0,0c-0.1,0-0.1,0-0.2,0c-0.1,0-0.2,0-0.3,0
					c-1,0.1-1.9,0.5-2.6,1.1c-0.2,0.1-0.3,0.3-0.5,0.4c-0.2,0.2-0.3,0.4-0.5,0.6c-0.1,0.1-0.1,0.2-0.2,0.3c-0.2,0.3-0.3,0.7-0.4,1.1
					c-0.1,0.3-0.1,0.7-0.1,1c0,1.4,0,2.7,0,4.1c0,0.5,0,1,0,1.5c0,0.8,0.1,1.6,0.4,2.4c0.4,1.3,1,2.6,1.7,3.8c1.1,2,1.2,4.4,1.4,6.6
					C5.7,37.8,5.9,39,6,41.3c0,0.1,0,0.1,0,0.2c0.1,0.5,0.2,0.9,0.4,1.3c0.1,0.1,0.1,0.2,0.2,0.4c0.6,1,1.8,1.6,3.1,1.6
					c0.3,0,0.6,0,0.9,0c0.3,0,0.6,0,0.9,0c1.4,0,2.5-0.6,3.1-1.6c0.1-0.1,0.1-0.2,0.2-0.4c0.2-0.4,0.3-0.8,0.4-1.2
					c0-0.1,0-0.2,0-0.3c0.2-2.3,0.3-3.6,0.5-5.8c0.2-2.2,1.6-13.4,1.7-16.8c0-0.3,0.1-0.6,0.1-0.9c0.2,0.1,0.4,0.2,0.6,0.2
					c0.3,0.1,0.7,0.2,1,0.4c0.9,0.3,1.8,0.6,2.7,0.9c0.6,0.2,1.3,0.3,1.9,0.3c2.6-0.3,5.1-1,7.6-1.9c0.8-0.3,1.3-0.9,1.4-1.8
					C33.1,14.1,31.6,12.9,29.8,13.4z"/>
			</g>
		</g>
	</g>
</g>
</svg>
