<?xml version="1.0" encoding="UTF-8"?>
<svg width="23px" height="85px" viewBox="0 0 23 85" version="1.1" xmlns="http://www.w3.org/2000/svg" xmlns:xlink="http://www.w3.org/1999/xlink">
    <!-- Generator: Sketch 42 (36781) - http://www.bohemiancoding.com/sketch -->
    <title>Meet_Broker</title>
    <desc>Created with Sketch.</desc>
    <defs></defs>
    <g id="Page-1" stroke="none" stroke-width="1" fill="none" fill-rule="evenodd">
        <g id="Home_page:-State_Active" transform="translate(-282.000000, -2775.000000)" fill="#FFFFFF">
            <g id="Meet_Broker" transform="translate(282.000000, 2775.000000)">
                <g id="Group-12">
                    <path d="M22.3257758,19.8339756 L22.3257758,19.8345597 C22.3226925,18.1156786 22.3178189,17.2034722 22.3105581,17.1301647 C22.2052277,16.0857517 21.7730646,15.0526317 21.0919476,14.2149011 C20.898991,13.9777469 20.4053603,13.4951634 20.1648608,13.3068809 C19.4161095,12.72597 18.492106,12.3053036 17.5595487,12.123057 C16.9234881,11.9985414 17.3696754,12.0056482 11.2217198,12.0056482 L9.2908607,12.0056482 C5.38716948,12.0062323 5.47976876,12.0140206 5.02194439,12.0890805 C3.37415463,12.3589456 1.91753116,13.2759224 1.00446845,14.6182384 C0.473042078,15.3993091 0.169284612,16.244828 0.079271349,17.1939315 C0.0671369643,17.3249699 0.0603735368,19.7725453 0.0603735368,24.441348 C0.0603735368,30.6788147 0.0634568641,31.508757 0.0884218686,31.6500176 C0.241792534,32.522893 0.95821854,33.1651369 1.87864146,33.2556761 C2.80930897,33.3467994 3.70536366,32.7945105 4.0073308,31.9449027 C4.1114677,31.65177 4.10351072,32.185659 4.10957791,25.3052668 L4.11504833,18.9986788 L4.63792096,18.9986788 L5.16139036,18.9986788 L5.16139036,36.2306177 C5.16139036,48.6275706 5.166264,53.5078261 5.18148171,53.6239694 C5.32510509,54.7810209 6.30092843,55.7230176 7.5238158,55.885696 C8.41370383,56.0048572 9.31095206,55.6979976 9.92095355,55.0670468 C10.2648937,54.7113155 10.487689,54.2924988 10.594213,53.8003747 L10.636186,53.6061536 L10.6410597,43.50247 L10.6453365,33.3987864 L11.2047118,33.3987864 L11.764087,33.3987864 L11.764087,43.4869907 C11.764087,52.6570501 11.7664741,53.5900902 11.7933289,53.7438121 C12.0325354,55.1212729 13.3935757,56.0758282 14.8490057,55.8875457 C15.3457197,55.8231948 15.7901167,55.6468868 16.1809036,55.3591086 C16.3701801,55.2196977 16.6654833,54.9176085 16.7865287,54.7388666 C16.9636708,54.4785422 17.0963534,54.1799577 17.1809957,53.8499278 L17.2199848,53.6973742 L17.2248585,36.3492921 L17.2272456,28.6014764 L10.3634607,28.6014764 C10.0341415,28.6014764 9.73585445,28.4805628 9.50152158,28.28751 C9.43518031,28.2332838 9.37550301,28.1731191 9.32129613,28.1075999 C9.3026967,28.0851111 9.28529082,28.0620383 9.26828279,28.0386733 C9.26519946,28.0343897 9.26171829,28.0303982 9.25873442,28.026212 C9.23904091,27.9984661 9.22054095,27.9699414 9.20323453,27.9402485 C9.14176691,27.8365665 9.09362722,27.7251936 9.06259502,27.6066165 C9.03524293,27.5023505 9.01634512,27.3950664 9.01634512,27.2825253 L9.01634512,27.2819412 C9.01634512,27.3945797 9.03524293,27.5017664 9.06259502,27.6060324 C9.09362722,27.7251936 9.14176691,27.8365665 9.20323453,27.9396644 C9.2385436,27.9986609 9.27753277,28.0540552 9.32129613,28.1071131 C9.37550301,28.1726323 9.43577708,28.2327971 9.50152158,28.2870232 C9.73525768,28.4800761 10.0335447,28.6009897 10.3634607,28.6009897 C10.2399287,28.6009897 10.1208725,28.5839527 10.007784,28.5525074 C10.120773,28.5839527 10.2399287,28.6009897 10.3634607,28.6009897 L17.2266488,28.6009897 L17.2266488,28.6004055 L17.6010244,28.6004055 C18.3443052,28.6004055 18.9487368,28.0087857 18.9487368,27.2812597 L18.9487368,26.3589285 L20.2318983,26.3589285 C21.351345,26.3589285 22.2656012,25.4860531 22.3185151,24.4023091 L22.3282624,24.4023091 L22.3282624,19.8342677 L22.3257758,19.8342677 L22.3257758,19.8339756 Z M17.6015367,16.1512709 C17.6079605,16.1512709 17.6140783,16.1521709 17.6205021,16.1522709 C17.6138744,16.1521709 17.6075526,16.1512709 17.600925,16.1512709 L17.6015367,16.1512709 Z M9.04369721,17.2052246 C9.07353586,17.0640614 9.13072661,16.9335098 9.20313507,16.8125962 C9.13142285,16.9335098 9.07353586,17.0640614 9.04369721,17.2052246 Z M9.59233054,28.3555604 C9.6860239,28.4208849 9.78807209,28.4752084 9.8968837,28.5159997 C9.78807209,28.4752084 9.6860239,28.4208849 9.59233054,28.3555604 Z M17.2266488,28.4886432 L10.3634607,28.4886432 C10.0243942,28.4886432 9.71635986,28.3528345 9.49296783,28.1341775 C9.2695758,27.9155206 9.13082607,27.6140154 9.13082607,27.2821359 L9.13082607,27.2815518 C9.13082607,27.6134313 9.2695758,27.9149365 9.49296783,28.1335934 C9.71635986,28.3522503 10.0243942,28.4880591 10.3634607,28.4880591 L17.2266488,28.4880591 L17.2266488,28.4886432 Z M18.7197749,22.2552654 L18.7191781,22.2552654 L18.2747812,22.2552654 L17.2278424,22.2552654 L16.7080531,22.2552654 C15.5551871,22.2552654 14.6116889,23.1787648 14.6116889,24.3071943 C14.6116889,25.4356238 15.5551871,26.3591232 16.7080531,26.3591232 L17.2266488,26.3591232 L18.7185814,26.3591232 L18.7185814,27.2814544 C18.7185814,27.8850488 18.2169936,28.3759074 17.6004276,28.3759074 L17.226052,28.3759074 L10.3634607,28.3759074 C9.74679529,28.3759074 9.24530703,27.8849515 9.24530703,27.2814544 L9.24530703,17.4710008 C9.24530703,16.8674064 9.74689475,16.3765479 10.3634607,16.3765479 L17.6016212,16.3765479 C18.2182866,16.3765479 18.7197749,16.8675038 18.7197749,17.4710008 L18.7197749,22.2552654 Z M18.9492341,19.8345597 L18.9486373,19.8345597 L18.9486373,17.4704167 C18.9486373,17.2886569 18.9109412,17.1152696 18.8427101,16.9574588 C18.7745786,16.7995507 18.6759121,16.6578034 18.5535736,16.5380581 C18.3703643,16.3587321 18.1354347,16.2311985 17.8724567,16.1782379 C17.8546529,16.1746358 17.836153,16.1729808 17.8180509,16.1700602 C17.8363519,16.1729808 17.8549513,16.1746358 17.8730534,16.1782379 C18.1360314,16.2312958 18.3709611,16.3587321 18.5541704,16.5380581 C18.6759121,16.6572193 18.7750759,16.7996481 18.8433069,16.9574588 C18.9114385,17.1153669 18.9492341,17.2887543 18.9492341,17.4704167 L18.9492341,19.8345597 Z" id="Shape"></path>
                    <path d="M15.985731,3.37327949 C15.859066,1.95910053 15.192536,0.91786103 13.8557449,0.361910174 C13.2599159,0.115527111 12.634426,0.00747748293 11.9975568,0 C11.3608741,0.00747748293 10.7351977,0.115714048 10.1393686,0.361910174 C8.80257756,0.91786103 8.13604747,1.95891359 8.00938251,3.37327949 C7.99072787,3.58227514 8.00565158,3.78753204 8.00565158,3.99652769 C8.01684436,5.46678777 8.34815067,6.86601177 8.92532505,8.21308032 C9.2157777,8.88474522 9.6440881,9.45938978 10.1541058,9.97814016 C10.6827781,10.5153973 11.338302,10.7729966 11.9973702,10.7468254 C12.6564384,10.7729966 13.3117757,10.5153973 13.8406346,9.97814016 C14.3508389,9.45938978 14.7789627,8.88474522 15.0694154,8.21308032 C15.6465898,6.86601177 15.9780826,5.46660084 15.9890888,3.99652769 C15.9894619,3.78734511 16.0043856,3.5820882 15.985731,3.37327949 Z" id="Shape"></path>
                </g>
                <ellipse id="Oval-4" cx="10" cy="80" rx="5" ry="5"></ellipse>
            </g>
        </g>
    </g>
</svg>