<svg xmlns="http://www.w3.org/2000/svg" xmlns:xlink="http://www.w3.org/1999/xlink" version="1.1" x="0px" y="0px" viewBox="0 0 60 75" enable-background="new 0 0 60 60" xml:space="preserve"><g><path fill="none" d="M36.8,21.6v-3.1h-4.2c-2.2,0-4,1.9-4,4.2v4h-4.1v2.9h4.1v11.6h3.5V29.6h4.7v-2.9h-4.7v-3.4   c0-0.9,0.7-1.7,1.5-1.7H36.8z"/><path d="M42.4,10.2h-24c-4.1,0-7.5,3.4-7.5,7.5v24c0,4.1,3.4,7.5,7.5,7.5h24c4.1,0,7.5-3.4,7.5-7.5v-24   C49.9,13.6,46.6,10.2,42.4,10.2z M32.1,23.3v3.4h4.7v2.9h-4.7v11.6h-3.5V29.6h-4.1v-2.9h4.1v-4c0-2.3,1.8-4.2,4-4.2h4.2v3.1h-3.2   C32.8,21.6,32.1,22.4,32.1,23.3z"/></g><text x="0" y="75" fill="#000000" font-size="5px" font-weight="bold" font-family="'Helvetica Neue', Helvetica, Arial-Unicode, Arial, Sans-serif">Created by Sumana Chamrunworakiat</text><text x="0" y="80" fill="#000000" font-size="5px" font-weight="bold" font-family="'Helvetica Neue', Helvetica, Arial-Unicode, Arial, Sans-serif">from the Noun Project</text></svg>