<?xml version="1.0" encoding="UTF-8"?>
<svg width="487px" height="362px" viewBox="0 0 487 362" version="1.1" xmlns="http://www.w3.org/2000/svg" xmlns:xlink="http://www.w3.org/1999/xlink">
    <!-- Generator: Sketch 42 (36781) - http://www.bohemiancoding.com/sketch -->
    <title>People</title>
    <desc>Created with Sketch.</desc>
    <defs></defs>
    <g id="Page-1" stroke="none" stroke-width="1" fill="none" fill-rule="evenodd">
        <g id="Home_page:-State_Active" transform="translate(-142.000000, -957.000000)">
            <g id="People" transform="translate(143.000000, 958.000000)">
                <g id="Group-6" opacity="0.35" stroke="#0DC7AD" fill="#0DC7AD">
                    <ellipse id="Oval-3" cx="224.409611" cy="50.412844" rx="15.409611" ry="15.412844"></ellipse>
                    <ellipse id="Oval-3" cx="122.874142" cy="66.0550459" rx="11.006865" ry="11.0091743"></ellipse>
                    <ellipse id="Oval-3" cx="390.627002" cy="170.921437" rx="9.62700229" ry="9.62902211"></ellipse>
                    <ellipse id="Oval-3" cx="224.687643" cy="10.4587156" rx="10.4565217" ry="10.4587156"></ellipse>
                    <ellipse id="Oval-3" cx="425.562929" cy="342.385321" rx="8.80549199" ry="8.80733945"></ellipse>
                    <ellipse id="Oval-3" cx="84.9004577" cy="346.238532" rx="9.35583524" ry="9.35779817"></ellipse>
                    <ellipse id="Oval-3" cx="121.773455" cy="276.330275" rx="13.208238" ry="13.2110092"></ellipse>
                    <ellipse id="Oval-3" cx="418.95881" cy="89.1743119" rx="6.60411899" ry="6.60550459"></ellipse>
                    <ellipse id="Oval-3" cx="8.402746" cy="251.009174" rx="4.402746" ry="4.40366972"></ellipse>
                    <ellipse id="Oval-3" cx="327.601831" cy="355.59633" rx="4.402746" ry="4.40366972"></ellipse>
                    <ellipse id="Oval-3" cx="9.51635202" cy="184.518349" rx="9.51635202" ry="9.51834862"></ellipse>
                    <ellipse id="Oval-3" cx="62.7723112" cy="140.252532" rx="12.7723112" ry="12.7749909"></ellipse>
                    <ellipse id="Oval-3" cx="320.136537" cy="34.8623853" rx="5.13653699" ry="5.13761468"></ellipse>
                    <ellipse id="Oval-3" cx="475.644165" cy="189.908257" rx="9.35583524" ry="9.35779817"></ellipse>
                    <ellipse id="Oval-3" cx="218.083524" cy="290.091743" rx="9.35583524" ry="9.35779817"></ellipse>
                    <ellipse id="Oval-3" cx="442.62357" cy="206.422018" rx="9.35583524" ry="9.35779817"></ellipse>
                    <ellipse id="Oval-3" cx="93.1556064" cy="231.192661" rx="12.1075515" ry="12.1100917"></ellipse>
                    <path d="M94.8066362,231.743119 L168.552632,213.027523" id="Line" stroke-linecap="square"></path>
                    <path d="M222.48627,9.35779817 L226.889016,150.275229" id="Line" stroke-linecap="square"></path>
                    <path d="M19.5,35.5 L120.122426,65.5045872" id="Line" stroke-linecap="square"></path>
                    <path d="M94.8066362,231.743119 L63.9874142,137.06422" id="Line" stroke-linecap="square"></path>
                    <path d="M11.5,182.5 L63.9874142,137.06422" id="Line" stroke-linecap="square"></path>
                    <path d="M94.8066362,231.743119 L84.9004577,346.238532" id="Line" stroke-linecap="square"></path>
                    <path d="M120.122426,279.082569 L84.9004577,346.238532" id="Line" stroke-linecap="square"></path>
                    <path d="M389.790618,172.293578 L324.850114,355.045872" id="Line" stroke-linecap="square"></path>
                    <path d="M390.5,169.5 L417.30778,91.9266055" id="Line" stroke-linecap="square"></path>
                    <path d="M389.790618,172.293578 L316.044622,80.9174312" id="Line" stroke-linecap="square"></path>
                    <path d="M389.790618,172.293578 L316.044622,80.9174312" id="Line" stroke-linecap="square"></path>
                    <path d="M416.5,91.5 L316.044622,80.9174312" id="Line" stroke-linecap="square"></path>
                    <path d="M475.5,186.5 L316.044622,80.9174312" id="Line" stroke-linecap="square"></path>
                    <path d="M225.78833,11.559633 L316.5,34.5" id="Line" stroke-linecap="square"></path>
                    <path d="M356.5,10.5 L319.5,36.5" id="Line" stroke-linecap="square"></path>
                    <path d="M256.607551,155.779817 L321.5,35.5" id="Line" stroke-linecap="square"></path>
                    <path d="M126.726545,65.5045872 L321.5,35.5" id="Line" stroke-linecap="square"></path>
                    <path d="M119.5,66.5 L56.5,138.5" id="Line" stroke-linecap="square"></path>
                    <path d="M126.726545,65.5045872 L95.9073227,228.440367" id="Line" stroke-linecap="square"></path>
                    <path d="M8.95308924,250.458716 L95.9073227,228.440367" id="Line" stroke-linecap="square"></path>
                    <path d="M8.95308924,251.559633 L216.5,287.5" id="Line" stroke-linecap="square"></path>
                    <path d="M220.5,292.5 L324.850114,355.045872" id="Line" stroke-linecap="square"></path>
                    <path d="M232.392449,227.33945 L220.284897,284.587156" id="Line" stroke-linecap="square"></path>
                    <path d="M89.3032037,345.137615 L220.284897,284.587156" id="Line" stroke-linecap="square"></path>
                    <path d="M86.0011442,344.036697 L8.5,302.5" id="Line" stroke-linecap="square"></path>
                    <path d="M391.991991,171.192661 L423.911899,346.238532" id="Line" stroke-linecap="square"></path>
                    <path d="M440.422197,209.724771 L423.911899,346.238532" id="Line" stroke-linecap="square"></path>
                    <path d="M440.422197,209.724771 L474.543478,189.908257" id="Line" stroke-linecap="square"></path>
                    <path d="M440.422197,209.724771 L311.641876,196.513761" id="Line" stroke-linecap="square"></path>
                </g>
                <path d="M305.479886,216.509682 C305.539372,212.257647 303.705563,208.199215 300.475188,205.433711 C288.38996,195.684053 275.362503,187.163986 261.586224,180 L251.002518,236.85665 L305.479886,236.85665 L305.479886,216.509682 Z M231.147815,188.983843 L222.943392,199.321416 L228.399333,208.100148 L224.297122,236.815628 L242.757073,236.815628 L238.654862,208.100148 L244.110803,199.321416 L235.90638,188.983843 L231.147815,188.983843 Z M166.291853,205.433711 C162.954329,208.143853 161.011422,212.210402 161,216.509682 L161,237.020739 L215.600434,237.020739 L205.180817,180.041022 C191.406142,187.19178 178.378725,195.698079 166.291853,205.433711 L166.291853,205.433711 Z" id="Shape" fill="#007373"></path>
                <path d="M260.048815,126.830942 C259.191524,117.259533 254.680333,110.212243 245.632698,106.449471 C241.600024,104.781908 237.3666,104.050609 233.056159,104 C228.74698,104.050609 224.512293,104.783173 220.479619,106.449471 C211.431984,110.212243 206.920793,117.258267 206.063502,126.830942 C205.937245,128.24546 206.038251,129.634675 206.038251,131.049194 C206.114006,141.000169 208.356344,150.47036 212.262761,159.587554 C214.228595,164.133499 217.127474,168.022793 220.579362,171.533786 C224.157508,175.170036 228.594208,176.913512 233.054896,176.736381 C237.515584,176.913512 241.951021,175.170036 245.53043,171.533786 C248.983581,168.022793 251.881197,164.133499 253.847031,159.587554 C257.753448,150.47036 259.997049,140.998904 260.071541,131.049194 C260.074066,129.63341 260.175072,128.244195 260.048815,126.830942 Z" id="Shape" fill="#007373"></path>
            </g>
        </g>
    </g>
</svg>