<?xml version="1.0" encoding="UTF-8"?>
<svg width="487px" height="362px" viewBox="0 0 487 362" version="1.1" xmlns="http://www.w3.org/2000/svg" xmlns:xlink="http://www.w3.org/1999/xlink">
    <!-- Generator: Sketch 42 (36781) - http://www.bohemiancoding.com/sketch -->
    <title>Tech</title>
    <desc>Created with Sketch.</desc>
    <defs></defs>
    <g id="Page-1" stroke="none" stroke-width="1" fill="none" fill-rule="evenodd">
        <g id="Home_page:-State_Active" transform="translate(-824.000000, -1470.000000)">
            <g id="Tech" transform="translate(825.000000, 1471.000000)">
                <g id="Group-11" stroke="#0DC7AD" fill="#0DC7AD" opacity="0.35082654">
                    <g id="Group-4">
                        <ellipse id="Oval-3" cx="224.409611" cy="50.412844" rx="15.409611" ry="15.412844"></ellipse>
                        <ellipse id="Oval-3" cx="122.874142" cy="66.0550459" rx="11.006865" ry="11.0091743"></ellipse>
                        <ellipse id="Oval-3" cx="390.627002" cy="170.921437" rx="9.62700229" ry="9.62902211"></ellipse>
                        <ellipse id="Oval-3" cx="224.687643" cy="10.4587156" rx="10.4565217" ry="10.4587156"></ellipse>
                        <ellipse id="Oval-3" cx="425.562929" cy="342.385321" rx="8.80549199" ry="8.80733945"></ellipse>
                        <ellipse id="Oval-3" cx="84.9004577" cy="346.238532" rx="9.35583524" ry="9.35779817"></ellipse>
                        <ellipse id="Oval-3" cx="121.773455" cy="276.330275" rx="13.208238" ry="13.2110092"></ellipse>
                        <ellipse id="Oval-3" cx="418.95881" cy="89.1743119" rx="6.60411899" ry="6.60550459"></ellipse>
                        <ellipse id="Oval-3" cx="8.402746" cy="251.009174" rx="4.402746" ry="4.40366972"></ellipse>
                        <ellipse id="Oval-3" cx="327.601831" cy="355.59633" rx="4.402746" ry="4.40366972"></ellipse>
                        <ellipse id="Oval-3" cx="9.51635202" cy="184.518349" rx="9.51635202" ry="9.51834862"></ellipse>
                        <ellipse id="Oval-3" cx="62.7723112" cy="140.252532" rx="12.7723112" ry="12.7749909"></ellipse>
                        <ellipse id="Oval-3" cx="320.136537" cy="34.8623853" rx="5.13653699" ry="5.13761468"></ellipse>
                        <ellipse id="Oval-3" cx="475.644165" cy="189.908257" rx="9.35583524" ry="9.35779817"></ellipse>
                        <ellipse id="Oval-3" cx="218.083524" cy="290.091743" rx="9.35583524" ry="9.35779817"></ellipse>
                        <ellipse id="Oval-3" cx="442.62357" cy="206.422018" rx="9.35583524" ry="9.35779817"></ellipse>
                        <ellipse id="Oval-3" cx="93.1556064" cy="231.192661" rx="12.1075515" ry="12.1100917"></ellipse>
                        <path d="M94.8066362,231.743119 L168.552632,213.027523" id="Line" stroke-linecap="square"></path>
                        <path d="M222.48627,9.35779817 L226.889016,150.275229" id="Line" stroke-linecap="square"></path>
                        <path d="M19.5,35.5 L120.122426,65.5045872" id="Line" stroke-linecap="square"></path>
                        <path d="M94.8066362,231.743119 L63.9874142,137.06422" id="Line" stroke-linecap="square"></path>
                        <path d="M11.5,182.5 L63.9874142,137.06422" id="Line" stroke-linecap="square"></path>
                        <path d="M94.8066362,231.743119 L84.9004577,346.238532" id="Line" stroke-linecap="square"></path>
                        <path d="M120.122426,279.082569 L84.9004577,346.238532" id="Line" stroke-linecap="square"></path>
                        <path d="M389.790618,172.293578 L324.850114,355.045872" id="Line" stroke-linecap="square"></path>
                        <path d="M390.5,169.5 L417.30778,91.9266055" id="Line" stroke-linecap="square"></path>
                        <path d="M389.790618,172.293578 L316.044622,80.9174312" id="Line" stroke-linecap="square"></path>
                        <path d="M389.790618,172.293578 L316.044622,80.9174312" id="Line" stroke-linecap="square"></path>
                        <path d="M416.5,91.5 L316.044622,80.9174312" id="Line" stroke-linecap="square"></path>
                        <path d="M475.5,186.5 L316.044622,80.9174312" id="Line" stroke-linecap="square"></path>
                        <path d="M225.78833,11.559633 L316.5,34.5" id="Line" stroke-linecap="square"></path>
                        <path d="M356.5,10.5 L319.5,36.5" id="Line" stroke-linecap="square"></path>
                        <path d="M256.607551,155.779817 L321.5,35.5" id="Line" stroke-linecap="square"></path>
                        <path d="M126.726545,65.5045872 L321.5,35.5" id="Line" stroke-linecap="square"></path>
                        <path d="M119.5,66.5 L56.5,138.5" id="Line" stroke-linecap="square"></path>
                        <path d="M126.726545,65.5045872 L95.9073227,228.440367" id="Line" stroke-linecap="square"></path>
                        <path d="M8.95308924,250.458716 L95.9073227,228.440367" id="Line" stroke-linecap="square"></path>
                        <path d="M8.95308924,251.559633 L216.5,287.5" id="Line" stroke-linecap="square"></path>
                        <path d="M220.5,292.5 L324.850114,355.045872" id="Line" stroke-linecap="square"></path>
                        <path d="M232.392449,227.33945 L220.284897,284.587156" id="Line" stroke-linecap="square"></path>
                        <path d="M89.3032037,345.137615 L220.284897,284.587156" id="Line" stroke-linecap="square"></path>
                        <path d="M86.0011442,344.036697 L8.5,302.5" id="Line" stroke-linecap="square"></path>
                        <path d="M391.991991,171.192661 L423.911899,346.238532" id="Line" stroke-linecap="square"></path>
                        <path d="M440.422197,209.724771 L423.911899,346.238532" id="Line" stroke-linecap="square"></path>
                        <path d="M440.422197,209.724771 L474.543478,189.908257" id="Line" stroke-linecap="square"></path>
                        <path d="M440.422197,209.724771 L311.641876,196.513761" id="Line" stroke-linecap="square"></path>
                    </g>
                </g>
                <path d="M212.63654,273.760699 L212.63654,244.700823 C212.63654,244.700823 183.515037,252.947545 182.531202,252.947545 L182.531202,284.363627 L212.63654,273.760699 Z M203.978795,259.230761 C204.96263,259.034411 205.356164,260.016163 205.356164,261.194266 C205.356164,262.176019 204.765863,263.354122 203.978795,263.550473 C203.191728,263.746823 202.40466,262.961421 202.40466,261.783318 C202.40466,260.605215 203.191728,259.427112 203.978795,259.230761 Z M201.814359,267.673833 C202.798194,267.477483 203.191728,268.459235 203.191728,269.637339 C203.191728,270.619091 202.601427,271.797194 201.814359,271.993545 C201.027292,272.189895 200.240224,271.404493 200.240224,270.22639 C200.240224,269.048287 201.027292,267.870184 201.814359,267.673833 Z M198.862856,254.321999 C199.84669,254.125648 200.240224,255.107401 200.240224,256.285504 C200.240224,257.267256 199.649923,258.445359 198.862856,258.64171 C198.075788,258.83806 197.28872,258.052658 197.28872,256.874555 C197.28872,255.696452 198.075788,254.518349 198.862856,254.321999 Z M198.666089,260.605215 C200.240224,260.212514 201.027292,261.783318 201.027292,263.746823 C201.027292,265.513978 200.043457,267.477483 198.666089,267.870184 C197.28872,268.262885 196.108119,266.888431 196.108119,264.924926 C196.108119,262.961421 197.28872,260.997916 198.666089,260.605215 Z M195.714585,269.833689 C196.69842,269.637339 197.091954,270.619091 197.091954,271.797194 C197.091954,272.778947 196.501653,273.95705 195.714585,274.1534 C194.927518,274.349751 194.14045,273.564349 194.14045,272.386246 C194.14045,271.208143 194.927518,270.22639 195.714585,269.833689 Z M192.959848,262.765071 C193.943683,262.56872 194.337217,263.550473 194.337217,264.728576 C194.337217,265.710328 193.746916,266.888431 192.959848,267.084782 C192.172781,267.477483 191.385713,266.692081 191.385713,265.317627 C191.385713,263.943174 192.172781,263.157772 192.959848,262.765071 Z M271.86338,264.532225 L298.820447,270.422741 L298.820447,240.381112 L271.86338,236.061401 L271.86338,264.532225 Z M287.211199,258.83806 L289.178868,259.230761 L289.178868,264.139524 L287.211199,263.550473 L287.211199,258.83806 Z M284.062928,242.344617 C285.046763,242.344617 285.637064,243.32637 285.637064,244.700823 C285.637064,245.878926 284.849996,247.05703 284.062928,247.05703 C283.079094,247.05703 282.488793,246.075277 282.488793,244.700823 C282.488793,243.52272 283.275861,242.344617 284.062928,242.344617 Z M284.062928,247.842432 C286.424131,248.235133 286.817665,250.394988 286.817665,252.554844 L286.817665,257.659957 L285.83383,257.463607 L285.83383,265.121277 L284.259695,264.728576 L284.259695,257.070906 L283.866161,256.874555 L283.866161,264.532225 L282.292026,264.139524 L282.292026,256.481854 L281.308191,256.285504 L281.308191,251.965792 C281.308191,248.627834 282.68556,247.646081 284.062928,247.842432 Z M209.291502,131.995629 L190.008345,121 L190.008345,145.151113 L209.291502,150.452577 L209.291502,131.995629 Z M198.075788,143.77666 L194.927518,137.689794 L195.911352,137.100742 L198.075788,141.420453 L202.798194,132.977381 L203.782029,133.566433 L198.075788,143.77666 Z M309.052326,200.718308 L298.230146,201.30736 C298.033379,201.30736 298.033379,201.50371 298.033379,201.50371 L298.033379,224.28037 C298.033379,224.47672 298.230146,224.47672 298.230146,224.47672 L308.855559,225.654824 C309.052326,225.654824 309.052326,225.458473 309.052326,225.458473 L309.052326,200.914659 C309.249093,200.914659 309.249093,200.718308 309.052326,200.718308 Z M303.542852,223.691318 C303.149319,223.691318 302.952552,223.298617 302.952552,222.905916 C302.952552,222.513215 303.149319,222.316865 303.542852,222.316865 C303.936386,222.316865 304.133153,222.709566 304.133153,223.102267 C304.133153,223.494968 303.936386,223.691318 303.542852,223.691318 Z M308.265258,220.942411 C308.265258,221.335112 308.068491,221.531463 307.674958,221.531463 L299.804281,220.942411 C299.410747,220.942411 299.21398,220.746061 299.21398,220.35336 L299.21398,203.074515 C299.21398,202.681814 299.410747,202.485463 299.804281,202.485463 L307.674958,202.092762 C308.068491,202.092762 308.265258,202.289112 308.265258,202.681814 L308.265258,220.942411 Z M280.521124,193.64969 L280.521124,230.563586 L331.09022,238.024906 L331.09022,190.311731 L280.521124,193.64969 Z M310.429694,225.458473 C310.429694,226.243875 309.839394,226.832927 309.052326,226.832927 L298.230146,225.654824 C297.443078,225.654824 296.852777,225.065772 296.852777,224.28037 L296.852777,201.50371 C296.852777,200.718308 297.443078,200.129257 298.230146,200.129257 L309.052326,199.540205 C309.839394,199.540205 310.429694,200.129257 310.429694,200.914659 L310.429694,225.458473 Z M212.439773,203.074515 L212.439773,184.224865 L198.272555,183.243113 L198.272555,204.252618 C198.272555,207.001525 199.649923,209.357731 201.224059,209.357731 L201.814359,209.357731 C203.191728,208.96503 204.372329,206.805174 204.372329,204.252618 L204.372329,203.859917 L212.439773,203.074515 Z M210.66887,197.969401 L199.649923,198.558453 L199.649923,197.38035 L210.66887,196.791298 L210.66887,197.969401 Z M210.66887,195.024144 L199.649923,195.416845 L199.649923,194.238741 L210.66887,193.84604 L210.66887,195.024144 Z M210.66887,185.599319 L210.66887,186.777422 L199.649923,186.18837 L199.649923,185.206618 L210.66887,185.599319 Z M199.649923,188.151876 L210.66887,188.348226 L210.66887,189.526329 L199.649923,189.329979 L199.649923,188.151876 Z M210.66887,191.293484 L210.66887,192.471587 L199.649923,192.667937 L199.649923,191.489834 L210.66887,191.293484 Z M199.649923,201.896411 L199.649923,200.718308 L206.733532,199.932906 L206.733532,201.111009 L199.649923,201.896411 Z M205.552931,204.841669 L218.146013,203.663566 C217.949246,206.019772 216.965412,207.590576 215.391276,207.786927 L204.175562,209.16138 C204.765863,208.179628 205.356164,206.608824 205.552931,204.841669 Z M185.679473,168.320474 L185.679473,224.673071 L222.671652,217.800803 L222.671652,174.113022 L185.679473,168.320474 Z M215.391276,208.96503 L202.011126,210.535834 L201.224059,210.535834 C198.862856,210.535834 197.091954,207.786927 197.091954,204.252618 L197.091954,182.06501 L213.620374,183.046762 L213.620374,202.878164 L219.326614,202.289112 L219.326614,203.074515 L219.129848,203.074515 C219.129848,206.216123 217.555712,208.572329 215.391276,208.96503 Z M280.914658,159.28835 L283.472628,158.502948 L283.472628,162.037257 L280.914658,162.626309 L280.914658,159.28835 Z M287.211199,157.521195 L289.965936,156.932144 L289.965936,167.731422 L287.211199,168.320474 L287.211199,157.521195 Z M278.356688,156.343092 L278.356688,170.087628 L286.030597,168.516824 L286.030597,156.735793 L291.146537,155.55769 L291.146537,167.535072 L293.114206,167.142371 L293.114206,152.416082 L295.278642,151.827031 L285.83383,144.758412 L276.389019,156.735793 L278.356688,156.343092 Z M279.734056,158.502948 L284.653229,157.128494 L284.653229,163.21536 L279.734056,164.197113 L279.734056,158.502948 Z M316.529469,121 L255.92526,143.580309 C257.499395,145.936515 265.173305,177.548948 266.353906,186.384721 L316.529469,181.083257 L316.529469,121 Z M294.294808,153.397835 L294.294808,168.124123 L277.176086,171.462082 L277.176086,157.717546 L273.634282,158.502948 L285.83383,143.187608 L298.033379,152.416082 L294.294808,153.397835 Z M154,207.786927 L173.676691,205.823422 L173.676691,185.010267 L154,183.635814 L154,207.786927 Z M160.099774,191.293484 L160.886842,190.508082 L164.231879,194.435092 L167.38015,190.508082 L168.363985,191.293484 L165.215714,195.220494 L168.757518,199.147504 L167.970451,199.932906 L164.625413,196.005896 L160.886842,200.718308 L159.903007,199.932906 L163.444812,195.416845 L160.099774,191.293484 Z" id="Shape" fill="#007373"></path>
            </g>
        </g>
    </g>
</svg>