<?xml version="1.0" encoding="UTF-8"?>
<svg width="125px" height="125px" viewBox="0 0 125 125" version="1.1" xmlns="http://www.w3.org/2000/svg" xmlns:xlink="http://www.w3.org/1999/xlink">
    <!-- Generator: Sketch 45.2 (43514) - http://www.bohemiancoding.com/sketch -->
    <title>Shape</title>
    <desc>Created with Sketch.</desc>
    <defs></defs>
    <g id="Locpin-Dashboard" stroke="none" stroke-width="1" fill="none" fill-rule="evenodd">
        <g id="Artboard-Copy-10" transform="translate(-258.000000, -402.000000)" fill-rule="nonzero" fill="#D7D7D7">
            <g id="Group-3" transform="translate(148.000000, 261.000000)">
                <path d="M173.944444,201.055556 L207,201.055556 L207,204.944444 L173.944444,204.944444 L173.944444,238 L170.055556,238 L170.055556,204.944444 L137,204.944444 L137,201.055556 L170.055556,201.055556 L170.055556,168 L173.944444,168 L173.944444,201.055556 Z M235,203.5 C235,237.875 206.875,266 172.5,266 C138.125,266 110,237.875 110,203.5 C110,169.125 138.125,141 172.5,141 C206.875,141 235,169.125 235,203.5 Z M231,203.5 C231,171.325 204.675,145 172.5,145 C140.325,145 114,171.325 114,203.5 C114,235.675 140.325,262 172.5,262 C204.675,262 231,235.675 231,203.5 Z" id="Shape"></path>
            </g>
        </g>
    </g>
</svg>