<?xml version="1.0" encoding="UTF-8" standalone="no"?>
<svg width="140px" height="26px" viewBox="0 0 140 26" version="1.1" xmlns="http://www.w3.org/2000/svg" xmlns:xlink="http://www.w3.org/1999/xlink">
    <!-- Generator: sketchtool 39.1 (31720) - http://www.bohemiancoding.com/sketch -->
    <title>F10CD47F-96AA-4845-A21D-5B9B852414FE</title>
    <desc>Created with sketchtool.</desc>
    <defs>
        <polygon id="path-1" points="0 0.767857143 139.489364 0.767857143 139.489364 25.974026 0 25.974026"></polygon>
        <polygon id="path-3" points="0 0.767857143 139.489364 0.767857143 139.489364 25.974026 0 25.974026"></polygon>
        <polygon id="path-5" points="0 0.767857143 139.489364 0.767857143 139.489364 25.974026 0 25.974026"></polygon>
        <polygon id="path-7" points="0 0.767857143 139.489364 0.767857143 139.489364 25.974026 0 25.974026"></polygon>
        <polyline id="path-9" points="0 0.767857143 139.489364 0.767857143 139.489364 25.974026 0 25.974026"></polyline>
        <polygon id="path-11" points="0 0.767857143 139.489364 0.767857143 139.489364 25.974026 0 25.974026"></polygon>
        <polyline id="path-13" points="0 0.767857143 139.489364 0.767857143 139.489364 25.974026 0 25.974026"></polyline>
        <polyline id="path-15" points="0 0.767857143 139.489364 0.767857143 139.489364 25.974026 0 25.974026"></polyline>
    </defs>
    <g id="Page-1" stroke="none" stroke-width="1" fill="none" fill-rule="evenodd">
        <g id="1.0-mobile" transform="translate(-91.000000, -19.000000)">
            <g id="Mobile-Navigation" transform="translate(0.000000, 13.000000)">
                <g id="Safelite_logo" transform="translate(91.000000, 5.500000)">
                    <g id="Page-1">
                        <path d="M56.5738382,0.767857143 C49.4743006,0.936688312 41.5072486,4.92938312 37.7798497,7.8887987 C37.7798497,7.8887987 42.6749942,6.9586039 49.521237,8.56493506 C49.521237,8.56493506 49.6183468,6.36688312 51.3040116,3.91477273 C52.5300231,2.13230519 56.5738382,0.767857143 56.5738382,0.767857143" id="Fill-1" fill="#FF3333"></path>
                        <path d="M33.3775376,8.14237013 C33.3775376,8.14237013 40.8323353,3.05064935 50.8823931,0.937012987 C50.8823931,0.937012987 43.9293295,1.12126623 36.768289,3.74545455 C27.3081734,7.21217532 25.0139538,9.85178571 25.0139538,9.85178571 C31.1011214,8.05795455 33.3775376,8.14237013 33.3775376,8.14237013" id="Fill-3" fill="#000000"></path>
                        <g id="Group-7">
                            <mask id="mask-2" fill="white">
                                <use xlink:href="#path-1"></use>
                            </mask>
                            <g id="Clip-6"></g>
                            <path d="M9.13269364,16.5138799 L9.24113295,16.0025162 C9.39084393,15.2963474 9.06714451,14.7078734 8.11789595,14.7078734 C7.06425434,14.7078734 6.43061272,15.4554383 6.31650867,15.9935877 C5.81477457,18.3637175 14.0747746,17.2038149 13.1441387,21.5909903 C12.6035607,24.1453734 10.0147746,25.2890422 5.69176879,25.2890422 C1.63176879,25.2890422 -0.446381503,24.3978084 0.0804393064,21.9107955 L0.169456647,21.4895292 L4.91489017,21.4895292 L4.80645087,22.0025162 C4.58876301,23.0268669 5.16980347,23.3969968 6.11905202,23.3969968 C7.12090173,23.3969968 7.85569942,22.6664773 7.99408092,22.0106331 C8.49662428,19.6413149 0.549803468,20.818263 1.45049711,16.5650162 C1.96356069,14.14375 4.27477457,12.8166396 8.41408092,12.8166396 C12.6844855,12.8166396 14.264948,13.9424513 13.7195145,16.5138799 L9.13269364,16.5138799 Z" id="Fill-5" fill="#FF3333" mask="url(#mask-2)"></path>
                        </g>
                        <path d="M19.4542543,21.4029221 C18.7688208,21.5766234 18.4281272,21.9378247 18.3083584,22.5027597 C18.1885896,23.0693182 18.4831561,23.6569805 19.1491676,23.6569805 C20.1356416,23.6569805 20.6300925,23.1862013 20.8267399,22.2584416 L21.0670867,21.1237013 C21.0670867,21.1237013 20.1388786,21.2292208 19.4542543,21.4029221 L19.4542543,21.4029221 Z M21.5752948,18.676461 C21.6853526,18.1577922 21.3818844,17.8899351 20.6179538,17.8899351 C19.7795723,17.8899351 19.2867399,18.3517857 19.072289,19.2487013 L15.2251214,19.2487013 C15.741422,16.8112013 18.9144855,16.3866883 20.9367977,16.3866883 C24.0435029,16.3866883 26.1038497,16.9061688 25.6336763,19.1228896 L24.7540231,23.2738636 C24.5873179,24.0595779 24.5063931,24.6732143 24.7831561,25.113961 L20.4925202,25.113961 C20.4083584,24.8152597 20.4253526,24.5003247 20.4245434,24.1545455 L20.3751792,24.1545455 C19.7221156,24.9094156 18.4483584,25.3347403 17.1171445,25.3347403 C14.4539075,25.3347403 13.6373757,24.2957792 13.9473179,22.8331169 C14.2807283,21.2616883 15.3003815,20.5222403 18.2266243,20.0977273 L20.0336763,19.8306818 C20.8833873,19.7097403 21.1472023,19.6894481 21.3689364,19.6496753 L21.5752948,18.676461 Z" id="Fill-8" fill="#FF3333"></path>
                        <path d="M27.9557341,18.5090097 L26.4270636,18.5090097 L26.8300694,16.6064123 L28.3587399,16.6064123 L28.6387399,15.2874188 C28.9988555,13.5893669 30.1674104,12.9603084 33.2498382,12.9603084 C33.890763,12.9603084 34.6733064,12.9919643 35.3506474,13.0544643 L35.0220925,14.6056006 C34.8068324,14.5739448 34.6126127,14.5585227 34.2921503,14.5585227 C33.7499538,14.5585227 33.1956185,14.7306006 33.1057919,15.1559253 L32.7974682,16.6064123 L34.5980462,16.6064123 L34.1950405,18.5090097 L32.3944624,18.5090097 L30.9952717,25.1137175 L26.5565434,25.1137175 L27.9557341,18.5090097 Z" id="Fill-10" fill="#FF3333"></path>
                        <path d="M41.1250405,19.1948864 C41.3152139,18.2987825 41.1056185,17.8896916 40.1685087,17.8896916 C39.2564855,17.8896916 38.873711,18.2987825 38.6835376,19.1948864 L38.5556763,19.7987825 L40.9971792,19.7987825 L41.1250405,19.1948864 Z M38.2295491,21.3401786 L37.9446936,22.6818994 C37.7512832,23.594237 38.2934798,23.8304383 38.9101272,23.8304383 C39.6991445,23.8304383 40.2818035,23.2898539 40.5286243,22.1267045 L44.5238844,22.1267045 C44.037526,24.1859578 42.2903584,25.3344968 38.6155607,25.3344968 C34.3249249,25.3344968 33.2041156,24.107224 33.8903584,20.8685877 C34.5806474,17.6129058 36.5171792,16.3864448 40.5124393,16.3864448 C44.0626127,16.3864448 45.6503584,17.3921266 44.9964855,20.4749188 L44.8135954,21.3401786 L38.2295491,21.3401786 Z" id="Fill-12" fill="#FF3333"></path>
                        <polygon id="Fill-14" fill="#FF3333" points="48.2507168 12.5689935 52.6894451 12.5689935 50.0310636 25.1136364 45.5923353 25.1136364"></polygon>
                        <path d="M54.6082543,12.5689935 L59.0469827,12.5689935 L58.5047861,15.1282468 L54.0660578,15.1282468 L54.6082543,12.5689935 Z M53.7528786,16.6063312 L58.1916069,16.6063312 L56.3894104,25.1112013 L51.9506821,25.1112013 L53.7528786,16.6063312 Z" id="Fill-16" fill="#FF3333"></path>
                        <path d="M59.1975029,16.6063312 L60.6768092,16.6063312 L60.9066358,15.5227273 L66.0769249,11.9577922 L65.1163468,16.6063312 L66.8667514,16.6063312 L66.4637457,18.5089286 L64.7125318,18.5089286 L63.8053642,22.7930195 C63.7017803,23.2808442 64.010104,23.4529221 64.7254798,23.4529221 L65.4157688,23.4529221 L65.0645549,25.1136364 C64.2366936,25.1761364 63.3675607,25.2077922 62.6279075,25.2077922 C59.9144971,25.2077922 58.9142659,24.9253247 59.3140347,23.0373377 L60.2738035,18.5089286 L58.7944971,18.5089286 L59.1975029,16.6063312 Z" id="Fill-18" fill="#FF3333"></path>
                        <path d="M73.7391329,19.1948864 C73.9293064,18.2987825 73.719711,17.8896916 72.7826012,17.8896916 C71.8697688,17.8896916 71.4878035,18.2987825 71.2976301,19.1948864 L71.1697688,19.7987825 L73.6112717,19.7987825 L73.7391329,19.1948864 Z M70.8436416,21.3401786 L70.5587861,22.6818994 C70.3653757,23.594237 70.9075723,23.8304383 71.5242197,23.8304383 C72.313237,23.8304383 72.8967052,23.2898539 73.1427168,22.1267045 L77.1379769,22.1267045 C76.6524277,24.1859578 74.9044509,25.3344968 71.2304624,25.3344968 C66.9390173,25.3344968 65.8182081,24.107224 66.5044509,20.8685877 C67.1947399,17.6129058 69.1312717,16.3864448 73.1265318,16.3864448 C76.6775145,16.3864448 78.2636416,17.3921266 77.610578,20.4749188 L77.4284971,21.3401786 L70.8436416,21.3401786 Z" id="Fill-20" fill="#FF3333"></path>
                        <g id="Group-24">
                            <mask id="mask-4" fill="white">
                                <use xlink:href="#path-3"></use>
                            </mask>
                            <g id="Clip-23"></g>
                            <path d="M79.778474,23.6446429 C80.1377803,23.6332792 80.2203237,23.4839286 80.2203237,23.2956169 C80.2203237,23.112987 80.1377803,23.0196429 79.8343121,23.0196429 L79.3762775,23.0196429 L79.3762775,23.6446429 L79.778474,23.6446429 Z M79.3762775,24.0261364 L79.3762775,25.0837662 L78.9959306,25.0837662 L78.9959306,22.6373377 L79.7841387,22.6373377 C80.2308439,22.6373377 80.6945434,22.7590909 80.6945434,23.3118506 C80.6945434,23.5943182 80.5237919,23.8159091 80.198474,23.8824675 L80.198474,23.8930195 C80.5343121,23.9595779 80.5739653,24.1097403 80.612,24.3751623 C80.6451792,24.6081169 80.6726936,24.8621753 80.755237,25.0837662 L80.2704971,25.0837662 C80.2421734,24.9449675 80.2041387,24.7899351 80.1863353,24.6462662 C80.1596301,24.4352273 80.1596301,24.2420455 80.0495723,24.125974 C79.9548902,24.0261364 79.8286474,24.0375 79.6959306,24.0261364 L79.3762775,24.0261364 Z M81.5224046,23.8881494 C81.5224046,22.9474026 80.7609017,22.1787338 79.8181272,22.1787338 C78.8680694,22.1787338 78.101711,22.9474026 78.101711,23.8881494 C78.101711,24.8402597 78.8680694,25.6089286 79.8181272,25.6089286 C80.7609017,25.6089286 81.5224046,24.8402597 81.5224046,23.8881494 L81.5224046,23.8881494 Z M77.7375491,23.8881494 C77.7375491,22.7428571 78.6641387,21.8126623 79.8181272,21.8126623 C80.9648324,21.8126623 81.8865665,22.7428571 81.8865665,23.8881494 C81.8865665,25.0439935 80.9648324,25.9741883 79.8181272,25.9741883 C78.6641387,25.9741883 77.7375491,25.0439935 77.7375491,23.8881494 L77.7375491,23.8881494 Z" id="Fill-22" fill="#FF3333" mask="url(#mask-4)"></path>
                        </g>
                        <path d="M87.1480578,22.5685877 L90.3089827,22.5685877 L89.6413526,18.455763 L87.1480578,22.5685877 Z M83.9369595,25.7974838 L89.3127977,17.2893669 L90.5703699,17.2893669 L92.1977688,25.7974838 L90.9167283,25.7974838 L90.4700231,23.5823864 L86.5330289,23.5823864 L85.1475954,25.7974838 L83.9369595,25.7974838 Z" id="Fill-25" fill="#000000"></path>
                        <g id="Group-29">
                            <mask id="mask-6" fill="white">
                                <use xlink:href="#path-5"></use>
                            </mask>
                            <g id="Clip-28"></g>
                            <path d="M98.1078728,19.8818182 L99.2246358,19.8818182 L97.9703006,25.7974026 L96.877815,25.7974026 L97.0631329,24.9256494 L97.0388555,24.9256494 C96.4359653,25.6675325 95.6186243,25.9743506 94.7956185,25.9743506 C93.5623237,25.9743506 93.0565434,25.0319805 93.3090289,23.8420455 L94.1482197,19.8818182 L95.2649827,19.8818182 L94.5220925,23.3818182 C94.3052139,24.4077922 94.380474,25.1618506 95.4503006,25.1618506 C95.9083353,25.1618506 96.5808208,24.9256494 96.9457919,24.3128247 C97.2743468,23.7592532 97.4337688,23.0636364 97.463711,22.9224026 L98.1078728,19.8818182 Z" id="Fill-27" fill="#000000" mask="url(#mask-6)"></path>
                        </g>
                        <g id="Group-32">
                            <mask id="mask-8" fill="white">
                                <use xlink:href="#path-7"></use>
                            </mask>
                            <g id="Clip-31"></g>
                            <path d="M101.259087,19.8818182 L101.526139,18.6204545 L102.718162,18.2681818 L102.37504,19.8818182 L103.745908,19.8469156 L103.568682,20.6829545 L102.208335,20.6715909 L101.398277,24.4897727 C101.30926,24.9142857 101.594925,25.1147727 101.994694,25.1147727 C102.171919,25.1147727 102.411457,25.0904221 102.597584,25.0433442 L102.415503,25.9037338 C102.154116,25.9150974 101.895156,25.9743506 101.636197,25.9743506 C101.365908,25.9743506 101.157121,25.9621753 100.897353,25.9150974 C100.72822,25.8810065 100.453884,25.786039 100.321977,25.5271104 C100.181168,25.2438312 100.127757,25.2211039 100.294462,24.4305195 L101.092382,20.6715909 L100.078393,20.6829545 L100.256428,19.8469156 L101.259087,19.8818182 Z" id="Fill-30" fill="#000000" mask="url(#mask-8)"></path>
                        </g>
                        <g id="Group-35">
                            <mask id="mask-10" fill="white">
                                <use xlink:href="#path-9"></use>
                            </mask>
                            <g id="Clip-34"></g>
                            <path d="M106.279422,25.1619318 C107.60659,25.1619318 108.266936,24.1010552 108.533988,22.8405032 C108.800231,21.5791396 108.591445,20.518263 107.262659,20.518263 C105.935491,20.518263 105.275954,21.5791396 105.008902,22.8405032 C104.74104,24.1010552 104.951445,25.1619318 106.279422,25.1619318 M109.708208,22.8405032 C109.31896,24.6781656 108.046012,25.9744318 106.106243,25.9744318 C104.167283,25.9744318 103.443815,24.6781656 103.833064,22.8405032 C104.223121,21.0020292 105.496879,19.705763 107.435838,19.705763 C109.373988,19.705763 110.098266,21.0020292 109.708208,22.8405032" id="Fill-33" fill="#000000" mask="url(#mask-10)"></path>
                        </g>
                        <path d="M117.560994,19.4107143 C117.56504,18.3969156 116.740416,18.1266234 115.835676,18.1266234 C113.755908,18.1266234 112.616486,19.9529221 112.326775,21.5438312 C111.958566,23.724026 112.364,24.913961 114.786081,24.9618506 C115.362266,24.9618506 115.957873,24.8668831 116.536486,24.6899351 L117.045503,22.286526 L115.118682,22.286526 L115.333942,21.2727273 L118.434983,21.2727273 L117.544,25.4797078 C116.505734,25.7743506 115.488509,25.974026 114.524694,25.974026 C113.326197,25.974026 112.383422,25.8214286 111.630012,24.9959416 C110.864462,24.1712662 110.837757,22.7459416 111.092671,21.5438312 C111.279607,20.6599026 111.778913,19.6939935 112.375329,18.9277597 C113.390936,17.6314935 114.745618,17.1128247 116.191746,17.1128247 C117.625734,17.1128247 119.071861,17.7727273 118.795098,19.4107143 L117.560994,19.4107143 Z" id="Fill-36" fill="#000000"></path>
                        <polygon id="Fill-38" fill="#000000" points="119.153434 25.7977273 120.956439 17.2896104 122.073202 17.2896104 120.269387 25.7977273"></polygon>
                        <g id="Group-42">
                            <mask id="mask-12" fill="white">
                                <use xlink:href="#path-11"></use>
                            </mask>
                            <g id="Clip-41"></g>
                            <path d="M124.871017,22.9221591 C124.181538,22.9578734 123.225006,23.2054383 123.042116,24.0658279 C122.887549,24.7955357 123.314832,25.1616071 123.972751,25.1616071 C125.289399,25.1616071 125.778994,24.01875 125.986971,22.9221591 L124.871017,22.9221591 Z M126.152058,22.1445617 C126.369746,21.1193994 126.437723,20.51875 125.251364,20.51875 C124.687318,20.51875 124.088474,20.8491071 123.946855,21.4619318 L122.771827,21.4619318 C123.106046,20.1648539 124.213098,19.7054383 125.375988,19.7054383 C126.586624,19.7054383 127.708243,20.0706981 127.358647,21.7208604 L126.758994,24.5479708 C126.703965,24.8085227 126.610092,25.3028409 126.541306,25.7979708 L125.789514,25.7979708 C125.683503,25.7979708 125.47148,25.8564123 125.489283,25.7151786 C125.523272,25.4440747 125.554832,25.1851461 125.60015,24.9140422 L125.576682,24.9140422 C125.055526,25.6559253 124.330439,25.9741071 123.518763,25.9741071 C122.496682,25.9741071 121.574948,25.4440747 121.819341,24.2890422 C122.172173,22.6283279 123.743734,22.1445617 125.142116,22.1445617 L126.152058,22.1445617 Z" id="Fill-40" fill="#000000" mask="url(#mask-12)"></path>
                        </g>
                        <g id="Group-45">
                            <mask id="mask-14" fill="white">
                                <use xlink:href="#path-13"></use>
                            </mask>
                            <g id="Clip-44"></g>
                            <path d="M131.513491,19.7054383 C132.629445,19.7054383 133.786671,20.1762175 133.420081,21.5203734 L132.244243,21.5203734 C132.45222,20.7663149 131.928636,20.51875 131.282046,20.51875 C130.682393,20.51875 130.141006,20.8020292 130.001006,21.4619318 C129.861815,22.1218344 130.862046,22.1681006 131.25696,22.2979708 C132.185977,22.6283279 133.312451,22.7460227 133.030023,24.0771916 C132.723318,25.5268669 131.218925,25.9741071 130.008289,25.9741071 C128.774185,25.9741071 127.859734,25.4083604 128.161584,24.0414773 L129.335803,24.0414773 C129.205514,24.7728084 129.616613,25.1616071 130.297191,25.1616071 C130.95511,25.1616071 131.681006,24.9018669 131.842855,24.1356331 C132.122046,22.8158279 128.329908,23.8060877 128.818694,21.4960227 C129.08089,20.2590097 130.443665,19.7054383 131.513491,19.7054383" id="Fill-43" fill="#000000" mask="url(#mask-14)"></path>
                        </g>
                        <g id="Group-48">
                            <mask id="mask-16" fill="white">
                                <use xlink:href="#path-15"></use>
                            </mask>
                            <g id="Clip-47"></g>
                            <path d="M137.513503,19.7054383 C138.630266,19.7054383 139.786682,20.1762175 139.420092,21.5203734 L138.245064,21.5203734 C138.452231,20.7663149 137.928647,20.51875 137.282867,20.51875 C136.684023,20.51875 136.141827,20.8020292 136.001827,21.4619318 C135.861827,22.1218344 136.862058,22.1681006 137.25778,22.2979708 C138.186798,22.6283279 139.313272,22.7460227 139.030844,24.0771916 C138.723329,25.5268669 137.218936,25.9741071 136.008301,25.9741071 C134.775006,25.9741071 133.860555,25.4083604 134.162405,24.0414773 L135.337434,24.0414773 C135.205526,24.7728084 135.616624,25.1616071 136.298821,25.1616071 C136.95674,25.1616071 137.681827,24.9018669 137.843676,24.1356331 C138.123676,22.8158279 134.329919,23.8060877 134.819514,21.4960227 C135.081711,20.2590097 136.444486,19.7054383 137.513503,19.7054383" id="Fill-46" fill="#000000" mask="url(#mask-16)"></path>
                        </g>
                    </g>
                </g>
            </g>
        </g>
    </g>
</svg>