<?xml version="1.0" encoding="utf-8"?>
<!-- Generator: Adobe Illustrator 21.0.0, SVG Export Plug-In . SVG Version: 6.00 Build 0)  -->
<svg version="1.1" id="Layer_1" xmlns="http://www.w3.org/2000/svg" xmlns:xlink="http://www.w3.org/1999/xlink" x="0px" y="0px"
	 viewBox="0 0 83 83" style="enable-background:new 0 0 83 83;" xml:space="preserve">
<style type="text/css">
	.st0{fill:#08BCBD;}
	.st1{fill:#FFFFFF;}
</style>
<title>Go_To_Market</title>
<desc>Created with Sketch.</desc>
<g id="Page-1">
	<g id="HowWeWork" transform="translate(-157.000000, -1325.000000)">
		<g id="Go_To_Market" transform="translate(157.000000, 1325.000000)">
			<ellipse id="Oval-4" class="st0" cx="41.5" cy="41.5" rx="39.5" ry="39.5"/>
			<g id="Group-3" transform="translate(18.000000, 21.000000)">
				<path id="Shape" class="st1" d="M34.2,11.1c0-0.2,0-0.5,0-0.7c0-0.1,0-0.2,0-0.3l0,0c-0.1-0.7-0.4-1.3-0.5-1.6l-0.1-0.2
					C33.3,8,33.1,7.7,33,7.5c-0.6-0.7-1.2-1.2-2.1-1.7c-0.4-0.2-1-0.5-1.5-0.6v1.1c0.4,0.1,0.7,0.3,1,0.5c0.7,0.4,1.3,0.8,1.7,1.4
					c0.1,0.1,0.2,0.3,0.3,0.4l0.1,0.2c0.1,0.2,0.4,0.7,0.5,1.3c0,0.1,0,0.2,0,0.2l0,0.1c0,0.2,0,0.4,0,0.6c0,0.5-0.1,0.9-0.2,1.3
					c-0.1,0.4-0.3,0.8-0.6,1.2c-0.3,0.4-0.7,0.8-1.1,1.2L31,14.9c-0.1,0.1-0.4,0.4-0.3,0.8c0,0.2,0.1,0.3,0.2,0.5l0.3,0.6
					c0.2,0.3,0.3,0.6,0.4,0.8l0,0l0.1,0.2l-0.3,0c-0.8-0.1-1.6-0.2-2.3-0.5c-0.1-0.1-0.3-0.1-0.4-0.2c-0.3-0.1-0.6-0.3-0.8-0.5
					c-0.1-0.1-0.3-0.1-0.4-0.2c-0.1,0-0.3,0-0.4,0l-0.2,0c-0.1,0-0.2,0-0.2,0c-0.4,0-0.8,0-1.1,0c-0.4,0-0.8-0.1-1.1-0.1
					c-0.9-0.2-1.7-0.5-2.4-1c-0.2-0.1-0.3-0.2-0.5-0.4c-0.2-0.2-0.4-0.4-0.6-0.6l-0.3-0.3h5.2c1.2,0,2.2-1,2.2-2.2V4.2
					c0-0.1,0-0.2,0-0.3C27.8,2.8,26.9,2,25.8,2H13.7c-1.2,0-2.2,1-2.2,2.2V12c0,1.2,0.9,2.1,2.1,2.2l0.2,0v3.4l3.9-3.3l-0.4-1.1
					l-2.4,2V13h-1.2c-0.6,0-1-0.5-1-1V4.2c0-0.6,0.5-1,1-1h12.1c0.4,0,0.8,0.3,1,0.7c0,0.1,0.1,0.2,0.1,0.3V12c0,0.6-0.5,1-1,1h-7
					l0,0.1c0.1,0.4,0.3,0.7,0.5,1.1c0.3,0.5,0.6,0.9,1.1,1.4c0.1,0.1,0.3,0.2,0.4,0.4c1,0.8,2.2,1.4,3.5,1.6
					c0.4,0.1,0.8,0.1,1.2,0.1c0.4,0,0.8,0,1.3,0c0.1,0,0.2,0,0.4,0l0.1,0l0.1,0c0.3,0.2,0.6,0.4,0.9,0.5c0.2,0.1,0.3,0.2,0.5,0.2
					c0.8,0.3,1.7,0.5,2.6,0.6l0.1,0c0.2,0,0.3,0,0.4-0.1c0.1,0,0.1-0.1,0.2-0.1c0.1-0.1,0.2-0.1,0.3-0.2c0,0,0.1-0.1,0.1-0.1
					c0.1-0.2,0.2-0.3,0.2-0.5c0-0.1,0-0.1,0-0.2c0-0.1,0-0.2,0-0.2c0-0.2-0.1-0.3-0.2-0.5c-0.1-0.3-0.3-0.6-0.4-0.8l-0.3-0.6
					l0.1-0.1c0.5-0.5,0.9-0.9,1.3-1.4c0.3-0.5,0.6-0.9,0.7-1.4C34.1,12.2,34.2,11.7,34.2,11.1z"/>
				<ellipse id="Oval" class="st1" cx="24.4" cy="8.1" rx="1.4" ry="1.4"/>
				<ellipse id="Oval_1_" class="st1" cx="19.6" cy="8.1" rx="1.4" ry="1.4"/>
				<ellipse id="Oval_2_" class="st1" cx="15.6" cy="8.1" rx="1.4" ry="1.4"/>
				<path id="Shape_1_" class="st1" d="M15.3,22.1c-0.1-1.4-0.8-2.4-2.1-3c-0.6-0.2-1.2-0.3-1.8-0.4c-0.6,0-1.3,0.1-1.8,0.4
					c-1.3,0.5-2,1.6-2.1,3c0,0.2,0,0.4,0,0.6c0,1.4,0.3,2.8,0.9,4.2c0.3,0.7,0.7,1.2,1.2,1.7c0.5,0.5,1.2,0.8,1.8,0.8
					c0.7,0,1.3-0.2,1.8-0.8c0.5-0.5,0.9-1.1,1.2-1.7c0.6-1.3,0.9-2.7,0.9-4.2C15.3,22.6,15.3,22.3,15.3,22.1z"/>
				<path id="Shape_2_" class="st1" d="M21,36.7c0-1-0.1-2.1-0.4-3.1c-0.1-0.3-0.2-0.6-0.4-0.8c-0.2-0.2-0.5-0.5-0.7-0.6
					c-0.7-0.2-1.4-0.4-2-0.5c-1-0.3-2.1-0.5-3.1-0.8c-0.1,0-0.1,0-0.2,0c0,0,0,0.1,0,0.1c-0.2,0.7-0.4,1.3-0.6,2
					c-0.2,0.8-0.5,1.6-0.8,2.3c0,0.1-0.1,0.2-0.1,0.3c0-0.4-0.1-0.8-0.2-1.3c-0.1-0.9-0.2-1.7-0.2-1.7c0-0.1,0.1-0.2,0.1-0.3
					c0,0,0,0,0,0c0-0.1,0-0.1,0.1-0.2c0,0,0,0,0-0.1c0-0.1,0.1-0.1,0.1-0.2c0-0.1,0-0.1-0.1-0.2l0,0c0,0,0,0,0,0c0,0,0,0,0-0.1l0,0
					c0,0,0,0,0,0c0,0,0,0-0.1-0.1c0,0-0.1,0-0.1,0h-0.1c0,0,0,0-0.1,0c-0.1,0-0.3,0-0.6,0c-0.3,0-0.5,0-0.6,0c0,0,0,0-0.1,0h-0.1
					c0,0-0.1,0-0.1,0.1c0,0,0,0,0,0l0,0c0,0,0,0,0,0c0,0-0.1,0.1-0.1,0.2c0,0,0,0.1,0,0.1c0,0.1,0,0.2,0.1,0.2c0,0,0,0,0,0
					c0,0,0,0,0,0c0,0.1,0,0.1,0.1,0.2c0,0,0,0,0,0c0,0.1,0.1,0.2,0.1,0.3c0,0,0,0.2-0.1,0.5c-0.1,0.6-0.2,1.8-0.3,2.5
					c0-0.1-0.1-0.2-0.1-0.3c-0.3-0.8-0.5-1.6-0.8-2.3c-0.2-0.7-0.4-1.3-0.6-2c0,0,0-0.1,0-0.1c-0.1,0-0.2,0-0.2,0
					c-0.9,0.2-1.9,0.5-2.8,0.7c0,0,0,0,0,0c-0.8,0.2-1.6,0.4-2.4,0.6c-0.3,0.1-0.5,0.3-0.7,0.5c0,0,0,0,0,0
					c-0.2,0.2-0.3,0.5-0.4,0.8c-0.3,0.9-0.4,1.8-0.4,2.7c0,0.1,0,0.2,0,0.3c0,0.7-0.1,0.5,0.5,0.8c0.2,0.1,0.3,0.1,0.5,0.2
					c1.2,0.4,2.4,0.6,3.6,0.8c1.2,0.2,2.4,0.2,3.5,0.3c0.2,0,2,0,2,0c0.2,0,0.5,0,0.7,0c1.9-0.1,3.7-0.2,5.6-0.7
					c0.5-0.1,1-0.3,1.5-0.4c0.2-0.1,0.3-0.1,0.5-0.2C21.1,37.2,21,37.4,21,36.7z"/>
				<path id="Shape_3_" class="st1" d="M42.3,19.1c-0.1-1.4-0.8-2.4-2.1-3c-0.6-0.2-1.2-0.3-1.8-0.4c-0.6,0-1.3,0.1-1.8,0.4
					c-1.3,0.5-2,1.6-2.1,3c0,0.2,0,0.4,0,0.6c0,1.4,0.3,2.8,0.9,4.2c0.3,0.7,0.7,1.2,1.2,1.7c0.5,0.5,1.2,0.8,1.8,0.8
					c0.7,0,1.3-0.2,1.8-0.8c0.5-0.5,0.9-1.1,1.2-1.7c0.6-1.3,0.9-2.7,0.9-4.2C42.3,19.5,42.3,19.3,42.3,19.1z"/>
				<path id="Shape_4_" class="st1" d="M47.8,33.3c0-1-0.1-2.1-0.4-3.1c-0.1-0.3-0.2-0.6-0.4-0.8c-0.2-0.2-0.5-0.5-0.7-0.6
					c-0.7-0.2-1.4-0.4-2-0.5c-1-0.3-2.1-0.5-3.1-0.8c-0.1,0-0.1,0-0.2,0c0,0,0,0.1,0,0.1c-0.2,0.7-0.4,1.3-0.6,2
					c-0.2,0.8-0.5,1.6-0.8,2.3c0,0.1-0.1,0.2-0.1,0.3c0-0.4-0.1-0.8-0.2-1.3c-0.1-0.9-0.2-1.7-0.2-1.7c0-0.1,0.1-0.2,0.1-0.3
					c0,0,0,0,0,0c0-0.1,0-0.1,0.1-0.2c0,0,0,0,0-0.1c0-0.1,0.1-0.1,0.1-0.2c0-0.1,0-0.1-0.1-0.2l0,0c0,0,0,0,0,0c0,0,0,0,0-0.1l0,0
					c0,0,0,0,0,0c0,0,0,0-0.1-0.1c0,0-0.1,0-0.1,0H39c0,0,0,0-0.1,0c-0.1,0-0.3,0-0.6,0c-0.3,0-0.5,0-0.6,0c0,0,0,0-0.1,0h-0.1
					c0,0-0.1,0-0.1,0.1c0,0,0,0,0,0l0,0c0,0,0,0,0,0c0,0-0.1,0.1-0.1,0.2c0,0,0,0.1,0,0.1c0,0.1,0,0.2,0.1,0.2c0,0,0,0,0,0
					c0,0,0,0,0,0c0,0.1,0,0.1,0.1,0.2c0,0,0,0,0,0c0,0.1,0.1,0.2,0.1,0.3c0,0,0,0.2-0.1,0.5c-0.1,0.6-0.2,1.8-0.3,2.5
					c0-0.1-0.1-0.2-0.1-0.3c-0.3-0.8-0.5-1.6-0.8-2.3c-0.2-0.7-0.4-1.3-0.6-2c0,0,0-0.1,0-0.1c-0.1,0-0.2,0-0.2,0
					c-0.9,0.2-1.9,0.5-2.8,0.7c0,0,0,0,0,0c-0.8,0.2-1.6,0.4-2.4,0.6c-0.3,0.1-0.5,0.3-0.7,0.5c0,0,0,0,0,0
					c-0.2,0.2-0.3,0.5-0.4,0.8c-0.3,0.9-0.4,1.8-0.4,2.7c0,0.1,0,0.2,0,0.3c0,0.7-0.1,0.5,0.5,0.8c0.2,0.1,0.3,0.1,0.5,0.2
					c1.2,0.4,2.4,0.6,3.6,0.8c1.2,0.2,2.4,0.2,3.5,0.3c0.2,0,2,0,2,0c0.2,0,0.5,0,0.7,0c1.9-0.1,3.7-0.2,5.6-0.7
					c0.5-0.1,1-0.3,1.5-0.4c0.2-0.1,0.3-0.1,0.5-0.2C47.9,33.8,47.8,34,47.8,33.3z"/>
			</g>
		</g>
	</g>
</g>
</svg>
