<?xml version="1.0" encoding="utf-8"?>
<!-- Generator: Adobe Illustrator 21.0.2, SVG Export Plug-In . SVG Version: 6.00 Build 0)  -->
<svg version="1.1" id="Layer_1" xmlns="http://www.w3.org/2000/svg" xmlns:xlink="http://www.w3.org/1999/xlink" x="0px" y="0px"
	 viewBox="0 0 170 40" style="enable-background:new 0 0 170 40;" xml:space="preserve">
<style type="text/css">
	.st0{fill:#14BCBD;}
	.st1{fill:#FFFFFF;}
</style>
<g>
	<g id="Group-2" transform="translate(0.000000, 12.000000)">
		<ellipse id="Oval-5" class="st0" cx="19.8" cy="8.2" rx="18.8" ry="18.8"/>
		<path id="Rectangle" class="st1" d="M13.8-0.4L13.8-0.4c0.4,0,0.8,0.3,0.8,0.8v18.8c0,0.4-0.3,0.8-0.8,0.8l0,0
			c-0.4,0-0.8-0.3-0.8-0.8V0.3C13.1-0.1,13.4-0.4,13.8-0.4z"/>
		<path id="Shape" class="st1" d="M14.6,6.6C18.3-0.1,30,1.4,27,6.6c-1.3,2.2-4.2,2.8-6.8,2.6l0.5,0.1c8.5,1.1,7.8,11.4,1.2,10.5
			c-4.2-0.6-6.4-8.9-7-11.9C14.9,8.1,14.6,6.6,14.6,6.6z"/>
		<path id="Shape_1_" class="st1" d="M21.4,17.2C22,15.9,32.9-2.2,29.6-2.9c-1.5-0.3-3.8-0.1-7.2,1.7C20,0.1,17.7,2.8,15,6
			C13.2,8.2,22.3,17,21.4,17.2z"/>
		<path id="Shape_2_" class="st0" d="M19.3,9.3c5.2,0.7,4.8,7,0.8,6.4c-2.5-0.4-4.3-5.9-4.7-7.7C15.4,8,19.3,9.3,19.3,9.3z"/>
		<path id="Shape_3_" class="st0" d="M19.8,14.1c0.4-0.8,7-11.9,5-12.3c-0.9-0.2-2.2-0.1-4.4,1.1c-1.5,0.8-3.4,2.2-5,4.2
			C14.4,8.3,20.4,13.9,19.8,14.1z"/>
	</g>
	<g>
		<path class="st1" d="M52.7,23.8l-3.5,3.6v4.8h-2.5V8.9h2.5v15.4l8.5-8.6h2.9l-6.2,6.4l6.9,10.2h-2.9L52.7,23.8z"/>
		<path class="st1" d="M79.1,23.9c0,4.9-3.5,8.4-8.4,8.4c-4.9,0-8.4-3.5-8.4-8.4c0-4.9,3.5-8.3,8.4-8.3C75.6,15.6,79.1,19,79.1,23.9
			z M64.7,24c0,3.7,2.5,6.2,6,6.2c3.5,0,6-2.5,6-6.2c0-3.7-2.5-6.2-6-6.2C67.2,17.8,64.7,20.3,64.7,24z"/>
		<path class="st1" d="M98.6,22.1v10.2h-2.5v-9.6c0-3-1.8-4.7-4.7-4.7c-3.3,0-5.3,2.2-5.6,5.4v8.9h-2.5V15.7h2.5v3.7
			c1.2-2.5,3.4-3.7,6.4-3.7C96.3,15.6,98.6,18,98.6,22.1z"/>
		<path class="st1" d="M108.4,17.6c-1.9,0-3.3,0.7-3.3,2.2c0,3.7,9.3,1.8,9.3,7.8c0,3.2-2.9,4.7-6.1,4.7c-2.4,0-4.8-0.8-6.4-2.3
			l0.9-1.8c1.4,1.3,3.6,2.1,5.5,2.1c1.9,0,3.5-0.8,3.6-2.4c0.1-4-9.2-2-9.2-7.8c0-3.2,2.7-4.5,5.8-4.5c2,0,3.9,0.6,5.3,1.5l-0.9,1.9
			C111.6,18.1,109.9,17.6,108.4,17.6z"/>
		<path class="st1" d="M121.2,10.9c0,0.9-0.7,1.7-1.6,1.7c-0.9,0-1.6-0.7-1.6-1.7c0-1,0.7-1.7,1.6-1.7
			C120.5,9.3,121.2,10,121.2,10.9z M120.9,15.7v16.6h-2.4V15.7H120.9z"/>
		<path class="st1" d="M129.5,8.9v23.4H127V8.9H129.5z"/>
		<path class="st1" d="M149.9,24.9h-13.5c0.4,3.3,2.8,5.4,6,5.4c2,0,3.8-0.8,5.1-2.1l1.4,1.4c-1.6,1.7-3.9,2.7-6.7,2.7
			c-4.9,0-8.3-3.4-8.3-8.4s3.4-8.3,8.2-8.4C147.5,15.6,150.2,19.3,149.9,24.9z M147.7,22.9c-0.2-3.2-2.3-5.3-5.5-5.3
			c-3.2,0-5.4,2.1-5.8,5.3H147.7z"/>
		<path class="st1" d="M169.3,23.9c0,4.9-3.5,8.4-8.4,8.4c-4.9,0-8.4-3.5-8.4-8.4c0-4.9,3.5-8.3,8.4-8.3
			C165.8,15.6,169.3,19,169.3,23.9z M155,24c0,3.7,2.5,6.2,6,6.2c3.5,0,6-2.5,6-6.2c0-3.7-2.5-6.2-6-6.2C157.4,17.8,155,20.3,155,24
			z"/>
	</g>
</g>
</svg>
